<svg id="Layer_1" data-name="Layer 1" xmlns="http://www.w3.org/2000/svg" viewBox="0 0 2000 97.1"><defs><style>.cls-1{fill:#fff;fill-rule:evenodd;}</style></defs><title>AIR-2020-paper</title><path class="cls-1" d="M-8.7,30.2c-16.2-6.2,29.8-8.1,34.2-1.3.7,1.1,3-.1,4.6-.6a25.1,25.1,0,0,1,13.6-.7C50.1,28.8,57,24,63.8,21.7c-.4,1.5-.8,3.3-1.7,7l19.5-7.3c-.5,1.8-.9,3.5-1.9,7.4l20.1-7.9c.2,1.8.5,3.7.9,6.6l12.9-7.7c-8.4-7-14.2-15-22.7-9.7,2.3-7.2,6-7.8,9.9-7.8,17.3-.1,34.6-.3,51.8-.1,14.8.2,29.6,1.3,44.3,1.3s29.5-1.2,44.3-1.2,28.9.9,43.3,1c8.5.1,17-.4,25.5-.6s15-.5,22.6-.3c14.4.3,28.9,1.2,43.3,1.2s28.9-1.3,43.3-1.3,29.5,1,44.3,1.2c8.5.1,17-.8,25.4-1.1s13.9-.3,20.8-.1c14.4.3,28.9,1.2,43.3,1.2s28.9-1,43.3-1.1c8.5-.1,17,.8,25.5.8s17.5-.4,26.3-.6c7.3-.1,14.5-.5,21.7-.3,14.4.3,28.9,1.2,43.3,1.2s28.9-1,43.4-1.1c8.4-.1,16.9.8,25.4.8s17.6-.3,26.4-.6c6.6-.1,13.2-.5,19.7-.3,14.5.2,28.9.9,43.4,1,8.8.1,17.6-.6,26.4-.8,6.9-.2,13.8-.4,20.7-.3,20.7.4,41.4,1.3,62.2,1.3s40.8-1.1,61.2-1.2c14.4-.1,28.9,1,43.3,1.1s29.5-.8,44.3-1c8.2-.1,16.3.5,24.5.6l27.3-.2c7.5-.1,15.1-.6,22.6-.5,14.5.3,28.9,1.3,43.4,1.3s28.8-1.2,43.3-1.3,28.9.9,43.3,1c8.8.1,17.6-.6,26.4-.8,6.9-.2,13.8-.4,20.7-.2,14.5.3,28.9,1.1,43.4,1.2s28.8-.9,43.3-1.1c8.1-.1,16.3.5,24.5.6s18.2-.1,27.3-.3c7.5-.1,15.1-.5,22.6-.3,14.5.2,28.9,1.1,43.3,1.1s28.9-1.2,43.4-1.2,28.9.9,43.3,1c8.8.1,17.6-.6,26.4-.8,6.9-.2,13.8-.4,20.7-.3,14.5.4,28.9,1.3,43.3,1.3s28.9-.9,43.4-1.1c8.4-.1,16.9.8,25.4.8s17.6-.3,26.4-.5c7.2-.2,14.4-.6,21.6-.4,14.5.3,28.9,1.2,43.4,1.2s28.9-1,43.3-1.1c8.5-.1,17,.8,25.4.9s18.2-.2,27.3-.7c4.9-.3,10.6,1.6,16.4,6.9l-4.9,5.9c1.4,1,2.7,2.9,3.2,2.4a77.5,77.5,0,0,0,7.2-7.6l8.7,9.6-5.6,19.7-6.6-4.1c5.1,15.9,1.7,24.5-8.9,26.8-15.6,3.3-31.1,7.7-46.7,11.7A12.3,12.3,0,0,0,1977,76c-18.9,15-39.2,13.7-59.3,13.8-33.1.2-66.3.4-99.4.4l-95.6-.2c-27.2-.1-54.3.1-81.4.1l-96.6-.2h-374l-99.4.3L975.7,90H716.3l-96.5-.2-81.4.2-96.6-.2-81.4.2-96.6-.2H85.8c-26.2-.1-52.4-.8-78.5.1C-28,90.2-16.2,32.1-8.7,30.2Z"/></svg>