<svg id="Layer_1" data-name="Layer 1" xmlns="http://www.w3.org/2000/svg" viewBox="0 0 2000 110.4"><defs><style>.cls-1{fill:#fff;fill-rule:evenodd;}</style></defs><title>AIR-2020-paper</title><path class="cls-1" d="M788.6,93.8l-4.8,5.8c-4.4-.2-7.6-.4-10.9-.4s-5.9-.1-8.8,0l-17.5,1.2c-5.6.3-11.8,2-16.5.5-9.6-3.2-18.5-.8-27.5.3-7.3,1-32.4,7.7-69.7,5.5-16.8-.9-33.6-1.2-50.3-2.1-4.8-.2-9.5-1.6-14.3-2.1l-54.6-4.9a25,25,0,0,0-6.7,0c-15.5,2.9-30.3-.3-45.1-3.3-1.8-.3-4-.8-5.5-.3-7.8,2.7-15.4.6-23.1-.3-5.8-.7-11.7-.8-17.6-1.1s-10.9-.9-16.4-.8c-3.6,0-7.3.8-11.2,1.3-6.7-5.7-15.3-7.3-24.8-3.6-8,3.2-16.2,4.1-25,3.9-11.5-.3-23-.3-34.5-.1a20.3,20.3,0,0,0-8.4,2c-7.8,3.7-14.4,3.6-21-2-4.6-3.9-15.4-3.9-21.4-1.1s-14.5.4-21.7-.1c-3.6-.2-7.2-1.6-10.8-2.1s-6-1.1-7.7-.1c-13.1,7.2-27.8,1.9-41.7,3.8s-30.3-1.3-45.5-1.5C112,92,98.3,93,84.7,93.3a34.9,34.9,0,0,1-8.6-.7c-7.1-1.6-14-2.4-19.4,1-4.5-1-8.1-2-11.7-2.5s-7.4-.3-11.1-.5-6.4-1.3-8.9-.4c-10.7,3.7-20.3-.7-30.4-2.1-4.3-.7-8.8-1.3-13.2-1.6-7-.5-9.4-1.8-10.5-7.5a21.2,21.2,0,0,1,.4-10.9c3.2-8.9.3-16.8-3.8-24.9-2.3-4.8-7.8-9.1-4.7-15.4a8.9,8.9,0,0,1,2.6-1.1A98.7,98.7,0,0,0-3.1,18.2c4.1-1.8,9.4-1.7,14.2-2.3s8-.8,12.3-1.2V8.4c4.1.2,7.8-.1,11.3.6a100.5,100.5,0,0,0,30,1.9c4.7-.4,9.6.5,14.4.3s11-.8,16.5-1.3,11-1.8,16.5-1.8c20.2.3,40.3,1.3,60.4,1.5,12.7.2,25.4-.7,38.1-1.1,1.5,0,3.6.2,4.4-.5,7.1-5.9,16-3.9,24.3-3.8,44.9,1,89.7,2.6,134.6,3,31.4.3,62.8-.9,94.2-1.3L611.7,4.3C664.8,3.8,718,3.1,771,2.8c46.8-.3,1221.2,7.7,1229,7.9,44.5.8,30.1,36,30.1,36s-24.1,41.1-25.3,42.4c-3.1,3.4-6.3,3.1-10.7,2.1-6.6-1.5-11.3,1.1-13.7,6.5-5.4,12.3-183.5-1.6-188.2-2.8-6.2,7.5-20.9,13.3-34.6,8-4.3-1.6-9.4-1.8-14-3.1-19.8-5.5-24.9-6.2-43.7-5.1a54.2,54.2,0,0,0-5.5.9c3,2.1-11,2.4-14,1.6L1666.5,94a42.8,42.8,0,0,0-8.7-.9c-16.8.2-33.6,1.4-50-3-6.6-1.8-13.7-2.6-20.6-3.4-3.7-.5-7.9-1.1-11.1-.1-8.2,2.7-15.9,1.1-22.8-1.7-11-4.3-19.8-.1-28,4.1-5.2,2.6-9.6,3.8-15.5,3s-12.7-.6-18.9-1.2a42.5,42.5,0,0,1-10.8-2.5c-5.8-2.5-11.1-3-16.8.1a12,12,0,0,1-6.5,1.2c-10.8-1.6-21.3.7-32,1.3s-19.9-1.9-29.9-2.7c-5.5-.5-11.2-3-16.5,1.7-1.7,1.5-8,1.4-10.4,0-6-3.5-11.9-2.6-18.5-1.7.4,1.4.7,2.7,1.1,3.9a135,135,0,0,1-37.5-2.6c-13.6-2.6-28.2-1.8-42.3-2.4-4.8-.2-9.6,0-15.8,0l4.8-1.9a5.7,5.7,0,0,1-1.1-1.1c-1.5,0-3.2-.3-4.5.1-23.1,6.9-46.2,3.2-69.4.3a58.8,58.8,0,0,0-11.1,0c-10.6.6-21.4,3.4-31.1-3a8.7,8.7,0,0,0-4.3-.7c-7.3.3-14.1,2.6-22,.6-6.4-1.7-14-.4-21.7-.4-1.1,6.2-5.4,6.7-12.1,5.8a269.4,269.4,0,0,0-31.2-2.1c-4.1,0-8.2,1.7-11.1,2.4-6.9-1.1-12.8-2.6-18.9-2.9-19.8-.7-39.6-1-59.4-1.5H950.4l8.7,5.7L954,93.9c-1.4,0-2.4.3-2.9,0-10.3-6.5-22.4-5.2-34.1-5.4-4.8-.1-9.9,1.5-12.6-3.4-5.3.7-12.6-.1-15.3,2.5s-5.4,3.2-9,3.3c-1.5.1-3.3-.1-4.4.5-9.9,5.2-20.1,2.8-30.5,1.2-17.5-2.7-34.9.1-52.3,1.1l-4.5.3-12.3-1.3v2.6Zm542.7-6.5a7.3,7.3,0,0,0,.2,1.5h8.2v-1Zm-639.1,8a16.2,16.2,0,0,0-1.9,3.1c-.1.1,1.2,1,1.5.8a25.9,25.9,0,0,0,3.1-1.9ZM936.9,83.4c-.6-.2-1.5-.7-1.8-.6s-1,1.1-1.4,1.6a4.7,4.7,0,0,0,2,.2C936.2,84.5,936.5,83.8,936.9,83.4ZM603.7,98.2V97.1h-7.6v1.1Z"/></svg>