<svg id="Layer_1" data-name="Layer 1" xmlns="http://www.w3.org/2000/svg" viewBox="0 0 2000 76.3"><defs><style>.cls-1{fill:#fff;fill-rule:evenodd;}</style></defs><title>AIR-2020-paper</title><path class="cls-1" d="M960.6,66.6C947.9,61.2,937,61,928.8,70c-7-1.6-12.6-3.6-20.1-.5-5.2,2.2-12.9-.2-18.2-4-5.8,1.6-12.6,5.3-17.6,4.5-10.6-1.8-19,2.3-28.5,2.2-12.1,0-24.2.9-36.1.1s-21.4-2.8-31.8-4.9c-12-2.5-23.5-5.7-35.3-8.5a38.1,38.1,0,0,0-6.8-.2c-13.4,0-26.7,1-40.1-2.3-7.7-1.9-17.1-1.1-25.7-.9-2.4.1-4.6,2.5-7,3.8a8.1,8.1,0,0,1-2.2,0c-12.7-3.8-26-1.3-39-1.2-6.4.1-14.9-.3-18.7,2.1-8.2,5.2-18.7,7.2-28.1,7.9-13.5,1-28.1,1.3-41.6-2.7a27.5,27.5,0,0,0-8.7-.6c-4.2.2-8.3,1.2-12.4,1.3-7.7,0-15.3-1.2-22.8,1.8-2.7,1.1-7.7.2-11.5-.3-6.5-.7-11.6,1.3-17.4,2.4-10.1,2-21.1,3.3-31.3-.8a28.5,28.5,0,0,0-8.1-2.1c-10.5-.5-21.1-.5-31.6-.9-5.1-.2-10.1-.8-15.1-1.3s-10.3,1.8-16.6-.3-12.2-.6-18.5-.8a191.1,191.1,0,0,1-38-5.1,194.4,194.4,0,0,0-55.3-4.9c-23,1.4-46.2.7-69.4.8s-44.4-3-66.4-5.8c-7.3-.9-14.8-1.5-22.1-2.2S9.9,54.2.1,51.2C-7.1,49-6.2,1.9-3.7,1.9c59-.3,1960.1-.4,2003.8-.3V61c-22.7,1.1-210.7-12.5-216.9-11.8-34,3.9-68.2,7.3-102.2,11.5-25.8,3.3-51.2,7.9-77.1,10.9a331.4,331.4,0,0,1-44.6,2c-25.6-.4-51.1-1.6-76.6-2.7-7.7-.4-15.5-1.7-23.1-2.8-11.5-1.6-23-3.4-34.4-5.2H1424a213.8,213.8,0,0,1-32-.7c-3.6-.4-8,2.1-13,3.6l-41-5.8-4.6,2.7c-7.3-.8-13.5-1.6-19.7-2.1-3.4-.2-6.9.5-10.2.2-10-1.1-19.8-3.1-29.8-3.6-7.2-.4-11.7-1.7-12.7-6.8h-10.3l-21.1-7.8c.3,3.2.4,4.8.6,6.3-4.3,1.3-7.8-5.1-11.9,0l8.3,4.8c-10.6-1.2-10.6-1.2-19.5,1.8l5.2,2.8c-8.1,5.6-12.6,5.3-19.9-1.5l-4.7,6-10.8-6.8c-1.8,3.6,3,7.2-3,8.4s-9-.2-13-3.1-10.2-4.5-17.7-7.6l3.8,6.6-19.9,3.4-17.2-2.9V55.1l-11,9.6c-5.4-.6-10.3-1.5-15.3-1.8-19.1-1.5-38.1-2.9-57.2-4.2-2.9-.2-7,.2-8.7,1.4-6,4.2-14.2,4.7-21.6,5.2s-16.9-.4-24.9-1.8C965.7,62.5,962.3,62.1,960.6,66.6Z"/></svg>