<svg id="Layer_1" data-name="Layer 1" xmlns="http://www.w3.org/2000/svg" viewBox="0 0 2000 91"><defs><style>.cls-1{fill:#fff;fill-rule:evenodd;}</style></defs><title>AIR-2020-paper</title><path class="cls-1" d="M960.6,81.5c-12.7-6.2-23.6-6.4-31.8,3.7-7-1.7-12.6-4.1-20.1-.5-5.2,2.5-12.9-.2-18.2-4.5-5.8,1.8-12.6,6-17.6,5-10.6-2-19,2.6-28.5,2.6-12.1-.1-24.2,1-36.1.1s-21.4-3.2-31.8-5.6c-12-2.8-23.5-6.4-35.3-9.5a30.5,30.5,0,0,0-6.8-.3c-13.4,0-26.7,1.1-40.1-2.6-7.7-2.1-17.1-1.2-25.7-1-2.4.1-4.6,2.8-7,4.3a8.1,8.1,0,0,1-2.2,0c-12.7-4.3-26-1.5-39-1.3-6.4.1-14.9-.4-18.7,2.3-8.2,5.9-18.7,8.1-28.1,8.9-13.5,1.1-28.1,1.5-41.6-3-2.5-.9-5.8-.9-8.7-.7s-8.3,1.4-12.4,1.4c-7.7.1-15.3-1.3-22.8,2.1-2.7,1.2-7.7.2-11.5-.3-6.5-.9-11.6,1.4-17.4,2.7-10.1,2.3-21.1,3.6-31.3-.9a26,26,0,0,0-8.1-2.4c-10.5-.6-21.1-.6-31.6-1.1-5.1-.2-10.1-.8-15.1-1.4s-10.3,2.1-16.6-.3-12.2-.7-18.5-.9a166.3,166.3,0,0,1-38-5.8A175,175,0,0,0,244.7,67c-23,1.5-46.2.8-69.4.9s-44.4-3.4-66.4-6.5c-7.3-1.1-14.8-1.7-22.1-2.6S79.3,57.6,71,51c-2.5-1.9-7.8-2.3-12-2.9s-10.9-.9-16.4-1.2C32,46.4,9.9,67.4.1,64-7.1,61.6-6.2,9.6-3.7,9.6c59-.4,70.2-1.6,129.2-2,25.2-.1,50.4-1,75.5-.5s51,2.5,76.5,3.3c22,.7,44,.7,66,1h19.9c7.5.1,15,.2,22.5.1l57.7-1.1L575.8,8.1q25.4-.4,50.7-1.2c38.9-1.1,77.7-2.2,116.6-3.6,31.2-1.2,62.1-.3,92.5,5.6,5.9,1.1,12.5.3,18.7.8,13.3,1.1,26.6,2.1,39.7,3.9s28-.5,41.9-2.2c10.1-1.2,20.2-2.6,30.4-2.6,46.8,0,93.6.6,140.4.5,20.4-.1,40.8-1.5,61.2-2.3l45.9-1.9c24.3-1.2,48.6-3,72.9-3.4,16.8-.4,33.7.9,50.5,1.9q39.5,2.2,78.7,5c20.3,1.4,40.7,2.8,60.9,4.8a664.4,664.4,0,0,0,82.3,2.3c20-.7,40.1-.2,60.2-.2,25.9,0,51.9,0,77.9.2,13.4.1,26.7,1.2,40,1.1,16.1-.2,32.2-1.5,48.3-1.6,27.9-.4,55.8-.2,83.7-.2,43.6,0,87.2-8.2,130.9-8.1-.1-8.4,12.2,67.6,0,68.2-22.7,1.3-210.7-14.1-216.9-13.4-34,4.4-68.2,8.3-102.2,13.1-25.8,3.6-51.2,8.9-77.1,12.3a301.6,301.6,0,0,1-44.6,2.2c-25.6-.4-51.1-1.7-76.6-3.1-7.7-.4-15.5-1.9-23.1-3.1-11.5-1.8-23-3.9-34.4-5.8l-1.2-.2a180.2,180.2,0,0,1-32-.8c-3.6-.4-8,2.4-13,4.1l-41-6.6-4.6,3.1c-7.3-.9-13.5-1.8-19.7-2.3-3.4-.3-6.9.6-10.2.1-10-1.2-19.8-3.4-29.8-4-7.2-.4-11.7-1.9-12.7-7.7h-10.3l-21.1-8.8c.3,3.7.4,5.4.6,7.2-4.3,1.4-7.8-5.8-11.9,0l8.3,5.4c-10.6-1.4-10.6-1.4-19.5,1.9l5.2,3.2c-8.1,6.3-12.6,6.1-19.9-1.7l-4.7,6.8-10.8-7.6c-1.8,4,3,8.1-3,9.4s-9-.1-13-3.5-10.2-5.1-17.7-8.6l3.8,7.5-19.9,3.9-17.2-3.3V68.5l-11,10.8c-5.4-.7-10.3-1.7-15.3-2.1-19.1-1.7-38.1-3.3-57.2-4.7-2.9-.2-7,.2-8.7,1.5-6,4.8-14.2,5.4-21.6,5.9a86.8,86.8,0,0,1-24.9-2C965.7,76.8,962.3,76.4,960.6,81.5Z"/></svg>