<svg id="Layer_1" data-name="Layer 1" xmlns="http://www.w3.org/2000/svg" viewBox="0 0 1000 130.4"><defs><style>.cls-1{fill:#00abc8;fill-rule:evenodd;}</style></defs><title>AS-paper-header</title><path class="cls-1" d="M827.2,116c-5.5,0-11,1.4-16.5.4a13.7,13.7,0,0,0-4.9.5c-8.3,2.1-17.1.9-25.4,2.6a32,32,0,0,1-4.4.1c-4.3.3-8.6.8-12.9.8-8.1,0-16.2,1.6-24.3.1a24.1,24.1,0,0,0-3.8,0l-30.3,1.9-31.4,1.7c-12.9.7-25.7,1.5-38.6,2q-25.5.9-51,1.2c-15.2.2-30.4-.1-45.6-.1-24.1-.1-48.2.1-72.3,0-27.7,0-55.5,0-83.2-.3q-37.5-.5-75-1.5c-24.2-.6-48.5-1.8-72.7-2.4-15-.4-30.1-.2-45.1.2-17.4.4-34.7,1.7-52,2-10.7.2-21.4-.5-32-1-5.6-.3-11.1-1.1-16.6-1.7a7.2,7.2,0,0,0-2.1.1c-7.1,2-12.2-1.2-17.1-5a7.7,7.7,0,0,0-3.2-1.7c-6-.8-11.8-2.7-18.1-2.5-11.4.5-22.8.4-34.2.2a62.2,62.2,0,0,1-11.2-1.8c-.7-.2-1.2-1.3-1.9-1.9.9-.5,1.6-1.3,2.5-1.4a7.4,7.4,0,0,1,3.3.3c3.6.8,7.3,1.6,11-.1.9-.4,2.2,0,3.2.1,3.8.2,9.4-5.4,10.1-5.6,3.4-1.1-10.1-29.7-16.6-33.2a4.3,4.3,0,0,1-2.6-3.4c-.5-3.5.3-6.4,3.3-8.8s6.2-5.1,10.5-5.9c.4,0,.9,0,1.1-.3,3.9-5.3,11-5.1,16.4-8s11.3-4.4,17.1-6.1,14-3.6,21.4-2.9a9.3,9.3,0,0,0,4.5-1.1,24.3,24.3,0,0,1,12.8-2.7c3,.3,6.1-.6,9.2-1s4.4-1.1,6.4-.7c6,1.2,12.1.6,18.2,1l18.1,1.4a12.6,12.6,0,0,1,2.7.4c10.4,3.1,21,2.2,31.6,1.4l6.8-.6.3-1-10.1-4.1,2.8-1c-.4-1.5-.8-2.8-1.2-4.5,11.6-4.1,23.7-3.5,35.6-4.6l-17-1.9a4.3,4.3,0,0,0,.1-.5l18.2-.5c3.9-.1,8,.1,11.8-.6a105.1,105.1,0,0,1,19.4-1.6q97.9-2,195.7-4.1c22.5-.5,44.9-1.8,67.4-2.5,9.7-.3,19.5.2,29.3-.1,20.6-.6,41.3-1.5,61.9-2.3a222.8,222.8,0,0,1,27.1.1c8.7.6,17.4-.1,26.1-.1s17.1-.2,25.6.1,19.8,1.2,29.7,1.7c4.7.2,9.4.1,14.1.2s10.6.1,15.7.7,7.9,2,11.8,3a14.8,14.8,0,0,0,3.6,1c12.5,1.2,25.1,2.2,38,3.3l-1.2,2.9,50.1,1.5-7.4,1L864,20.2c-.1.6-.3,1.1-.6,2.3,29.2.3,58.1-2.8,87.4-2.7l-1.7,1.9,9.3.2a.6.6,0,0,1,.1.4l-6.8.2-9.7.8a55.8,55.8,0,0,1-7,.4c-4.5-.2,10.2,14,34.1,13.7,9.8-.1,19.6.3,29.5,1l-14,1.8,8.3.8c-4.8,2.2-9.7,1.3-14.5,1.6s-9.7.3-14.7,1.2l4.3.6c-.1.2-.1.6-.2.7s-2.5.8-3.7.6c-14.6-1.9-29.2-.3-43.8.8l-1.6.2c-5.6,1.8,25.5,15.4,38.9,15.1.2.9.5,2.1.7,3.2,4.3.9,9.2-1.1,13.1,2.2l-1.5.8c-1.3.6-3.9.4-3.1,2.5A5.5,5.5,0,0,0,971,74c4.3.5,8.6,1,12.9,1.3,2,.2,3.6.3,3.8,2.7l-8.4,2.1,4,1.6-15,2.1,1.8,2.6-23.8,1.2a4.3,4.3,0,0,1-.2,1.1l5.5,3.3a9.6,9.6,0,0,1-1.5.9c-12.3,1.8-24.2,4.8-36.8,5.3-9.8.4-19.6,3.3-29.2,5.3-2.4.4-5.1,1.3-4.9,4.4,0,.6-1.1,1.3-1.8,1.7l-7.9,3.1c-2.5,1-4.8,2.3-7.4,2.8s-5.7.4-8.6.6a30.4,30.4,0,0,0-5.2.4c-4.8,1.2-5.5,1-7.9-3l-6.5,1.4c-2.3.5-4.6.8-6.9,1.2Zm74.9-87.8v.3H905v-.3Z"/></svg>