<svg id="Layer_1" data-name="Layer 1" xmlns="http://www.w3.org/2000/svg" viewBox="0 0 1000 179.1"><defs><style>.cls-1{fill:#00abc8;fill-rule:evenodd;}</style></defs><title>AS-paper-header</title><path class="cls-1" d="M825.9,163c-6.7,1.5-13.2-2.4-19.6-8.2s-11.9-9.4-17.4-16.8-12.4-6-19.8-4.7c1.8,4.3,2.8,6.8,3.8,9.3,0,6-3.7,8.5-8.9,5.2l3.2-4.7c-.3-1.1-.6-2.8-.9-3-5.3-3.7-10.4-9.9-16-8.4-9.1,2.4-18.1-2.5-27-8.6-2.5-1.8-5.3.1-7.9-.3s-4.6-.4-6.8-2.3-5-3.2-7.7-1.7-5.2,1.1-8.6,1.7c1.2,2.1,1.9,3.3,3.1,5.2-1.4,1.8-2.3,4.1-3.3,4.2-5.7.5-11.5,2.6-17.1-5.1-2.5-3.4-4.7-5.3-7.3.1-1.4,2.9-4.1,1.9-6.2,1.6s-6.1-.9-9.2,2.6-4.8,1.6-7.2,1-6.6-3.3-9.9-4.2-4.2.6-6.3.9-3.1,1.8-4.3.3c-3-3.8-5.8-2.1-8.1,1.5-3.6,5.5-7.2,5.3-11,2.2-7.5-6.1-15.1-5.4-22.7-4.8-.1,0-.3-.1-.4.1-2.5,3.7-4.9-5.6-7.8-.4-1.9,3.4-5.1,1.1-7.8,1.5s-5.6,1.9-8.3,1.1c-4.6-1.2-9.2-3.9-13.8-5.9-1.3-.6-2.7-1.7-3.8-.8-5.3,3.9-10.4,3.3-15.5-3.4-.1-.2-.3-.4-.4-.4H508.2c-.3.1-.8.3-.9.8-3.2,13.3-8,7.6-12.4,6.8s-7.6-1.9-11.4-2c-1.2-.1-2.4,2.8-3.2,3.7-3.2-1.2-6.3-3-9.3-3.3-8.3-1-16.5-1.3-24.8-1.9-1.4-.1-2.9.1-4.3.1l-.6,2.9,3.6,4.5-.6,3a25.7,25.7,0,0,1-4.8,0,150.4,150.4,0,0,1-15.8-2.9c-1.3-.3-2.6-2.8-3.7-6.2-.4-.1-.8-.6-1-.2-3.3,6.9-6.9,11.6-11.2,10.6-4,9.9-8.7,3.6-13.2,3.2s-10.1.4-15.2.5-10.5.2-16.1.3c-.2,2.7-.6,6.6-1,12.1l-5.7-9.5c-4.2,9.9-9.5,11.2-15.4,8.8-2.9-1.1-5.9.8-8.8,1.6-.6.1-1.2,1.3-1.8,2s.4,1.9.7,2.9,1.6,2.5,2.5,2.7c6.1,1.7,12.2,3,18.3,4.5l15.3,3.8c7.2,1.7,14.3,3,21.4,4.8a74.8,74.8,0,0,1,8.3,2.9c0,1-.1,2-.1,3l-23.9-3.7c-7.8-1.3-15.6-2.2-23.3-3.8-9.6-1.9-19.2-4.5-28.8-6.4-7.8-1.5-15.6-1.9-23.4-3.6-12.7-2.8-25.4-6.5-38.1-9.1-7.3-1.4-14.6-1.1-21.8-2.2-3.8-.6-7.6-2.7-11.4-3.7a31.3,31.3,0,0,0-6.8-.6c-1-.1-2.1.6-3,0-6.8-5.1-13.7-3.8-20.6-4.8-3-.4-6.1-3.8-9.2-4.3-1.3-.3-4.2-4.8-4.1,5.1,0,.2-1.2.3-1.8.4-5,1.1-9.9,2.2-14.8,3.1a20.1,20.1,0,0,1-4.9-.1c-4.3-.2-8.6-1.1-12.6,4.5-2.3,3.2-4.7,2-6.8-4.1s-5.9-7-8.4-2.2c-.8,1.5-1.8,3-2.7,2.8-2.9-.7-5.8-2.8-8.7-3.3s-8.7-2.2-12.8-.7c-6.7,2.4-13.1,5.7-20,4.2-10.7-2.3-21.4-4-32,.4-2.1.9-4.4-2-6.6-3.3-.7-.4-1.5-2-1.9-1.4-3.5,6.1-7.4.4-11,1.3s-7.6.5-11.4-.2-4.9-2-7.4-3.2-4.5-2.7-6.8-3.7-5.1-5.1-5.3-15.1a74.1,74.1,0,0,1,.2-9.5c1.6-15.7-.3-29.6-3-43.6C2.8,60.8.8,54.9,2.7,46.1c5.6-.4,10.8-7.6,16-14.7,1.4-1.9,3.2-1.1,4.8-1.7s3.5-1.5,5.4-2.2l-.7-7.2c.3-.5.6-1.3.9-1.3l4.9.5c3.4.3,6.9.5,10.3.9s4.5,1,6.8,1.2,5.2,2.5,7.3.2c7.1-8,14.7-7.1,22-4.8s14.2,1.4,21.3,1c2.8-.1,5.6-.4,8.4-.7,1-.1,2.4.7,2.9-.8,3.8-11.5,8.9-6.8,13.5-6.6,12.5.7,25.2,3.5,37.7,3.4,18.7,0,37.4-2,56.1-2.9,25.8-1.2,51.6-2,77.4-3.4s50.2-3.4,75.4-4.6c15.3-.7,30.7-.6,46.1-.5a15,15,0,0,1,9.5,3.8l-46.2.9a20.9,20.9,0,0,1-.1,2.5c.8.9,1.6,2.2,2.3,2.5a11,11,0,0,0,3.5.5c20.2.7,40.4,1,60.6,2.2,18.6,1.1,37.1,3.2,55.7,4.7,12,.9,24.1,1.3,36.2,2.4,10.3.8,20.5,2.2,30.8,3.4,3,.3,6,.6,8.9.7,19.9,1,39.8,3.2,59.7,2.7,14.7-.4,29.4,3.5,44.1,3.1,25.9-.5,51.9-1.3,77.9-1,11.9.1,23.8,2.9,35.7,3.5s24.9,0,37.3-.4c8.7-.3,17.5-1.5,26.2-1.8,2.3,0,4.6,1.6,7.3,2.6l-3.5,3c5.8-.1,10.9-1.1,15.9,0s10.1,4.1,13.9,5.7l-8,1.4v1.6a23.4,23.4,0,0,0,4.1,1.2c15.6.8,31.2,1.6,46.7,2.2,5.1.3,10.3-.2,15.4.3,2.3.2,4.5,2.3,6.8,2.8a88.8,88.8,0,0,0,14.4,1.9c7.9.2,15.8-.2,23.8,1.8L917.3,60v2.9c4.9.9,9.8,2,14.7,2.6,3.3.4,6.6-.1,9.9.2s3.8-1.7,5.4,3.8c.7,2,2.6,1.2,3.9,1.3L973,73.2c1.5.2,2.9,1.6,4.3,4.1-10.2,1.1-20.5,1.8-30.7,3.3s-18.4,3.3-27.6,5.2c-1.7.4-3.3,1.4-4.6,6.1-.8,2.9-2.9,3-4.5,4.1a65.4,65.4,0,0,1-6,3.2c2.9,9.8,9,2.9,9.8,19.4a26.1,26.1,0,0,1-3,2c-1.4.6-2.9-.8-3.4,4.9-.1,1.1-2.1,1.7-3.1,1.2-5.6-3-5.9-2.6-7.8,13-1.6,13.1-5.9,19.9-10.7,16.9-7.7-4.8-15.4-5.4-23-1.2-.5.3-1.2.5-1.4,1.3-1.5,9.1-5.7,6.5-7.9,14-1.4,5.3-7.6,1.3-9.8-6.6-2.9-10.4-6.3-13.7-10.7-14.7s-9.6-3.3-13.8-11.3c-1.3-2.5-3.2-3.5-4.8-3.6s-2.4,2.5-2.6,4.5.4,7.6,1.2,9.2c3.9,7.7,8.1,13.4,12.9,15ZM327.5,145.1c-2.5,2-4.6,5.8-6,4.2-3.3-3.6-5.9-3.5-8.9.9-1,1.4-2.5,0-3.8.1a10.9,10.9,0,0,0-2.5,1,17.7,17.7,0,0,1,.1,2.3l21.4,5.7Zm-43,2.9h4C288.5,147.5,284.5,147.6,284.5,148Zm324.8-21.7c.1.9.1,1.4.2,2.2l2.7-.4v-1.5ZM718.7,34.4v.3h1.7v-.4Z"/></svg>