<?xml version="1.0" encoding="utf-8"?>
<!-- Generator: Adobe Illustrator 23.0.2, SVG Export Plug-In . SVG Version: 6.00 Build 0)  -->
<svg version="1.1" id="Layer_1" xmlns="http://www.w3.org/2000/svg" xmlns:xlink="http://www.w3.org/1999/xlink" x="0px" y="0px"
	 viewBox="0 0 250 250" style="enable-background:new 0 0 250 250;" xml:space="preserve">
<g id="submit_event">
	<path id="type23" style="fill-rule:evenodd;clip-rule:evenodd;fill:#231F20;" d="M103.7,197.5c4.1-1.5,7.7-0.8,11.1-0.3
		c4.5,0.6,9,0.8,13.5,0.6c9.1-0.6,18.1-0.5,27.2,0.3c3.4,0.2,6.9,0.2,10.3,0.1c1.9,0,3.9,0.3,5.7,1c-3.2,1.5-6.2,1.1-9.2,0.9
		c-10.8-0.6-21.5-0.7-32.3-0.2c-8.3,0.3-16.7,0.5-24.8-1.8C104.7,198,104.2,197.8,103.7,197.5z"/>
	<path id="type22" style="fill-rule:evenodd;clip-rule:evenodd;fill:#231F20;" d="M103,158.4c2.2-0.8,4.1-0.4,6-0.4
		c12.2,0.4,24.5,0.1,36.7-0.4c7.1-0.3,14.2,0.8,21.3,0.4c0.3,0,0.6,0.3,0.9,0.4c0.2,0.9-0.5,0.9-0.9,0.9c-11,0-22.1-0.1-33.1,0
		c-6.6,0.1-13.2,0.4-19.8,0.6c-3.1,0.1-6.1,0-9.2-0.3C104.1,159.5,103.4,159.1,103,158.4z"/>
	<path id="type21" style="fill-rule:evenodd;clip-rule:evenodd;fill:#231F20;" d="M164.8,180.1c-0.4,0.2-0.8,0.3-1.2,0.4
		c-4.2-0.1-8.3-0.2-12.5-0.4c-5-0.2-10-0.6-15-0.8c-8.4-0.3-16.9,0.5-25.3,0c-1.5,0.1-2.9,0.2-4.4,0.4c-1,0.1-2.3,0.2-2.3-1.1
		s1.2-0.9,2-0.9c6.7,0,13.5,0,20.2,0c5.6,0,11.3,0,16.9,0.2c6.4,0.2,12.7,0.7,19.1,1.1C163.1,179.1,164.1,178.8,164.8,180.1z"/>
	<path id="type20" style="fill-rule:evenodd;clip-rule:evenodd;fill:#231F20;" d="M126,67.4c3.5-0.6,7.1-0.6,10.6,0.1
		c3.8,0.5,7.6,0.7,11.4,0.4c5.4-0.2,10.8,0,16.1,0.5c1.6,0.1,3.2,0,4.8,0.1c0.5,0,1,0.2,1,0.8c0.1,0.5-0.3,1.1-0.8,1.2
		c-0.1,0-0.2,0-0.3,0c-2.1-0.1-4.2-0.1-6.2-0.3c-6.2-0.7-12.5-0.4-18.8-0.3c-2,0.1-3.9,0-5.9-0.3c-3-0.5-6-1.3-9.1-0.6
		C127.9,69.1,126.9,68.9,126,67.4z"/>
	<path id="type-signature" style="fill-rule:evenodd;clip-rule:evenodd;fill:#231F20;" d="M161.9,119.1c-1,0.3-2-0.2-2.4-1.1
		c-1.3-1.9-2.4-1.8-3.3,0.3c-0.7,1.5-1.2,3.2-1.9,4.8c-0.2,0.6-0.4,1.1-0.7,1.7c-0.3,0.4-0.9,0.5-1.3,0.3c-0.5-0.1-0.8-0.5-0.8-1
		c0,0,0-0.1,0-0.1c1.3-3.9,0.3-8.4,3.3-11.8c0.3-0.5,0.7-1,1.2-1.4c0.9-0.6,2-0.5,1.8,0.7c-0.5,2.8,2.3,2.7,3.2,4.1
		c1.5,2.3,3.3,1.6,5.2,1.2c0.8-0.2,1.7-0.4,2.5-0.5c0.6-0.2,1.2,0.2,1.3,0.7c0,0,0,0.1,0,0.1c0.1,0.9-0.3,1.5-1.2,1.4
		C166.5,118.3,164.2,118.5,161.9,119.1z"/>
	<path id="type19" style="fill-rule:evenodd;clip-rule:evenodd;fill:#231F20;" d="M151.8,96.3c-3,0.3-5.5,1-8.2,0.5
		c-4-0.7-8.1,0.5-12.1,0.1c-0.9,0.1-1.7,0-2.5-0.3c-0.5-0.2-0.7-0.7-0.5-1.2c0.1-0.3,0.4-0.6,0.7-0.7c0.3-0.1,0.7-0.2,1.1-0.1
		c6.1,0.2,12.2,0.3,18.4,0.5C149.6,95.1,150.8,95,151.8,96.3z"/>
	<path id="type18" style="fill-rule:evenodd;clip-rule:evenodd;fill:#231F20;" d="M90.1,177.4c0,1.8-1.4,3.2-3.1,3.3
		c-2.2,0-4.4-2.1-4.4-4c0-2.1,1.5-3.3,4.3-3.4C88.7,173.3,90.1,175,90.1,177.4z"/>
	<path id="type17" style="fill-rule:evenodd;clip-rule:evenodd;fill:#231F20;" d="M88.1,195.1c1.1-0.2,2.2,0.5,2.5,1.6
		c0,0,0,0.1,0,0.1c0.4,1.2,0.6,2.4-0.5,3.4c-1.3,1.2-5,1.6-6.6,0.6c-1.3-0.9-1.6-2.7-0.7-3.9c0.3-0.4,0.6-0.7,1-0.9
		C85.2,195.2,86.7,195.5,88.1,195.1z"/>
	<path id="type16" style="fill-rule:evenodd;clip-rule:evenodd;fill:#231F20;" d="M115.2,143.6c-3.3-0.4-6.7-0.8-10.1-0.8
		c-1.3-0.2-2.6-0.5-3.9-1c-0.3-0.1-0.6-0.4-0.7-0.8c0-0.6,0.4-0.8,1-0.8c1.8,0.1,3.7,0.1,5.5,0.3c2.9,0.4,5.8,1.1,8.7,0.7
		c0.5,0,1,0,1.4,0.2c0.8,0.2,1.9,0.3,1.8,1.4c-0.1,0.9-1.1,0.7-1.8,0.7S115.9,143.6,115.2,143.6z"/>
	<path id="type15" style="fill-rule:evenodd;clip-rule:evenodd;fill:#231F20;" d="M88.1,135.9c2,0,3.2,0.9,3.2,2.3
		c0.1,1.9-2.6,4.7-4.5,4.7c-1.6,0-3.5-2.6-3.3-4.6C83.6,137,85.8,135.8,88.1,135.9z"/>
	<path id="type14" style="fill-rule:evenodd;clip-rule:evenodd;fill:#231F20;" d="M91.2,158.6c-0.2,1.8-1.7,3.1-3.4,3.2
		c-1.9,0.1-3.9-2-4-4.1c-0.1-1.7,1.2-3.1,2.8-3.2c0,0,0,0,0,0C88.5,154.4,91.2,156.9,91.2,158.6z"/>
	<path id="type13" style="fill-rule:evenodd;clip-rule:evenodd;fill:#231F20;" d="M102.9,149.6c0.3-1.4,0.9-1.7,1.5-1.7
		c7.3,0.2,14.7-0.1,22,0.7C118.7,149.8,111,149.3,102.9,149.6z"/>
	<path id="type12" style="fill-rule:evenodd;clip-rule:evenodd;fill:#231F20;" d="M156.2,141.7c2.6-0.2,4.9-0.3,7.2-0.5
		c0.7-0.2,1.5-0.1,2.1,0.1c0.5,0.3,1.1,0.6,0.9,1.4c-0.2,0.5-0.7,0.8-1.2,0.6c-4.5-0.9-9,0.4-13.5,0.2c-0.7,0-1.5,0-2.2-0.1
		s-1.2-0.2-1.1-1.1c0.1-0.6,0.6-0.7,1.1-0.7C151.8,141.7,154.2,141.7,156.2,141.7z"/>
	<path id="type11" style="fill-rule:evenodd;clip-rule:evenodd;fill:#231F20;" d="M141.9,80.8c-4.9,0.4-9.8,1.1-14.8,0.8
		c-0.6,0-1.3-0.1-1.3-0.9c0.1-0.4,0.4-0.6,0.7-0.7c5.1-0.1,10.2-0.9,15.2,0.2C141.9,80.2,141.9,80.4,141.9,80.8z"/>
	<path id="type10" style="fill-rule:evenodd;clip-rule:evenodd;fill:#231F20;" d="M118.2,185.6c-4.3,0.7-8.7,0.1-13-0.2
		c-0.6-0.1-1.1-0.6-1-1.3c0,0,0,0,0,0C107,183.6,116.4,184.4,118.2,185.6z"/>
	<path id="type9" style="fill-rule:evenodd;clip-rule:evenodd;fill:#231F20;" d="M133.6,105.8c1.8,0,3.7-0.5,5.4,0.3
		c0.6,0.3,1.1,0.6,1,1.3c-0.1,0.6-0.6,1-1.2,0.9c0,0-0.1,0-0.1,0c-3.1-0.5-6.3-0.7-9.5-0.7c-0.5,0-1.1-0.1-1.1-0.7
		c0-0.8,0.6-1.1,1.2-1.1C130.7,105.8,132.2,105.8,133.6,105.8z"/>
	<path id="type8" style="fill-rule:evenodd;clip-rule:evenodd;fill:#231F20;" d="M158.3,95.7c-1.2-0.2-3.1,0.4-3.1-1.2s1.9-1,3-1.1
		c2.4-0.2,4.9-0.4,7.3-0.6c0.6,0,1.3,0.1,1.4,0.9c0.1,1-0.6,1.1-1.4,1.2C163.1,95.2,160.7,95.5,158.3,95.7z"/>
	<path id="type7" style="fill-rule:evenodd;clip-rule:evenodd;fill:#231F20;" d="M126.9,142c4-1.2,8.3-1.2,12.3,0
		C131.3,143.2,129.9,143.3,126.9,142z"/>
	<path id="type6" style="fill-rule:evenodd;clip-rule:evenodd;fill:#231F20;" d="M118.7,164.1c-4.8,0.6-10.3,0.4-12.4-0.4
		C108.8,162.6,115.8,162.8,118.7,164.1z"/>
	<path id="type5" style="fill-rule:evenodd;clip-rule:evenodd;fill:#231F20;" d="M120.4,204.7c-5.3,0.2-10.1,0.5-15.4-0.4
		C107.6,202.6,115.2,203,120.4,204.7z"/>
	<path id="type4" style="fill-rule:evenodd;clip-rule:evenodd;fill:#231F20;" d="M170.4,82c-3.2,1.5-5.7,1-8.2,1
		c-0.4,0-0.7-0.3-0.8-0.7c0-0.5,0.3-0.9,0.8-1C165,80.9,167.8,81.1,170.4,82z"/>
	<path id="type3" style="fill-rule:evenodd;clip-rule:evenodd;fill:#231F20;" d="M140.8,184.7c-2.5,0.3-5,0.7-7.5,1
		c-0.6,0.1-1.4,0-1.4-0.8s0.7-0.9,1.2-1c2.5-0.2,5.1-0.2,7.6,0C140.7,184.2,140.8,184.5,140.8,184.7z"/>
	<path id="type2" style="fill-rule:evenodd;clip-rule:evenodd;fill:#231F20;" d="M139.2,112.9c-2.3,0.5-4.5,1.4-6.8,1.3
		c-0.6,0-1.3,0-1.4-0.8s0.6-1,1.1-1.1C134.5,112,136.9,111.8,139.2,112.9z"/>
	<path id="type1" style="fill-rule:evenodd;clip-rule:evenodd;fill:#231F20;" d="M153.3,81.3c-1.9,1.2-3.8,0.9-5.7,0.9
		c-0.3-0.1-0.6-0.3-0.8-0.6c-0.2-0.6,0.2-0.9,0.7-1C149.4,80.4,151.4,79.9,153.3,81.3z"/>
	<path id="clip" style="fill-rule:evenodd;clip-rule:evenodd;fill:#231F20;" d="M131.4,40.4c-6.6-0.5-13.1,0.5-19.5-0.7
		c-1.6-0.2-3.2-0.2-4.8,0c-2.1,0.1-3-0.7-2.8-2.8c0.3-2.9,0.2-5.9-0.3-8.7c-0.4-2.1,0.3-2.8,2.6-3.1c3.2-0.5,6.4-0.4,9.5,0.4
		c6.9,1.8,13.9,1.4,20.8,0.7c3.5-0.3,7.1-0.1,10.6,0.5c1.5,0.2,2.4,1.2,1.9,2.5c-0.9,2.2-0.4,4.3-0.2,6.5c0.3,3.5-1,4.8-4.6,4.7
		C140.1,40.3,135.7,40.4,131.4,40.4z M127.7,37.8c5.5-0.1,10.5,0.2,15.5-0.3c2.5-0.2,3.1-0.9,3-3.1c-0.1-2.8-1.2-4.5-3.3-4.4
		c-9.6,0.4-19.1-0.9-28.7-0.7c-1.2,0-2.4,0.1-3.7,0.3c-1.8,0.2-2.5,1.3-2.5,3c0.1,3.3,1.2,4.6,4.6,5C117.9,38,123,37.6,127.7,37.8z"
		/>
	<path id="person" style="fill-rule:evenodd;clip-rule:evenodd;fill:#231F20;" d="M81.3,90.2c-0.3-9.6-0.2-16.7-1-23.8
		c-0.4-3.6,0.3-4.4,3.8-4.2c8.1,0.4,16.2-0.4,24.2,0.5c3,0.3,3.3,0.6,3.1,3.6c-1.1,10.2-1.4,20.5-1.2,30.8c0,2.5,0.2,4.9,0.6,7.3
		c0.6,3.7-0.8,7.3-0.3,11c0,0.5-0.3,1-0.8,1.1c-0.7,0.2-1.4,0.4-2.1,0.5c-7.6,0.7-15.2,0.1-22.8,0.2c-1.6,0-2.1-0.8-2.1-2.3
		C82.8,105.8,80.9,96.8,81.3,90.2z M107.4,92.1c1.5-8.3,0.9-16.6,1.3-24.8c0.1-1-0.6-1.9-1.6-2c0,0-0.1,0-0.1,0
		c-0.8-0.2-1.7-0.4-2.5-0.5c-6.2-0.4-12.5-0.3-18.7-0.1c-2.3,0.1-2.8,0.5-2.8,2.9c-0.1,4.4,0,8.8,0.1,13.2c0,0.4,0.1,1,0.9,0.9
		c0.2-0.2,0.4-0.5,0.6-0.8c3-7,3.6-7.3,10.8-7.1H96c4.5,0.2,7.9,2.9,8.7,7.3c0.7,2.7,1.1,5.5,1.3,8.3
		C106.1,90.5,106.1,91.5,107.4,92.1z M106.2,109.3c-3.8,2-7.8,0-8.2-3.9c-0.1-0.7,0-1.5,0-2.2c0-0.5-0.3-0.9-0.8-0.9
		c-0.1,0-0.1,0-0.2,0c-1.3,0.2-2.7,0.4-3.9,0.9c-1.1,0.4-0.8,1.7-1,2.6c-0.5,2.2-2,4-4,4.9c-0.8,0.3-1.5,0.8-2.2,1.3
		c-0.9,1-0.7,2.2,0.6,2.6c0.9,0.3,1.9,0.5,2.9,0.4c2.7,0,5.4,0.1,8.1,0.4c2.3,0.3,4.7,0.3,7,0c3-0.4,3.6-0.9,3.7-4s0.2-5.9,0.2-8.8
		c0.1-1.6-0.2-3.3-1.1-4.7c-0.8,0.6-1.5,1.1-2.2,1.6c-0.9,0.6-1.9,0.5-2.8,0.6c-0.9,0.1-1.6,0.8-1.7,1.7c-0.7,3.5,0.3,5.2,3.8,6.1
		C105.2,108.2,105.8,108.6,106.2,109.3z M100.2,90.3c-0.1-3.5-0.8-6.9-2.3-10c-0.6-1.4-1.4-2.7-3.2-2.6s-2,1.6-2.5,2.9
		c-1.6,3.9-0.8,8-0.7,11.9c0.1,2,0.4,3.9,1,5.8c0.7,2.5,2.8,2.9,4.3,0.8C98.9,96.6,100,93.5,100.2,90.3L100.2,90.3z M87.8,97
		c1.8,0.1,2.1-0.4,1.9-2.5c-0.4-4.8-1.1-9.7,0.8-14.5c0.4-1,1.3-2.6-0.2-3.3C88.6,76,88.1,78,87.7,79c-2,4.8-3.1,9.8-3.1,15
		C84.5,96.2,85.4,96.9,87.8,97z M84.3,104.6c0,0.9,0,1.9,0.1,2.8c0.2,1.9,1.4,2.4,3.1,1.3c0.8-0.5,1.5-1.3,1.8-2.2
		c0.5-2,0.6-4.1,0.4-6.2c0-0.5-0.4-0.9-0.9-1c-2-0.6-4,0.6-4.6,2.6c-0.1,0.4-0.2,0.8-0.1,1.2C84.2,103.5,84.3,104,84.3,104.6
		L84.3,104.6z M102.6,90.6c-0.6,2.3-1,3.8-1.3,5.3c-0.2,0.9,0,1.8,1.1,1.9s1.5-0.7,1.6-1.6C104.3,94.2,103.8,92.2,102.6,90.6
		L102.6,90.6z"/>
	<path id="clipping_board" style="fill-rule:evenodd;clip-rule:evenodd;fill:#231F20;" d="M132.7,246.8c-8.1,0-16.2,0-24.3,0
		c-1.2,0-2.5-0.1-3.7-0.3c-10.1-1.3-20.3-2.1-30.4-2.3c-4.2-0.1-8.3-0.9-12.4-1.5c-2.8-0.4-5.6-0.4-8.2-1.6
		c-2.8-1.1-4.9-3.4-5.7-6.3c-1.3-5.2-2.1-10.6-2.5-15.9c-0.4-5.4,0.1-10.8-0.3-16.2c-0.6-7.9,0.1-15.9-0.4-23.9
		c-0.6-10,0.2-20.1,0.6-30.1c0.4-8.7,0.2-17.4,0-26.2c-0.3-11.9,0.8-23.8,0.1-35.7c-0.4-7.2,0-14.5,0-21.7C45.5,55,44.9,44.9,47,35
		c0.8-3.7,3.5-5.4,6.3-6.5c4.8-2,9.8-3.2,15-3.5c5.8-0.3,11.5-1.3,17.3-1.2c1.7,0,2.9-0.4,2.9-2.4s1-2.6,2.8-2.6
		c2.6,0,5.2-0.1,7.7-0.1c4.9,0.1,9.5-2.6,11.7-7c3.2-5.9,8.2-8.2,14.4-8.4c4-0.2,8-0.5,12.1,0.6c1.8,0.4,3.4,1.4,4.6,2.8
		c1.9,2.5,3.6,5.2,5.1,8c0.7,1.5,1.9,2.6,3.5,3c3.5,1,7.2,1.4,10.9,1.3c2.9,0,2.9,0,2.6,3c-0.2,2.7,0.5,3.6,3.4,3.4
		c5.2-0.4,10.3,0,15.5-0.1c2.5-0.2,4.9,0.3,7.2,1.2c2.1,0.8,4.2,1.4,6.4,1.6c4.8,0.8,6.5,3.1,7.1,7.9c0.7,5.7,0.8,11.5,0.5,17.3
		c-0.2,3.1-0.5,6.1-0.8,9.2c-0.2,3.6-0.1,7.1,0.2,10.7c0.3,4.3,0.1,8.6-0.4,12.9c-0.8,5.9-0.1,11.8,0,17.7c0.1,10.7,0.7,21.3,1.2,32
		c0.4,9.4,1.1,18.8,1.4,28.3c0.2,8.8,0,17.7,0,26.5c0,8-0.6,15.9-0.7,23.9c-0.1,4.7-0.3,9.6-1.9,14.2c-0.4,0.8-0.4,1.7-0.1,2.5
		c2.1,3.4-0.8,5.8-1.8,8.4c-0.9,2.2-2.9,3.2-5.2,3.7c-7,1.3-14.1,2.1-21.2,2.3c-4.7,0.2-9.3,0.6-13.9,1.1
		c-5.9,0.6-11.8,0.8-17.6,0.7C139.6,247,136.1,246.8,132.7,246.8z M66.1,38.3c0,2.5,0,4.4,0,6.3c0.1,4.8,0.4,9.5,0.9,14.3
		c0.5,4.5,0.2,9.1,0.3,13.6c0.4,13.9,0.3,27.8,0.6,41.6c0.2,11.2-0.2,22.3,0.2,33.5c0.2,6-0.3,12-0.4,18
		c-0.2,12.1,0.1,24.3-1.5,36.4c-0.5,3.5,0.4,7.1,0.5,10.6c0.1,2.6,1.5,3.9,4.2,2.8c1.4-0.4,2.9-0.6,4.3-0.7c4.3-0.7,8.6,0,12.8,0
		c8,0,16,0.4,23.9,1.1c7.6,0.7,15.2,0,22.8,0.8c4.3,0.4,8.5,0.9,12.8,1.1c9.9,0.3,19.9-0.6,29.8,0.5c5.8,0.7,6,0,6.1-6
		c0.1-4.7-0.8-9.3-1.1-13.9c-0.7-10.6-0.1-21.1-0.3-31.7c-0.2-9.1-0.1-18.2,0.4-27.3c0.4-6.9-0.8-13.7,0.2-20.6
		c0.2-1.6,0.2-3.2,0.1-4.8c-0.2-7.6-0.4-15.2-0.7-22.8c-0.1-3.6,0.3-7.1,0.1-10.7c-0.2-5.3-0.2-10.6,0.1-15.8c0.4-7.5,0.6-15,1-22.5
		c0.1-1.6-0.3-2.6-2.1-2.7c-4.8-0.1-9.6-0.3-14.4-0.3c-2.3,0-3,0.8-2.4,3c0.8,2.9,0.1,5.6-0.1,8.4c-0.2,2.6-2,3.8-4.6,3.5
		c-1.1-0.2-2.2-0.4-3.3-0.5c-11.3,0.4-22.6-1.5-33.8-1.6c-10.4-0.3-20.9,0.1-31.2,1.2c-0.9,0.1-1.5,0-1.6-0.9
		c-0.3-3.3-2.2-6.3-1.6-9.8c0.5-3.1,0.1-3.1-3.1-3.3C78.9,38.8,72.6,39.8,66.1,38.3z M200.8,130.3c0.5-2-0.1-5-0.3-8.1
		c-0.5-10.9-1.3-21.8-1.6-32.7c-0.2-7.5,0.1-15,0.7-22.4c0.8-9.6,0.3-19.2-1.5-28.6c-1-5.4-4-7.9-9.4-7.7c-1.8,0.1-3.4,0-4.8-1.3
		c-0.5-0.4-1-0.7-1.6-0.8c-5.4-0.9-10.8-0.5-16.1-0.2c-1.3,0-2.3,1.1-2.3,2.3c0,0.1,0,0.1,0,0.2c0,0.7,0,1.5,0,2.2c0,3,0,3,3,3.1
		c5.5,0.2,11,0.4,16.5,0.6c2.8,0.1,3.4,0.7,2.8,3.3c-1.5,7-1.3,14.2-1.6,21.3c-0.3,9.6-0.1,19.2-0.1,28.8
		c0.1,11.2,0.2,22.3,0.1,33.5c-0.1,13.8,0,27.5-0.1,41.3c0,7.4-0.4,14.7-0.3,22.1c0.1,8.8,0.9,17.6,1.5,26.5
		c0.1,1.4-0.2,2.9,0.4,4.4c0.8,2.2-0.2,3.9-2.3,3.6c-4.3-0.5-8.6,0-12.8-1.1c-2.3-0.6-4.6-0.8-6.9-0.6c-5,0.2-10.1,0.8-15.1,0.4
		c-11.9-1-23.8-1.3-35.6-2.1c-8.6-0.6-17.1-1.2-25.7-0.7c-1,0-2-0.1-2.9-0.3c-3.1-0.5-6.4-0.5-9.5,0c-2.5,0.4-5.1,0.7-7.7,1.1
		c-3.2,0.5-3.5,0-4-3.1c-0.4-3.3-0.4-6.6,0-9.9c0.4-4.6,0.8-9.3,1-13.9c0.3-8.4,0.7-16.7,1.3-25c0.2-2.1-0.6-4.1-0.1-6.2
		c0.5-2.5,0.7-5.1,0.5-7.7c-0.7-14.7-0.6-29.5-1.1-44.2c-0.2-6.5-0.3-13-0.3-19.5c0.1-14.6-0.2-29.2-1.2-43.8
		c-0.1-2.1-0.6-4.1-1.5-6c-1.2-2.6-0.2-3.9,2.7-3.9c1.5,0,2.8,0.8,4.3,0.9c4.7,0.4,9.3,0.5,14,0.5c4.1,0,4.1,0,4.1-3.9
		c0-1.1,0.1-2.2,0.2-3.3c0.2-2.6,0-2.8-2.5-2.9c-9.9-0.3-19.9,1-29.4,3.7c-3.5,1-5.2,3.5-6,6.8c-1.5,6.8-3,13.7-2.2,20.7
		c0,0.4,0,0.7,0,1.1c0,8.4-0.6,16.7-0.3,25c0.2,5.4,0.1,10.8,0.3,16.2c0.2,2.9-0.7,5.8-0.5,8.8c0.3,4.3,0.4,8.6,0.2,12.9
		c-0.5,10.9,0.3,21.8-0.2,32.8c-0.8,19.4-0.3,38.8,0.4,58.2c0.2,3.9,0.4,7.8,0.7,11.8c0.4,4.1,3.3,6.6,5.5,9.6
		c0.2,0.3,0.6,0.5,0.9,0.6c2.7,1.1,5.4,2.2,8.2,3.2c6.7,2.2,13.7,2.8,20.7,2.8c3.3,0,6.6,0.1,10,0.2c5.4,0.2,10.8,0.4,16.2,0.5
		c10.9,0.1,21.8,0.5,32.7,1.2c7.1,0.5,14.2,0.6,21.3,0.3c7-0.4,14-1.3,21-1.2c5.5,0.1,9.7-1.9,12.7-6.7c1.6-2.6,2.9-5.1,1.7-8.2
		c-0.2-0.7-0.2-1.5,0-2.2c0.3-6.6,0.7-13.2,0.9-19.9c0.2-7.5,0.1-15,0.4-22.4c0.2-5.9,0.9-11.7,0.8-17.6
		C201,153.3,200.3,142.3,200.8,130.3L200.8,130.3z M129.8,48c2.6,0,5.2-0.1,7.7,0c6.4,0.3,12.8-0.7,19.2-0.5c3.8,0.1,3.9-0.2,4-3.8
		c0.1-6.5-0.7-13-0.2-19.5c0.2-2.3-0.4-3-2.7-3c-3.3,0.1-6.3-1.2-9.4-1.5c-1.5-0.1-2.8-1-3.4-2.3c-1.1-2.6-3.2-4.7-4.3-7.3
		c-0.9-1.9-2.6-3.4-4.6-3.9c-3.4-1.2-6.7-0.8-10.2-0.7c-5.6,0.1-9.4,2.4-12.4,7.1c-3.4,5.4-8.1,9.2-15.1,8.8c-1.8-0.1-3.7,0-5.5,0.1
		c-1,0.1-2.3,0.4-2,1.6c0.5,2.2-0.4,4.1-0.6,6.2c-0.6,5.2,1.4,10.2,1.2,15.4c-0.1,1.4,1,1.8,2.2,1.9c4.2,0,8.3,0.8,12.5,0.9
		C114.1,47.4,122,47.3,129.8,48L129.8,48z"/>
</g>
</svg>
