<?xml version="1.0" encoding="utf-8"?>
<!-- Generator: Adobe Illustrator 23.0.1, SVG Export Plug-In . SVG Version: 6.00 Build 0)  -->
<svg version="1.1" id="Layer_1" xmlns="http://www.w3.org/2000/svg" xmlns:xlink="http://www.w3.org/1999/xlink" x="0px" y="0px"
	 viewBox="0 0 107.1 81.5" style="enable-background:new 0 0 107.1 81.5;" xml:space="preserve">
<style type="text/css">
	.st0{fill:#00ABC8;}
</style>
<title>AIR-NAV-Icons</title>
<path class="st0" d="M103.5,36.8L55.9,2.7c-1.4-1-3.2-1-4.6,0L3.6,36.8c-2,1-2.7,3.4-1.7,5.4c1,2,3.4,2.7,5.4,1.7
	c0.4-0.2,0.7-0.4,1-0.7l5.7-4v36.3c0,2.2,1.8,4,4,4h25.3c2.2,0,4-1.8,4-4v-25h12.7v25c0,2.2,1.8,4,4,4h25.3c2.2,0,4-1.8,4-4V39.2
	l5.6,4c1.6,1.5,4.1,1.4,5.7-0.2c1.5-1.6,1.4-4.1-0.2-5.7C104.1,37.1,103.8,36.9,103.5,36.8L103.5,36.8z"/>
</svg>
