<?xml version="1.0" encoding="utf-8"?>
<!-- Generator: Adobe Illustrator 23.0.1, SVG Export Plug-In . SVG Version: 6.00 Build 0)  -->
<svg version="1.1" id="Layer_1" xmlns="http://www.w3.org/2000/svg" xmlns:xlink="http://www.w3.org/1999/xlink" x="0px" y="0px"
	 viewBox="0 0 125 89.5" style="enable-background:new 0 0 125 89.5;" xml:space="preserve">
<style type="text/css">
	.st0{fill:#00ABC8;}
</style>
<title>AIR-NAV-Icons</title>
<path class="st0" d="M79.8,72.4l2.1,0.4l-0.5-0.1L79.8,72.4z"/>
<path class="st0" d="M44.3,71.5l-0.5,0.1l0.3,4.1l0.1,1.6l0.4,0.1c1.9,0.4,3.8,0.8,5.7,1.1l0.5,9.7h2.3l-0.4-9.4v-0.4l0,0
	c0.5-0.3,1-0.6,1.5-0.7c1.6-0.6,3.3-0.9,5-1l0.4,11.6h13.1L73.4,77l1.5,0.4l-0.5,10.9h1.8l0.5-9.7c1.9-0.3,3.8-0.7,5.8-1.2l0.4-0.1
	l0,0l0.4-5.7l-0.5-0.1C70,68.5,56.9,68.5,44.3,71.5z M45.3,75.5L45.3,75.5l-0.2-2.6c1.2-0.3,2.5-0.6,3.8-0.8l0,0l0.2,2.6
	C47.8,74.9,46.5,75.1,45.3,75.5L45.3,75.5z M50.3,74.5l-0.2-2.6l0,0L50.3,74.5c1-0.2,1.9-0.4,2.9-0.5c-0.7,0.1-1.4,0.2-2.1,0.3
	l-0.2-2.6c0.7-0.1,1.4-0.2,2.2-0.3l0.2,2.6h0.2C52.4,74.1,51.3,74.3,50.3,74.5L50.3,74.5z M74.6,74.2c-3.7-0.5-7.5-0.8-11.2-0.8
	C67.1,73.4,70.9,73.7,74.6,74.2l0.2-2.7L74.6,74.2z M76.7,74.5L76.7,74.5l-0.6-0.1l-0.4-0.1l0,0l0.2-2.7l0,0l0.9,0.1L76.7,74.5z
	 M81.7,75.5c-0.7-0.2-1.4-0.3-2.1-0.4l0.2-2.7l1.6,0.3l0.5,0.1L81.7,75.5z"/>
<path class="st0" d="M54.2,77.7c-0.5,0.2-1,0.4-1.5,0.7v0.4l0.4,9.4h1l-0.5-10.2c1-0.4,2-0.7,3-0.9l0.6,11h2.5l-0.4-11.5
	C57.5,76.8,55.8,77.1,54.2,77.7z"/>
<path class="st0" d="M45.1,72.8l0.2,2.6c1.3-0.3,2.5-0.6,3.8-0.8L48.9,72C47.6,72.2,46.3,72.5,45.1,72.8z"/>
<polygon class="st0" points="73.3,77 72.7,88.3 74.3,88.3 74.8,77.4 "/>
<polygon class="st0" points="79.8,72.4 79.6,75 79.8,72.4 "/>
<path class="st0" d="M76,71.7l-0.2,2.6l0.4,0.1l0.6,0.1l0.2-2.6C76.6,71.8,76.3,71.7,76,71.7z"/>
<path class="st0" d="M53.2,74L53.2,74z"/>
<polygon class="st0" points="61.2,66.3 61.2,66.3 61.2,66.3 "/>
<polygon class="st0" points="67.7,66.3 67.7,66.3 67.7,66.3 "/>
<polygon class="st0" points="58.8,66.3 58.8,66.3 58.8,66.3 "/>
<path class="st0" d="M65.4,62c-0.6,0.8-0.8,1.8-0.4,2.8l0.1,0.2l-0.2-0.1c-0.9-0.7-2.3-3.6-1.8-5.6c-1.7,1-3.7,4-4.2,7h2.2
	c-0.2-1.6,0.1-3.3,0.8-4.8c0-0.1,0.1-0.1,0.1-0.2l0.1-0.3v0.3c0.1,1.8,0.6,3.5,1.6,5h-0.1h4c-0.2-0.4-0.5-0.8-0.8-1.2
	C66.1,64.2,65.6,63.2,65.4,62z"/>
<path class="st0" d="M70.6,48.5h9.5l-0.6-9.2c-0.1-0.6,0.3-1.2,1-1.3s1.2,0.3,1.3,1c0,0,0,0.1,0,0.1l0.5,7.3l4.1-4l-0.4-5.5
	c0-0.6,0.5-1.1,1.1-1.1c0.6,0,1,0.4,1.1,1l0.2,3.6l9.6-32.9L71.4,37.9l-0.7-2.5l-7.2,6.3L70.6,48.5z M69.6,47.4l-0.2-0.2l0.2-0.1
	L69.6,47.4z"/>
<path class="st0" d="M61.4,33l-4.2-3.7c-0.5-0.4-0.5-1.1-0.1-1.6c0.4-0.4,1.1-0.5,1.5-0.1l2.7,2.4v-4.4c0-0.2,0-0.3,0.1-0.4
	c0.1-0.1,0.1-0.2,0.2-0.3l0,0c0,0,0,0,0.1,0c0.1-0.1,0.1-0.1,0.2-0.2h0.1c0.1-0.1,0.3-0.1,0.4-0.1c0.1,0,0.3,0,0.4,0.1H63
	c0.1,0,0.2,0.1,0.2,0.2h0.1l0,0c0.1,0.1,0.2,0.2,0.2,0.3c0.1,0.1,0.1,0.3,0.1,0.4V30l2.7-2.4c0.4-0.4,1.1-0.5,1.6,0
	c0.4,0.4,0.5,1.1,0,1.6c0,0-0.1,0.1-0.1,0.1L63.6,33v5.7l6.5-5.7L62.5,1.5L54.9,33l6.5,5.7V33z"/>
<path class="st0" d="M89.9,41.8l3.6,0.2c0.6,0.1,1,0.6,1,1.3c-0.1,0.6-0.5,1-1.1,1l-5.6-0.4l-4,4.1l7.3,0.4c0.6,0,1.1,0.6,1.1,1.2
	s-0.6,1.1-1.2,1.1l0,0l-9.3-0.6l0.3,9.3l3.5,3.6v3.3h7v-3.1l31.9-31.3L89.9,41.8z"/>
<polygon class="st0" points="72.4,66.3 72.4,66.3 72.4,66.3 "/>
<path class="st0" d="M54.5,66.3c-0.2-0.5-0.5-1-0.7-1.5c-0.7-2.5,0.4-6.8,4.6-10.4l0.1,0.1c-0.4,0.7-0.5,1.5-0.4,2.3
	c0.1,0.5,0.3,1,0.7,1.3c0.5-3,3.4-6.6,6.1-7.5H65v0.1c-0.5,2.4,0.7,5.3,3.9,9.3c0-1.1,0.3-2.3,0.9-3.2l0.1-0.3l-0.1,0.3
	c-0.1,0.8,0.4,1.9,1.1,3.2c0.8,1.4,1.3,2.8,1.6,4.4c0.1,0.7,0,1.4-0.2,2h10v-3.1l0,0l-2.3-2.4c-0.1-0.1-0.2-0.3-0.3-0.5
	c-0.1-0.2-0.1-0.4-0.1-0.6l-0.3-7.4l-2.8,2.8L75,53.6l2.8-2.8l-7.8-0.2c-0.2,0-0.3,0-0.5-0.1c-0.2-0.1-0.3-0.2-0.4-0.3l-5.5-5.3v4
	h-2.2v-4l-5.5,5.3c-0.1,0.1-0.3,0.2-0.4,0.3c-0.2,0-0.3,0.1-0.5,0.1l-7.8,0.2l2.9,2.8l-1.6,1.6l-2.8-2.8l-0.3,7.5
	c0,0.2,0,0.4-0.1,0.6c-0.1,0.2-0.2,0.3-0.4,0.4l-2.3,2.4l0,0v3.1L54.5,66.3L54.5,66.3z M71.3,54l0.1,0.1c-0.4,1.1,0.2,2.1,0.8,3.3
	c0.7,1.3,1.5,2.9,0.8,4.6l-0.2,0.5v-0.5c0-1.1-0.3-2.1-0.9-3C71.2,57.4,70.4,55.8,71.3,54z M66.6,53.5c0.4-0.7,0.6-1.5,0.5-2.2V51
	l0.2,0.2c0.1,0.1,1.6,2.2,0.5,4.2l-0.1,0.1l-0.1-0.1C67.1,54.9,66.8,54.2,66.6,53.5L66.6,53.5L66.6,53.5z M55.5,53.7
	c0.4-0.4,0.7-0.9,0.8-1.5h0.2c0.2,1,0,2-0.7,2.7c-0.4,0.5-0.7,1-0.9,1.6l-0.1,0.2l-0.1-0.2C54.3,55.5,54.6,54.4,55.5,53.7z"/>
<path class="st0" d="M36.9,36.6c0.1-0.6,0.6-1,1.3-1c0.6,0.1,1,0.5,1,1.1l-0.4,5.5l4,4l0.5-7.3c0.1-0.6,0.6-1,1.3-1
	c0.6,0.1,1,0.5,1,1.1l-0.6,9.3h9.5l7-6.8l-7.2-6.2l-0.7,2.5L27.1,7.4l9.6,32.8L36.9,36.6z"/>
<path class="st0" d="M43.3,50.1l-9.3,0.6c-0.6,0-1.2-0.4-1.2-1.1c0-0.6,0.4-1.2,1.1-1.2l7.3-0.5l-4-4l-5.5,0.4
	c-0.6,0.1-1.2-0.3-1.3-1c-0.1-0.6,0.3-1.2,1-1.3c0,0,0.1,0,0.1,0l3.6-0.2L0.7,31.9l31.9,31.3v3.2h7V63l3.4-3.6L43.3,50.1z"/>
<polygon class="st0" points="61.1,66.3 61.2,66.3 61.1,66.3 "/>
<polygon class="st0" points="58.9,66.3 58.9,66.3 58.8,66.3 "/>
<path class="st0" d="M67.6,66.4L67.6,66.4L67.6,66.4C67.6,66.4,67.6,66.4,67.6,66.4z"/>
<path class="st0" d="M54.6,66.3L54.6,66.3L54.6,66.3L54.6,66.3z"/>
<path class="st0" d="M72.5,66.3L72.5,66.3L72.5,66.3L72.5,66.3z"/>
</svg>
