<?xml version="1.0" encoding="utf-8"?>
<!-- Generator: Adobe Illustrator 23.0.1, SVG Export Plug-In . SVG Version: 6.00 Build 0)  -->
<svg version="1.1" id="Layer_1" xmlns="http://www.w3.org/2000/svg" xmlns:xlink="http://www.w3.org/1999/xlink" x="0px" y="0px"
	 viewBox="0 0 122.8 95.1" style="enable-background:new 0 0 122.8 95.1;" xml:space="preserve">
<style type="text/css">
	.st0{fill:#00ABC8;}
</style>
<title>AIR-NAV-Icons</title>
<g>
	<path class="st0" d="M70.1,22.4c-2.3,0-3.4,2.9-3.4,8.6c0,5.4,1.1,8.1,3.3,8.1c2.2,0,3.3-2.8,3.3-8.3S72.2,22.4,70.1,22.4z"/>
	<path class="st0" d="M119.4,22l-18-13.6c-4.9-3.7-15-6.1-20.4-7.2c-1-0.2-2.1,0-3,0.7c-5.3,2.2-11,3.4-16.7,3.5
		C55.7,5.3,50,4,44.8,1.8c-0.9-0.6-2-0.9-3-0.7c-5.4,1.1-15.5,3.6-20.4,7.2L3.3,22C1,23.9,0.4,27.2,2,29.7l8.9,14.1
		c1.5,2.5,4.7,3.2,7.1,1.8c0,0,0.1,0,0.1-0.1l13.8-8.7v51.6c-0.1,3,2.3,5.6,5.3,5.7c0,0,0,0,0,0h48.4c3-0.1,5.4-2.6,5.3-5.7
		c0,0,0,0,0,0V36.8l13.8,8.7c2.4,1.5,5.6,0.8,7.2-1.6c0,0,0.1-0.1,0.1-0.1l8.9-14.1C122.3,27.2,121.8,23.9,119.4,22z M53.7,42.7
		h-3.9c-0.4,0-0.7-0.3-0.7-0.7V25.4c0-0.4-0.3-0.7-0.7-0.7c-0.1,0-0.2,0-0.3,0.1c-0.4,0.2-0.8,0.4-1.3,0.6c-0.5,0.2-0.9,0.3-1.4,0.5
		c-0.2,0.1-0.4,0.1-0.6,0.2c-0.4,0.1-0.7-0.2-0.8-0.5c0,0,0-0.1,0-0.1v-3.1c0-0.3,0.2-0.6,0.5-0.6c1.2-0.4,2.3-0.8,3.4-1.4
		c1.1-0.6,2.1-1.2,3.1-1.9c0.1-0.1,0.3-0.1,0.4-0.1h2.3c0.4,0,0.7,0.3,0.7,0.7l0,23.1C54.4,42.4,54.1,42.7,53.7,42.7z M76.4,39.9
		L76.4,39.9c-1.5,2.1-3.9,3.3-6.5,3.2c-5.7,0-8.5-4-8.5-12c0-4.2,0.8-7.3,2.3-9.5c1.5-2.2,4.1-3.4,6.7-3.3c5.6,0,8.3,4.1,8.3,12.2
		C78.7,34.6,77.9,37.7,76.4,39.9z"/>
</g>
</svg>
