<?xml version="1.0" encoding="utf-8"?>
<!-- Generator: Adobe Illustrator 23.0.1, SVG Export Plug-In . SVG Version: 6.00 Build 0)  -->
<svg version="1.1" id="Layer_1" xmlns="http://www.w3.org/2000/svg" xmlns:xlink="http://www.w3.org/1999/xlink" x="0px" y="0px"
	 viewBox="0 0 101.4 101.4" style="enable-background:new 0 0 101.4 101.4;" xml:space="preserve">
<style type="text/css">
	.st0{fill:#00ABC8;}
</style>
<g>
	<title>AIR-NAV-Icons</title>
	<path class="st0" d="M99.6,53.7c0.2-2-1.4-3.8-3.4-4c-2-0.2-3.8,1.4-4,3.4c0,0.1,0,0.2,0,0.3c-0.3,7.8-3.1,13.2-8.3,16.3
		c-2.5,1.4-5.3,2.3-8.2,2.4l0,0v0.1L65,67.8l-0.1-0.1c-1.9-2.1-3.3-4.5-4.1-7.2c-1.7-5.9,0-11.9,5.3-17.7c1.4-1.5,1.3-3.9-0.2-5.2
		c-1.5-1.4-3.9-1.3-5.2,0.2l0,0c-8.9,9.8-8.7,18.9-7,24.8c1.1,3.6,2.9,6.9,5.3,9.7l-2,5l-5.2,12.8c-0.8,2,0.2,4.3,2.2,5.2l10.3,4.2
		c2,0.9,4.4-0.1,5.3-2.1c0,0,0-0.1,0-0.1l5.2-12.8l2-5c3.7-0.3,7.3-1.4,10.5-3.2C92.7,73.3,99.1,66.9,99.6,53.7z"/>
	<circle class="st0" cx="73.9" cy="61.2" r="7.5"/>
	<circle class="st0" cx="48.7" cy="13.7" r="8.4"/>
	<path class="st0" d="M26.4,28c0.2,0.1,0.4,0.2,0.6,0.3c1.3,0.7,2.6,1.5,3.8,2.3l0,0c2.2,1,4.5,1.7,6.9,2.1v3.7
		c1.7,1.7,3.1,3.6,4.3,5.7c2.5,4.2,4,9,4.3,13.9c0,0.6,0,1.1,0,1.7h3.3c-0.1-2.2,0.1-4.4,0.5-6.5c1.3-5.7,4.1-11,8.2-15.3
		c0.3-0.4,0.7-0.7,1.1-1v-2.2c2.4-0.4,4.7-1.1,6.9-2.1c6.3-2.8,14.2-9.3,16.1-24.2c0.2-2.3-1.6-4.3-3.9-4.5
		c-2.1-0.2-4.1,1.3-4.4,3.5c-1.1,8.6-4.8,14.5-10.9,17.4c-1.6,0.7-3.2,1.2-4.9,1.6H39c-1.7-0.3-3.3-0.8-4.9-1.6
		c-6.2-2.9-9.8-8.8-10.9-17.5c-0.3-2.3-2.4-3.9-4.6-3.6s-3.9,2.4-3.6,4.6l0,0C16.3,17.8,21.3,24.3,26.4,28z"/>
	<path class="st0" d="M25.4,31.4c-2.1-1.1-4.8-0.4-5.9,1.8c0,0-0.1,0.1-0.1,0.1c-1,2.2-0.2,4.7,1.9,5.8c8.1,4.3,12.4,10.1,13,17.2
		c0.2,2.7-0.2,5.5-1,8.1l-13.2,4.8c-2.3-1.5-4.4-3.4-6-5.6c-4.1-5.8-4.5-13-1.1-21.5c0.9-2.2-0.1-4.7-2.3-5.7c-2.2-1-4.8,0-5.7,2.2
		c0,0,0,0.1-0.1,0.1C-1,53.3,2.9,63.3,7.3,69.1c2.9,3.9,6.7,7,11,9.1l2.5,5.5l1.5,4c0.7,2.1,3,3.2,5.1,2.5l13.8-5
		c2.1-0.7,3.2-3,2.4-5.1c0,0,0,0,0-0.1L42,76l-1.6-5.8c2-4.4,2.8-9.2,2.6-14C42.6,48.9,39.2,38.8,25.4,31.4z"/>
	<circle class="st0" cx="22.8" cy="56.3" r="8.8"/>
</g>
</svg>
