<?xml version="1.0" encoding="utf-8"?>
<!-- Generator: Adobe Illustrator 23.0.1, SVG Export Plug-In . SVG Version: 6.00 Build 0)  -->
<svg version="1.1" id="Layer_1" xmlns="http://www.w3.org/2000/svg" xmlns:xlink="http://www.w3.org/1999/xlink" x="0px" y="0px"
	 viewBox="0 0 104.9 83.8" style="enable-background:new 0 0 104.9 83.8;" xml:space="preserve">
<style type="text/css">
	.st0{fill:#00ABC8;}
	.st1{fill:#FFFFFF;}
</style>
<title>AIR-NAV-Icons</title>
<path class="st0" d="M1.5,3.5c0,0,0-0.1,0-0.1C1.4,3.6,1.3,3.9,1.3,4.1v61.8c0,0.3,0.1,0.5,0.2,0.7c0-0.1,0-0.1,0-0.2L1.5,3.5z"/>
<path class="st0" d="M65.7,24.1c-1.3,0.1-2.6,0.4-3.8,0.9L61,25.4c-2.3,0.8-2.6,1.4-2.6,1.4s0.2,0.5,1.7,1.4c0.8,0.3,1.6,0.3,2.4,0
	c0.6-0.2,1.3-0.2,1.9-0.3c0.3,0,0.5,0,0.8,0.1l3.2,0.6l2.6,0.5c0.2,0,0.6,0.1,1,0.2s0.8,0.2,1.1,0.3c-0.3-1.1-1-2.1-1.8-2.8
	C68.6,24.4,66.9,24.1,65.7,24.1z"/>
<path class="st0" d="M73.5,31v-1.4l0,0V31z"/>
<path class="st0" d="M26.2,77.5c-0.5,0.1-1,0.2-1.5,0.3l1.5,0.9L26.2,77.5z"/>
<path class="st1" d="M73.1,24.8c-2.5-2.3-4.9-3.4-7.3-3.4c-1.6,0.1-3.2,0.5-4.7,1.1l-0.9,0.3c-1.9,0.7-4.2,1.7-4.4,3.7s2.2,3.5,3,4
	c0.7,0.4,1.5,0.6,2.3,0.6c0.7,0,1.3-0.1,2-0.3c0.5-0.2,1.1-0.2,1.6-0.2l3.2,0.6l2.6,0.5l0.7,0.2c0.7,0.2,1.5,0.4,2.3,0.4l0,0
	c0.3,0,0.7,0,1-0.2c0.6-0.3,1.1-0.8,1.2-1.5v-1.8C75.2,27.3,74.3,25.9,73.1,24.8z M72,29.3c-0.4-0.1-0.7-0.2-1-0.2l-2.6-0.5L65.2,28
	c-0.3,0-0.5-0.1-0.8-0.1c-0.6,0-1.3,0.1-1.9,0.3c-0.8,0.3-1.6,0.3-2.4,0c-1.4-0.8-1.6-1.4-1.7-1.4s0.3-0.6,2.6-1.4l0.9-0.3
	c1.2-0.5,2.5-0.9,3.8-1c1.1,0,2.9,0.3,5.5,2.7c0.9,0.8,1.5,1.7,1.8,2.8C72.7,29.6,72.3,29.4,72,29.3z M73.5,31v-1.4l0,0V31z"/>
<path class="st1" d="M26.2,77.5v-2.8c-0.9,0.2-1.8,0.4-2.7,0.4c-1.1,0-2.2-0.3-3.2-0.9c-2.9-1.9-1.7-7.4-0.9-8.8
	c0.9-1.7,3.9-2.3,6.8-2.7v-2.7c-3.6,0.4-7.6,1.2-9.2,4.2c-1.3,2.7-1.6,5.8-0.8,8.7l8.5,5C25.2,77.7,25.7,77.6,26.2,77.5z"/>
<path class="st1" d="M29,76.4L29,76.4L29,76.4z"/>
<path class="st1" d="M29,76.4l1-1.5c0.7-1,1.3-1.9,1.8-2.6c3.1-4.2,6.4-8.2,10-12l0.4-0.5c4-4.5,6.3-8.7,6.6-12.5
	c0.2-2.4-0.1-3.9-0.9-4.8c-0.5-0.6-1.2-0.9-2-0.9c-4.2,0-12.3,9.8-16.7,15.6L29,57.5V76.4L29,76.4C29,76.4,29,76.4,29,76.4z
	 M45.9,44.3c0,0,0.4,0.5,0.2,2.7c-0.3,3.2-2.3,6.9-6,10.9l-0.4,0.5c-3.6,3.9-7,8-10.2,12.3c-0.1,0.2-0.2,0.3-0.3,0.5v-9.6
	c0.8-1,1.5-1.9,2.1-2.7C37.8,50.4,43.9,44.3,45.9,44.3z"/>
<path class="st1" d="M6.3,8.6C5.7,8.3,5,8.5,4.7,9.1C4.6,9.2,4.5,9.5,4.5,9.7v26.7c0,0.2,0,0.4,0.1,0.5c2.5,5.1,5.9,7.9,10.1,8.4
	c0.4,0,0.7,0.1,1.1,0.1l0,0c2.2-0.1,4.3-0.8,6.1-2c0.7-0.4,1.4-0.8,2.1-1.1c0.7-0.3,1.4-0.5,2.1-0.6v-2.4c-1,0.1-2,0.4-3,0.7
	c-0.8,0.4-1.6,0.8-2.4,1.2c-1.5,1-3.2,1.6-4.9,1.7c-0.3,0-0.6,0-0.8-0.1c-3.3-0.4-6-2.7-8.1-6.8V11.7l19.2,11.2v-2.8L6.3,8.6z"/>
<path class="st1" d="M29.6,40.6c1.2-1.5,2.4-3,3.6-4.6c2.7-3.9,4.4-8.4,4.9-13.1c0.4-2.2,0.5-4.4,0.3-6.6c-0.1-0.7-0.7-1.2-1.4-1.2
	c-0.2,0-0.4,0.1-0.5,0.2L29,19.7v21.6c0.1-0.1,0.1-0.1,0.2-0.2L29.6,40.6z M29.4,22.4l6.5-3.8c-0.1,1.3-0.2,2.6-0.4,3.9
	c-0.4,4.3-1.9,8.4-4.4,11.9c-0.5,0.8-1.1,1.5-1.7,2.2V22.4z"/>
<path class="st1" d="M73.2,40.5c-3.7-0.3-5.8,2.9-7.4,5.4c-0.4,0.7-0.9,1.3-1.3,1.8c-1,0.8-1.7,2-1.7,3.4
	c-0.4,6.5,10.1,16.9,13,19.6V40.8C74.9,40.7,74.1,40.6,73.2,40.5z M75.6,67c-6.4-6.4-10.5-12.6-10.3-15.7c0-0.6,0.3-1.2,0.8-1.6
	c0.1-0.1,0.2-0.1,0.2-0.2c0.6-0.7,1.1-1.4,1.6-2.2c1.4-2.1,2.8-4.3,4.9-4.3h0.2c0.8,0.1,1.7,0.2,2.5,0.3L75.6,67z"/>
<path class="st1" d="M92.6,62.3c1.1-1.2,2.3-2.3,3.4-3.4l1.5-1.3c0.9-0.8,1.8-1.6,2.7-2.4c0.1-0.1,0.1-0.1,0.2-0.2V33.5
	c-0.1-0.2-0.3-0.3-0.4-0.4c-4.1-2.2-8.9-1.5-14.1,1.8c-2.6,1.7-5.1,3.6-7.5,5.7v3.3c2.7-2.6,5.7-4.9,8.8-6.9c4.1-2.7,7.8-3.3,11-2
	v18.8c-0.8,0.7-1.6,1.4-2.3,2l-1.5,1.4c-1.2,1.1-2.4,2.3-3.6,3.5c-1.6,1.7-3.2,3.2-5,4.7c-2.2,1.5-4.7,2.6-7.4,3.3v2.5
	c3.2-0.7,6.2-2,8.9-3.9C89.2,65.7,90.9,64,92.6,62.3z"/>
<path class="st0" d="M102.7,1.9c-0.6-0.3-1.3-0.3-1.9,0l-23.8,14l-23.8-14c-0.6-0.3-1.3-0.3-1.9,0l-23.8,14L3.8,1.9
	C3.2,1.5,2.5,1.5,2,1.9C1.4,2.2,1.1,2.7,1,3.4v63.1c0,0.1,0,0.2,0,0.3c0.1,0.6,0.4,1.1,0.9,1.4l24.7,14.5c0.6,0.3,1.3,0.3,1.9,0
	l23.8-14l23.8,14c0.3,0.2,0.6,0.3,0.9,0.2c0.3,0,0.6-0.1,0.9-0.2l24.8-14.5c0.6-0.3,0.9-1,0.9-1.6V3.5
	C103.7,2.8,103.3,2.2,102.7,1.9z M25.7,62.7c-2.7,0.4-5.4,1-6.3,2.6c-0.8,1.4-2,6.9,0.9,8.8c0.9,0.6,2,0.9,3.2,0.9
	c0.7,0,1.5-0.1,2.2-0.3v3l-9.2-5.5l-0.4-0.2c-0.5-2.7-0.2-5.5,1-8c1.5-2.9,5.2-3.7,8.7-4.1V62.7z M25.7,22.7L6.9,11.7v24.3
	c2.1,4.2,4.8,6.5,8.1,6.8c0.3,0,0.6,0.1,0.8,0.1c1.8-0.1,3.5-0.7,4.9-1.7c0.8-0.4,1.6-0.9,2.4-1.2c0.8-0.3,1.7-0.5,2.5-0.7v2.5
	c-0.6,0.1-1.1,0.2-1.6,0.4c-0.7,0.3-1.4,0.7-2.1,1.1c-1.8,1.2-4,1.9-6.1,2c-0.4,0-0.8,0-1.1,0c-4.2-0.5-7.5-3.3-10-8.2V9
	c0.2-0.3,0.6-0.5,1-0.5c0.2,0,0.4,0.1,0.6,0.2l19.4,11.2V22.7z M36.5,15.4c0.6-0.4,1.4-0.2,1.7,0.5c0.1,0.2,0.2,0.4,0.2,0.5
	c0.2,2.2,0.1,4.4-0.3,6.6c-0.5,4.7-2.1,9.2-4.9,13.1c-1.2,1.6-2.4,3.1-3.6,4.6l-0.1,0.2v-4.2c0.6-0.7,1.1-1.4,1.7-2.2
	c2.5-3.5,4-7.6,4.4-11.9c0.2-1.3,0.3-2.6,0.4-3.9l-6.4,3.7v-2.9L36.5,15.4z M48.8,47.3c-0.4,3.8-2.6,8-6.6,12.5l-0.4,0.5
	c-3.6,3.8-6.9,7.8-10,12c-0.5,0.7-1.1,1.6-1.8,2.6l-0.5,0.7v-4.8c0,0,0.1-0.1,0.1-0.1c3.1-4.3,6.5-8.4,10.2-12.3l0.4-0.5
	c3.6-4,5.6-7.7,6-10.9c0.2-2.2-0.2-2.7-0.2-2.7c-2,0-8.2,6.1-14.6,14.5c-0.6,0.8-1.2,1.6-1.9,2.4v-4.4c4.5-5.8,12.3-15.2,16.5-15.2
	c0.8,0,1.5,0.3,2,0.9C48.8,43.4,49,45,48.8,47.3z M75.2,43.3c-0.7-0.1-1.4-0.2-2.1-0.3h-0.2c-2.1,0-3.5,2.2-4.9,4.3
	c-0.5,0.8-1,1.5-1.6,2.2c-0.1,0.1-0.1,0.2-0.2,0.2c-0.5,0.4-0.8,0.9-0.8,1.6c-0.2,3.1,3.7,9.1,9.9,15.4v3.6
	c-3.4-3.3-12.8-13-12.4-19.1c0-1.3,0.7-2.6,1.7-3.4c0.4-0.5,0.8-1.2,1.3-1.8c1.7-2.5,3.8-5.7,7.4-5.4c0.7,0.1,1.3,0.2,2,0.3V43.3z
	 M75.2,31.7c-0.2,0.2-0.4,0.4-0.7,0.5c-0.3,0.1-0.7,0.2-1,0.2c-0.8,0-1.5-0.2-2.3-0.4l-0.7-0.3l-2.6-0.5l-3.2-0.5
	c-0.6,0-1.1,0-1.6,0.2c-0.7,0.2-1.3,0.3-2,0.3c-0.8,0-1.6-0.2-2.4-0.7c-0.8-0.5-3.2-1.9-3-4s2.5-3,4.4-3.7l0.9-0.3
	c1.5-0.7,3.1-1,4.7-1.1c2.4,0,4.8,1.1,7.3,3.4c0.9,0.8,1.6,1.7,2.1,2.8V31.7z M99.9,55.4c-0.8,0.7-1.6,1.5-2.4,2.1L96,58.9
	c-1.2,1-2.3,2.2-3.5,3.4c-1.7,1.7-3.4,3.4-5.3,4.9c-2.5,1.7-5.4,3-8.4,3.7v-2.5c2.4-0.7,4.8-1.7,6.9-3.1c1.8-1.5,3.5-3,5-4.7
	c1.2-1.2,2.4-2.4,3.6-3.5l1.5-1.3c0.7-0.6,1.5-1.3,2.3-2V35c-3.2-1.3-6.9-0.7-11,2c-2.9,1.9-5.7,4.1-8.3,6.5v-3.3
	c2.2-1.9,4.5-3.7,7-5.3c5.1-3.3,9.9-3.9,14-1.8V55.4z"/>
</svg>
