<?xml version="1.0" encoding="utf-8"?>
<!-- Generator: Adobe Illustrator 23.0.1, SVG Export Plug-In . SVG Version: 6.00 Build 0)  -->
<svg version="1.1" id="Layer_1" xmlns="http://www.w3.org/2000/svg" xmlns:xlink="http://www.w3.org/1999/xlink" x="0px" y="0px"
	 viewBox="0 0 102.8 81.5" style="enable-background:new 0 0 102.8 81.5;" xml:space="preserve">
<style type="text/css">
	.st0{fill:#00ABC8;}
</style>
<title>AIR-NAV-Icons</title>
<path class="st0" d="M93.7,1.5h-85c-4,0-7.2,3.2-7.2,7.2v69.5c0,0.8,0.6,1.4,1.4,1.4c0,0,0,0,0,0h96.6c0.8,0,1.4-0.6,1.4-1.4
	c0,0,0,0,0,0V8.7C100.9,4.7,97.7,1.5,93.7,1.5z M46.5,59.2v3H33.3v-2.5c0-9.7,10.1-11.6,10.1-20c0-3.1-1-4.7-3.5-4.7
	s-3.5,1.8-3.5,4.4v2.7h-3.1v-2.5c0-4.6,2.1-7.6,6.7-7.6s6.8,3,6.8,7.6c0,9-10.1,12.3-10.2,19.2v0.5H46.5z M71.1,55
	c0,4.6-2.2,7.6-6.8,7.6s-6.7-3-6.7-7.6v-2h3.1v2.2c0,2.7,1.1,4.3,3.5,4.3s3.5-1.6,3.5-4.3v-5.8c0-2.7-1.1-4.3-3.5-4.3
	c-1.8,0-3.1,1-3.4,3.2v0.7h-3.1l0.8-16.6h11.9v3h-8.8l-0.5,9.2c0.9-1.6,2.6-2.6,4.4-2.5c3.8,0,5.6,2.8,5.6,7.1V55z M98.1,76.8h-12
	l12-12V76.8z M82.6,19.1v-5h-2.9v5h-57v-5h-2.9v5H4.4V8.7c0-2.4,1.9-4.3,4.3-4.4h85c2.4,0,4.3,1.9,4.3,4.4l0,10.4H82.6z"/>
</svg>
