<?xml version="1.0" encoding="utf-8"?>
<!-- Generator: Adobe Illustrator 23.0.1, SVG Export Plug-In . SVG Version: 6.00 Build 0)  -->
<svg version="1.1" id="Layer_1" xmlns="http://www.w3.org/2000/svg" xmlns:xlink="http://www.w3.org/1999/xlink" x="0px" y="0px"
	 viewBox="0 0 98.3 104.1" style="enable-background:new 0 0 98.3 104.1;" xml:space="preserve">
<style type="text/css">
	.st0{fill:#00ABC8;}
</style>
<title>AIR-NAV-Icons</title>
<path class="st0" d="M94.6,17.7L50.5,1c-0.1,0-0.1,0-0.2-0.1c-0.1,0-0.3-0.1-0.4-0.1c-0.1,0-0.2,0-0.4,0c-0.1,0-0.2,0-0.4,0
	c0,0,0,0-0.1,0c-0.1,0-0.2,0-0.3,0c-0.1,0-0.3,0-0.4,0c-0.2,0-0.3,0.1-0.5,0.1c-0.1,0-0.1,0-0.2,0.1l-0.1,0c0,0,0,0,0,0l-44,16.6
	c-1.5,0.6-2.5,2.1-2.5,3.7v78.1c0,1.3,0.6,2.5,1.7,3.2c0.7,0.5,1.4,0.7,2.2,0.7c0.5,0,0.9-0.1,1.4-0.2L49.1,87l26.5,10
	c0.4,0.2,0.9,0.3,1.4,0.2c1.1,0,2.1-0.4,2.8-1.2l16.2-16.7c0.7-0.7,1.1-1.7,1.1-2.7V21.4C97.2,19.7,96.1,18.3,94.6,17.7z M13.5,61.9
	l26.3-9.9c0.9-0.6,2.2-0.3,2.7,0.7s0.3,2.2-0.7,2.7c-0.2,0.1-0.4,0.2-0.7,0.3l-26.3,10c-0.2,0.1-0.5,0.1-0.7,0.1v0
	c-1.1-0.1-1.9-1-1.9-2.1C12.4,62.8,12.8,62.2,13.5,61.9z M12.3,50.9c0.1-0.7,0.5-1.4,1.2-1.7l26.3-9.9c0.9-0.6,2.2-0.3,2.7,0.7
	c0.6,0.9,0.3,2.2-0.7,2.7c-0.2,0.1-0.4,0.2-0.7,0.3l-26.3,9.9C14.6,53,14.4,53,14.2,53C13.1,52.9,12.2,52,12.3,50.9z M41.8,68
	c-0.2,0.1-0.4,0.2-0.7,0.3l-26.3,10c-0.2,0.1-0.5,0.1-0.7,0.1c-1.1-0.1-1.9-1.1-1.8-2.2c0.1-0.7,0.5-1.3,1.1-1.6l26.3-10
	c0.9-0.6,2.2-0.3,2.7,0.7C43.1,66.2,42.8,67.4,41.8,68z M41.8,30c-0.2,0.1-0.4,0.2-0.7,0.3l-26.3,10c-0.2,0.1-0.5,0.1-0.7,0.1
	c-1.1-0.1-1.9-1.1-1.8-2.2c0.1-0.7,0.5-1.3,1.1-1.6l26.3-10c0.9-0.6,2.2-0.3,2.7,0.7C43.1,28.2,42.8,29.4,41.8,30z M56.4,28.3
	c0.2-1.1,1.2-1.8,2.3-1.6c0.2,0,0.5,0.1,0.7,0.3l26.3,9.9c1,0.5,1.4,1.7,1,2.7c-0.3,0.7-0.9,1.1-1.7,1.2v0c-0.2,0-0.5,0-0.7-0.1
	L58,30.6C56.9,30.4,56.2,29.3,56.4,28.3z M84.3,53.2L58,43.3c-1-0.5-1.4-1.7-0.9-2.7c0.4-0.8,1.4-1.2,2.2-1l26.3,10
	c1,0.5,1.4,1.7,1,2.7c-0.3,0.7-0.9,1.1-1.7,1.2v0C84.7,53.4,84.5,53.3,84.3,53.2z M56.4,53.6c0.2-1.1,1.2-1.8,2.3-1.6
	c0.2,0,0.5,0.1,0.7,0.3l26.3,9.9c1,0.5,1.4,1.7,1,2.7C86.3,65.5,85.7,66,85,66c-0.2,0-0.5,0-0.7-0.1L58,56
	C56.9,55.8,56.2,54.7,56.4,53.6z M94.5,76.6c-0.2,1.1-1.3,1.8-2.3,1.6c-0.2,0-0.4-0.1-0.6-0.2L78,72.8v20c0,1.1-0.9,2-2,2l0-0.1
	c-1.1,0-2-0.9-2-2V69.9c0-0.6,0.3-1.2,0.8-1.6c0.5-0.4,1.2-0.5,1.8-0.2l16.2,6.1C94,74.4,94.7,75.5,94.5,76.6z"/>
</svg>
