<svg xmlns="http://www.w3.org/2000/svg" viewBox="0 0 250 250"><defs><style>.cls-1{fill:#00abc8;fill-rule:evenodd;}</style></defs><title>Icons-sitewide</title><g id="Submit_group" data-name="Submit group"><path class="cls-1" d="M5.45,218c2.22-5.26,5.55-9,8.28-13.07,9.74-14.6,15.17-31.08,20.11-47.65,5.44-18.23,9.49-36.82,13.4-55.47,2.79-13.3,4.86-26.74,8-40a51.4,51.4,0,0,0,1.89-12.47,27.22,27.22,0,0,1,2.5-11.54c3-6.75,5.9-13.57,9.12-20.22,2.89-6,5.86-7.84,11.79-6.26a10.76,10.76,0,0,0,6.94-.52c1.86-.64,4.15-2.18,5.64-.84,4.13,3.71,9.71,1.31,13.37,3.15,5.3,2.65,9.34,1,14,.07a10.12,10.12,0,0,1,5.13.27c8.43,3,12,3.6,20.86,2.68,1.27-.14,2.63-.35,3.56.47,1.92,1.69,3.93.94,6.1,1.05,7.81.4,15.61,1.1,23.42,1.62a10.63,10.63,0,0,1,10.14,8.51c.9,3.93,3,5.82,7.41,5.13,3.12-.49,4.55,1.29,5.46,4.55C206.29,50.71,208,64.14,209,77.77a434.65,434.65,0,0,0,5.68,45.68c2.95,16.3,7.57,32.19,10.59,48.46,1,5.47,4.18,10.5,5.93,15.87,3.74,11.48,11.26,27.77,6,29.56-3.91,2.2-8.11,1.94-12.33,1.78-1.28-.05-3.11.47-2.5,1.81,2.55,5.64-1.81,4.14-4.28,4.27a86.48,86.48,0,0,1-9.66-.07c-3.49-.2-8.77,1.34-12.41,3.14-2.21,1.09-4.33.51-6.47-.29-3.3-1.23-5.93-1.29-5.94,3.4a2.06,2.06,0,0,1-2.38,2.2c-5.63-.18-11.14,3-16.86.52-1.71-.75-2.77.06-3.38,1.75-1.43,4-4.53,4.49-8.32,4.24-4.41-.28-8.91.6-13-2.06-2.17-1.43-3.82-.29-4.74,1.8-2.44,5.52-7.3,5.92-12.37,6.15-14,.62-27.51-3-41.22-4.83-13.26-1.82-25.75-7-39-8.7-3.61-.48-7.15-2-10.56-3.41C23.12,225.44,14,223,5.45,218ZM140.05,78.75c2.72,2.85,6.39,3.43,10,4,6.26,1,6.66.63,6.59-5.77-.05-4.72-2.74-7-8.56-7.95-4.34-.72-5.61,1.59-6.34,5.14A32.34,32.34,0,0,1,140,79c.41-3.35,1.68-6.8-.4-10-.89-1.37-11.15-3.37-12.73-2.59a2.47,2.47,0,0,0-1.33,1.54A64.54,64.54,0,0,0,125,76c0,2.5,3.08,2.14,4.08,3.82-1.85.21-4.32-.77-5.18,1.64-1.58,4.42-2.58,9.34-1.26,13.7s6.42,1.93,9.72,3c1.85.58,3.94,1.5,5.16-.9,2.08-4.12,2-8.73,1.31-13-.61-3.62-5-2-7.44-3.27l-2.55-1.34C132.49,78.71,136.48,81.61,140.05,78.75Zm-94.23,87c-.65,2.76.1,4.92,2.69,6.28a26.71,26.71,0,0,1-10-1.11c-4.64-1.2-5.92-.1-7.16,4.71-.25,1-.54,1.91-.74,2.88-1,4.64-.61,4.86,3.92,5.83,3,.64,4.53-.32,5.63-3.06.67-1.65,1-3.63,2.8-5a10.08,10.08,0,0,1,0,2.42c-2.09,7.36-2.12,7.45,5,9C58.22,190,57.13,189.28,61,179c1-2.58.19-4-2.74-4.76-3.33-.79-6.95-.33-10-2.35a34.26,34.26,0,0,1,8.87.49c4.43.67,6.52-1,7.38-5.78.65-3.64-.11-4.5-4.88-5.51-1.45-.31-2.91-.6-4.35-.94-5.62-1.3-5.62-1.31-9,4.18-.1-2.3,1.16-4.87-1.9-6.44-4.5-2.32-6.59-1.32-8.18,4.59-.48,1.79-2.15,4.1-.4,5.5a7.11,7.11,0,0,0,7.64.54C44.47,168,45.05,166.71,45.82,165.76Zm82.58,10.56c1.69.32,3.42.51,5.06,1,2.27.67,3.86.26,4.63-2.15,1.11-3.51,2.64-6.88,2.78-10.67.1-2.24-.45-3.83-2.73-4.58-1.4-.45-2.76-1-4.14-1.53,8,.73,8,.73,10.73-6.74.26-.69.58-1.35.8-2,1.7-5.42,1.46-6-4-9.05,3.88.57,6.93.12,7-4.92,0-1.92.46-4,2.24-5.28-.52,10.36-.52,10.36,9.44,12.29,1.45.28,2.88.69,4.34.85,5.23.59,6.23-.09,6.91-5,.45-3.16.33-6.4,1.36-9.49.94-2.8-.75-3.33-3.05-3.48-4.19-.28-8.35-.74-12.08-3,5,.91,9.8.87,14.35-1.72,2.43-1.4,4.45-6.67,4-10.38-.46-3.93-3.56-2.48-5.72-2.94-1.43-.3-3-.36-3.69-2.08,1.92-1.18,3.91-.28,5.77-.06,2.94.33,3.88-.85,4.24-3.61,1.69-13.06,1.61-12.91-10.06-14.11-1.72-.17-3.43-.52-5.15-.71-1-.12-2.4-.27-2.67.72-1.28,4.71-2.9,9.42-2.16,14.43.25,1.73,3.14,1.05,3,2.32s-3,.51-3.4,2.24c-.69,2.87-.75,5.94-1.78,8.66-1.49,3.95-.07,6,3.48,7.38-2.44-.07-4.29.53-5,3.28a25.57,25.57,0,0,1-2.28,4.64c.83-4.75.28-9.55,1.63-14.38,3.33-12,3.45-10.66-9.43-14-2.64-.69-4.31,0-4.67,2.94a42.59,42.59,0,0,0-.68,5.11c0,8-2.18,15.42-4.69,22.85,1.09-2.57-.13-5.43.73-7.9,1.31-3.74-.78-5.87-3-8.14.95.09,2.12.6,2.81.22,2.91-1.6,4.18-14.16,1.75-16.21a4.61,4.61,0,0,0-1.3-.63c-10.55-4.06-14.22-1.64-15,9.57-.22,3.24.45,5.14,4,5.65,1.63.25,3.14,1.28,4.71,2a26.45,26.45,0,0,0-2.91-.51c-6-.47-6-.44-7.17,5.36-.7,3.36-1.75,6.64-2.64,10,1-3.86.36-7.84.87-11.73.47-3.59-1.44-4.77-4.6-5.17-2.36-.28-5,0-7.72-2.35a19.8,19.8,0,0,1,3.12-.17c10.19,1.66,11.2.84,11.81-9.59,0-.74,0-1.48.06-2.21.38-2.86-1-3.94-3.72-4.2-2.87-.27-6,.11-8.22-2.49,3.19.23,6.41.31,9.59.72,2.87.35,4.38-1,4.44-3.56.11-4,2.66-8.14-.22-12-.43-.57-1.84-.52-2.81-.55A21.28,21.28,0,0,1,109.48,77c2.4,0,4.37,0,6.35,0,6.88-.13,7.3-.72,7-7.79-.11-2.89-.9-4.67-4.08-5-3-.29-5.87-.83-8.79-1.35s-4.14.6-4.44,3.39c-.85,7.6-1.65,15.19-2.74,22.75-.48,3.33,2,4.13,3.85,5.6-5.24-.54-5.8,3.5-6.47,7-.65,3.32-.6,6.79-3.25,9.38.61-4.17,1.24-8.32,1.79-12.5.23-1.73.49-4-1.84-4.17-4.4-.4-9.11-3.5-13-1.25-3.32,1.93-2.68,7-3.54,10.8-.77,3.39.82,5,4,5.9,3.52,1,7.53.33,10.64,2.86a44.4,44.4,0,0,1-11.78-1.42c-2.66-.81-3.79.34-4,2.71-.34,3.44-.59,6.85-2.24,10-1.55,3,.45,4.51,3.36,5.75-4.12-.27-5.73,1.6-5.84,5.27a19.51,19.51,0,0,1-1.17,5c-.73,2.39,0,3.73,2.46,4.34,3,.75,6,1.71,10.53,3-2.33.2-3,.27-3.77.32-3.26.27-6.28-2.8-9.37-1.33-3.51,1.69-1.92,6.45-4.33,9.05.66-8.77.66-8.76-7.05-11.9-1.13-.46-2.21-1.06-3.31-1.59,1,.09,2,.11,2.93.28C71,144,71,144,72.39,134.65c.8-5.32.79-5.28-4.34-6.86-1.86-.58-3.64-1.43-5.45-2.14,1.47.13,3,.18,4.41.42,7.29,1.21,7.29,1.23,8.8-5.61,2.07-9.41,2.07-9.41-6.53-12.53,8.7.27,9.6-.51,10.39-9.14.14-1.47.16-3,.21-4.43,0-1-.22-2.23-1.11-2.57-4.18-1.59-8.68-2.91-13-1.82-3.19.82-1.45,4.73-2.25,7.16A18,18,0,0,0,63,99.29c-1.07,5.39-1.06,5.38,4,7.41a26.93,26.93,0,0,1,2.59,1.39c-7-.52-7-.52-9.23,5.63a25.06,25.06,0,0,1-1.06,2.74c-.43.85-.37,2.21-2.27,2.42.68-5.15,6-11.16-2.74-14,6.25-.31,7-.9,7.51-6.37a63.75,63.75,0,0,0,0-6.63c0-1.86-.45-3.52-2.76-3.56-2.14,0-4.53-.58-5.36,2.46-.65,2.36-1.52,4.65-2.23,7-1,3.23-.16,5.76,3,7.28-2.47.1-4.15,1.15-4.68,3.72-.45,2.14-1,4.26-1.46,6.41-1,5.42-.07,7,5.55,7.77a23.93,23.93,0,0,1,8.92,2.8c-4.12-1.14-6.21.51-6.91,4.66-.25,1.51-.1,3.46-2,4.31a49.62,49.62,0,0,1,.72-5.86c.49-2.05,0-3.33-2-4.1s-3.77-1.57-5.63-.39c-2.85,1.8-3.89,12-1.58,14.61.29.34.87.43,1.31.64-.24.24-.48.67-.72.67-6.37.14-4.65,5.94-6.39,9.24-1.24,2.38-.45,4.05,2.48,4.85,6.08,1.69,12,3.82,18.27,5,4.7.89,6.84-.49,8.57-4.21-.84,4.47,1.06,6.68,5.53,7.54a231.23,231.23,0,0,1,26.29,6.59c1.56.5,3.59,1.4,4.76-.4,2.48-3.82,2.34-8.43,3.28-12.71.74-3.4-3.49-3-4.21-5.35,3.62.87,5.76.39,6.37-4.21,1.38-10.27,1.66-10.22-8.8-12.53-1.2-.26-2.37-.61-3.52-1-2.37-.79-4.28.09-6,1.57.2-2-4.32-4,0-5.92.22-5.48,3.59-10.55,2.06-16.27a2.76,2.76,0,0,1,2.43-1.71c1.25,2.41-.34,4.83,0,7.2.57,4.31-4.55,9.07-.89,12.29,3,2.6,8.35,2.2,12.39,3.81,3.06,1.22,4.54-.34,6.34-2,.66,2.25,1.54,4.1,4.42,4.1a15.32,15.32,0,0,1,5.82.85c4.49,1.86,6.33-.62,7.76-4.15-.42,3.27.4,5.67,4.18,6.09a9.34,9.34,0,0,1,4.66,1.7c-8.74-.56-8.73-.56-11.4,7.73-.43,1.36-.54,2.91-1.89,3.85a25.19,25.19,0,0,1,1.43-8.71c.92-2.22-.1-3.78-2.25-4.68-9.19-3.9-12.73-2-14.71,7.75-1.12,5.56-1.07,6,4.45,6.95,3.76.65,8.15,3.56,11.23-1.54-1.41,5,3.56,4.47,5.61,6.48-6,.07-6,.08-7.38,5.21a48.55,48.55,0,0,1-1.66,5.59c-1.43,3.67-.18,5.94,3.39,7.18-5.34.56-7,2.18-7.39,7.72-.33,4.58,4,2.34,5.86,3.81a5,5,0,0,0,2.11.61c4.37.86,5.44.05,6.62-4.59.94-3.69-.87-4.95-4.17-5.2A3.21,3.21,0,0,1,128.4,176.32ZM64.65,81.92c.14-3.19.41-6.39.4-9.58s-2.78-2.8-4.84-3.3-3.19.2-3.41,2.46c-.4,3.92-1,7.82-1.44,11.75A3.07,3.07,0,0,0,58.11,87c1.72.28,3.49.49,4.57-1.4.73-1.29,1.41-2.6,2.12-3.9-.5,3.3,0,5.87,4.1,6.18,1.95.15,3.85.83,5.8,1,5.12.42,5.26.25,6-4.88,1.62-10.46,1.61-10.45-9.37-12.57a12.17,12.17,0,0,1-1.39-.5c-1.81-.59-2.72.15-3.1,2C66.24,75.86,66.75,79.2,64.65,81.92Zm9.19,94.6c-2.21-.16-4.43-.32-6.65-.45A3.41,3.41,0,0,0,64,177.42c-2.36,3.07-2.64,6.85-3.53,10.4-.25,1,.75,1.77,1.77,2,16,3.69,14.92,7.82,19.1-9,.09-.37-.27-.86-.44-1.35-2.34-1.18-5.44-.69-7.27-3.14,2,.18,3.94.48,5.92.52,2.42,0,5-3.42,5.22-6.88.2-2.92-1.53-4-4.09-4.08a38.18,38.18,0,0,1-8-1.45c-4.69-1.22-5.85.07-7.44,5.64-1.3,4.59,2.25,4.1,4.55,4.8C71.2,175.34,72.67,175.48,73.84,176.52Zm59,19.09c.15-1.2.56-2.65-.41-3.5-3.34-2.89-7.63-3-11.7-3.42-1.69-.16-6.1,10.54-5,12.11a4.71,4.71,0,0,0,2.46,1.33c8.86,2.64,8.86,2.61,13.8-5.78a4.75,4.75,0,0,1,1.07-1,4.53,4.53,0,0,0,0,1.47c.9,2.82-3.63,5.37-.63,8.11,2.27,2.08,5.52,1.84,8.38,2.44,2.16.46,4.37.69,6.57,1,1.58.2,3-.23,3.66-1.8,1.29-3.29,4-6.12,3.58-10.12-2.38-.66-4.48-1.34-6.62-1.82-2.39-.55-5.11-.39-7.17-1.5C137,191,135.08,193.35,132.88,195.61ZM145.59,161c3.95.29,7.94.32,11.85.9,10,1.47,10.18,1.4,11.65-8.57.22-1.47.52-2.93.74-4.4a2.53,2.53,0,0,0-2.29-3.17q-7.66-1.28-15.35-2.42c-1.59-.23-3.18.26-3.51,2-1,5.26-4.21,10.13-2.84,15.83-4.47,4.22-4.51,10.09-5.69,15.51a2.29,2.29,0,0,0,1.92,2.74c5.3,1.16,10.62,2.25,15.91,3.44a2.16,2.16,0,0,0,2.86-1.54c1.2-3.77,2.37-7.55,3.44-11.35.74-2.68-.64-4.08-3.07-5-2.14-.83-4.35-.9-6.53-1.33C151.59,163,148.13,163.61,145.59,161ZM180,123.76c-4.12,2.09-2.86,6.38-3.87,9.71-2.22,7.33-1.8,15.09-3.72,22.56-2.4,9.33-5.44,18.45-8.19,27.66-4.22,14.16-10.13,27.3-18.87,39.16-6.89,9.34-8.81,11.71,6.52,13.93,3.79.55,5.71-.22,7-4.29,4.28-13.41,8.31-26.82,10.66-40.77,2.92-17.29,7.21-34.34,9-51.85.54-5.41,0-10.9,1.4-16.27,1-5.73,2.71-11.38,1.56-17.71C178.94,112,177.82,117.72,180,123.76Zm-2.23-73.5c.5-1.07,1.39-2.75-.14-3a3.54,3.54,0,0,0-4.45,3.39c2,1.39,3.38.19,4.85-.63-.37,1.19-.78,3-1.87,3-4.91-.2-9.16,3.21-14.09,2.4-1.65-.28-3.39-.5-4.17-2.41,6,.66,6,.66,10.64-1.77-3.75-2.84-8.85-2-12.22-5.37-.74-.73-4-.6-5.69,1.88-3.23,4.6-6.39,5.12-10,1.39-3.79-3.93-8.1-3.31-12.24-2.27-6.71,1.69-6.73,2.1-11-4.2-1.5-2.22-3-2.39-4.88-1-1.18.85-1.94,2.33-3.15,3.12-4.17,2.7-7.12,1.74-8.78-3.24-.77-2.33-1.76-2.71-3.67-1.93-1.6.66-3.12,1.5-4.68,2.27.26-1,.56-2.09-.47-2.61a5,5,0,0,0-6,.76,2.19,2.19,0,0,0-.43,2.7c1.4,2.28,3.42.84,5.22.73-5.7,3.77-7.42,3.21-7.82-2.71-.1-1.48.31-3.08-1.36-3.76-2.12-.87-3.07.82-4,2.26-1.1,1.69-2.31,3.16-4.44,3.46.41-.84,1.41-2.06,1.14-2.47-1.28-2-3.62-1.65-5.62-2-.25,0-.86.6-.86.94,0,2.25,1.9,2.45,3.41,3a13.21,13.21,0,0,0,2.12.35c-3.41,3-5.16.67-6.83-2.1-1-1.63.82-3.82-1.39-5.65-2.85,6.38-5.08,12.49-2.4,19.3-3.36,1.53-3,4.92-3.63,7.68-.93,3.93.2,5.33,4.09,6s3.59-2.33,4.19-4.61c.27-1-1.54-2.21.22-3.08,1.51.06,1.4,1.21,1.43,2.14.22,7,.21,7,6.65,8.35,1.46.31,2.89.76,4.35,1,.65.1,1.76,0,2-.41a17.09,17.09,0,0,0,2.14-9.95c-.27-3-3.08-2.78-5.18-3.14-5.6-1-11.27-1.5-16.46-4.07,10.35.48,20.4,3,30.58,4.42,21.35,2.91,42.47,7.06,63.71,10.49a143.31,143.31,0,0,0,18.49,1.85c3.79.12,5.91-.78,6.35-5.1.91-8.82,1.26-17.77,4.85-26.15.87-2-.66-2.92-2.78-3.22-4.06-.57-8.35,1.42-12.25-1.25-.91-.61-1.82.27-2.1,1.34a6.49,6.49,0,0,0,4.28,7.51c1.65.48,3.55.48,5,1.31C181.78,47.11,180.71,48.9,177.74,50.26Zm-116,157.49a135.93,135.93,0,0,1-18.23-3c-3-.72-6.25-2-9.46-.74-1.87.75-2.51-.78-3.74-1.43-5.86-3.16-8.73-2.41-12.83,3-1.36,1.77-2.88,3.41-4.16,5.23-3.17,4.48-2.94,5.36,1.79,7.75a20.45,20.45,0,0,0,2.74,1.12C30,223.56,41.91,228,54.51,231c22.2,5.13,44.33,9.87,67.15,10.67,3.16.12,6.76.07,8.89-2.66,3-3.83,5.69-8,6.89-13.11a26.78,26.78,0,0,1-3.09-.83c-7.16-2.85-15.25-1.93-22.21-5.56,9.9.64,8.36,1.15,12.78-7.53,1-1.88,2.23-4-.69-5.72-3.58-2.06-8.12-2.7-9.77-.9-2.28,2.48-1.87,6.09-3.46,8.92-1.18,2.1.23,3.77,1.35,5.41-3.27,1.25-6.26-.47-9.35-1-2.42-.39-4.72-1.56-7.13-1.82A67.39,67.39,0,0,1,78,212.08c3-.29,5.84.87,8.73,1.54,1.65.38,4.25,1.07,4.71-.75,1.14-4.51,5.78-8.45,2.72-13.71-.64-1.08-1-1.36.48-1.87,5.6-1.91,5.5-7.38,5.65-11.52.15-3.9-5-2.88-7.61-4.31-1.24-.67-3-.18-4-1.57,3.49-1.41,6.21,1.2,9.3,1.67,3.77.55,5.4-.35,6.39-4.22.76-3,.36-5.32-3.39-6.05-2.89-.57-5.65-1.79-8.53-2.52-4-1-5.58-.31-6.26,3.78a76.12,76.12,0,0,1-4.49,14.82c-.7,1.81-1.94,3.66-1.37,5.68.67,2.35,4.09,1.13,5.21,3.81-4.57-1.26-7.34.36-8.41,4.77a12,12,0,0,1-1.31,3.46c-2.13,3.43-.62,5.52,2.41,7.15-6.19.76-11.41-2-16.67-4.64,2.45.32,4.9.56,7.34,1,1,.17,2.14.41,2.81-.3a14.87,14.87,0,0,0,3.8-10.95c-.13-3.06-3.29-3.11-5.71-3.58-1.45-.28-2.87-.74-4.31-1.1-5.87-1.47-6.77-1-8.38,4.82-1.55,5.54-1.42,5.83,3.63,9.21A6.92,6.92,0,0,1,61.75,207.75Zm174.56,6.87a7.42,7.42,0,0,0,.08-2.36c-.68-2.12-1.46-4.21-2.3-6.28-8.39-20.64-15.4-41.69-19.17-63.72-1.21-7.07-2-14.27-3.95-21.15-4.08-14.67-5.37-29.72-6.17-44.73-.55-10.24-2.72-20-4.8-29.92-.43-2-1.37-3.37-3.17-3.84-.93,16.83,2.15,33.25,2,49.88-.1,12.38,0,24.9,1.76,37.12,3.45,24.49,7.56,48.89,14.14,72.81,3.66,13.32,3.87,13.74,17.9,12.82A36.47,36.47,0,0,0,236.31,214.62ZM190.36,42c-1.78,3-1.17,5.47-1.2,7.93-.07,9.23,3,18.18,2.85,27.33-.35,26.53.3,53,2.09,79.49,1.18,17.49,1.87,35.05,5.09,52.39,2.36,12.69,2.08,9.72,12.81,12.75,1.65.47,3.51,1.11,4.89-.4s.17-3.39-.49-4.83c-4.11-9.06-6.48-18.73-8.75-28.3a450,450,0,0,1-8.47-46.65c-1.71-13.3-2.72-26.62-3.44-40-.91-16.33-1.07-32.69-1.53-49C194.11,49,193.55,45.45,190.36,42Zm-1.11,41.31c-2.79,7.51-2.8,14.29-2.85,21.14-.06,9.15.16,18.41-1.08,27.44-2.7,19.62-2.56,39.33-2.63,59,0,7.13.72,14.31.49,21.47-.32,10,1.52,12,11.73,12a7.27,7.27,0,0,0,4.33-.91,6.48,6.48,0,0,0,0-2.11c-3.38-9.12-5.69-18.42-5.26-28.25a29.36,29.36,0,0,0-.42-3.69c-1.33-16-3.8-31.92-3.87-48C189.59,122.38,188.55,103.35,189.25,83.32Zm-10,82.12c-2.6,2.74-2.68,5.91-3,9-.4,3.43-.08,7-1,10.29-3.86,13.46-4.77,27.68-10.62,40.61-1.26,2.78-.37,4.66,2.85,5.41a30.64,30.64,0,0,0,11.82.49ZM158.35,79c-.28,5.74-.28,5.71,5.19,6.39a54.23,54.23,0,0,1,5.83,1c8.62,2.11,10.17.92,10-7.82,0-.5,0-1,0-1.48,0-2.13-1.16-3.33-3.16-3.33a74.48,74.48,0,0,1-14-1.69c-2.29-.44-3.84.62-3.88,3.2C158.33,76.52,158.35,77.76,158.35,79ZM88.89,74.56c-3.61-.36-4.14,0-4.87,2.71-3,11.26-1.85,13,9.79,14.44,1.23.15,2.46.32,3.69.41,1,.07,2.24-.23,2.45-1.23.87-4.34,2.6-8.88,1.32-13.12-.92-3-4.83-1.25-7.35-1.86C92,75.44,90.11,74.88,88.89,74.56Zm29.46,98.62c3.37.35,3.61.26,4.68-3.11.67-2.11,1.16-4.28,1.66-6.45,1.45-6.08,1.2-6.45-5.06-8-8.22-2-8.36-2.07-9.68,6.25-.46,3-3.66,6.46-.74,8.86C111.43,172.53,115.24,172.42,118.35,173.18Zm-73.1,15.51c-3.91-.83-5.67-.08-6.51,2.58-.6,1.88-1.41,3.7-2.18,5.52-1.21,2.82-.89,4.72,2.62,5.32,3.17.53,6.3,1.34,9.42,2.1s4.75-.41,5.54-3.34c.45-1.67,1.13-3.27,1.57-4.93,1.08-4.17,0-5.84-4.46-6.57C48.82,189,46.33,188.81,45.25,188.69ZM155.82,91.56c.23-2.26.45-4.59-2-5.87-3.56-1.89-7.75-3-11.34-2-3.16.9-1.63,5.15-2.11,7.92-.29,1.69-.3,3.43-.5,5.14-.15,1.33,0,2.81,1.34,3.06,3.83.74,7.89,3.25,11.41,1.76,2.7-1.15,2.53-5.46,3-8.57C155.72,92.54,155.77,92.05,155.82,91.56Zm-23.35,116.2c-1.23-.23-2.86-.49-3.37.65a77.75,77.75,0,0,0-3.71,10.24c-.35,1.23,1.09,1.93,2.24,2.5,8.05,4,11.93,3,16.92-4.47,2.81-4.2,2.53-5.37-2-6.71C139.23,209,135.82,208.49,132.47,207.76Zm-40-179.32a34.61,34.61,0,0,0,.76,4.25c1,3.7,4,3.74,7.13,3.65,3.54-.1,3.5-1.93,3.52-4.81a16.78,16.78,0,0,1,3.91-10.19c1.9-2.46.66-4.87-2.22-5.23C100.22,15.43,92.43,22.25,92.43,28.44Zm11.12,39.21c.24-4.77-.35-5.55-5-6.43-1-.18-2-.28-2.94-.44-8.41-1.46-8.12-1.41-9.7,6.73-.74,3.79.46,4.92,3.8,5.32,2,.22,3.85.93,5.8,1.28C102.41,75.32,103.2,74.67,103.55,67.65Zm16.13-50.84c-4.89.78-8.05,5.42-11,10.4-1.49,2.56-2.09,5.13.22,7.48s5.34,2.38,8.34,2c1.13-.13,1.44-1.06,1.46-2.18.12-4.92,3.11-8.73,5.13-12.91C125.7,17.85,125.05,16.6,119.68,16.81Zm-8.91,190.31c.18-2.18.43-3.64-.7-4.37-3-1.92-6.6-2.11-9.9-2.29s-2.8,3.41-3.54,5.6c-2.73,8.12-2.73,8.13,5.23,10,5.85,1.37,6.41,1.06,8-4.8C110.35,209.58,110.61,207.87,110.77,207.12Zm38.13-187c-10.33,2.46-17.54,11.05-16.68,18.43.27,2.31.79,4.34,3.87,4.33,3.82,0,7.56-2,7.12-4.56C142.1,31.79,144.67,26.43,148.9,20.15Zm36.88,12.73c1.66-4.31-.41-6.75-3.15-8.5-5.15-3.31-10.41-1.91-15.52.32s-7.2,6.86-7.3,11.93c-.08,3.25.79,7,4.32,8.85a2.79,2.79,0,0,0,2,.11c.84-.28.79-1.19.61-1.9s-.55-1.37-.8-2.07c-2.68-7.3.62-12.86,8.13-13.74C178.79,27.33,183.07,27.74,185.78,32.88ZM152.49,193.22c3.83,1.21,5-.54,5.62-2.93.69-2.6.74-4.94-2.64-5.79-4.54-1.13-9.21-1.58-13.71-3.1-2.83-1-3.73,1.51-4.19,3.89-.42,2.2-1,3.91,2.07,5.26C144.11,192.5,148.88,192.23,152.49,193.22ZM116,190.88c.39-3.87-.55-4.49-8.31-5.54-3.68-.5-6.82,3.28-7.5,9.07-.34,2.9,3.57,5.21,9.66,5.72C113.32,200.42,115.29,197.46,116,190.88ZM161.07,21.82c-5-1.43-7.71,1.07-10.27,3.84s-4.84,5.79-4.57,9.77c.24,3.64,2.73,5.69,6.1,6.59,2.27.61,4.21,0,3.9-2.78C155.53,33,158,27.69,161.07,21.82ZM89.62,28.1c-.86-3.56.53-6.83,3.19-9.76,1-1.05,2.18-2.15.79-3.81s-3-1.09-4.63-.25c-4.76,2.43-8.68,12.54-6.73,17.52,1,2.55,3.29,3,5.5,2.94,2.6-.07,1.88-2.36,2-4C89.76,30,89.67,29.29,89.62,28.1ZM69,29.18c0,1.51-.1,4.13,3,5,2.53.73,5-1.77,6.06-5.21a65.07,65.07,0,0,0,1.89-9.35c.26-1.83.47-3.57-1.65-4.26a4.24,4.24,0,0,0-4.63,1.45C70.69,20.05,69.48,24,69,29.18ZM37.62,188.09c-.85-1.49-2.17-1.56-3.29-1.92-5.11-1.65-6.32-1.08-8.42,3.85-.29.68-.34,1.44-.61,2.12-2.35,5.94-1.77,6.84,4.27,7.76,2.44.36,3.75-.51,4.54-2.6C35.28,194.14,37.27,191.28,37.62,188.09ZM120.36,178c.15-1.16-.73-2-2-2.38-2.34-.7-4.75-1.13-7.06-1.9-3.09-1-4.48.51-5.51,3.09-2.12,5.35-1.46,6.53,4.41,7.5.71.12,1.43.29,2.15.41C116.77,185.45,120.28,182.63,120.36,178Zm7.49-138.84c-.3-7.52,5.43-11.78,7.18-18-6.09.4-9.84,3.56-11.81,9.38C122,34.23,123.19,36.75,127.85,39.15Zm21.31,7.09a2.51,2.51,0,0,0-3.2-2.18c-1.82.37-4.34.24-4.51,2.76-.16,2.17,1.81,2.66,3.64,2.73C147.38,49.64,148.82,48.6,149.16,46.24Zm-24.61.3c1.56-.71,4.12-1.25,3.36-3.12-1-2.32-3.9-2.33-6.24-2.52a1.58,1.58,0,0,0-1.78,1.81A4.93,4.93,0,0,0,124.55,46.54Zm-14.67-4.81A2.76,2.76,0,0,0,107,38.91c-1.64-.1-3.67-.45-4.14,2-.3,1.59,0,3.08,2,3.18S109,44.06,109.88,41.73Z"/></g></svg>