<svg xmlns="http://www.w3.org/2000/svg" viewBox="0 0 250 250"><defs><style>.cls-1{fill:#00abc8;fill-rule:evenodd;}</style></defs><title>Icons-sitewide</title><g id="submit_event" data-name="submit event"><path id="type23" class="cls-1" d="M103.68,197.51c4.13-1.54,7.66-.78,11.13-.31a72.86,72.86,0,0,0,13.54.61,169,169,0,0,1,27.18.34,95.37,95.37,0,0,0,10.29.08,15.39,15.39,0,0,1,5.66,1c-3.19,1.5-6.21,1.11-9.18.94A322.59,322.59,0,0,0,130,200c-8.29.34-16.67.47-24.82-1.79A13.37,13.37,0,0,1,103.68,197.51Z"/><path id="type22" class="cls-1" d="M103,158.38c2.18-.75,4.12-.44,6-.38,12.24.43,24.49.11,36.72-.39,7.12-.29,14.18.79,21.27.4.29,0,.6.3.85.44.16.89-.5.85-.9.85-11,0-22.05-.07-33.08,0-6.61.05-13.22.35-19.83.55a58.54,58.54,0,0,1-9.17-.31A2.2,2.2,0,0,1,103,158.38Z"/><path id="type21" class="cls-1" d="M164.76,180.15a3.89,3.89,0,0,1-1.22.41c-4.16-.12-8.32-.25-12.48-.45-5-.24-10-.65-15-.81-8.45-.26-16.9.5-25.35,0a34.79,34.79,0,0,0-4.38.45c-1,.07-2.27.21-2.29-1.12s1.25-.88,2-.88q10.11,0,20.24,0c5.64,0,11.28,0,16.92.18,6.37.23,12.72.7,19.08,1.09C163.13,179.06,164.08,178.83,164.76,180.15Z"/><path id="type20" class="cls-1" d="M126,67.42a29.46,29.46,0,0,1,10.57.06,54.64,54.64,0,0,0,11.36.44,126.06,126.06,0,0,1,16.13.5c1.58.12,3.18,0,4.77.07.49,0,1,.16,1,.78a1,1,0,0,1-1.09,1.18c-2.08-.06-4.18-.09-6.24-.33-6.24-.73-12.5-.41-18.75-.33a30.4,30.4,0,0,1-5.88-.31c-3-.54-6-1.3-9.1-.59C127.94,69.11,126.89,68.94,126,67.42Z"/><path id="type-signature" class="cls-1" d="M161.92,119.09a2.1,2.1,0,0,1-2.45-1.14c-1.32-1.87-2.35-1.77-3.34.3-.73,1.54-1.23,3.2-1.85,4.79a8.56,8.56,0,0,1-.74,1.66,1.13,1.13,0,0,1-1.33.3.87.87,0,0,1-.73-1.09c1.33-3.89.27-8.43,3.27-11.85a7.62,7.62,0,0,1,1.17-1.39c.85-.57,2-.49,1.77.71-.53,2.83,2.3,2.67,3.19,4.08,1.47,2.31,3.26,1.64,5.17,1.19.83-.19,1.68-.36,2.52-.48a1.08,1.08,0,0,1,1.37.88c.15.88-.29,1.49-1.19,1.43A23,23,0,0,0,161.92,119.09Z"/><path id="type19" class="cls-1" d="M151.77,96.28c-3,.27-5.5,1-8.19.49-4-.72-8.06.46-12.1.1a5.82,5.82,0,0,1-2.52-.34,1,1,0,0,1-.54-1.21,1.4,1.4,0,0,1,.71-.71,2.59,2.59,0,0,1,1.08-.13c6.12.17,12.24.31,18.35.53C149.58,95.05,150.75,95,151.77,96.28Z"/><path id="type18" class="cls-1" d="M90.11,177.35A3.3,3.3,0,0,1,87,180.67c-2.15,0-4.4-2.06-4.39-4,0-2.15,1.5-3.32,4.32-3.36C88.72,173.26,90.1,175,90.11,177.35Z"/><path id="type17" class="cls-1" d="M88.05,195.14a2.07,2.07,0,0,1,2.48,1.68c.39,1.24.58,2.36-.49,3.36-1.33,1.24-5,1.56-6.59.55a2.82,2.82,0,0,1,.36-4.83C85.16,195.17,86.7,195.48,88.05,195.14Z"/><path id="type16" class="cls-1" d="M115.15,143.55c-3.29-.38-6.67-.78-10.09-.84a15.07,15.07,0,0,1-3.89-1,1.08,1.08,0,0,1-.65-.78c0-.55.43-.84,1-.82,1.83.08,3.67.07,5.47.32,2.9.39,5.77,1.05,8.73.71a4,4,0,0,1,1.44.19c.8.21,1.91.32,1.77,1.43-.11.91-1.13.7-1.82.74S115.87,143.55,115.15,143.55Z"/><path id="type15" class="cls-1" d="M88.1,135.85c2,0,3.16.86,3.25,2.27.11,1.87-2.55,4.66-4.48,4.71-1.58,0-3.51-2.64-3.35-4.65C83.61,137,85.81,135.84,88.1,135.85Z"/><path id="type14" class="cls-1" d="M91.24,158.56a3.53,3.53,0,0,1-3.45,3.17c-1.9.05-3.93-2-4-4.1a3,3,0,0,1,2.86-3.18C88.51,154.43,91.24,156.89,91.24,158.56Z"/><path id="type13" class="cls-1" d="M102.93,149.59c.33-1.4.92-1.73,1.5-1.72,7.34.16,14.68-.1,22,.68C118.73,149.77,111,149.31,102.93,149.59Z"/><path id="type12" class="cls-1" d="M156.18,141.68c2.61-.16,4.92-.3,7.23-.47a3.75,3.75,0,0,1,2.15.11c.53.29,1.12.62.86,1.37a1,1,0,0,1-1.2.62c-4.51-.9-9,.39-13.48.22-.73,0-1.46,0-2.19-.07s-1.25-.24-1.14-1.06c.08-.6.64-.7,1.12-.7C151.84,141.67,154.16,141.68,156.18,141.68Z"/><path id="type11" class="cls-1" d="M141.92,80.79c-4.93.36-9.82,1.12-14.77.81-.62,0-1.3-.1-1.29-.9a1,1,0,0,1,.71-.73c5.08-.07,10.18-.92,15.24.23C141.85,80.21,141.85,80.43,141.92,80.79Z"/><path id="type10" class="cls-1" d="M118.17,185.65c-4.34.73-8.65.14-13-.23a1.14,1.14,0,0,1-1-1.29C107,183.63,116.42,184.45,118.17,185.65Z"/><path id="type9" class="cls-1" d="M133.64,105.84c1.81,0,3.67-.53,5.43.27.57.26,1.08.61,1,1.35a1.09,1.09,0,0,1-1.38.88,53.52,53.52,0,0,0-9.46-.69c-.48,0-1.08-.14-1.11-.72,0-.75.57-1.05,1.2-1.07C130.73,105.8,132.19,105.84,133.64,105.84Z"/><path id="type8" class="cls-1" d="M158.29,95.74c-1.17-.23-3.09.37-3.09-1.16s1.9-1,3-1.07c2.42-.24,4.86-.41,7.29-.55.6,0,1.29.08,1.4.86.14,1-.63,1.11-1.4,1.19C163.09,95.24,160.67,95.5,158.29,95.74Z"/><path id="type7" class="cls-1" d="M126.9,142a21.76,21.76,0,0,1,12.34,0C131.33,143.24,129.92,143.26,126.9,142Z"/><path id="type6" class="cls-1" d="M118.67,164.12c-4.75.58-10.33.41-12.44-.38C108.79,162.56,115.82,162.77,118.67,164.12Z"/><path id="type5" class="cls-1" d="M120.37,204.74c-5.26.19-10.12.52-15.41-.4C107.55,202.64,115.22,203,120.37,204.74Z"/><path id="type4" class="cls-1" d="M170.36,82c-3.18,1.49-5.7,1-8.16,1a.72.72,0,0,1-.75-.66.93.93,0,0,1,.83-1A17.36,17.36,0,0,1,170.36,82Z"/><path id="type3" class="cls-1" d="M140.81,184.7c-2.51.34-5,.7-7.53,1-.6.07-1.35,0-1.45-.78s.66-.93,1.23-1a39.8,39.8,0,0,1,7.64,0C140.73,184.21,140.77,184.46,140.81,184.7Z"/><path id="type2" class="cls-1" d="M139.18,112.87c-2.28.52-4.46,1.37-6.78,1.26-.6,0-1.32,0-1.42-.82s.57-1,1.15-1.1C134.5,112,136.88,111.76,139.18,112.87Z"/><path id="type1" class="cls-1" d="M153.29,81.28c-1.9,1.2-3.84.86-5.71.87a1.08,1.08,0,0,1-.75-.64c-.19-.57.23-.94.74-1C149.44,80.42,151.39,79.92,153.29,81.28Z"/><path id="clip" class="cls-1" d="M131.4,40.37c-6.55-.48-13.06.45-19.52-.68a21.64,21.64,0,0,0-4.76,0c-2.09.12-3-.73-2.77-2.84A28.18,28.18,0,0,0,104,28.1c-.42-2.09.33-2.78,2.55-3.09a24.11,24.11,0,0,1,9.5.41c6.91,1.8,13.85,1.37,20.81.68a41.37,41.37,0,0,1,10.6.53c1.53.25,2.4,1.16,1.88,2.5-.85,2.22-.38,4.35-.19,6.53.31,3.54-1,4.77-4.63,4.72C140.15,40.32,135.74,40.37,131.4,40.37Zm-3.68-2.55c5.46-.06,10.5.16,15.51-.31,2.52-.24,3.08-.87,3-3.12-.11-2.81-1.23-4.52-3.31-4.44-9.56.36-19.09-.93-28.65-.69-1.23,0-2.45.11-3.67.26-1.76.2-2.52,1.27-2.48,3,.09,3.34,1.24,4.63,4.62,5C117.86,38,123,37.62,127.72,37.82Z"/><path id="person" class="cls-1" d="M81.31,90.24c-.35-9.62-.23-16.74-1-23.83-.38-3.62.32-4.36,3.77-4.19,8.07.42,16.17-.4,24.23.45,3,.32,3.35.62,3.07,3.61a234.65,234.65,0,0,0-1.15,30.8,56.17,56.17,0,0,0,.6,7.34c.62,3.7-.76,7.31-.31,11a1,1,0,0,1-.84,1.07,10.37,10.37,0,0,1-2.14.48c-7.58.65-15.18.06-22.78.23-1.62,0-2.14-.8-2.12-2.28C82.8,105.82,80.93,96.83,81.31,90.24Zm26.07,1.85c1.46-8.27.88-16.57,1.34-24.81a1.79,1.79,0,0,0-1.7-2,24.42,24.42,0,0,0-2.53-.46c-6.24-.4-12.49-.27-18.74-.1-2.35.07-2.79.5-2.83,2.88-.06,4.4,0,8.8.13,13.2,0,.43.06,1,.9.93a4.49,4.49,0,0,0,.55-.8c3-7,3.55-7.32,10.78-7.06l.74,0c4.53.18,7.92,2.91,8.73,7.31a53.36,53.36,0,0,1,1.32,8.35C106.09,90.51,106.09,91.53,107.38,92.09Zm-1.22,17.18c-3.78,2-7.77,0-8.15-3.89-.07-.73,0-1.47,0-2.21a.83.83,0,0,0-1-.86,18.16,18.16,0,0,0-3.92.89c-1.05.43-.83,1.68-1,2.62a7,7,0,0,1-4,4.94,7.35,7.35,0,0,0-2.18,1.32c-.9,1-.7,2.2.56,2.64a7.71,7.71,0,0,0,2.89.45,60.57,60.57,0,0,1,8.08.4,31.33,31.33,0,0,0,7,0c3-.41,3.55-.91,3.74-4s.17-5.89.19-8.83a7.91,7.91,0,0,0-1.06-4.66c-.79.58-1.46,1.1-2.15,1.58-.86.6-1.88.47-2.84.64a1.92,1.92,0,0,0-1.66,1.69c-.74,3.51.28,5.19,3.81,6.07A2.29,2.29,0,0,1,106.16,109.27Zm-6-18.93a25.07,25.07,0,0,0-2.26-10c-.63-1.39-1.42-2.72-3.17-2.63s-2,1.64-2.46,2.86c-1.61,3.89-.8,8-.74,11.93a22.12,22.12,0,0,0,1,5.77c.73,2.52,2.78,2.93,4.3.83A14.74,14.74,0,0,0,100.18,90.34ZM87.75,97c1.81.07,2.11-.4,1.91-2.51-.45-4.85-1.08-9.71.84-14.46.41-1,1.31-2.64-.15-3.27C88.63,76,88.14,78,87.68,79a40,40,0,0,0-3.13,15C84.51,96.21,85.4,96.9,87.75,97Zm-3.4,7.59c0,.87,0,1.86.14,2.82.25,1.92,1.44,2.44,3.05,1.31a4.44,4.44,0,0,0,1.81-2.25,19.53,19.53,0,0,0,.41-6.19,1,1,0,0,0-.86-1A3.73,3.73,0,0,0,84.14,103C84.17,103.5,84.27,104,84.35,104.58Zm18.23-14c-.59,2.3-1,3.79-1.35,5.29-.23.95,0,1.77,1.09,1.87s1.51-.66,1.59-1.59A7.16,7.16,0,0,0,102.58,90.61Z"/><path id="clipping_board" data-name="clipping board" class="cls-1" d="M132.68,246.77q-12.17,0-24.33,0a28.07,28.07,0,0,1-3.67-.28,272,272,0,0,0-30.45-2.26c-4.18-.07-8.29-.93-12.42-1.54-2.78-.41-5.6-.42-8.24-1.63a9.34,9.34,0,0,1-5.68-6.33,93.75,93.75,0,0,1-2.5-15.95c-.42-5.4.1-10.77-.31-16.17-.6-7.94.08-15.93-.42-23.9-.62-10,.15-20.08.64-30.12.42-8.7.24-17.44,0-26.15-.31-11.92.78-23.84.08-35.72-.42-7.25,0-14.47,0-21.68.07-10-.53-20.13,1.58-30.09.78-3.67,3.55-5.39,6.34-6.55a45.65,45.65,0,0,1,15-3.54c5.76-.31,11.48-1.28,17.27-1.16,1.72,0,2.93-.35,2.87-2.37s1-2.59,2.77-2.6c2.57,0,5.15-.11,7.72-.13a12.76,12.76,0,0,0,11.73-7c3.17-5.87,8.16-8.17,14.43-8.45,4-.19,8-.48,12.07.59a7.64,7.64,0,0,1,4.55,2.84,62.42,62.42,0,0,1,5.14,8,5.39,5.39,0,0,0,3.46,3,35.35,35.35,0,0,0,10.92,1.3c2.93,0,2.93,0,2.65,3-.25,2.73.48,3.6,3.35,3.36,5.16-.44,10.31,0,15.46-.14a15.24,15.24,0,0,1,7.18,1.24,24.89,24.89,0,0,0,6.4,1.65c4.8.83,6.47,3.1,7.06,7.9a97.67,97.67,0,0,1,.5,17.26c-.16,3.06-.53,6.1-.75,9.16a86.18,86.18,0,0,0,.2,10.66,71.94,71.94,0,0,1-.37,12.87c-.75,5.87-.12,11.79,0,17.67.15,10.68.74,21.35,1.22,32,.42,9.42,1.13,18.84,1.37,28.26.23,8.84,0,17.69,0,26.53,0,8-.57,15.92-.73,23.88-.1,4.73-.31,9.58-1.86,14.19a2.94,2.94,0,0,0-.05,2.51c2.09,3.42-.75,5.77-1.83,8.45-.9,2.21-2.92,3.17-5.2,3.66a131.34,131.34,0,0,1-21.2,2.32c-4.66.22-9.29.58-13.94,1.08a159.77,159.77,0,0,1-17.65.71C139.56,247,136.12,246.82,132.68,246.77ZM66.09,38.27c0,2.45,0,4.4,0,6.34.08,4.78.42,9.53.93,14.29.49,4.51.18,9.07.33,13.6.45,13.87.28,27.75.6,41.63.25,11.15-.16,22.32.21,33.47.2,6-.34,12-.43,18-.19,12.15.08,24.32-1.54,36.42-.48,3.54.37,7.06.48,10.59.08,2.59,1.46,3.88,4.24,2.81a22.78,22.78,0,0,1,4.35-.68c4.3-.72,8.57,0,12.84,0,8,0,16,.39,23.92,1.11,7.58.7,15.22,0,22.82.77,4.27.41,8.54.94,12.83,1.09,9.92.34,19.85-.6,29.8.52,5.76.66,6,0,6.07-6,.07-4.69-.76-9.29-1.07-13.95-.71-10.56-.07-21.13-.27-31.69-.18-9.09-.05-18.19.45-27.27.37-6.85-.84-13.71.18-20.57a28.34,28.34,0,0,0,.07-4.79c-.21-7.6-.4-15.21-.72-22.81-.15-3.55.32-7.09.13-10.66a149.49,149.49,0,0,1,.13-15.84c.42-7.48.63-15,1-22.46.07-1.61-.33-2.63-2.15-2.67-4.79-.08-9.58-.27-14.37-.29-2.28,0-3,.76-2.4,3,.76,2.88.12,5.63-.15,8.42-.25,2.56-2,3.83-4.59,3.55a23,23,0,0,0-3.26-.46c-11.33.41-22.55-1.45-33.85-1.63a226,226,0,0,0-31.22,1.18c-.87.1-1.52,0-1.6-.93-.31-3.31-2.15-6.27-1.59-9.85.49-3.14.07-3.14-3.11-3.35C78.9,38.75,72.61,39.77,66.09,38.27Zm134.72,92c.48-2-.12-5-.26-8.11-.5-10.9-1.27-21.81-1.57-32.72a195.15,195.15,0,0,1,.73-22.42,105.86,105.86,0,0,0-1.47-28.6c-1-5.39-4-7.86-9.45-7.69-1.78.06-3.41,0-4.8-1.26a3.37,3.37,0,0,0-1.61-.83c-5.36-.93-10.75-.51-16.12-.16A2.3,2.3,0,0,0,164,31c0,.73,0,1.47,0,2.21,0,3,0,3,3,3.11,5.5.19,11,.37,16.49.57,2.83.1,3.4.66,2.84,3.26-1.52,7-1.32,14.18-1.56,21.27-.33,9.57-.15,19.16-.11,28.75.05,11.17.19,22.34.08,33.52-.15,13.75,0,27.51-.06,41.26,0,7.36-.37,14.72-.31,22.07.08,8.83.91,17.65,1.52,26.46.1,1.45-.16,2.91.36,4.37.78,2.18-.2,3.86-2.31,3.63-4.27-.47-8.64,0-12.82-1.11a22.48,22.48,0,0,0-6.92-.65c-5,.22-10.09.84-15.06.41-11.86-1-23.75-1.31-35.62-2.07-8.56-.56-17.13-1.19-25.72-.74a14.53,14.53,0,0,1-2.93-.27,28.91,28.91,0,0,0-9.51,0c-2.54.42-5.1.66-7.65,1.08-3.15.52-3.54,0-4-3.07a46.24,46.24,0,0,1,0-9.91c.36-4.64.83-9.3,1-13.94.29-8.35.68-16.69,1.28-25,.15-2.11-.63-4.12-.11-6.19a25.92,25.92,0,0,0,.49-7.7c-.73-14.72-.58-29.46-1.06-44.19-.22-6.5-.34-13-.3-19.52.1-14.62-.24-29.22-1.15-43.81a16.72,16.72,0,0,0-1.46-6c-1.22-2.62-.2-3.87,2.72-3.88,1.51,0,2.8.75,4.29.87,4.66.4,9.32.46,14,.47,4.11,0,4.09,0,4.14-3.87,0-1.1.12-2.2.18-3.31.15-2.56,0-2.82-2.5-2.86A98.94,98.94,0,0,0,55.79,29.9c-3.53,1-5.24,3.54-6,6.82-1.51,6.82-3,13.66-2.19,20.73a10.11,10.11,0,0,1,0,1.1c0,8.36-.64,16.68-.28,25,.23,5.38.06,10.79.34,16.18.16,2.94-.71,5.85-.52,8.82a117.53,117.53,0,0,1,.19,12.86c-.51,10.92.27,21.82-.16,32.76-.78,19.37-.32,38.78.43,58.17.15,3.93.36,7.83.7,11.75.36,4.08,3.32,6.57,5.45,9.57a1.94,1.94,0,0,0,.92.58c2.73,1.08,5.44,2.24,8.23,3.17,6.71,2.24,13.68,2.77,20.69,2.77,3.32,0,6.63.11,10,.25,5.4.24,10.8.45,16.2.5,10.92.1,21.83.46,32.73,1.18a176.28,176.28,0,0,0,21.32.29c7-.39,14-1.33,21-1.22,5.48.09,9.73-1.9,12.66-6.68,1.58-2.59,2.93-5.13,1.72-8.25a4.82,4.82,0,0,1,0-2.17c.3-6.62.66-13.23.85-19.85.21-7.48.12-15,.4-22.45.22-5.88.94-11.74.81-17.65C201,153.26,200.27,142.34,200.81,130.32Zm-71-82.26c2.58,0,5.17-.09,7.74,0,6.4.28,12.77-.67,19.16-.52,3.75.09,3.93-.15,4-3.83.13-6.51-.7-13-.2-19.52.17-2.28-.45-3-2.67-3-3.26.06-6.27-1.19-9.45-1.47A4,4,0,0,1,145,17.35c-1.12-2.63-3.2-4.66-4.26-7.3a7,7,0,0,0-4.62-3.91c-3.35-1.15-6.73-.77-10.18-.73-5.61.07-9.41,2.43-12.39,7.09-3.45,5.38-8.06,9.21-15.07,8.79a44.24,44.24,0,0,0-5.52.13c-1,.06-2.26.37-2,1.64.5,2.17-.38,4.12-.6,6.17-.58,5.21,1.4,10.2,1.2,15.37-.06,1.39,1,1.85,2.23,1.86,4.18,0,8.3.84,12.49.88C114.14,47.42,122,47.28,129.84,48.06Z"/></g></svg>