<svg xmlns="http://www.w3.org/2000/svg" viewBox="0 0 250 250"><defs><style>.cls-1{fill:#00abc8;fill-rule:evenodd;}</style></defs><title>Icons-sitewide</title><g id="check_mark" data-name="check mark"><path class="cls-1" d="M108.39,206.36c-5.85-12.11-11.18-23.68-17-35C81.22,151.44,67,134.55,51.22,118.86c-3.45-3.44-10.21-6.51-8.08-11.26,2.81-6.27,8.67-.69,13.3,0,12.18,1.8,22.12,9.29,33.63,12.88,8,2.49,8.07,3.28,11.94-4.48a205.13,205.13,0,0,1,26.74-40.87c17.21-20.39,37.53-37.1,63-46.55a24,24,0,0,1,5.66-1.43c3.23-.38,7.57-2.95,9.4.83,2,4.22-.39,8.22-4.38,10.91C196.6,42.8,191.92,48,186.9,52.81c-19.21,18.53-33.16,40.69-46.75,63.45-9.7,16.26-16.32,33.4-21.23,51.35-2.56,9.33-3.78,19-5.46,28.58C112.87,199.58,113.17,203.23,108.39,206.36ZM54.86,113.28c10.63,13.09,20.63,24.37,29.86,36.29,9.41,12.17,12.37,28,23.79,40.6,10.66-63.36,42.7-112.79,88.78-156.08-19.66,5.75-34.42,16.62-48.44,28.79-20.08,17.45-33.21,39.89-45,63.19-2.72,5.41-4,6.39-10.1,3.41C81.76,123.6,70.07,116.47,54.86,113.28Z"/></g></svg>