<svg xmlns="http://www.w3.org/2000/svg" viewBox="0 0 250 250"><defs><style>.cls-1{fill:#00abc8;fill-rule:evenodd;}</style></defs><title>Icons-sitewide</title><g id="volunteer"><g id="upper_runner" data-name="upper runner"><path id="crease" class="cls-1" d="M114,49.27a10.17,10.17,0,0,0,2.17.43c9.91.44,19.71-1.28,29.6-1.71a43.35,43.35,0,0,0-11.66-.58c-6.58.53-13.2,1.18-19.8.05-.81-.14-1.59.08-1.68,1S113.44,49.12,114,49.27Z"/><path id="lace" class="cls-1" d="M104.42,60.55c1.32,0,4.11-3,4-4.17s-.87-2.18-2.27-2c-2.07.21-3.67,1.22-3.66,3.47A2.5,2.5,0,0,0,104.42,60.55Z"/><path id="heel" class="cls-1" d="M135.92,107.9c7.69-.32,15.44.2,23.09-1.21,1.9-.35,3.78-.8,4.06-2.83s-1.58-2.92-3.17-3.33c-5.41-1.4-10.87-1.78-16.32-.07v0c-2.88,1.17-6.12.27-9,1.49-1.94.83-5.74,0-5.42,2.9C129.55,108,133.44,108,135.92,107.9Zm4.54-5.29c1.14-.08,2.47.3,3-.53,3.62-.47,7.3-.22,10.92-.7.67.1,1.34.18,2,.32.91.2,1.82.38,2.72.6s1.69.74,1.61,1.62-1.13.72-1.78,1c-4.29,1.59-8.78.63-13.16,1.07-2.91.29-5.85.26-8.78.3a10.53,10.53,0,0,1-5.49-1.55A27.83,27.83,0,0,1,140.46,102.61Z"/><path id="upper_runner-2" data-name="upper runner" class="cls-1" d="M117.3,109.58c4.06,3.67,8.72,4,13.44,4.22,9.75.57,19.48-.63,29.23-1,7.56-.26,12.24-6.06,12-13.43-.11-3-1.87-5.07-3.42-7.28-.67-.94-1.32-1.81-1.07-2.86a.71.71,0,0,0,.31-.61s0-.07,0-.11a4.91,4.91,0,0,1,.54-.7l-.64.11c-.28-1.67-1-3.23-1.2-4.91,0-.05,0-.08-.05-.13.05-.7.14-1.38.2-2.07a35.52,35.52,0,0,0-.11-7.85c-1.2-8.44-2.88-16.81-4.82-25.13-.17-.75-.92-1.78,0-2.34,2.44-1.48,1.27-3.45.84-5.26-1.28-5.42-3.56-7-9.07-6.19-2.61.37-5.18.91-7.78,1.28a121.11,121.11,0,0,1-31.76.55c-3.93-.47-9.37.87-11.36-4.85-.12-.33-.6-.58-1-.78-5.12-2.84-10.14-2.12-15,.58-2,1.08-2,2.57-.33,4,1.1,1,2.27,1.87,3.35,2.86a3.46,3.46,0,0,1,.82,3.52c-.33,1.59-1.62,1-2.57,1.06-1.64.08-1.93.68-1.44,2.27.43,1.37,1.46,2.91-.09,4.36s-3.19,3.26-5.84,3.27c-1.06,0-2.56-.44-3.53,1.2H80.8c-1.6,1.85-3.7,2.15-5.21,3.46-2.89,2.51-6.33,4.51-9.27,7s-6.87,3-9.63,6.1c-2.22,2.47-5.65,4.15-8.85,5.35-2.83,1-4,4-7.38,4.56-5.92.9-11.9.79-17.82,1.69-6.18.93-12,6.21-11.09,12.27.57,4-.41,7.17-1.43,10.68-.64,2.21.22,4.13,2.11,5.69,3.36,2.78,7.56,3.49,11.48,4a232.53,232.53,0,0,0,54.1.61,204.38,204.38,0,0,0,29.61-5.49C110.75,108.47,114.79,107.31,117.3,109.58ZM89.16,34.14c-.51-.34-1.29-.56-1.2-1.27s.86-.77,1.48-.92c3.35-.84,6.64-1.75,10.1-.18,1.66.75,2.3,1.58,1.75,3.36a20.14,20.14,0,0,0-.26,2.5c-.45,2.51-1,5-4.46,3.82-2.5.67-3.36-.1-3.46-2.75C93,36.57,90.9,35.31,89.16,34.14Zm-1.9,16.54a19.76,19.76,0,0,0,4.36-5.74c.93-1.88,2-2.48,3.67-2.13,4.59.1,4.64.17,2.74,4.21-.4.85-.83,1.7-1.27,2.53-2.38,4.53-4.16,5.17-9.07,3.32C86.31,52.35,85.7,52.09,87.26,50.68ZM83.89,54c2.89-1.39,5.88.78,8.78,1.5,1.11.28.12,1.32-.27,1.75-3,3.32-5.56,7.25-11.23,4.94-2.15-.87-4.75-.62-7.15-.87l-.27-.72C77.11,58.35,80.28,55.72,83.89,54ZM72,62.28c3.83.13,7.48,1.21,11.89,2.09-4.22,2.77-7.37,6.28-12.34,3.62a2.77,2.77,0,0,0-.6-.14c-1.56-.39-3.38.28-4.67-1C66,66.48,71,62.24,72,62.28Zm.71,8.26c-5.46,5.23-12.09,5.33-19,4.32C60.62,68.33,65.51,67.22,72.7,70.54ZM48,77.25a17.32,17.32,0,0,1,10-.12,23.08,23.08,0,0,1-9.76,2.25,1,1,0,0,1-1-1A1.11,1.11,0,0,1,48,77.25ZM15.41,89.16A6.8,6.8,0,0,1,21.81,84q3.75-.36,7.49-.84c10.85-1.36,21.89-1.24,32.51-4.41a4.34,4.34,0,0,1,5.33,5.35c-.37,1.16-.26,1.59,1.1,1.9,2.52.56,4.54.25,6.11-1.94,1.21-1.68.71-3.21-1.17-3-3.35.4-4.63-2.12-7.05-3.73,3.07-1.63,5.83-3.1,8.6-4.55,2.44-1.28,6.54.71,6.45,3.39-.06,1.7.3,2.7,1.86,3,1.8.39,3.55.22,4.67-1.59.45-.74.83-1.62.3-2.35a2,2,0,0,0-2.46-.87c-1.32.49-2.79.83-3.56-.83-.62-1.35-2.68-1.75-2.76-2.7C79.06,69,81.52,69.16,82.58,68a13.45,13.45,0,0,1,2.68-1.62c2.37-1.5,4.64-1.16,6.53,1.07a7.49,7.49,0,0,1,1.64,3c.46,1.82,2.13,1.68,3.39,1.35,1.87-.48,2.57-2.27,2.56-3.93,0-1.39-1.7-1.71-2.66-1.33-3.27,1.28-4.79-1.86-6.9-3-.88-.46,2.45-2.17,3.21-3.86.12-.29.4-.5.54-.78,1.3-2.58,3-3.21,5.35-1.19.46.39,1.21,1.35,1.85.57s-.25-1.67-.94-1.89c-4.74-1.49-2.7-3.95-1.09-6.5a23.89,23.89,0,0,0,1.5-3.47c1.45-3.43,2.88-3.85,6-1.72a8.29,8.29,0,0,1,1.16,1.06c1.25,1.29,2.62.81,3.68-.08.82-.7,1.6-1.76.72-3s-2-1.83-3.51-1.16a5.32,5.32,0,0,1-1.44.62,5.7,5.7,0,0,1-4.39-1.06c-.88-.85.19-2.42.72-3.51.81-1.63,2.22-.65,3.36-.39,5.77,1.29,11.68,1.31,17.53,1.55a131.42,131.42,0,0,0,28.52-2.38c5.06-.91,6.71.21,8.14,5.07.49,1.66.08,2.27-1.42,3.12-2.17,1.24-5,.37-7,2.41a4.75,4.75,0,0,0,3.83-.39c2.08-1.15,2.94-.34,3.6,1.68,1.32,4,1.76,8.2,2.72,12.28.27,1.14-.38,1.27-1.39,1.45-5,.92-9.51,3.25-14.17,5.12-2.34.95-4.8,1.84-6.49,4,1,.48,1.48-.24,2.09-.55a63.12,63.12,0,0,1,16-5.71c3.19-.65,4.87.56,5.37,3.67.75,4.69.82,14.56.86,14.83.24,1.67.92,3.23,1.2,4.89-4,.85-7.44,2.4-11,3.59-8.47,2.81-17.3,1.88-26,2.5-7.7.55-15.48.18-23.15,1.28-4.66.66-9.23,1.87-13.87,2.68A276.62,276.62,0,0,1,61,102.12c-4.73.29-9.48.35-14.18.88-10.3,1.14-20.27-1.16-30.33-2.62-2.3-.33-3.07-1.65-3-3.94C13.66,93.86,14.73,91.56,15.41,89.16Zm70.84,22.21a199.15,199.15,0,0,1-28.92,2.44c-7.57.14-15.16-.47-22.73-.88-4.57-.26-9.22-.36-13.64-1.36-2.76-.62-5.78-1.67-7.93-3.88a3.21,3.21,0,0,1-.34-4.08c.73-1.32,1.69-1.26,3.16-1,9.82,1.47,19.55,4,29.64,2.58,6.07-.86,12.22-.49,18.31-1a199.68,199.68,0,0,0,28.44-3.89,191.33,191.33,0,0,1,31.08-3.86c8.51-.5,17.06,0,25.53-1,5.06-.63,9.79-2.48,14.5-4.27,2.14-.81,2.93-.26,3.76,1.7,1.23,2.89,2.89,5.51,2.44,9-.66,5-3.53,7.83-8.56,8.4-6.81.78-13.63,1.06-19.86,1.4A64.87,64.87,0,0,1,125,111a8.09,8.09,0,0,1-4-1.85c-4.16-3.45-8.79-3.38-13.7-2.08C100.36,108.94,93.32,110.19,86.25,111.37Z"/></g><g id="upper_runner-3" data-name="upper runner"><path id="crease-2" data-name="crease" class="cls-1" d="M114,49.27a10.17,10.17,0,0,0,2.17.43c9.91.44,19.71-1.28,29.6-1.71a43.35,43.35,0,0,0-11.66-.58c-6.58.53-13.2,1.18-19.8.05-.81-.14-1.59.08-1.68,1S113.44,49.12,114,49.27Z"/><path id="lace-2" data-name="lace" class="cls-1" d="M104.42,60.55c1.32,0,4.11-3,4-4.17s-.87-2.18-2.27-2c-2.07.21-3.67,1.22-3.66,3.47A2.5,2.5,0,0,0,104.42,60.55Z"/><path id="heel-2" data-name="heel" class="cls-1" d="M135.92,107.9c7.69-.32,15.44.2,23.09-1.21,1.9-.35,3.78-.8,4.06-2.83s-1.58-2.92-3.17-3.33c-5.41-1.4-10.87-1.78-16.32-.07v0c-2.88,1.17-6.12.27-9,1.49-1.94.83-5.74,0-5.42,2.9C129.55,108,133.44,108,135.92,107.9Zm4.54-5.29c1.14-.08,2.47.3,3-.53,3.62-.47,7.3-.22,10.92-.7.67.1,1.34.18,2,.32.91.2,1.82.38,2.72.6s1.69.74,1.61,1.62-1.13.72-1.78,1c-4.29,1.59-8.78.63-13.16,1.07-2.91.29-5.85.26-8.78.3a10.53,10.53,0,0,1-5.49-1.55A27.83,27.83,0,0,1,140.46,102.61Z"/><path id="upper_runner-4" data-name="upper runner" class="cls-1" d="M117.3,109.58c4.06,3.67,8.72,4,13.44,4.22,9.75.57,19.48-.63,29.23-1,7.56-.26,12.24-6.06,12-13.43-.11-3-1.87-5.07-3.42-7.28-.67-.94-1.32-1.81-1.07-2.86a.71.71,0,0,0,.31-.61s0-.07,0-.11a4.91,4.91,0,0,1,.54-.7l-.64.11c-.28-1.67-1-3.23-1.2-4.91,0-.05,0-.08-.05-.13.05-.7.14-1.38.2-2.07a35.52,35.52,0,0,0-.11-7.85c-1.2-8.44-2.88-16.81-4.82-25.13-.17-.75-.92-1.78,0-2.34,2.44-1.48,1.27-3.45.84-5.26-1.28-5.42-3.56-7-9.07-6.19-2.61.37-5.18.91-7.78,1.28a121.11,121.11,0,0,1-31.76.55c-3.93-.47-9.37.87-11.36-4.85-.12-.33-.6-.58-1-.78-5.12-2.84-10.14-2.12-15,.58-2,1.08-2,2.57-.33,4,1.1,1,2.27,1.87,3.35,2.86a3.46,3.46,0,0,1,.82,3.52c-.33,1.59-1.62,1-2.57,1.06-1.64.08-1.93.68-1.44,2.27.43,1.37,1.46,2.91-.09,4.36s-3.19,3.26-5.84,3.27c-1.06,0-2.56-.44-3.53,1.2H80.8c-1.6,1.85-3.7,2.15-5.21,3.46-2.89,2.51-6.33,4.51-9.27,7s-6.87,3-9.63,6.1c-2.22,2.47-5.65,4.15-8.85,5.35-2.83,1-4,4-7.38,4.56-5.92.9-11.9.79-17.82,1.69-6.18.93-12,6.21-11.09,12.27.57,4-.41,7.17-1.43,10.68-.64,2.21.22,4.13,2.11,5.69,3.36,2.78,7.56,3.49,11.48,4a232.53,232.53,0,0,0,54.1.61,204.38,204.38,0,0,0,29.61-5.49C110.75,108.47,114.79,107.31,117.3,109.58ZM89.16,34.14c-.51-.34-1.29-.56-1.2-1.27s.86-.77,1.48-.92c3.35-.84,6.64-1.75,10.1-.18,1.66.75,2.3,1.58,1.75,3.36a20.14,20.14,0,0,0-.26,2.5c-.45,2.51-1,5-4.46,3.82-2.5.67-3.36-.1-3.46-2.75C93,36.57,90.9,35.31,89.16,34.14Zm-1.9,16.54a19.76,19.76,0,0,0,4.36-5.74c.93-1.88,2-2.48,3.67-2.13,4.59.1,4.64.17,2.74,4.21-.4.85-.83,1.7-1.27,2.53-2.38,4.53-4.16,5.17-9.07,3.32C86.31,52.35,85.7,52.09,87.26,50.68ZM83.89,54c2.89-1.39,5.88.78,8.78,1.5,1.11.28.12,1.32-.27,1.75-3,3.32-5.56,7.25-11.23,4.94-2.15-.87-4.75-.62-7.15-.87l-.27-.72C77.11,58.35,80.28,55.72,83.89,54ZM72,62.28c3.83.13,7.48,1.21,11.89,2.09-4.22,2.77-7.37,6.28-12.34,3.62a2.77,2.77,0,0,0-.6-.14c-1.56-.39-3.38.28-4.67-1C66,66.48,71,62.24,72,62.28Zm.71,8.26c-5.46,5.23-12.09,5.33-19,4.32C60.62,68.33,65.51,67.22,72.7,70.54ZM48,77.25a17.32,17.32,0,0,1,10-.12,23.08,23.08,0,0,1-9.76,2.25,1,1,0,0,1-1-1A1.11,1.11,0,0,1,48,77.25ZM15.41,89.16A6.8,6.8,0,0,1,21.81,84q3.75-.36,7.49-.84c10.85-1.36,21.89-1.24,32.51-4.41a4.34,4.34,0,0,1,5.33,5.35c-.37,1.16-.26,1.59,1.1,1.9,2.52.56,4.54.25,6.11-1.94,1.21-1.68.71-3.21-1.17-3-3.35.4-4.63-2.12-7.05-3.73,3.07-1.63,5.83-3.1,8.6-4.55,2.44-1.28,6.54.71,6.45,3.39-.06,1.7.3,2.7,1.86,3,1.8.39,3.55.22,4.67-1.59.45-.74.83-1.62.3-2.35a2,2,0,0,0-2.46-.87c-1.32.49-2.79.83-3.56-.83-.62-1.35-2.68-1.75-2.76-2.7C79.06,69,81.52,69.16,82.58,68a13.45,13.45,0,0,1,2.68-1.62c2.37-1.5,4.64-1.16,6.53,1.07a7.49,7.49,0,0,1,1.64,3c.46,1.82,2.13,1.68,3.39,1.35,1.87-.48,2.57-2.27,2.56-3.93,0-1.39-1.7-1.71-2.66-1.33-3.27,1.28-4.79-1.86-6.9-3-.88-.46,2.45-2.17,3.21-3.86.12-.29.4-.5.54-.78,1.3-2.58,3-3.21,5.35-1.19.46.39,1.21,1.35,1.85.57s-.25-1.67-.94-1.89c-4.74-1.49-2.7-3.95-1.09-6.5a23.89,23.89,0,0,0,1.5-3.47c1.45-3.43,2.88-3.85,6-1.72a8.29,8.29,0,0,1,1.16,1.06c1.25,1.29,2.62.81,3.68-.08.82-.7,1.6-1.76.72-3s-2-1.83-3.51-1.16a5.32,5.32,0,0,1-1.44.62,5.7,5.7,0,0,1-4.39-1.06c-.88-.85.19-2.42.72-3.51.81-1.63,2.22-.65,3.36-.39,5.77,1.29,11.68,1.31,17.53,1.55a131.42,131.42,0,0,0,28.52-2.38c5.06-.91,6.71.21,8.14,5.07.49,1.66.08,2.27-1.42,3.12-2.17,1.24-5,.37-7,2.41a4.75,4.75,0,0,0,3.83-.39c2.08-1.15,2.94-.34,3.6,1.68,1.32,4,1.76,8.2,2.72,12.28.27,1.14-.38,1.27-1.39,1.45-5,.92-9.51,3.25-14.17,5.12-2.34.95-4.8,1.84-6.49,4,1,.48,1.48-.24,2.09-.55a63.12,63.12,0,0,1,16-5.71c3.19-.65,4.87.56,5.37,3.67.75,4.69.82,14.56.86,14.83.24,1.67.92,3.23,1.2,4.89-4,.85-7.44,2.4-11,3.59-8.47,2.81-17.3,1.88-26,2.5-7.7.55-15.48.18-23.15,1.28-4.66.66-9.23,1.87-13.87,2.68A276.62,276.62,0,0,1,61,102.12c-4.73.29-9.48.35-14.18.88-10.3,1.14-20.27-1.16-30.33-2.62-2.3-.33-3.07-1.65-3-3.94C13.66,93.86,14.73,91.56,15.41,89.16Zm70.84,22.21a199.15,199.15,0,0,1-28.92,2.44c-7.57.14-15.16-.47-22.73-.88-4.57-.26-9.22-.36-13.64-1.36-2.76-.62-5.78-1.67-7.93-3.88a3.21,3.21,0,0,1-.34-4.08c.73-1.32,1.69-1.26,3.16-1,9.82,1.47,19.55,4,29.64,2.58,6.07-.86,12.22-.49,18.31-1a199.68,199.68,0,0,0,28.44-3.89,191.33,191.33,0,0,1,31.08-3.86c8.51-.5,17.06,0,25.53-1,5.06-.63,9.79-2.48,14.5-4.27,2.14-.81,2.93-.26,3.76,1.7,1.23,2.89,2.89,5.51,2.44,9-.66,5-3.53,7.83-8.56,8.4-6.81.78-13.63,1.06-19.86,1.4A64.87,64.87,0,0,1,125,111a8.09,8.09,0,0,1-4-1.85c-4.16-3.45-8.79-3.38-13.7-2.08C100.36,108.94,93.32,110.19,86.25,111.37Z"/></g><g id="upper_runner-5" data-name="upper runner"><path id="crease-3" data-name="crease" class="cls-1" d="M159.15,137.2a9.77,9.77,0,0,0,2.17-.39c9.39-3.22,17.88-8.4,26.93-12.42a43.59,43.59,0,0,0-11.06,3.73c-5.94,2.9-11.86,5.92-18.41,7.28-.81.17-1.45.66-1.22,1.52S158.6,137.26,159.15,137.2Z"/><path id="lace-3" data-name="lace" class="cls-1" d="M154.39,151.2c1.22-.52,2.74-4.26,2.19-5.34a2,2,0,0,0-2.86-1.07c-1.85,1-3,2.48-2.14,4.57A2.51,2.51,0,0,0,154.39,151.2Z"/><path id="heel-3" data-name="heel" class="cls-1" d="M201,183.74c7-3.11,14.45-5.46,21.05-9.57,1.63-1,3.22-2.13,2.74-4.12s-2.54-2.15-4.17-2c-5.55.69-10.77,2.33-15.21,5.91,0,0,0,0,0,0-2.25,2.14-5.6,2.49-7.8,4.66-1.5,1.49-5.34,2.1-4,4.69C195.13,186.13,198.76,184.74,201,183.74Zm2.29-6.58c1-.5,2.41-.63,2.57-1.58,3.2-1.77,6.71-2.88,9.9-4.65.66-.15,1.32-.32,2-.43.91-.15,1.83-.31,2.75-.44s1.84.07,2.09.92-.79,1.08-1.31,1.55c-3.41,3-7.94,3.79-11.86,5.8-2.6,1.34-5.35,2.38-8.06,3.49a10.43,10.43,0,0,1-5.67.57A27.68,27.68,0,0,1,203.32,177.16Z"/><path id="upper_runner-6" data-name="upper runner" class="cls-1" d="M184.31,192.12c5.12,1.92,9.56.48,14.06-1,9.28-3,17.9-7.72,26.84-11.6,6.95-3,9.18-10.12,6.23-16.88-1.18-2.7-3.59-4-5.85-5.52-1-.63-1.89-1.2-2-2.27a.71.71,0,0,0,.07-.69l-.06-.08a4.07,4.07,0,0,1,.25-.86l-.56.34c-.87-1.45-2.07-2.66-2.91-4.13a.47.47,0,0,0-.1-.1c-.2-.67-.37-1.35-.57-2a35.7,35.7,0,0,0-3-7.27c-4.21-7.42-8.83-14.59-13.68-21.62-.44-.64-1.51-1.33-.86-2.18,1.72-2.27-.09-3.67-1.15-5.2-3.17-4.58-5.86-5.18-10.71-2.44-2.29,1.3-4.49,2.74-6.77,4a121.31,121.31,0,0,1-29.36,12.13c-3.82,1-8.39,4.23-12.34-.37a2,2,0,0,0-1.18-.36c-5.8-.78-10.21,1.73-13.77,6-1.42,1.71-.91,3.12,1.18,3.89,1.37.5,2.79.91,4.16,1.43a3.48,3.48,0,0,1,2.06,3c.27,1.6-1.14,1.53-2,1.92-1.5.68-1.55,1.35-.51,2.64.9,1.12,2.43,2.18,1.51,4.1-1,2.08-1.77,4.2-4.24,5.18-1,.39-2.55.52-2.85,2.4l3.62-1.42c-.81,2.31-2.65,3.36-3.58,5.13-1.77,3.39-4.24,6.51-6,9.94s-5.28,5.34-6.73,9.2c-1.16,3.11-3.74,5.93-6.28,8.22-2.24,2-2.24,5.23-5.2,6.94-5.18,3-10.79,5.09-16,8.09-5.41,3.13-8.85,10.16-5.83,15.48,2,3.5,2.24,6.83,2.58,10.47.21,2.29,1.72,3.75,4.05,4.52,4.14,1.36,8.31.48,12.12-.52a232.47,232.47,0,0,0,50.58-19.22A203.83,203.83,0,0,0,175,195.53C177.81,193.48,181.15,190.92,184.31,192.12ZM130.52,132.2c-.6-.13-1.4,0-1.58-.74s.52-1,1-1.4c2.82-2,5.55-4.06,9.34-3.86,1.82.09,2.71.63,2.85,2.48a19.91,19.91,0,0,0,.68,2.42c.5,2.51,1,5-2.76,5.2-2.08,1.54-3.16,1.13-4.23-1.3C135,133.05,132.57,132.65,130.52,132.2Zm4.28,16.09a19.59,19.59,0,0,0,2-6.93c.18-2.09,1-3.06,2.65-3.34,4.3-1.58,4.37-1.53,4.08,2.92-.06.95-.15,1.88-.25,2.83-.57,5.08-2,6.32-7.23,6.4C134.54,150.19,133.87,150.18,134.8,148.29Zm-1.92,4.31c2.18-2.35,5.76-1.43,8.72-1.81,1.14-.15.6,1.18.4,1.72-1.56,4.18-2.53,8.78-8.65,8.71-2.32,0-4.65,1.17-7,1.8l-.51-.57C128.17,159.14,130.16,155.53,132.88,152.6Zm-8,12.07c3.61-1.27,7.4-1.61,11.83-2.4-2.91,4.11-4.56,8.54-10.15,7.88a2.65,2.65,0,0,0-.62.09c-1.59.2-3,1.5-4.72.74C120.76,170.79,123.9,165,124.84,164.67Zm3.68,7.43c-3.17,6.87-9.3,9.38-16.07,11C116.47,174.46,120.62,171.64,128.52,172.1ZM108,187.39a17.27,17.27,0,0,1,9.23-3.75,23.23,23.23,0,0,1-8.26,5.66,1,1,0,0,1-1.33-.51A1.11,1.11,0,0,1,108,187.39ZM82,210.39a6.8,6.8,0,0,1,4-7.17c2.24-1.14,4.47-2.32,6.67-3.52,9.6-5.25,19.92-9.17,28.64-16a4.35,4.35,0,0,1,6.92,3c.08,1.21.33,1.57,1.72,1.35,2.55-.39,4.31-1.42,5-4,.5-2-.52-3.25-2.18-2.35-3,1.59-5.1-.28-7.94-.9,2.27-2.63,4.3-5,6.34-7.37,1.81-2.09,6.35-1.74,7.24.78.58,1.61,1.27,2.42,2.85,2.16,1.82-.3,3.39-1.1,3.76-3.19.15-.85.18-1.81-.58-2.3a2,2,0,0,0-2.6.09c-1,.93-2.29,1.79-3.62.53-1.07-1-3.13-.65-3.56-1.5-.83-1.67,1.52-2.42,2.1-3.84a13.31,13.31,0,0,1,1.89-2.49c1.66-2.26,3.9-2.78,6.48-1.4a7.58,7.58,0,0,1,2.62,2.21c1.09,1.52,2.59.78,3.65,0,1.56-1.13,1.56-3.05.94-4.59-.52-1.29-2.2-1-3-.27-2.58,2.39-5.14,0-7.51-.23-1-.11,1.49-2.92,1.58-4.77,0-.31.18-.61.21-.92.27-2.88,1.6-4.08,4.55-3.07.58.2,1.62.81,1.94-.14.38-1.16-.86-1.47-1.58-1.42-5,.35-4-2.69-3.39-5.65a23.73,23.73,0,0,0,.13-3.78c.1-3.73,1.27-4.64,5-3.8a7.94,7.94,0,0,1,1.47.56c1.64.74,2.73-.2,3.39-1.42.51-1,.85-2.22-.45-3.1a2.57,2.57,0,0,0-3.68.2,5.6,5.6,0,0,1-1.12,1.11,5.67,5.67,0,0,1-4.47.61c-1.13-.46-.71-2.32-.61-3.53.15-1.81,1.83-1.41,3-1.59,5.85-.91,11.35-3,16.88-5a131.09,131.09,0,0,0,25.67-12.65c4.38-2.7,6.33-2.26,9.43,1.74,1.07,1.37.91,2.09-.17,3.43-1.57,1.94-4.53,2.17-5.66,4.81a4.73,4.73,0,0,0,3.42-1.76c1.52-1.84,2.62-1.4,4,.24,2.69,3.25,4.63,7,7,10.43.66,1,.11,1.32-.77,1.87-4.32,2.67-7.66,6.49-11.31,9.94-1.84,1.74-3.8,3.47-4.58,6.11,1.07.11,1.3-.76,1.75-1.27a62.73,62.73,0,0,1,12.79-11.16c2.72-1.78,4.73-1.26,6.34,1.45,2.41,4.09,6.09,13.25,6.23,13.49.83,1.47,2,2.67,2.9,4.1-3.38,2.25-6,5-8.94,7.38-6.85,5.71-15.41,8.07-23.24,11.82-7,3.33-14.34,5.83-21.08,9.66-4.09,2.33-7.9,5.12-11.92,7.57a279.29,279.29,0,0,1-27.38,14.85c-4.3,2-8.7,3.79-12.88,6-9.17,4.83-19.29,6.34-29.18,8.66-2.27.54-3.47-.41-4.2-2.58C82.1,215.4,82.26,212.87,82,210.39Zm74.05-5.25a197.63,197.63,0,0,1-26,12.85c-7,2.9-14.28,5.11-21.48,7.5-4.34,1.43-8.71,3-13.19,3.73-2.8.42-6,.56-8.8-.71a3.22,3.22,0,0,1-1.81-3.68c.2-1.5,1.11-1.79,2.56-2.13,9.68-2.22,19.67-3.42,28.53-8.44,5.33-3,11.19-4.92,16.69-7.6a199.14,199.14,0,0,0,25-14,191.67,191.67,0,0,1,27.51-15c7.74-3.57,15.89-6.2,23.39-10.29,4.48-2.44,8.2-5.89,11.93-9.28,1.69-1.54,2.64-1.32,4.13.2,2.2,2.24,4.7,4.08,5.54,7.44,1.21,4.89-.43,8.58-4.9,10.95-6.05,3.21-12.29,6-18,8.57A65.12,65.12,0,0,1,192,190.68a8.07,8.07,0,0,1-4.38-.28c-5.13-1.68-9.41.08-13.5,3.08C168.31,197.71,162.22,201.46,156.07,205.14Z"/></g></g></svg>