<svg xmlns="http://www.w3.org/2000/svg" viewBox="0 0 250 250"><defs><style>.cls-1{fill:#00abc8;}</style></defs><title>Icons-sitewide</title><g id="hot_spot" data-name="hot spot"><path id="fork" class="cls-1" d="M16.25,104.3c0,24.28.21,48.68-2.77,72.82-.77,6.21-2,12.4-2.18,18.67-.14,4.45.29,9.42,3.33,13a10,10,0,0,0,9.9,3.23c4.06-1.16,5.45-5.11,5.47-8.9,0-6-.89-12.21-1.38-18.23-.53-6.43-1.06-12.86-1.55-19.3-1-12.87-1.82-25.77-2.16-38.68-.17-6.33-.49-12.79-.09-19.11.2-3.32,1.81-4.94,4.06-7.14a11.59,11.59,0,0,0,3.61-6.08c1.15-5.55.28-11.79.22-17.42L32.5,57.49l-.12-10.91c0-1.93.65-5.46-.89-7.08a3.29,3.29,0,0,0-4.39,0c-2,1.63-1.49,4.61-1.46,6.81q.16,10.67-.08,21.33-.14,5.61-.37,11.2c-.14,3.27.15,7.21-2.34,9.75h2c-2.89-3.44-1.88-9.73-1.93-13.85q-.11-7.53-.2-15t-.2-15c0-2.13.61-7-2.95-6.92-3.06.08-3.56,4-3.73,6.26q-.57,7.47-.55,15t.66,15c.4,4.7,1.75,10.13-.65,14.5l1.57-.63c-2.71-.81-2.38-5.14-2.52-7.3-.18-2.62-.27-5.24-.31-7.86-.07-5.22,0-10.44,0-15.65,0-4.92.34-10.48-1.15-15.25C12,38.91,9,38.33,7.2,40.74c-1.21,1.66-1,3.77-1.11,5.71-.11,2.44-.22,4.87-.32,7.31C5.6,57.85,5.48,61.94,5.54,66a126.54,126.54,0,0,0,3,24.75c.45,2.06.65,4.81,1.77,6.6a25.12,25.12,0,0,0,1.84,2.28l4.53,5.61c1.11,1.37,3.07-.57,2-1.93-2-2.52-5.3-5.46-6.29-8.35-1.44-4.18-2-8.93-2.71-13.29A107.78,107.78,0,0,1,8.47,70.49c-.39-7.53,0-15.07.33-22.6.06-1.14.09-2.28.16-3.42,0-.53-.14-2.42,1.27-1.75a5.82,5.82,0,0,1,.28,1.46,57.72,57.72,0,0,1,.64,8.2c.1,4.76.07,9.52.06,14.28,0,5.1,0,10.2.44,15.28.28,3.35.64,7.28,4.45,8.43a1.42,1.42,0,0,0,1.57-.63c1.78-3.24,1.88-6.72,1.56-10.33-.38-4.33-.82-8.66-1-13S18,57.49,18.11,53c.07-2.32.18-4.63.33-6.95a20.1,20.1,0,0,1,.34-4l.39-1c.45-.72.62-.6.5.36.58,1.8.06,4.56.09,6.44l.09,7q.09,6.7.17,13.43c.06,4.57,0,9.14.18,13.71.1,3.14.56,6,2.65,8.52a1.43,1.43,0,0,0,2,0c3-3,3-7.2,3.13-11.15q.38-8.52.48-17.06c.08-5.87,0-11.73,0-17.6a4.91,4.91,0,0,1,0-1.38c1.35-3.28,1.1-.37,1.18,0a22.76,22.76,0,0,1,.05,4.37c0,3.09.07,6.18.1,9.27.13,11.4.71,22.9.34,34.3a9.71,9.71,0,0,1-2.85,7.18c-1.48,1.47-3.16,2.79-4.13,4.68A13,13,0,0,0,22,108.68c-.08,3-.05,6,0,9.06.16,23,2.13,45.85,4,68.72.43,5.38,1.2,10.84,1.26,16.23,0,2.52-.42,5.52-3.12,6.58a6.92,6.92,0,0,1-6.42-1.33c-4-3.3-3.81-9.56-3.51-14.2.36-5.4,1.35-10.75,2-16.13,3-24.3,2.83-48.87,2.83-73.31A1.39,1.39,0,0,0,16.25,104.3Z"/><path id="knife" class="cls-1" d="M228.59,136.72q.22,14.46-.89,28.9c-.74,9.26-2.6,18.46-3.13,27.72-.34,6.1.27,15.09,6.9,18a8.09,8.09,0,0,0,8.22-1.07c2.79-2.18,3.48-5.51,3.57-8.83.49-18.89-3.83-37.6-5.8-56.29-.46-4.31-.68-8.79,1.06-12.86,1.59-3.72,3.68-6.6,4-10.75.39-4.68.06-9.49,0-14.18s-.05-9.38-.08-14.07q-.09-16.25-.17-32.48c0-5.41,0-10.83-.09-16.24-.05-2.85-.77-6-4-6.59a1.46,1.46,0,0,0-1.57.63,120.74,120.74,0,0,0-14.46,85.51c.53,2.45,1.95,6.85,4.68,7.83,1.18.43.45-.25.79.45a8.35,8.35,0,0,1,.38,1.8l.61,2.87c.36,1.72,3,1,2.68-.73-.33-1.54-.37-3.81-1.1-5.21s-2.29-1.59-3.23-2.72a11.35,11.35,0,0,1-2.13-5A118.07,118.07,0,0,1,239,40l-1.57.62c2.17.43,2,2.81,2,4.5,0,2.17,0,4.33,0,6.5q0,6.49.07,13,.06,12.45.13,24.9.07,12.72.14,25.44c0,4.23.22,8.25-1.74,12.14-1.54,3-3.05,5.73-3.52,9.16-1,7.31.8,15.06,1.81,22.3,1.18,8.5,2.44,17,3.25,25.54.38,4.06.66,8.12.78,12.19s1,9.73-2.94,12.21c-3.47,2.2-7-.34-8.54-3.46-1.83-3.69-1.83-8.2-1.57-12.21.6-9.09,2.38-18.11,3.1-27.21.77-9.61,1-19.26.89-28.9C231.34,135,228.56,135,228.59,136.72Z"/><path id="small_circle" data-name="small circle" class="cls-1" d="M122.48,73.8c-20,1.85-39.26,12.7-46.17,32-7.4,20.67-2.9,45.88,15.32,59.76,17.53,13.36,45,14.28,63.46,2.27a46.78,46.78,0,0,0,18-21.43c2.16-5.33,3-11,3.62-16.7s1.22-11.45-.43-17.08A52.41,52.41,0,0,0,168,95.73c-3.76-4.84-9-8.75-13.92-12.39-5.33-3.93-11.23-7.33-17.77-8.84-4.59-1.06-9.14-.66-13.8-.7a1.37,1.37,0,0,0,0,2.73c3.18,0,6.4-.33,9.56,0a37.89,37.89,0,0,1,15.76,5.86,99.88,99.88,0,0,1,12.9,9.81,37.77,37.77,0,0,1,9.35,12.5c2.47,5.12,4.6,10.27,4.59,16a88.15,88.15,0,0,1-1.9,17A42.56,42.56,0,0,1,159,161.46c-15.76,13.88-40.29,15.44-58.85,6.15-19.62-9.82-27.44-32.41-23.39-52.85,2.22-11.15,7.64-21,17-27.82a57.94,57.94,0,0,1,28.73-10.41C124.25,76.37,124.27,73.63,122.48,73.8Z"/><path id="large_circle" data-name="large circle" class="cls-1" d="M172.41,49.73c-16-8.9-34.34-14.15-52.8-13.76-19,.4-36.16,7.34-50.55,19.36C40.1,79.52,24.2,120,39.43,155.86c13.76,32.43,48.45,57,84.36,58.15,18,.59,36.5-4.51,51-15.27,8-6,14.62-13.38,21.13-20.81s12-15,14.76-24.58c2.69-9.37,4.81-20,4.13-29.79s-3.87-19.77-7-29.11c-3-9.11-6.92-18.08-12.75-25.83a57.4,57.4,0,0,0-8.84-9.46,84.79,84.79,0,0,0-9-6.06c-1.65-1.06-3.23-2.25-4.84-3.37s-2.86,1.35-1.41,2.36c4.37,3,9.19,5.59,13.24,9a62.1,62.1,0,0,1,15.45,20.5c4.2,8.6,6.91,17.83,9.39,27A79.25,79.25,0,0,1,212,123.56a63.11,63.11,0,0,1-1,14.83c-1.58,9.51-3.48,19.1-8.88,27.32-5.14,7.84-12,15-18.58,21.68-12.76,12.89-28.79,21.24-47.08,23.36-35.14,4.09-69.5-15.17-88.07-44A75.4,75.4,0,0,1,37.45,113c3-17.51,11.79-33.66,24-46.66S89,43.18,107,39.93c17.44-3.15,35.76-.27,52,6.35a109.78,109.78,0,0,1,12,5.81C172.56,53,174,50.6,172.41,49.73Z"/></g></svg>