<?xml version="1.0" encoding="utf-8"?>
<!-- Generator: Adobe Illustrator 23.0.1, SVG Export Plug-In . SVG Version: 6.00 Build 0)  -->
<svg version="1.1" xmlns="http://www.w3.org/2000/svg" xmlns:xlink="http://www.w3.org/1999/xlink" x="0px" y="0px"
	 viewBox="0 0 146.6 230.6" style="enable-background:new 0 0 146.6 230.6;" xml:space="preserve">
<style type="text/css">
	.st0{fill:#00ABC8;}
	.st1{display:none;}
	.st2{display:inline;fill:#00ABC8;}
	.st3{display:inline;}
	.st4{fill-rule:evenodd;clip-rule:evenodd;fill:#00ABC8;}
	.st5{display:inline;fill-rule:evenodd;clip-rule:evenodd;fill:#00ABC8;}
	.st6{display:inline;fill:none;stroke:#00ABC8;stroke-miterlimit:10;}
</style>
<g id="results">
	<g id="animation_copy_2" class="st1">
	</g>
</g>
<g id="sports_guide">
	<path id="book" class="st4" d="M129.4,23.5c2.1,1.1,3.8-1.3,6.1,0.1c-2.4,3.1-2.7,6.9-3.4,10.5c-0.3,1.6,0.4,2.1,1.9,2.1
		c1.6,0,3.5-1.3,4.7-0.1c1.5,1.5,0.4,3.7,0.5,5.6c0.1,2.5-0.7,5,1,7.3c0.4,0.6,0.6,1.4,0.1,2.1c-1.4,2.3-0.9,4.9-1.2,7.4
		c-0.8,8.5-1.8,16.9-2.3,25.4c-0.4,7.1-0.4,14.3-0.4,21.5c-0.2,16.3-1.5,32.5-2.6,48.7c-0.7,10.7-0.6,21.5,0.2,32.2
		c0.1,0.9,0.1,1.8,0.1,2.7c0,1.6-0.7,2-2.3,1.6c-2.6-0.7-5.1-1.8-7.6-2.6c-2.7-0.9-3.3-0.6-4,2.3c-1.2,5.1-1,10.4-2.6,15.4
		c-1.8,5.9-1.5,12-1.8,18.3c-2.1-0.2-3.8-0.3-5.1-2.2c-1.2-1.8-3.3-2.5-5.1-3.5c-14.5-8.2-29.6-15.4-45.7-20.1
		c-3.4-1-6.5-2.8-10-3.9c-5-1.6-10.1-2.5-15.3-3.1c-1-0.1-1.9-0.1-3,0.2c-5.5,1.4-10.2-1-14.5-4c-1.8-1.2-1-3.4-0.6-5
		c0.6-2.2,1.2-4.3,1.8-6.4c3.8-12.7,7.2-25.5,9.8-38.5c0.7-3.2,0.5-6.5,0.8-9.8c0.7-9.3,0.5-18.5,0-27.7c-0.2-4.1-1.3-8-2-11.9
		c-2.4-12.3-5.2-24.5-9.6-36.3c-0.7-2-1.4-3.9-2.1-5.9c-2-5.7,0.5-7.8,5.2-8.5c3-0.4,6.4-1.8,9.4,0.7c0.5,0.4,1.8,0.1,2.6-0.2
		c10.5-3.7,21.2-7.1,31.7-10.9c7.1-2.6,14.2-5.3,21.4-7.8c6-2.1,12-4.5,17.9-7c3.7-1.5,7.7-2.4,11.2-4.3c2-1.1,3.1-0.1,2.9,2.2
		c-0.1,1-0.5,2-0.7,3c-0.5,3.1,0.3,3.8,3.3,3c3.6-0.9,7-2.6,10.8-4.2C131.3,16.1,128.7,19.7,129.4,23.5z M32.1,49.3
		c1.5,5,3.5,9.7,4.7,14.6c2.3,9,4.2,18,5.1,27.2c1.3,13.3,0.3,26.6,0.2,39.9c0,0.9-0.2,1.8-0.3,2.7c-0.8,6.1-1.3,12.1-2.3,18.2
		c-1,5.7-1.1,11.6-2.3,17.3c-1.2,5.6-1,11.3-2.5,16.8c-0.6,2.2,0.5,3,2.6,2.9c4-0.1,7.6,1.4,11.3,2.3c5.1,1.3,9.6,4,14.7,5.4
		c10.1,2.8,19.5,7.2,28.9,11.7c5.8,2.7,11.3,5.9,16.9,9.1c1.9,1.1,2.6,0.6,3.1-1.3c1.4-4.9,2.6-9.8,3.7-14.7
		c1.7-8,2.7-16.2,3.5-24.3c0.8-8.2,0.3-16.4,1.1-24.6c1-9.6-1.1-19.1-0.8-28.6c0.3-11.7-1.9-23.2-2-34.9c-0.1-6.7-0.9-13.4-2.3-20
		c-0.4-2.1-1.1-3-3.4-3.3c-3.7-0.4-7.3-1.3-11-2.1c-9.7-2.2-19.4-4.7-29.1-6.8c-9.2-2-18.5-3.3-27.5-5.8
		C40.6,49.9,36.7,48.6,32.1,49.3z M43,47c3.5,1.8,7.1,3,11,3.6c6.8,1.2,13.5,2.3,20.2,3.7c12.2,2.7,24.4,5.7,36.5,8.5
		c7.4,1.7,7.5,1.6,8,9.1c1.3,17.3,2.4,34.6,3.6,51.8c0.4,5.7-0.1,11.3,0.5,17c0.9,8.1-0.4,16.1-0.6,24.1c-0.1,5.4,0.4,10.8-0.6,16.1
		c-0.8,4.1-0.8,4.1,3.4,5.5c0.4,0.1,0.8,0.3,1.3,0.5c6.1,2,6.5,1.7,6-4.8c-0.7-9.3-0.6-18.5,0.2-27.8c1.1-12.8,1-25.6,2.1-38.4
		c0.7-7.6,0.2-15.2,0.3-22.9c0.1-4.3,0.2-8.6,0.8-12.9c1.1-8.3,0.7-16.7,2-25c0.5-3-1-4.4-4-4.5c-2.4-0.1-4.8,0.1-7.2,0
		c-18.8-1.1-37.6-0.4-56.4-1.7c-3.7-0.2-7.5-0.2-11.2-0.9C53.7,47.1,48.3,47.9,43,47z M19.6,48c-0.9,1.3-0.3,2.1,0,2.9
		c2.4,7,4.9,14,6.4,21.3c2.3,11.2,5.1,22.3,5.9,33.9c0.6,9.4,0.1,18.8-0.8,28.2c-1,10.1-3.8,19.9-6.3,29.7c-1.5,6-3.4,12-5.1,18
		c-0.9,3-0.2,4.4,2.7,5.6c1.8,0.7,3.7,1.1,5.6,1.5c3,0.6,3.2,0.4,3.9-2.7c0.9-4.4,1.2-8.9,2.2-13.2c1.9-8.9,2.3-18,4-27
		c2-10.1,1.8-20.5,2-30.8c0.2-9.4,0-18.8-0.8-28.2c-0.5-5.6-2.1-10.8-3.1-16.2c-1.2-6.7-3.5-13.2-5.6-19.7c-0.6-1.7-1.4-2.4-3.3-2.1
		C24.6,49.5,22.1,48.8,19.6,48z M42.6,42.5c0,0.3,0.1,0.6,0.1,0.9c0.7,0,1.5,0,2.2,0c7.6,0.1,15.2-1.1,22.7-1.6
		c19.7-1.3,39.2-3.6,58.9-4.8c3.3-0.2,3.5-0.4,3.7-3.7c0.1-1.6-0.1-3.3,0.8-4.8c0.4-0.7,0.9-1.8-0.1-2.4c-0.5-0.3-1.5-0.3-2.1,0
		c-3.9,1.6-8,1.9-12,2.4c-7.7,1.1-15.3,2.6-22.8,4.3c-11.8,2.7-23.7,4.3-35.6,6.5c-0.6,0.1-1.2,0.2-1.8,0.2c-0.4,0-1.2,0.3-1.2-0.6
		c4.1-1.7,8.5-1.6,12.7-2.4c12.3-2.4,24.6-4.5,36.8-7.3c5.7-1.3,11.4-2.1,17.1-3.3c1.8-0.4,4.3-0.3,4.8-2.6c0.6-2.5,1.5-5.1,1.4-8.1
		c-15,4.3-29.2,9.9-44,13.8C69.5,33.1,54.8,37,40,40.9c3.9,0.3,7.6-1.4,11.8-0.9C48.5,40.9,45.5,41.7,42.6,42.5z M54.6,44.5
		c0,0.4,0,0.7,0,1.1c4,0.8,8.2,0.3,12.3,1.1c3,0.6,6.1,1.1,9.3,1.1c13.3,0.1,26.6,0.3,39.8,1c6,0.3,11.9,0.9,17.9,0.5
		c1.2-0.1,2.5-0.1,2.7-1.7c0.3-2.5,0.7-5,1-7.5c0.2-1.5-0.5-2.3-2-2.2c-1,0-2.1,0-3.1,0.1c-5.3,0.6-10.6,1.2-16,1.3
		c-4,0.1-8.1,0.4-12.1,0.8C93,41.2,81.6,42.5,70.1,43C64.9,43.2,59.8,44,54.6,44.5z M38,39.2c5.1-1.4,10.4-1.9,15.5-3.3
		c7.8-2.1,15.5-4.4,23.3-6.3c11-2.6,21.7-6.4,32.5-9.8c4.4-1.4,4.4-1.5,4.5-6.2c0-0.7,0.4-1.5-0.7-2.2C88.2,20.6,63.4,30.5,38,39.2z
		 M26.5,46.8c-0.7-1.2-1.1-1.9-1.5-2.5c-0.4-0.6-0.7-1.3-1-2c-1.2-3-2.4-3.5-5-2c-1.7,1-2,2.2-0.6,3.5C20.5,46,23,47.1,26.5,46.8z
		 M35.9,43.6c1,0.8,1.9,0.8,3,0C37.7,42.9,36.8,42.8,35.9,43.6z"/>
	<g id="animation_copy" class="st1">
		<path class="st5" d="M50.8,122.3c-0.1-2,0.2-4.3,0.7-6.5c0.3-1.4,1.1-2.7,1.8-4.1c1.2-2.5,2.9-4.8,5-6.7c2.4-2.1,5-4.1,7.9-5.7
			c1.9-1,4-1.4,6.1-2c1.3-0.4,2.7-0.6,4.1-0.9c1.3-0.3,2.5-0.2,3.7,0.2c0.9,0.3,1.8,0.5,2.8,0.6c1.1,0.1,2.2,0.3,3.3,0.6
			c1.7,0.5,3.5,1,5.3,1.5c5.2,1.4,9.2,4.5,12,9.1c0.5,0.8,1,1.6,1.5,2.3c1.5,2.2,2.2,4.7,2.5,7.3c0.2,1.9,0.5,3.8,0.2,5.7
			c-0.4,2.9-1.3,5.6-2.3,8.3c-0.6,1.8-1.5,3.4-2.7,4.9c-0.4,0.5-0.6,1-0.9,1.6c-1.3,2.7-3.4,4.7-6,6.1c-3,1.6-6.2,2.6-9.3,3.6
			c-1.4,0.5-2.9,0.6-4.4,0.7c-1.4,0.1-2.8,0.2-4.2,0.4c-0.7,0.1-1.4,0.2-2-0.2c-0.2-0.1-0.5-0.1-0.8-0.1c-0.3,0-0.5,0.1-0.8,0.1
			c-1.9-0.6-4.1-0.6-5.9-1.7c-1.3-0.8-2.7-1.4-4-2.2c-2-1.3-3.9-2.6-5.7-4.2c-2.1-1.9-4-4-5.4-6.5c-1.7-3.2-2.9-6.6-2.6-10.3
			C50.9,123.8,50.8,123.2,50.8,122.3z M95.5,104.7c0.2-0.5,0.3-1.1,0.3-1.6c0-0.5-0.1-0.8-0.5-1c-1.3-0.7-2.6-1.4-4.1-1.8
			c-3-0.8-6-1.8-9.1-2.2c-1.5-0.2-3-0.3-4.5,0.4c-1.6,0.7-2.8,1.8-4.2,2.8c-1.3,0.9-2.2,1.9-1.8,3.7c0,0.1,0,0.3,0,0.4
			c-0.2,2.5,0.1,4.9,0.5,7.3c0.2,0.9,0.6,1.7,1.4,2.3c2.2,1.9,4.8,3.1,7.3,4.5c0.6,0.3,1.2,0.7,1.7-0.1c0.1-0.1,0.4-0.1,0.6-0.2
			c3.5-0.8,6.7-2.2,10-3.5c0.7-0.3,1.1-0.7,1.1-1.6c0-0.6,0.1-1.2,0.2-1.8c0.3-1.7,0.6-3.3,1-5c0.1-0.5,0.1-1-0.4-1.4
			c-0.3-0.2-1-0.5-0.7-1.1C94.5,103.9,95.1,104.8,95.5,104.7z M81.8,128.1c-0.1,2.1-0.1,2,1.3,2.8c2.1,1.1,4.3,1.9,6.4,2.9
			c0.4,0.2,0.8,0.4,1.2,0.3c2.5-0.7,5-1.6,7.4-2.5c0.6-0.2,1-0.7,1.2-1.3c0.9-2.3,1.5-4.7,2.2-7c0.5-1.5,0.3-1.9-1.1-2.8
			c-1.9-1.2-3.8-2.4-5.6-3.8c-0.7-0.5-1.3-0.6-2-0.3c-2.9,1.3-6,2.2-8.9,3.3c-0.8,0.3-1.3,0.7-1.4,1.7
			C82.1,123.8,82.1,126.1,81.8,128.1z M73.9,145.2c1,0.1,1.9,0.1,2.9-0.1c0.9-0.2,1.9-0.3,2.8-0.3c1.3,0,2.5-0.2,3.7-0.6
			c0.8-0.3,1.6-0.6,2.4-0.7c0.5-0.1,0.9-0.3,1.1-0.8c1-2.1,2.1-4.1,3.2-6.1c0.5-0.9,0.4-1.2-0.5-1.7c-2.3-1.1-4.7-2.1-7-3.2
			c-0.4-0.2-0.7-0.2-1.1-0.2c-2,0.2-4,0.5-6,0.4c-1-0.1-2,0.2-3,0.4c-0.6,0.1-1.2,0.4-1.7,0.9c-1.5,1.4-2.5,3.2-3.8,4.8
			c-0.2,0.3-0.2,0.5,0,0.8c1.2,1.9,2.7,3.7,4,5.6c0.3,0.4,0.8,0.8,1.4,0.8C72.8,145.2,73.3,145.2,73.9,145.2z M70.6,106.7
			c0-0.7-0.1-1.3,0-2c0.1-0.9-0.2-1.6-0.9-2.2c-0.8-0.8-1.7-1.4-2.7-2.1c-0.4-0.2-0.7-0.2-1.1,0c-1,0.7-2,1.3-2.9,2
			c-2.6,1.8-5.1,3.8-6.9,6.5c-0.5,0.8-0.7,1.5-0.5,2.4c0.5,2.6,1.6,5,1.9,7.6c0.1,0.5,0.5,0.8,1,0.9c1.8,0.6,3.7,0.6,5.5,0.9
			c1.3,0.2,2.1-0.3,2.8-1.2c1.1-1.4,2.3-2.7,3.4-4.1c0.7-0.8,1.1-1.6,0.8-2.7C70.7,110.8,70.5,108.8,70.6,106.7z M57.8,120.9
			c-1-0.1-1.3,0.5-1.5,1c-1.1,2.1-2,4.4-3.5,6.3c-0.5,0.6-0.5,1.3-0.2,2c0.6,1.4,1.2,2.8,1.8,4.2c0.2,0.4,0.5,0.6,0.9,0.4
			c0.4-0.2,0.7-0.3,1.1,0.1c0.7,0.7,1.6,0.9,2.5,1c2,0.3,4,0.7,6,1.2c0.7,0.2,1.2,0,1.6-0.6c1.3-1.7,2.6-3.3,4.1-4.9
			c0.4-0.4,0.4-0.7,0.2-1.2c-1.1-2.7-2.3-5.3-3.9-7.6c-0.3-0.4-0.6-0.8-1.1-0.8c-0.8-0.1-1.6-0.3-2.5-0.3c-1.6,0-3.2-0.3-4.8-0.6
			C58.2,121,57.9,120.9,57.8,120.9z M81.4,121.7c0.2-0.6-0.2-0.8-0.7-1.1c-1.7-1.2-3.7-1.9-5.4-3.1c-0.8-0.5-1.6-1.1-2.4-1.6
			c-0.8-0.5-0.8-0.5-1.5,0.2c-1.3,1.3-2.2,2.9-3.5,4.2c-0.9,0.9-0.8,1-0.2,2.1c0.8,1.3,1.8,2.6,2.4,4c0.6,1.4,1.3,2.7,1.9,4.1
			c0.3,0.6,0.6,1,1.4,0.8c1.3-0.3,2.6-0.3,3.9-0.3c0.8,0,1.6-0.1,2.3-0.3c0.5-0.1,0.8-0.4,0.8-0.9C80.8,127.1,81.1,124.4,81.4,121.7
			z M96.9,103.4c0.1,2.1-0.6,4.2-0.6,6.2c0,1.2-0.2,2.3-0.5,3.5c-0.1,0.4-0.2,0.8-0.4,1.3c-0.3,0.9-0.1,1.5,0.7,2
			c1.1,0.8,2.3,1.5,3.4,2.3c0.7,0.5,1.6,0.9,2.3,1.5c0.2,0.2,0.5,0.2,0.7,0.2c1.2,0.1,2.2-0.2,3.3-0.6c0.5-0.2,0.7-0.5,0.6-1
			c-0.2-1.2-0.3-2.3-0.6-3.5c-0.7-2.5-2.1-4.7-3.5-6.8c-1.1-1.8-2.5-3.3-4.1-4.6C97.9,103.7,97.6,103.4,96.9,103.4z M88.1,143.2
			c-0.4,0.6,0,0.8,0.5,1.1c0.5,0.3,1,0.7,1.5,1c0.4,0.3,0.8,0.3,1.3,0.1c1.9-1,3.7-2.1,5.5-3.2c2.4-1.5,3.8-3.9,5.5-6.1
			c0.2-0.3,0.3-0.6,0-0.8c-0.3-0.3-0.6-0.7-0.9-0.9c-0.3-0.2-0.7-0.2-0.9,0.1c-0.1,0.1-0.2,0.3-0.2,0.5c-0.1,0.2-0.3,0.5-0.6,0.4
			c-0.4-0.2-0.2-0.5,0-0.8c0-0.1,0.1-0.2,0.1-0.2c0.1-0.3,0.6-0.7,0.2-1c-0.4-0.3-0.8-0.8-1.5-0.7c-0.3,0.1-0.7,0.2-1,0.4
			c-1.4,0.7-3,1.2-4.5,1.6c-0.9,0.3-1.5,0.7-2,1.5c-0.7,1.3-1.4,2.5-2,3.8C88.7,141,88,141.9,88.1,143.2z M56.4,136.4
			c-0.4,0.1-0.4,0.4-0.2,0.7c0.4,0.6,0.8,1.1,1.3,1.6c1.8,1.7,3.6,3.5,5.7,4.9c1.9,1.3,4,2.1,5.9,3.4c0.4,0.2,0.7,0.3,1-0.1
			c0.3-0.3,0.2-0.6,0-0.9c-1.5-2.5-3-4.9-4.9-7.1c-0.4-0.5-0.9-0.9-1.6-0.9c-0.8-0.1-1.7-0.2-2.4-0.4c-1.5-0.4-3.1-0.3-4.6-1
			C56.7,136.4,56.6,136.4,56.4,136.4z M102,132.1c-0.3,0.8,0.2,1.3,0.7,1.8c0.4,0.4,0.7,0.2,0.9-0.2c0.2-0.3,0.3-0.5,0.4-0.8
			c0.5-0.8,0.5-1.8,0.9-2.7c1.2-2.6,1.5-5.3,1.7-8.1c0.1-1-0.4-1.4-1.3-1.2c-1.3,0.4-2.5,1-2.8,2.6c0,0.3-0.2,0.7-0.3,1
			c-0.7,2.1-1.3,4.2-2,6.3c-0.3,1,0.1,1.3,1,1.2C101.6,132,101.8,131.9,102,132.1z M79.4,148.4c1-0.3,2.3-0.1,3.6-0.3
			c1.9-0.2,3.8-0.6,5.5-1.5c0.6-0.3,0.7-0.5,0.2-0.9c-1.4-1.1-2.9-1.7-4.7-0.9c-1.1,0.5-2.2,0.7-3.3,0.7c-2.7,0.1-5.3,0.8-7.9,0.7
			c-0.1,0-0.3,0-0.4,0.1c-0.5,0.2-0.8,0.6-0.8,1.1c0,0.5,0.5,0.5,0.9,0.6c0.2,0.1,0.4,0.1,0.6,0.1C75.1,148.2,77.1,148.3,79.4,148.4
			z M52,126.8c0.5-0.2,0.6-0.4,0.7-0.7c0.7-1.2,1.3-2.6,2.1-3.7c1.5-2,1.5-4,0.7-6.1c-0.4-1.3-0.8-2.6-1.2-4.1
			c-1.6,2.2-2.2,4.6-2.5,7c-0.2,1.8-0.2,3.7-0.3,5.6C51.6,125.4,51.6,126.1,52,126.8z M76.2,97.9c-0.5,0-0.9,0-1.4,0
			c-0.4,0-0.9-0.1-1.3,0.1c-0.7,0.3-1.5,0.4-2.3,0.6c-0.8,0.2-1.7,0.4-2.5,0.8c-0.7,0.3-0.7,0.6-0.2,1.1c0.4,0.4,0.8,0.8,1.3,1.1
			c0.9,0.6,1.4,0.6,2.2-0.1c1-0.9,2.1-1.6,3.2-2.4C75.7,98.7,76.2,98.5,76.2,97.9z"/>
	</g>
</g>
<g id="info">
	<g id="animation_copy_3" class="st1">
	</g>
</g>
<g id="visitor">
	<g id="decoative">
	</g>
	<g id="animation_2_" class="st1">
	</g>
</g>
<g id="schedules">
	<g id="animation_1_" class="st1">
	</g>
</g>
<g id="scoring">
	<g id="animation" class="st1">
	</g>
</g>
</svg>
