<?xml version="1.0" encoding="utf-8"?>
<!-- Generator: Adobe Illustrator 23.0.1, SVG Export Plug-In . SVG Version: 6.00 Build 0)  -->
<svg version="1.1" xmlns="http://www.w3.org/2000/svg" xmlns:xlink="http://www.w3.org/1999/xlink" x="0px" y="0px"
	 viewBox="0 0 230.8 175.7" style="enable-background:new 0 0 230.8 175.7;" xml:space="preserve">
<style type="text/css">
	.st0{fill:#00ABC8;}
	.st1{display:none;}
	.st2{display:inline;fill:#00ABC8;}
	.st3{display:inline;}
	.st4{fill-rule:evenodd;clip-rule:evenodd;fill:#00ABC8;}
	.st5{display:inline;fill-rule:evenodd;clip-rule:evenodd;fill:#00ABC8;}
	.st6{display:inline;fill:none;stroke:#00ABC8;stroke-miterlimit:10;}
</style>
<g id="results">
	<g id="animation_copy_2" class="st1">
	</g>
</g>
<g id="sports_guide">
	<g id="animation_copy" class="st1">
	</g>
</g>
<g id="info">
	<g id="animation_copy_3" class="st1">
	</g>
</g>
<g id="visitor">
	<g id="decoative">
		<path id="deco5" class="st4" d="M223.5,25.9c-1-0.2-1.3,0.6-1.4,1.4c-0.9,5.2-2,10.4-2.8,15.7c-0.6,4.1-0.8,8.2-1.7,12.2
			c-0.4,1.9-1.2,3.7-0.6,6.3c1.9-4,2.1-7.8,2.9-11.5c1.3-6,1.7-12.2,3.3-18.2c0.4-1.4,0.8-2.7,1.1-4.1
			C224.4,27,224.5,26.1,223.5,25.9z"/>
		<path id="deco4" class="st4" d="M216.5,127.8c-1,0.9-0.9,1.8-0.8,2.6c1,6.7,1.4,13.5,2.8,20.2c0.7,3.3,1.1,6.8-3.8,8.6
			c4.1,0,6-1.9,5.7-5.1c-1-8.5-2.1-17-3.2-25.4C217.1,128.4,216.8,128.2,216.5,127.8z"/>
		<path id="deco3" class="st4" d="M22.3,78.3c0,0.2,0.1,0.4,0.1,0.6c1.1,4.2,1.2,8.6,1.5,12.9c0.5,6.9,0.5,13.9-0.4,20.8
			c-0.4,2.7-0.3,5.5-0.5,8.3c0.2,0,0.3,0,0.5,0.1c0.4-3,0.8-6,1.1-8.9c1.1-11.4,1-22.8-0.5-34.1c-0.1-0.9,0.5-2.7-1.2-2.4
			C21.4,75.8,22.4,77.4,22.3,78.3z"/>
		<path id="deco2" class="st4" d="M54.1,39.4c0-0.5-0.3-0.9-0.8-0.8c-0.4,0-0.7,0.4-0.8,0.9c-0.1,0.4-0.1,0.9-0.1,1.3
			c-0.1,3.7-0.3,7.4-0.9,11c-1.1,6.8-0.1,13.7-1.4,20.4c-0.1,0.5-0.2,1.1,0.6,2c0.1-3.7,1-6.8,1.2-9.9c0.3-6.9,1.6-13.8,2.1-20.7
			C54.1,42.3,54.1,40.8,54.1,39.4z"/>
		<path id="deco1" class="st4" d="M20.7,153c0-1.2,0.4-2.5-0.4-3.8c-2.3,3.6-1.7,7.8,1.2,9.5c2.7,1.6,5.8,2,8.9,1.1
			c-2.1-0.7-4.2-1.4-6.3-2C21.7,157.2,20.7,155.5,20.7,153z"/>
	</g>
	<path id="map" class="st4" d="M228.9,12.1c-2.6-3.6-6.1-5.4-10.3-6.3c-5.9-1.2-11.9-1.3-17.8-1.7c-3.5-0.2-6.9,0.5-10.4,0.7
		c-7.2,0.4-14.3,1.4-21.3,3c-6.5,1.4-13,2.5-19.4,4.1c-5.6,1.3-11.3,2-17,2.8c-7.6,1.1-15.3,1.9-23,2.1c-7.5,0.2-15-0.9-22.4-1.5
		c-3.9-0.3-7.7-0.9-11.6-1.6c-10-1.8-19.6-5.4-29.7-7.1c-7.7-1.3-15.3-2.2-23-0.4c-4.3,1-8.6,2.1-12.5,4.4c-2.5,1.5-3.8,4.1-2.9,6.1
		c1.4,3.1,2.2,6.3,2.9,9.6c1.2,5.6,1.8,11.4,2.9,17c1.1,5.7,2.1,11.3,2.6,17c0.7,8.5,0.8,17.2,1,25.7c0.3,12,0,23.9-0.5,35.9
		c-0.3,6.8-0.4,13.7-1.3,20.5c-0.8,5.7-1.5,11.4-3,16.9c-0.4,1.7-0.7,3,1.4,4.1c4.3,2.2,8.9,3.3,13.7,3.7c2.7,0.2,5.4,0.4,8.1,0.7
		c5.7,0.6,11.5,1.1,17.2,0.2c2.1-0.3,4.1-0.8,6-1.6c1-0.4,2.1-1.3,1-2.5c-1.5-1.7-1.2-3.8-2-6c5.1,0.3,9.8,0.7,14.4,0.5
		c9.6-0.5,18.9-2.8,28-5.4c7.5-2.2,15.1-3,22.8-2.6c0.8,0,1.5,0.1,2.3,0.3c4.7,0.9,9.1,2.7,13.8,3.8c3.4,0.8,6.7,2,10.1,2.3
		c8.5,0.8,17,2.1,25.7,1.5c2.8-0.2,3.4,0.4,3.1,3.1c-0.2,1.8,0.6,2.6,1.6,3.6c1.1,1.1,2.6,1.6,4,2c9.7,3,19.6,3.4,29.7,2.3
		c3.1-0.4,6.2-1.4,9.1-2.5c1.5-0.6,2.6-1.8,3.6-3.2c0.8-1.3-0.6-1.9-0.5-3c0-0.3,0-0.7-0.1-1c-1-3.6-0.5-7.4-1-11
		c-1.2-8.9-2-17.9-2.1-26.9c-0.2-14.9-0.5-29.8-0.1-44.7c0.3-12,1.5-23.8,3.3-35.6c0.5-3.2,1.2-6.4,1.5-9.6
		c0.5-4.2,0.6-8.7,3.2-12.4C231.7,16.5,230.7,14.4,228.9,12.1z M56.3,165.1c-1.8,0.4-3.5,1.2-5.4,1.2c-4.2-0.1-8.5,0.4-12.7-0.1
		c-6.7-0.8-13.5-0.4-20-2.6c-0.4-0.1-0.8-0.2-1.2-0.4c-2.5-0.9-3.2-1.9-2.7-4.4c1.4-6.3,2.4-12.6,2.8-19c0.3-5.1,1-10.2,1-15.3
		c0.2-13.6,0.6-27.2,0.3-40.8c-0.3-10.6-0.2-21.3-1.6-31.9c-0.6-4.6-1.5-9.2-2.4-13.8c-0.8-4.6-1.8-9.1-2.7-13.7
		c-0.2-1-0.2-2.1-0.3-3.5c8.4,2.8,16.5,4,24.7,4.6c8.1,0.6,16.2,1.6,24.4-0.2c0.5,2.6-0.4,4.8-0.9,6.9c-1.2,5.4-2,10.9-2.9,16.3
		c-1.2,7.2-1.6,14.4-2.5,21.7c-1.1,9-1.4,18-1.6,27c-0.2,7.5-0.7,15-0.4,22.5c0.5,11.4,1.4,22.8,2.9,34.1c0.4,3.2,0.8,6.5,1.8,9.6
		C57.4,164.3,57.3,164.9,56.3,165.1z M52.6,19c-0.1-0.4-0.5-0.8-1-0.8c-0.7,0.1-1.5,0.2-2.2,0.5c-6.3,2.6-12.7,2.1-19.2,0.8
		c-0.3-0.1-0.7-0.1-0.9-0.3c-0.7-0.4-1.9-0.4-2-1.4c-0.2-1.3,1.1-1.5,1.9-1.8c2.4-1.1,5.1-1.1,7.7-1.3c1.5-0.1,3,0,4.5,0
		c4.2-0.5,8.3,0.4,12.4,0.8c2.5,0.2,4.7,1.5,6.9,2.7c1,0.5,2,1.4,1.7,2.9c-0.3,1.3-1.2,1.8-2.5,2.3c-2.9,1-6,1-9,1.2
		c-0.9,0-1.8,0-2.1-1.1c-0.4-1.2,0.4-1.8,1.3-2.3c0.7-0.4,1.4-0.6,2.1-0.9C52.7,19.9,52.8,19.4,52.6,19z M30.2,23
		c-1-0.1-3.1,0-2.8-1.4c0.3-1.7,1.9-0.2,2.9-0.1c4.2,0.6,8.4,1.1,12.6,0.5c1-0.1,1.9-0.2,2.9-0.2c0.8,0,1,0.7,1,1.4
		c0,0.7-0.5,0.9-1.1,0.9c-1.3,0-2.6,0-3.9,0c0,0,0-0.1,0-0.1C38,23.7,34.1,23.5,30.2,23z M226,24.3c-0.8,3.2-1.3,6.4-1.7,9.6
		c-0.3,3.2-1,6.4-1.5,9.6c-0.2,1.4-0.6,2.8-0.7,4.2c-0.8,10.2-1.9,20.3-2.5,30.5c-0.4,8.2,0.1,16.3,0,24.4c0,7.2,0,14.3,0.3,21.5
		c0.5,8.8,1.4,17.5,2.1,26.3c0.3,3.5,0.7,6.9,1,10.4c0.2,2.6-0.2,3.1-2.6,4.2c-4.4,1.9-9,2.3-13.7,2.6c-6.4,0.4-12.8-0.3-19.1-1.6
		c-2.4-0.5-4.9-1.2-7-2.6c-0.7-0.5-1.2-1-1.2-2.1c0-3.6,0.8-7.1,1.3-10.6c0.1-1,0.5-1.9,0.5-2.9c0.7-9,2.4-17.9,2.4-26.9
		c0-7.3,1-14.5,1-21.8c0-10.1-0.2-20.2-0.1-30.3c0-5.7-0.3-11.3-0.9-16.9c-0.2-2.3-0.8-4.5-1.1-6.7c-1-6.6-2.3-13.2-5-19.5
		c-0.7-1.6-0.2-2,1.8-1.6c5.7,1.2,11.4,1.5,17.1,1.5c7.5-0.1,15-0.6,22.4-2.1c2.3-0.5,4.6-0.8,6.9-1.2
		C226.6,23.1,226.2,23.7,226,24.3z M190.5,18.4c-0.5-0.1-1-0.3-1.6-0.4c-2.6-0.5-3.3,0.2-2.7,2.8c0.5,2.2,0.1,2.7-2,2.3
		c-2.1-0.4-4.3-0.9-6.3-1.5c-0.8-0.2-1.6-0.8-1.7-1.8c-0.1-1.1,0.8-1.6,1.6-1.8c2.8-0.9,5.6-2,8.4-2.4c4.4-0.6,8.9-0.6,13.3,0.1
		c0.9,0.1,2,0.1,2.6,1.3C198.5,19,194.5,18.9,190.5,18.4z M202.5,21.1c0.2,1.1,0.6,2.2-1.1,2.4c-1.2,0.1-2.4,0.4-3.6,0.3
		c-2.6-0.1-5.2-0.3-7.8-0.5c-1.1-0.1-1.5-0.7-1.4-1.7c0-1,0.7-1.2,1.5-1.2c1.4,0,2.8,0,4.2,0c2.2,0,4.3,0.3,6.4-0.5
		C201.8,19.6,202.3,20,202.5,21.1z M227.6,17.9c-1.7,2-3.6,2.9-6.1,3.3c-4.8,0.7-9.6,1.8-14.5,2.1c-2.7,0.2-3.1-0.4-2.4-3
		c0.6-2.1,0.9-4.1-1.3-5.5c-0.5-0.3-0.9-0.6-1.5-0.6c-4.3-0.6-8.6-1-13-0.6c-3.7,0.4-7.3,1-10.8,2.2c-4.1,1.3-4.7,2.9-3.1,7.1
		c1.3,3.5,2.4,7,3.6,10.4c1.3,3.6,1.6,7.4,2.3,11.1c2.4,12,1.7,24.2,2.1,36.4c0.5,15.7-0.6,31.3-1.1,46.9c-0.2,6.4-1.3,12.7-2.1,19
		c-0.3,2.5-0.4,5-1.1,7.4c-0.3,1.3-1,1.8-2.3,1.8c-6.5,0-12.9,0.5-19.5-0.5c-6.8-1-13.5-2-20.1-3.8c-3-0.8-6-1.9-9.1-2.5
		c-8.4-1.7-16.6-1-24.8,1.1c-7.3,1.9-14.6,3.9-22.2,5.1c-3.3,0.5-6.6,1.2-10,1.2c-3.8,0-7.6-0.1-11.3-0.4c-2-0.1-2.7-1.2-2.8-3.7
		c-0.2-5.9-1.1-11.7-1.6-17.5c-1-10.5-0.9-21.1-0.9-31.6c0.1-9.4,0.1-18.7,1.2-28c1-8.5,1.4-17.1,2.9-25.6c1.3-7.5,2.7-15,4-22.4
		c0.2-1.3,0.7-2.4,1.5-3.5c1.7-2.3,1.1-5.3-1.3-6.8c-2.3-1.4-4.8-2.5-7.5-3c-7.1-1.5-14.3-1.3-21.4-0.9c-2.1,0.1-4,0.7-6,1.5
		c-2.2,0.9-3.1,2.4-2.8,4.9c0.3,2.7,0,2.9-2.6,2.3c-2.5-0.5-5.1-0.9-7.6-1.9c-1.5-0.6-2.7-1.4-3.8-2.4c-1.7-1.5-1.7-3,0-4.3
		c1.2-0.9,2.5-1.7,3.9-2.3C22.9,7.2,31.4,6.4,40,7.5c8.5,1.1,16.8,3.2,25.1,5.6c4.9,1.4,10,1.9,15,2.8c4.4,0.8,8.8,1,13.2,1.6
		c7.5,1,14.9,1.1,22.4,0.8c4.7-0.2,9.3-0.8,13.9-1.4c4-0.5,7.9-1.4,11.9-1.8c5.1-0.6,10-1.8,15-2.8c7.9-1.5,15.7-3.5,23.7-4.6
		c12.1-1.6,24.2-2.6,36.4-0.3c4.8,0.9,8.7,3.1,11.5,7.3C228.8,15.8,228.7,16.5,227.6,17.9z"/>
	<g id="animation_2_" class="st1">
		<circle id="dot4" class="st2" cx="85.8" cy="133.9" r="2.3"/>
		<circle id="dot3" class="st2" cx="151.9" cy="100.8" r="2.3"/>
		<circle id="dot2" class="st2" cx="73.5" cy="64.5" r="2.3"/>
		<circle id="dot1" class="st2" cx="151" cy="40.7" r="2.3"/>
		<line id="bottom_line" class="st6" x1="85.8" y1="133.9" x2="151.9" y2="101.5"/>
		<line id="centre_line" class="st6" x1="73.5" y1="64.5" x2="151" y2="100.4"/>
		<line id="top_line" class="st6" x1="73.5" y1="64.5" x2="151" y2="40.7"/>
	</g>
</g>
<g id="schedules">
	<g id="animation_1_" class="st1">
	</g>
</g>
<g id="scoring">
	<g id="animation" class="st1">
	</g>
</g>
</svg>
