<?xml version="1.0" encoding="utf-8"?>
<!-- Generator: Adobe Illustrator 23.0.1, SVG Export Plug-In . SVG Version: 6.00 Build 0)  -->
<svg version="1.1" xmlns="http://www.w3.org/2000/svg" xmlns:xlink="http://www.w3.org/1999/xlink" x="0px" y="0px"
	 viewBox="0 0 250 120.3" style="enable-background:new 0 0 250 120.3;" xml:space="preserve">
<style type="text/css">
	.st0{fill-rule:evenodd;clip-rule:evenodd;fill:#00ABC8;}
	.st1{fill:#00ABC8;}
</style>
<g id="Layer_1">
	<path class="st1" d="M239.3,36.2c0-0.8-0.7-1.5-1.5-1.5c-5.2,0-10.3,0-15.5,0c-0.9,0-1.5,0.7-1.5,1.5c-0.5,7.6-0.9,15.2-1.2,22.8
		c-1-1.1-2.3-2.1-3.9-2.6c-4.6-1.7-10.2-1.3-15.1-1.6c-11.2-0.7-22.3-1.4-33.5-2c-11.4-0.7-22.7-1.4-34.1-2.1
		c-9.6-0.6-21-2.9-30,1.5c-9.6,4.7-9.9,15.7-9.8,25.2c-3.5-0.1-7-0.1-10.5-0.2c-0.9-5.1-3.3-9.8-7.5-13.1
		c-5.4-4.3-12.5-5.2-19.2-5.3c-6.8-0.1-14.8-0.5-20.6,3.6c-0.8,0.6-1.7,1.3-2.5,2.1c0-5.1,0-10.1-0.1-15.2
		c-0.2-10.3-0.5-20.7-1.1-31c-0.2-2.7-0.8-5.4-3.8-5.6c-1.6-0.1-3.4-0.2-5.1-0.4c-0.1,0-0.2,0-0.4,0c-3.6,0.1-10.7-1.3-11.1,4
		c-0.1,1.5,0.1,3.1,0.1,4.6c0.2,5.6,0.3,11.2,0.4,16.8c0.4,16.8,0.6,33.7,0.5,50.5c-0.1,8-0.2,16-0.7,24c-0.1,0.9,0.8,1.5,1.5,1.5
		c5.6,0.5,11.2,0.4,16.8-0.4c0.7-0.1,1.1-0.9,1.1-1.5c0.3-3.8,0.5-7.7,0.7-11.5c8.8,0.4,17.9-0.5,26.7-0.6
		c12.5-0.2,25.1-0.2,37.6-0.2c29.7-0.1,59.5,0,89.2-0.1c11.1,0,22.3,0,33.4-0.1c0,5,0,10,0.1,15c0,0.4,0.1,0.7,0.3,0.9
		c0.2,0.4,0.6,0.6,1.2,0.6c6.4-0.1,12.7,0.1,19.1,0.3c0.8,0,1.5-0.7,1.5-1.5C241.2,88.6,240.7,62.4,239.3,36.2z M97.8,61.7
		c2.3-5.8,8.3-8.2,14.1-8.7c0,0,0.1,0,0.1,0c-0.8,1.8-1.5,3.7-2,5.6c-0.6,1.9,2.4,2.7,3,0.8c0.6-2,1.3-3.9,2.1-5.8
		c0.1-0.3,0.2-0.5,0.1-0.8c4.2-0.1,8.5,0.4,12.7,0.7c-0.5,2.6-0.9,5.3-1.2,8c-0.2,2,2.9,2,3.1,0c0.3-2.6,0.7-5.2,1.2-7.8
		c4.7,0.3,9.4,0.6,14.1,0.9c-0.1,0.2-0.2,0.4-0.2,0.7c-0.2,3.5-0.2,6.9,0,10.4c0.1,2,3.2,2,3.1,0c-0.2-3.5-0.2-6.9,0-10.4
		c0-0.2,0-0.4-0.1-0.6c0.3,0,0.5,0,0.8,0c2.7,0.2,5.5,0.3,8.2,0.5c0,1.4,0,2.8,0,4.2c0,2,3.1,2,3.1,0c0-1.3,0-2.7,0-4
		c3.1,0.2,6.2,0.4,9.3,0.6c0,0.2-0.1,0.3,0,0.5c0.2,3.2,0.5,6.4,0.7,9.6c0.1,2,3.2,2,3.1,0c-0.2-3.2-0.5-6.4-0.7-9.6
		c0-0.1,0-0.2-0.1-0.3c4.3,0.3,8.6,0.5,13,0.8c1.2,0.1,2.4,0.1,3.7,0.2c0,0.1,0,0.2-0.1,0.3c-0.2,2.1,0,4.3,0.5,6.3
		c0.5,1.9,3.4,1.1,3-0.8c-0.4-1.8-0.6-3.7-0.4-5.5c0,0,0-0.1,0-0.1c3.9,0.2,7.7,0.5,11.6,0.7c0.8,0.1,1.7,0.1,2.5,0.1
		c-0.1,0.2-0.1,0.4,0,0.7c0.5,3.1,1,6.3,1.5,9.4c0.3,2,3.3,1.1,3-0.8c-0.5-3-0.9-6.1-1.4-9.1c4.4,0.3,8.4,1.4,10.2,6.2
		c0,0.2,0,0.5,0,0.7c-0.1,3.9-0.3,7.9-0.3,11.8c0,0,0,0,0,0c-0.3,0-0.5,0-0.8,0c-2.5,0.1-4.9,0.2-7.4,0.3c-0.4,0-0.7,0-1.1,0
		c-23.6,0.9-47.2,0.7-70.7,0.5c-14.3-0.1-28.5-0.4-42.8-0.7C96,72.3,95.9,66.5,97.8,61.7z M32.7,70.6c0.5-2.7,3-4.9,5.3-6.3
		c2.1-1.3,4.6-1.9,7.2-2.2c0,0.1-0.1,0.3-0.1,0.4c-0.1,2.1-0.2,4.3-0.4,6.4c-0.1,2,3,2,3.1,0c0.1-2.1,0.2-4.3,0.4-6.4
		c0-0.2,0-0.4-0.1-0.6c2.5-0.1,4.9,0,7.2,0c0.4,0,0.8,0,1.1,0c-0.3,2.7-0.5,5.3-0.4,8c0.1,2,3.1,2,3.1,0c-0.1-2.6,0-5.3,0.4-7.9
		c2.8,0.2,5.7,0.6,8.3,1.6c-0.1,1-0.1,1.9-0.2,2.9c-0.1,0.8,0.8,1.5,1.5,1.5c0.9,0,1.5-0.7,1.5-1.5c0-0.5,0.1-1,0.1-1.5
		c0.3,0.1,0.5,0.3,0.8,0.5c4.2,2.6,6.8,6.9,7.8,11.7c-15.6-0.4-31.2-0.8-46.9-1.1C32.6,74.2,32.7,72.5,32.7,70.6
		C32.7,70.7,32.7,70.6,32.7,70.6z M14.2,17.6c0.5-3,5.7-2.1,8-2.1c1.5,0.1,3.8-0.1,5.2,0.5c1.3,0.6,1,2.7,1.1,4.2
		c0.1,2.2,0.2,4.5,0.3,6.7c0.4,9.5,0.7,19.1,0.8,28.6c0,4.7,0,9.3,0,14c-0.2,1-0.1,2.2-0.1,3.2c0,0.6,0,1.2,0,1.8
		c0,1.5-0.1,3-0.1,4.4c-0.1,2.7-0.2,5.5-0.3,8.2c0,0.6,0,1.3-0.1,1.9c-0.1,3.1-0.3,6.2-0.4,9.3c-0.2,4.1-0.5,8.2-0.7,12.4
		c-0.9,0.1-1.8,0.2-2.7,0.3c0.1-5.3,0.4-10.5,0.8-15.8c0.1-2-2.9-2-3.1,0c-0.4,5.3-0.7,10.6-0.8,15.9c-0.7,0-1.5,0-2.2,0
		c-0.1-3.3-0.2-6.5-0.3-9.8c-0.1-2-3.1-2-3.1,0c0.1,3.2,0.2,6.5,0.3,9.7c-0.8,0-1.5-0.1-2.3-0.1c1.7-28.1,0.6-56.6-0.2-84.7
		c-0.1-2.3-0.1-4.5-0.2-6.8C14.3,18.9,14.1,18.2,14.2,17.6z M147.4,96.5c-28.3,0-56.7,0-85,0.3C57.2,96.8,52,96.9,46.9,97
		c-5,0.1-10,0.6-15,0.4c0.1-2,0.2-4,0.3-6c0.2,0.1,0.5,0.2,0.8,0.2c7,0.3,14-0.3,20.9-1.7c1.9-0.4,1.1-3.4-0.8-3
		c-6.6,1.4-13.3,1.9-20.1,1.6c-0.2,0-0.4,0-0.6,0.1c0-0.1,0-0.2,0-0.3c0-0.2,0-0.4,0-0.6c0-0.6,0-1.1,0.1-1.7
		c1.1,0.2,2.2,0.4,3.3,0.5c0.8,0.1,1.7-0.2,1.9-1.1c0.2-0.7-0.2-1.8-1.1-1.9c-1.4-0.2-2.7-0.4-4.1-0.6c0-0.9,0.1-1.8,0.1-2.7
		c0,0,0,0,0,0c0-0.4,0-0.7,0-1.1c3.7,0.1,7.4,0.1,11.1,0.2c12.6,0.3,25.1,0.7,37.7,0.9c0,0,0.1,0,0.1,0c2.9,0.1,5.8,0.1,8.7,0.2
		c1.5,0,3,0.1,4.5,0.1c0,0,0,0,0,0c41.3,0.8,82.9,1.8,124.2-0.2c0,0.6,0,1.2,0,1.8c0,0.7,0,1.3,0,2c-3.9-0.3-7.6,0.3-11.5,0.7
		c-3.9,0.4-7.8,0.2-11.6,0.1c-2-0.1-2,3,0,3.1c3.9,0.2,7.8,0.3,11.6-0.1c3.8-0.4,7.6-1,11.5-0.7c0,1.1,0,2.2,0,3.3
		c-0.1,0-0.2,0-0.3,0c-4.1-0.2-8.2,0.1-12.3,0.8c-2,0.3-1.1,3.3,0.8,3c3.8-0.6,7.6-0.8,11.5-0.6c0.1,0,0.2,0,0.3,0c0,1,0,2,0,2.9
		C194.9,96.6,171.1,96.5,147.4,96.5z M221.8,112.9c-0.1-5.4-0.1-10.8-0.1-16.3c0-1.9,0-3.7,0-5.6c0-1.4,0-2.7,0-4.1
		c0-1.6,0.1-3.2,0.1-4.9c0-1.6,0.1-3.2,0.1-4.8c0.1-3.9,0.2-7.9,0.3-11.8c0-0.2,0-0.4,0-0.5c0-0.2,0.1-0.3,0-0.5
		c0.3-8.8,0.8-17.6,1.4-26.5c0.6,0,1.2,0,1.8,0c0,1.3,0,2.6,0,3.9c0,2,3.1,2,3.1,0c0-1.3,0-2.6,0-3.9c2.6,0,5.1,0,7.7,0
		c1.3,25.1,1.9,50.2,1.6,75.4c-0.8,0-1.6-0.1-2.3-0.1c0.1-0.2,0.2-0.5,0.2-0.8c-0.1-4.5-0.4-8.9-0.9-13.4c-0.2-1.9-3.3-2-3.1,0
		c0.5,4.4,0.8,8.8,0.9,13.2c-0.2,0.2-0.3,0.5-0.3,0.9c0,0,0,0,0,0c-1.5,0-3-0.1-4.5-0.1c0.1-0.2,0.1-0.4,0.1-0.7
		c-0.3-3.1-0.6-6.1-0.9-9.2c-0.2-2-3.3-2-3.1,0c0.3,3.1,0.6,6.1,0.9,9.2c0,0.2,0.1,0.5,0.2,0.6C223.9,112.9,222.9,112.9,221.8,112.9
		z"/>
</g>
<g id="check_mark">
</g>
<g id="volunteer">
</g>
<g id="sponsor">
</g>
<g id="submit_event">
</g>
<g id="hot_spot">
</g>
<g id="Submit_group">
</g>
</svg>
