<?xml version="1.0" encoding="utf-8"?>
<!-- Generator: Adobe Illustrator 23.0.1, SVG Export Plug-In . SVG Version: 6.00 Build 0)  -->
<svg version="1.1" xmlns="http://www.w3.org/2000/svg" xmlns:xlink="http://www.w3.org/1999/xlink" x="0px" y="0px"
	 viewBox="0 0 250 132.4" style="enable-background:new 0 0 250 132.4;" xml:space="preserve">
<style type="text/css">
	.st0{fill:#00ABC8;}
	.st1{display:none;}
	.st2{display:inline;fill:#00ABC8;}
	.st3{display:inline;}
	.st4{fill-rule:evenodd;clip-rule:evenodd;fill:#00ABC8;}
	.st5{display:inline;fill-rule:evenodd;clip-rule:evenodd;fill:#00ABC8;}
	.st6{display:inline;fill:none;stroke:#00ABC8;stroke-miterlimit:10;}
</style>
<g id="results">
	<g id="animation_copy_2" class="st1">
	</g>
</g>
<g id="sports_guide">
	<g id="animation_copy" class="st1">
	</g>
</g>
<g id="info">
	<g id="animation_copy_3" class="st1">
	</g>
</g>
<g id="visitor">
	<g id="decoative">
	</g>
	<g id="animation_2_" class="st1">
	</g>
</g>
<g id="schedules">
	<g id="animation_1_" class="st1">
	</g>
</g>
<g id="scoring">
	<g id="animation" class="st1">
		<path id="_x31_" class="st2" d="M204,63.5c-0.1,1,0,18.6-0.3,21.4c-0.1,0.8-0.1,4.3-0.1,5.1c-0.3,2.6-0.2,5.1-0.1,7.7
			c0,1-0.1,2.1-0.3,3.1c-0.1,0.6-0.4,1-0.9,1.1c-3.7,1-7.3,1.2-11,0.2c-1.7-0.4-2.2-1.4-1.6-3.3c0.3-1,0.4-2.1,0.4-3.2
			c0.2-3.8,0.5-7.5,0.7-11.3c0.2-2.3,0.3-4.6,0.5-6.9c0.2-2.1,0.2-16.5,0.2-17.8c0-2,0-3.8,0.1-5.8c0-0.8,0-1.6,0.1-2.5
			c0-0.4,0-0.9-0.1-1.4c0-0.3-0.2-0.6-0.5-0.7c-0.4-0.2-0.7,0-0.9,0.3c-0.9,1.1-2.2,2.1-3.3,3.1c-1.5,1.5-2.6,1.8-4.8,0.2
			c-1.3-0.9-2.6-2.1-3.8-3.1c-0.8-0.7-1.2-1.6-1.3-2.7c-0.1-1.2-0.2-2.5,0.6-3.6c0.2-0.3,3-3.3,3.9-4.6c2.3-3.2,4.4-6.5,7-9.5
			c0.7-0.9,3.4-5.1,4.1-5.2c1.6-0.1,3.2-0.2,4.7,0c1.7,0.2,3.4,0.5,5.1,0.8c1.2,0.2,1.5,0.5,1.7,1.8c0.1,1.2,0.1,2.5,0.1,3.7
			c0,0.3,0,0.7,0,1h0.1C204.2,32.7,204.1,61.8,204,63.5z"/>
	</g>
	<path class="st0" d="M240.4,117.9c-1.8-4.9-1.1-10.1-1.3-15.2c-0.3-7.7,0.4-15.4,0.3-23.1c-0.1-16.3-0.4-32.6-0.6-48.9
		c0-3.4-0.3-6.9-0.1-10.3c0.1-3.1,0.5-6.1,0.9-9.2c0.4-3.4,0.2-3.6-3.3-3.7c-0.6,0-1.2,0-1.8,0c-8.1,0.2-16.1,0.5-24.2,0.6
		c-14.7,0.1-29.5,0.1-44.2,0.1c-22.4,0-44.7,0.1-67.1,0.1c-19.6,0-39.2-0.2-58.8-0.2c-8.9,0-17.8,0.2-26.7,0.3c-2.1,0-2.6,0.9-2,3.1
		c0.5,1.9,1.3,3.9,1.4,5.8c0.6,8.5,1.1,17.1,1.5,25.6c0.9,17.9,1.9,35.8,2.6,53.8c0.3,8.9,0,17.8,0,26.7c0,1,0,2,0,3.6
		c1.3-0.4,1.9-0.3,2.1-0.6c2.3-3.1,5.6-3.1,9-3.1c5,0,10,0.1,15-0.3c10-0.8,19.9-0.9,29.9-0.6c7,0.3,14,0.1,21,0.3
		c8.4,0.3,16.9,1,25.3,1c17,0,34-0.2,51-0.4c8-0.1,15.9-0.2,23.9-0.5c10.3-0.5,20.6-1.2,31-1.8c3.8-0.2,7.5-0.4,11.4-0.6
		c0.4,0.7,0.9,1.6,1.5,2.6C240.2,121.1,241.1,119.6,240.4,117.9z M20.7,11.3c15.2-0.3,30.4-0.7,45.6-0.8c14.3,0,28.5,0.4,42.8,0.5
		c14.3,0.1,28.5,0.2,42.8,0.2c6.8,0,13.5-0.3,20.3-0.3c6.4-0.1,12.8,0.1,19.2,0.1c11.4-0.1,22.8-0.3,34.2-0.4c2,0,4,0,6.8,0
		c-1,0.8-1.3,1.3-1.8,1.5c-4,1.7-8,3.1-12.6,3.5c-18.6,1.7-37.3,0.8-55.9,1.2c-10.9,0.2-21.8,0.3-32.7,0.3c-8.6,0-17.1,0-25.7-0.4
		c-7.2-0.4-14.4,0.3-21.5,0.1c-10-0.4-20-0.5-29.9-0.5c-8.3,0-16.6,0.3-24.9,0.7c-4.2,0.2-7.3-1.3-10.3-5.1
		C18.7,11.6,19.7,11.4,20.7,11.3z M229.2,110.8c-0.8,0-1.9,0-2.9,0c-7.7-0.1-15.4-0.3-23.2-0.2c-8.6,0.1-17.1,0.4-25.7,0.6
		c-3.4,0.1-6.9,0.1-10.3,0.2c-3.2,0.1-3.7-0.2-3.9-3.5c-0.4-6.2-0.7-12.3-1-18.5c-0.5-7.8-1.1-15.7-1.6-23.5c0-0.5-0.1-0.9-0.2-1.4
		c-0.6-13.4-1.2-26.8-1.8-40.3c0-0.5,0-1,0-1.4c0.1-3.3,0.3-3.6,3.8-3.6c13.2-0.1,26.4,0,39.6-0.1c2.7,0,5.5-0.3,8.2-0.4
		c2,0,4-0.6,5.9,0.5c0.7,0.4,2,0,3-0.3c2.6-0.7,5.3-1.2,8.1-0.9c0.2,0.8,0.4,1.4,0.5,1.9c0.2,9.7,0.5,19.5,0.6,29.2
		c0.2,10.5,0.1,20.9,0.4,31.4c0.2,7,0.9,14,1.2,21C230,104.4,229.5,107.4,229.2,110.8z M99.4,39.9c0.7,13,1.4,26.1,2.1,39.1
		c0.1,0.9,0.1,1.9,0.2,2.8c0.3,9.6,0.6,19.2,0.9,28.9c0,0.5-0.1,0.9-0.2,1.6c-1,0.2-1.9,0.5-2.8,0.5c-21.5,0.1-43,0.2-64.5,0.3
		c-4.5,0-6.7-2.1-6.9-6.6C28,98.7,27.8,90.9,27.6,83c-0.4-10.3-1.1-20.6-1.2-31c-0.1-9.8,0.3-19.7,0.4-29.6c0-1.9,0.9-2.8,2.8-2.9
		c6.2-0.3,12.3-0.7,18.5-0.9c4.4-0.2,8.8-0.3,13.2-0.2c11.2,0.1,22.3,0.4,33.5,0.6c2.8,0.1,3,0.2,3.3,3C98.6,28,99.1,34,99.4,39.9z
		 M20,119.6c-0.1-0.4-0.2-0.9-0.2-1.3c0.2-14.6-0.8-29.2-1.4-43.8c-0.6-16.1-1.3-32.3-2.8-48.4c-0.2-2.1-0.2-4.3-0.1-6.4
		c0.1-1.4,0.4-2.7,0.8-4.6c2.8,2.2,5.2,4,7.3,6c0.7,0.7,0.8,2.2,0.8,3.3c0,6.2-0.3,12.4-0.2,18.5c0.1,11.3,0.3,22.6,0.6,33.9
		c0.3,10.6,0.7,21.1,1.1,31.7c0,0.4,0,0.7,0.1,1.1c0.1,1.5,0.8,3.4,0.2,4.5c-1.3,2.3-3.4,4.1-5.2,6.1
		C20.5,119.9,20.2,119.8,20,119.6z M103.1,119.8c0,0-77.8,0.2-78.1,0.2c0.9-2.3,2.3-3.7,4.7-3.7c6.6-0.2,13.3-0.3,19.9-0.4
		c8.2-0.1,16.4,0,24.5-0.1c8.7-0.1,17.3-0.2,26-0.2C103.4,115.6,103.7,116.2,103.1,119.8z M104.3,85.8c-0.3-4.9-0.9-9.7-1.2-14.6
		c-0.2-2.8-0.4-5.7-0.5-8.5c-0.4-8.7-0.8-17.3-1.3-26c-0.3-4.6-0.8-9.2-1-13.8c-0.2-3.3,0.2-3.7,3.6-3.7c5.4,0,10.7,0.1,16.1,0.1
		c10.2,0,20.4,0,30.6,0c7.3,0,5.9,0,6.2,5.8c0.3,8.2,0.8,16.4,1.2,24.6c0.1,2.4,0,4.7,0,7.6c-3.6,0.3-6.9,0.8-10.3,0.9
		c-10.2,0.2-20.5,0.2-30.7,0.2c-1.4,0-2.7,0.2-4.2,0.3c0,3.3,0,6.2,0,9.6c0.7,0.1,1.7,0.3,2.7,0.2c9.3-0.9,18.5-0.7,27.8-0.2
		c2.2,0.1,4.5-0.2,6.8-0.1c1.9,0.1,3.8,0.5,6.3,0.8c0.2-0.2,0.9-0.8,1.9-1.8c0.2,0.9,0.5,1.4,0.5,2c0.6,10.6,1.1,21.1,1.7,31.7
		c0.1,2.4,0.4,4.7,0.5,7.1c0.1,3.2-0.2,3.6-3.3,3.6c-6.8,0.1-13.6,0.1-20.3,0.3c-8.8,0.2-17.6,0.6-26.4,0.9c-0.8,0-1.7,0-2.5,0
		c-1.9,0-2.8-0.9-2.9-2.8C105,101.9,104.7,93.8,104.3,85.8z M158.4,60.4c0,1.1-0.1,2.1-0.2,3.2c-0.2,0-0.4,0-0.6,0
		c0-1.1,0-2.1,0-3.2C157.9,60.4,158.2,60.4,158.4,60.4z M151.7,65.4c-5.7,0.1-11.4,0-17.1,0c0,0,0,0,0,0.1c-4.9,0-9.7,0-14.6,0
		c-0.8,0-1.7,0-2.5,0c-1.2-0.1-2-0.6-2.1-1.9c-0.1-1.4,0.4-2.4,1.8-2.6c1.9-0.2,3.8-0.4,5.7-0.4c9.6-0.1,19.2-0.2,28.9-0.3
		c2.4,0,3.1,0.3,3.2,1.8C155,64.2,154.1,65.3,151.7,65.4z M230.4,118c-3.1,0.2-6.2,0.6-9.2,0.7c-13.4,0.6-26.8,1.3-40.2,1.6
		c-20.8,0.4-41.6,0.5-62.3,0.7c-3.9,0-7.8-0.3-12-0.4c-0.2-1.8-0.4-3-0.5-4.6c1.3-0.2,2.4-0.4,3.5-0.5c13.1-0.3,26.1-0.6,39.2-0.9
		c2.7-0.1,5.5-0.4,8.2-0.3c1.8,0.1,3.5,0.7,5.3,1c2-0.4,4.1-1.1,6.3-1.1c16.9-0.3,33.7-0.6,50.6-0.8c3.4,0,6.9,0.3,10.3,0.6
		c1.5,0.1,3.1,0.4,3.9,2.1C233,117.8,231.7,117.9,230.4,118z M236.3,113.5c-1.7-1.3-3.1-2.4-4.5-3.4c1.1-6.6,0.8-13.2,0.3-19.9
		c-0.4-4.6-0.9-9.2-1-13.9c-0.2-15.1-0.3-30.2-0.3-45.3c0-0.7-0.1-1.5,0.1-2.1c2.2-4.6,0.6-9.1-0.8-13.9c1.9-0.8,3.7-1.6,6.2-2.7
		C236.8,46.2,237.2,79.6,236.3,113.5z"/>
	<path class="st0" d="M88.2,65.7c0.3-0.3,0.6-0.7,1-1c2-1.9,3.9-3.9,4.6-6.7c1.2-4.9,1.5-9.8-0.4-14.7c-1.4-3.5-2.6-7.1-3.8-10.7
		c-0.4-1.3-1-2.1-2.4-2.3c-3.8-0.5-7.5-1.3-11.3-1.3c-9,0-18.1,0.4-27.1,0.7c-1.1,0-2.3,0.8-3.1,1.1c0.4,2.4,0.7,4.2,0.9,6.1
		c0.1,1.8,1,2.7,2.7,2.7c4.5,0.2,9,0.3,13.5,0.4c3.7,0.1,7.4,0,11,0.1c1.5,0,2.8,0.6,3.4,2.2c1.5,3.7,2.8,7.3,2.4,11.4
		c-0.6,5.3-2.7,7.3-8,7.5c-5.1,0.2-10.2,0.4-15.3,0.7c-1.2,0.1-2.3,0.2-3.9,0.4c0.2,1.4,0.3,2.2,0.4,3c0.9,4.6,1,4.4,5.8,4.7
		c4.5,0.2,9,0.9,13.5,1.3c1.7,0.2,2.9,1.1,3.6,2.6c0.8,1.9,1.7,3.7,2.1,5.6c1.1,5-1.5,8.9-6.5,10.1c-2.7,0.6-5.4,0.9-8,1.6
		c-3.9,1-6.7-0.6-9.2-3.2c-0.4-0.4-0.7-0.9-1.1-1.4c-1.7-2.1-4-2-6.2-1.5c-2.2,0.5-1.8,2.6-2,4.1c-0.2,1.3-0.1,2.6-0.1,3.9
		c0.1,2,0.9,3.7,2.4,5c4.9,3.9,10.2,6.5,16.8,5.1c1.3-0.3,2.8,0,4.2,0.1c1.9,0.1,3.8,0.4,5.6,0.1c3.3-0.4,6.5-1.2,9.8-1.7
		c2.4-0.3,4.3-1.3,5.8-3.2c3.2-4.1,5.4-8.7,5.5-14c0-1.7,0.1-3.3,0.1-5C94.7,70.7,94.7,70.7,88.2,65.7z M91.5,87.5
		c-0.4,3.9-2.8,7-5.1,10c-0.3,0.4-0.9,0.9-1.4,1c-3.1,0.6-6.4,1.9-9.4,1.5c-3.9-0.4-7.6,0.1-11.3,0.6c-5.5,0.8-10.1-0.7-14.3-4.1
		c-2.2-1.7-3.1-4.7-2.2-7.3c0.5-1.5,1.8-1.9,3.1-0.9c1.5,1.2,2.8,2.5,4.3,3.8c2.1,1.8,4.7,2.3,7.4,1.9c3.2-0.6,6.3-1,9.5-1.8
		c6.2-1.5,9.9-7.3,8.3-13.5c-0.7-2.7-2-5.3-3.4-7.8c-0.5-1-2-1.8-3.2-2c-4.8-0.7-9.7-1.1-14.5-1.6c-0.5,0-1,0.1-1.4-0.1
		c-0.6-0.3-1.3-0.8-1.4-1.3c0-0.5,0.7-1.3,1.2-1.4c2.1-0.3,4.2-0.5,6.4-0.6c0.9-0.1,1.9,0,2.9,0c0,0,0,0.1,0,0.1c2,0,4,0.1,6.1,0
		c4-0.2,6.7-2.2,8.2-5.9c1.5-3.7,2-7.6,0.6-11.5c-0.1-0.2-0.2-0.5-0.2-0.7c-2.6-8.2-4.7-9.4-13.4-8.9c-5.3,0.3-10.7,0-16,0
		c-0.7,0-1.6,0-2.1-0.4c-0.7-0.5-1.4-1.4-1.4-2.1c0-0.7,0.8-1.5,1.4-2.1c0.3-0.3,0.9-0.3,1.4-0.3c6.2-0.3,12.4-0.9,18.5-0.8
		c4.8,0,9.7,0.9,14.5,1.3c1.8,0.1,2.7,1.1,3.3,2.7c1.2,3.2,2.4,6.5,3.6,9.7c1.7,4.3,0.8,8.7-0.1,13c-0.6,3-3.2,4.6-6,5.6
		c-0.7,0.2-1.4,0.2-2.1,0.4c-0.7,0.3-1.3,0.8-2,1.2c0.5,0.7,0.9,1.6,1.7,2c1.4,0.7,2.9,1.1,4.3,1.6c3.3,1.1,5.1,3.4,5,7
		C92,79.7,91.9,83.6,91.5,87.5z"/>
	<path id="_x30_-outside" class="st0" d="M214.1,40.9c-0.3-2.9-1-5.9-1.8-8.7c-0.8-2.8-2.6-4.7-5.8-4.9c-3.3-0.2-6.6-0.4-9.9-0.6
		c-3.8-0.2-7.6,0-11.4-0.6c-5.9-0.8-10,1.9-13.8,5.7c-1.6,1.5-2.4,3.4-2.7,5.7c-1.8,11.9-2.3,23.9-2.1,35.9c0,5.5,0,10.9,0,16.4
		c0,3.1,0.5,6.2,3.3,7.9c3,1.8,6.1,3.4,9.9,3.6c8.3,0.3,16.6,0.1,24.9-0.6c2.4-0.2,4-1.2,4.9-3.4c4.5-10.5,7.1-21.5,6.9-32.9
		C216.2,56.5,215,48.7,214.1,40.9z M212.7,77.5c-1.1,5.9-3.4,11.6-5.2,17.4c-0.7,2.2-2.2,3.1-4.5,3.2c-4.3,0.1-8.5,0.7-12.8,0.8
		c-1.6,0.1-3.2-0.5-4.8-0.8c-1.3-0.2-2.6-0.3-3.9-0.5c-2.1-0.3-4.3-0.5-6.3-1c-4.1-1-5.5-2.7-5.6-7.1c-0.1-4.5,0-9,0-13.5
		c-0.3,0-0.7,0-1,0c0.6-10.7,1.2-21.3,1.9-32c0.2-2.5,0.7-4.9,1.3-7.4c1.1-4.5,7.3-8.4,12.6-8.1c5.1,0.2,10.2,0.4,15.3,0.6
		c1.4,0.1,2.8,0.2,4.3,0.3c3.7,0.3,5.9,2.4,6.6,5.9C213.2,49.3,215.4,63.4,212.7,77.5z"/>
	<path id="_x30_" class="st0" d="M202.7,37.2c-6.2-2-12.4-3.2-18.9-2c-5.1,1-5.8,1.4-6.5,6.5c-1,6.7-1.7,13.4-2.3,20.1
		c-0.4,4.4-0.9,8.8-0.7,13.1c0.2,4,1.1,8,2,11.9c0.5,2.1,2,3.5,4.3,3.6c2.7,0.2,5.4,0.3,8.2,0.4c0-0.2,0-0.3,0-0.5
		c3.1,0,6.2,0.1,9.2,0c3.3-0.1,5.2-1.9,6.1-5c1.5-5.2,2.5-10.4,2.6-15.7c0.1-4.3,0-8.6,0.7-12.8c0.8-5.3,0.4-10.3-0.9-15.4
		C206,39.3,204.8,37.9,202.7,37.2z M178.3,54.6c0.5-4,1.1-8,1.7-12c0.2-1.6,0-3.8,1.8-4.4c2.1-0.7,4.5-1.2,6.5-0.8
		c1.6,0.3,3.2,0.5,4.8,0.4c4.2-0.4,7.1,0.6,10.1,3.3c-1.2,3.2-21.1,25.6-26.1,29.3c-0.1-0.9-0.4-1.7-0.3-2.4
		C177.2,63.6,177.7,59.1,178.3,54.6z M202,84c-0.7,2-1.8,3.1-4,3.5c-5.2,1.1-10.4,0.7-15.6,0.5c-1.6-0.1-2.9-0.7-3.7-2.4
		c-0.7-1.6-0.6-2.9,0.7-4.1c2.9-2.8,5.7-5.7,8.7-8.4c4.8-4.4,9.6-8.8,14.5-13.2c0.3-0.3,0.8-0.5,1.8-1.1C204.3,67.7,204.8,76,202,84
		z M202.1,57.6c-7.7,6.7-15.2,13.7-22.7,20.5c-0.5,0.4-1.1,0.7-1.8,1.1c-1.3-2.2-0.5-3.7,0.9-5.2c7.4-8.3,14.8-16.7,22.2-25
		c1.1-1.2,2.2-2.4,3.3-3.6c0.3,0.1,0.6,0.3,1,0.4C205.3,49.9,206.1,54.1,202.1,57.6z"/>
</g>
</svg>
