<?xml version="1.0" encoding="utf-8"?>
<!-- Generator: Adobe Illustrator 23.0.1, SVG Export Plug-In . SVG Version: 6.00 Build 0)  -->
<svg version="1.1" xmlns="http://www.w3.org/2000/svg" xmlns:xlink="http://www.w3.org/1999/xlink" x="0px" y="0px"
	 viewBox="0 0 207.5 143.3" style="enable-background:new 0 0 207.5 143.3;" xml:space="preserve">
<style type="text/css">
	.st0{fill-rule:evenodd;clip-rule:evenodd;fill:#00ABC8;}
	.st1{fill:#00ABC8;}
</style>
<g id="Layer_1">
	<g>
		<path class="st1" d="M166.9,74.3c-1.5-4.6-4.2-9.7-7.6-13.5c-3.5-3.9-8.3-7-12.9-9.9c-5-3.2-10.4-5.9-16.5-7.1
			c-4.3-0.9-8.5-0.5-12.8-0.6c-0.1,0-0.2,0-0.4,0c-18.2,1.6-35.8,10-42.3,25.2c-7,16.5-3,36.7,13.9,47.8c16,10.6,41.1,11.5,58.3,2.3
			c7.5-4,13.7-9.9,17.1-16.9c2.1-4.4,3-9,3.6-13.7C167.8,83.4,168.4,78.8,166.9,74.3z M163.2,94.4c-1.8,7.4-6.3,13.8-13,18.8
			c-14.6,10.9-37.4,11.9-54.4,4.4c-17.8-7.9-24.7-25.7-20.9-41.8c2.1-8.9,7.1-16.6,15.8-22c7.6-4.7,16.9-7.4,26.3-8.1
			c3.1,0,6.2-0.3,9.3,0.1c5.2,0.6,10.1,2.4,14.5,4.8c4.1,2.2,8,4.9,11.6,7.7c3.8,2.9,6.4,6.2,8.6,10.1c2.3,4.1,4.1,8.1,4,12.7
			C165,85.4,164.3,90,163.2,94.4z"/>
		<path class="st1" d="M134,66.3c-2.6-1.7-5.5-3.2-8.7-3.8c-2.3-0.5-4.5-0.4-6.8-0.4c-0.1,0-0.2,0-0.3,0c-0.1,0-0.3,0-0.4,0
			c-9.9,0.9-19.2,5.5-22.6,13.7c-3.7,8.9-1.3,19.8,7.9,25.7c8.5,5.5,21.7,5.9,30.8,1.1c4.2-2.2,7.6-5.5,9.4-9.3
			c2-4.2,3.1-10.3,1.6-14.8C143,73.2,139.2,69.5,134,66.3z M141.8,88.9c-0.8,3.7-3,7-6.3,9.6c-7.3,5.7-18.8,6.3-27.5,2.7
			c-9.2-3.8-13-12.9-11.2-21.1c2-9.2,10.7-14.8,21.4-15.7c4.3,0,7.7,0.2,11.5,2.2c4.2,2.2,8.4,5.1,10.6,8.9
			C142.9,79.9,142.9,84.1,141.8,88.9z"/>
		<path class="st1" d="M190.8,48.9c-0.4-5.4-1.8-9.9-6.7-13.6c-4.7-3.6-10.8-5.5-16.7-7.3c-2.7-0.8-6-1.5-8.1-3.3
			c-1.5-1.5-1.7-4.5-2.3-6.3c-0.6-2.2-1.2-4.3-1.9-6.5c-1.1-3.3-3.3-4-7.1-4.3c-10.7-0.7-21.4-0.7-32.1-0.1
			c-5.2,0.3-10.3,0.7-15.4,1.3c-4.1,0.5-8.2,0.9-11.5,3.2c-6.2,4.3-6.8,11.7-12,16.6c-0.1,0.1-0.1,0.1-0.2,0.2
			c-0.3,0.2-0.7,0.4-1.2,0.6c-1.4,0.4-2.8,0.6-4.3,0.7c-1.7,0.1-3.4,0.2-5.1,0.2c0-1.4-0.1-2.8-0.1-4.3c0-1.1,0.4-2.8-0.4-3.8
			c-0.6-0.8-1.8-0.7-2.8-0.7c-2.1,0-4.3,0-6.4,0c-4.2,0-8.4-0.1-12.6,0.1c-4.3,0.3-8.4,1.4-12.7,1.6c-1,0-1.5,0.7-1.4,1.5
			c0.5,2.8,0.6,5.5,0.5,8.3c-3.1,0.4-6.2,0.9-9.1,1.8c-5,1.4-9.8,3.9-11.5,8.3c-1.5,3.8-1.8,8-2.1,11.9c-0.3,4.2-0.1,8.5,0.1,12.7
			c0.2,7.6,0.5,15.3,0.7,22.9c0.2,7.6,0.5,15.3,0.7,22.9c0.1,1.9,0,3.8,0.2,5.7c0.1,0.9,0.2,1.9,1.1,2.5c1,0.7,2.4,0.7,3.7,0.7
			c2.6,0.1,5.2,0.1,7.8,0.2c10.1,0.2,20.2,0.4,30.3,0.6c5.2,0.1,10.5,0.2,15.7,0.3c5.1,0.1,10.8-0.3,15.8,0.6c0.1,0,0.1,0,0.2,0
			c0.1,0.1,0.3,0.1,0.4,0.2c1.5,0.7,2.4,1.6,3.4,2.8c1.5,1.7,3,3.2,5,4.5c9.5,5.9,23.6,4.8,34.6,3.6c6.4-0.7,12.9-1.9,18.6-4.6
			c2.8-1.3,5.2-3.1,7.7-4.8c1.5-1,2.9-1.8,4.5-2.6c0.2-0.1,0.3-0.2,0.4-0.2c0.1,0,0.3,0,0.4-0.1c5.2-1.9,11.8-1.4,17.3-1.7
			c5.9-0.3,11.9-0.5,17.8-0.8c0.7,0,1.5-0.5,1.4-1.2C193.9,95.9,192.4,72.4,190.8,48.9z M89.5,15c3.2-3,7.7-3.4,12.2-3.9
			c4.8-0.5,9.5-0.9,14.3-1.2c9.6-0.5,19.2-0.5,28.8-0.1c2.6,0.1,6-0.4,7.4,2c1.1,1.8,1.3,4.4,1.8,6.3c0.5,1.9,0.9,4.2,1.8,6.2
			c-0.7,0-1.4,0-2.1-0.1c-0.2,0-0.4,0-0.6,0c-1.4,0-2.9-0.1-4.3-0.1c-0.3,0-0.6,0-0.9,0c-1.4,0-2.7,0-4.1,0c-0.4,0-0.8,0-1.2,0
			c-1.3,0-2.5,0-3.8,0.1c-0.6,0-1.2,0-1.7,0.1c-0.8,0-1.6,0.1-2.5,0.1c-5.4,0.2-10.9,0.5-16.3,0.7c-3.4,0.1-6.8,0.2-10.1,0.3
			c-5.2,0-10.5,0-15.7,0.4c-3.1,0.3-6.1,0.7-9.1,1.6c-0.3,0.1-0.5,0.2-0.8,0.3c-0.2,0.1-0.4,0.1-0.6,0.2c-0.3,0.1-0.5,0.2-0.8,0.3
			C84.2,23.8,85.5,18.7,89.5,15z M78.5,30.7c1.3,0.1,2.5-0.1,3.7-0.5c0.2-0.1,0.5-0.2,0.7-0.2c5.6-1.8,11.4-2.1,17.4-2.1
			c3.6,0,7.3-0.1,10.9-0.2c1.4,0,2.8-0.1,4.2-0.1c1.3,0,2.6-0.1,3.9-0.2c0,0,0,0,0,0c0,0,0.1,0,0.1,0c3.8-0.2,7.6-0.3,11.3-0.5
			c0.5,0,0.9,0,1.4-0.1c0.9,0,1.8-0.1,2.6-0.1c1,0,2-0.1,3-0.1c0.5,0,0.9,0,1.4,0c1.3,0,2.6-0.1,3.9-0.1c0.3,0,0.7,0,1,0
			c1.4,0,2.7,0,4.1,0c0.3,0,0.5,0,0.8,0c1.4,0,2.8,0,4.3,0.1c0.2,0,0.3,0,0.5,0c1.3,0,2.7,0.1,4,0.2c2.1,1.6,4.8,2.4,7.4,3.1
			c-1.4,2.8-2.7,5.6-3.5,8.6c-0.8,2.9-1.5,5.7-2.2,8.6c-0.1,0.4-0.3,0.8-0.4,1.3c-0.2-0.1-0.3-0.2-0.5-0.3c-4.8-3.4-10.4-6-16.3-7.8
			c-0.1,0-0.1,0-0.2-0.1c-0.7-0.2-1.4-0.4-2.1-0.6c-6.4-1.7-13.1-2.6-19.7-2.7c-10-0.2-20.5,1.4-29.7,5c-0.4,0.2-0.8,0.3-1.2,0.5
			c-0.3,0.1-0.6,0.3-0.9,0.4c-3.4,1.5-6.6,3.3-9.4,5.4c0-0.2-0.1-0.5-0.1-0.7c-0.4-3.9-0.7-7.8-0.9-11.7c0-0.1,0-0.3,0-0.4
			c-0.1-1.4-0.1-2.8-0.2-4.1C78,31,78.2,30.9,78.5,30.7z M60.4,23.8c1,0,2,0,3,0.1c0.2,1.1,0,2.5,0,3.5c0,1,0.1,2,0.1,3
			c-1.1,0.1-2.1,0.1-3.2,0.2c0-2.1,0.1-4.1,0.3-6.2C60.6,24.2,60.5,23.9,60.4,23.8z M55.5,24c0.8,0,1.6-0.1,2.5-0.1
			c-0.1,0.2-0.2,0.3-0.2,0.6c-0.2,2.1-0.3,4.2-0.3,6.3c-1.1,0.1-2.2,0.2-3.4,0.2c-0.2-2-0.2-4.1-0.1-6.1c0-0.4-0.2-0.8-0.5-0.9
			C54.1,24,54.8,24,55.5,24z M46.4,24.1c0.4,0,0.7,0,1.1,0c1.4,0,2.8,0,4.3,0c-0.3,0.2-0.6,0.5-0.6,0.9c-0.1,2.1-0.1,4.2,0.1,6.3
			c-1.6,0.1-3.3,0.3-4.9,0.4c0.1-2.2,0.2-4.5,0.4-6.7C46.8,24.6,46.6,24.3,46.4,24.1z M38.3,32.3c0.4-2.5,0.4-4.9,0.1-7.4
			c1.9-0.3,3.9-0.5,5.8-0.7c-0.2,0.2-0.3,0.4-0.4,0.7c-0.2,2.3-0.3,4.6-0.4,7C41.8,32.1,40,32.2,38.3,32.3
			C38.3,32.3,38.3,32.3,38.3,32.3z M35.6,25.3c0.3,2.1,0.3,4.3-0.1,6.4c-0.1,0.4,0,0.7,0.2,0.9c-0.9,0.1-1.7,0.2-2.6,0.3
			c0.1-2.4-0.1-4.8-0.4-7.2C33.8,25.5,34.7,25.4,35.6,25.3z M73.4,121.4c-4.5-0.1-9-0.2-13.5-0.3c-0.6,0-1.2,0-1.8,0
			c-2.4-12.9-3.3-26-3.7-39.1c-0.2-6.4-0.3-12.9-0.3-19.3c0-6.5-0.5-13.2,1.8-19.5c0.5-1.5-2.2-2.1-2.7-0.6
			c-2.3,6.2-2,12.8-1.9,19.2c0,6.8,0.1,13.5,0.3,20.3c0.4,13,1.4,26.1,3.7,39c-6.7-0.1-13.3-0.3-20-0.4c-4.1-0.1-8.2-0.2-12.3-0.3
			c-2.1,0-4.1-0.1-6.2-0.1c-0.9,0-2,0.1-2.8-0.1c-0.9,0.2-1.5-0.1-1.9-0.8c0-0.6,0-1.3-0.1-1.9c-0.2-7-0.4-14-0.7-21
			c-0.2-7.3-0.5-14.6-0.7-22c-0.2-5.3-0.6-10.6-0.5-15.9c0.1-3.1,0.3-6.2,0.9-9.2c10.7,5.6,24.3,7.1,35.2,1c1.5-0.8,0.1-2.9-1.4-2.1
			c-10.4,5.8-23.3,4-33.3-1.5c0.9-3.7,2.5-6.3,6.9-8.3c3.8-1.7,8.1-2.5,12.5-3c0.2,0.1,0.4,0.1,0.7,0.1c8.7-1,17.5-1.8,26.3-2.3
			c0.6,0.3,1.4,0.3,1.9-0.1c1.6-0.1,3.2-0.2,4.7-0.3c2.2-0.1,4.5-0.2,6.7-0.3c1.2-0.1,2.4-0.1,3.5-0.4c0,1.1,0.1,2.1,0.1,3.2
			c0,0.2,0,0.3,0,0.5c0.1,2.8,0.3,5.7,0.6,8.5c0,0.2,0,0.4,0.1,0.6c0.1,1.4,0.3,2.8,0.4,4.3c-0.1,0.7-0.3,1.4-0.7,2c0,0,0,0-0.1,0.1
			c-0.1,0.1-0.2,0.2-0.3,0.3c-1.1,1.1-2.2,2.3-3.2,3.5c-0.1,0.1-0.2,0.2-0.2,0.3c-4,4.8-6.6,10.3-8.2,16c0,0,0,0.1,0,0.1
			c-0.1,0.5-0.3,1-0.4,1.5c0,0.2-0.1,0.3-0.1,0.5c-0.1,0.4-0.2,0.8-0.2,1.2c0,0.2-0.1,0.4-0.1,0.6c-0.1,0.4-0.1,0.8-0.2,1.2
			c-0.1,0.4-0.1,0.8-0.2,1.2c0,0.2-0.1,0.5-0.1,0.7c0,0.1,0,0.1,0,0.2c0,0.1,0,0.2,0,0.3c0,0.1,0,0.2,0,0.3
			c-0.7,7.8,0,16.2,3.9,23.3c3.9,7.1,10.4,12.8,15.4,19.3C78.6,121.4,76,121.5,73.4,121.4z M158.7,119.8c-1.7,1.2-3.6,2.2-5.4,3.3
			c-2.2,1.4-4.2,3-6.5,4.3c-4.7,2.7-10.1,4.2-15.7,5.1c-9.7,1.5-21.3,2.4-30.8-0.2c-5.1-1.4-8-3.9-11.1-7.4
			c-1.2-1.4-2.8-1.9-4.2-2.9c-0.1-0.1-0.2-0.2-0.3-0.3c-0.6-0.8-1.1-1.5-1.7-2.3c-0.2-0.3-0.4-0.5-0.5-0.7c-0.9-1.1-1.8-2.1-2.7-3.2
			c-3.4-3.9-7.1-7.7-9.9-11.9c-3.1-4.7-4.5-9.8-5-15.1c-0.6-6.1-0.1-12.4,1.7-18.4c0-0.1,0-0.1,0.1-0.2c0.1-0.5,0.3-0.9,0.5-1.4
			c0.1-0.2,0.1-0.3,0.2-0.5c0.1-0.3,0.3-0.7,0.4-1c0.3-0.6,0.5-1.3,0.8-1.9c0-0.1,0.1-0.2,0.1-0.2c0.2-0.3,0.3-0.7,0.5-1
			c0.1-0.2,0.2-0.4,0.3-0.6c0.2-0.3,0.3-0.6,0.5-0.9c0.1-0.3,0.3-0.5,0.4-0.8c0.1-0.2,0.3-0.4,0.4-0.7c0.2-0.4,0.5-0.8,0.7-1.2
			c0.1-0.1,0.1-0.2,0.2-0.3c1.7-2.5,3.6-4.7,5.8-6.7c0.3-0.2,0.5-0.5,0.7-0.7c5.5-4.8,12.3-8.2,20.1-10.3c6.1-1.6,12.8-2.5,19.5-2.6
			c0.8,0,1.6,0,2.3,0c14,0.2,28.5,4.1,38.8,12.3c0.4,0.6,1.5,1.3,2,1.8c0,0,0,0,0.1,0.1c0.3,0.3,0.6,0.6,0.9,0.9
			c0.3,0.3,0.5,0.5,0.8,0.8c0.1,0.1,0.2,0.2,0.3,0.4c0.4,0.4,0.7,0.8,1.1,1.3c0.1,0.1,0.2,0.2,0.2,0.3c0.3,0.4,0.6,0.8,0.9,1.2
			c0.1,0.2,0.3,0.4,0.4,0.6c0.3,0.4,0.5,0.8,0.8,1.1c0.2,0.2,0.3,0.5,0.4,0.7c0.2,0.3,0.4,0.6,0.5,0.9c0.1,0.2,0.2,0.4,0.4,0.6
			c0.3,0.5,0.6,1.1,0.8,1.7c0,0.1,0.1,0.2,0.1,0.2c0.2,0.5,0.4,1,0.7,1.5c0.1,0.1,0.1,0.3,0.2,0.4c0.2,0.5,0.4,1,0.5,1.5
			c0,0.1,0.1,0.2,0.1,0.3c1.9,5.8,2.4,11.9,1.8,17.8c0,0.3-0.1,0.5-0.1,0.8c0,0.3-0.1,0.6-0.1,1c-0.1,0.4-0.1,0.8-0.2,1.2
			c0,0.1,0,0.2-0.1,0.3c-0.2,1.5-0.5,2.9-0.8,4.4c0,0.1-0.1,0.2-0.1,0.4c-0.3,1.3-0.6,2.6-1,3.8c-0.1,0.3-0.2,0.6-0.3,0.9
			c-0.3,0.9-0.6,1.9-0.9,2.8c-0.1,0.3-0.2,0.5-0.3,0.8c-1,3-2.2,5.9-3.4,8.9c-0.8,1.8-1.6,3.7-2.7,5.3
			C161.1,117.6,160,118.7,158.7,119.8z M174.1,119c-3.7,0.2-7.6,0.1-11.3,0.6c0.9-1,1.6-2,2.3-3c0.1-0.1,0.1-0.2,0.2-0.3
			c1.4-2.3,2.4-4.8,3.4-7.3c0.3-0.8,0.7-1.7,1-2.5c0.1-0.1,0.1-0.3,0.2-0.5c0.2-0.5,0.4-1,0.6-1.5c0.1-0.3,0.2-0.6,0.3-0.9
			c0.2-0.6,0.4-1.2,0.6-1.8c0.1-0.2,0.1-0.4,0.2-0.6c0.3-0.8,0.5-1.6,0.7-2.4c0.1-0.2,0.1-0.4,0.2-0.5c0.2-0.6,0.4-1.2,0.5-1.9
			c0.1-0.3,0.1-0.5,0.2-0.8c0.1-0.5,0.3-1,0.4-1.6c0.1-0.3,0.2-0.7,0.2-1c0.1-0.4,0.2-0.8,0.2-1.2c0.4-2.1,0.7-4.2,0.9-6.4
			c0.2-2.7,0.3-5.4,0-8.1c0-0.3,0-0.6-0.1-0.9c0-0.3-0.1-0.6-0.1-1c-0.6-5.2-2.1-10.3-4.7-15.1c-1.8-3.2-4-6-6.6-8.5
			c-0.3-0.3-0.6-0.6-0.9-0.9c-0.1-0.1-0.2-0.2-0.3-0.2c-0.2-0.2-0.4-0.4-0.6-0.5c0.9-3.4,1.7-6.9,2.6-10.3c0.8-3.3,2.2-6.3,3.7-9.4
			c4.8,1.5,9.7,3,13.7,5.8c4.7,3.3,6.1,7.4,6.5,12.4c1.6,23.1,3.1,46.2,4.7,69.3C186.4,118.5,180.2,118.8,174.1,119z"/>
		<path class="st1" d="M25,40.4c-0.1,0-0.1,0-0.2,0c-0.1,0-0.1,0-0.2,0c-3.1,0.4-8.2,0.4-7.5,4.3c1.1,5.6,11.2,4.5,15.8,4.3
			c3.7-0.1,13.2-0.1,10.6-5.6C40.8,37.8,30.2,40,25,40.4z M39.5,46.1c-0.7,0.3-1.6,0.2-2.4,0.3c-2.1,0.1-4.2,0.2-6.3,0.2
			c-1.9,0.1-3.7,0.2-5.6,0.1c-1.3-0.1-7.1-1.5-5-3.3c0.3-0.3,2.1-0.2,2.5-0.3c0.8-0.1,1.6-0.2,2.5-0.3c4-0.3,9.3-1.5,13.2-0.2
			C40.1,43.2,41.9,45.1,39.5,46.1z"/>
	</g>
</g>
<g id="check_mark">
</g>
<g id="volunteer">
</g>
<g id="sponsor">
</g>
<g id="submit_event">
</g>
<g id="hot_spot">
</g>
<g id="Submit_group">
</g>
</svg>
