<?xml version="1.0" encoding="utf-8"?>
<!-- Generator: Adobe Illustrator 23.0.1, SVG Export Plug-In . SVG Version: 6.00 Build 0)  -->
<svg version="1.1" xmlns="http://www.w3.org/2000/svg" xmlns:xlink="http://www.w3.org/1999/xlink" x="0px" y="0px"
	 viewBox="0 0 250 188.5" style="enable-background:new 0 0 250 188.5;" xml:space="preserve">
<style type="text/css">
	.st0{fill-rule:evenodd;clip-rule:evenodd;fill:#00ABC8;}
	.st1{fill:#00ABC8;}
</style>
<g id="Layer_1">
	<path id="fork" class="st1" d="M25.2,76.1c0,22.4,0.2,44.9-2.6,67.2c-0.7,5.7-1.8,11.4-2,17.2c-0.1,4.1,0.3,8.7,3.1,12
		c2.1,2.5,5.9,3.9,9.1,3c3.7-1.1,5-4.7,5-8.2c0-5.6-0.8-11.3-1.3-16.8c-0.5-5.9-1-11.9-1.4-17.8c-0.9-11.9-1.7-23.8-2-35.7
		c-0.2-5.8-0.5-11.8-0.1-17.6c0.2-3.1,1.7-4.6,3.8-6.6c1.7-1.6,2.9-3.3,3.3-5.6c1.1-5.1,0.3-10.9,0.2-16.1c-0.1-6-0.1-12.1-0.2-18.1
		c0-3.4-0.1-6.7-0.1-10.1c0-1.8,0.6-5-0.8-6.5c-1.1-1.1-2.9-1-4,0c-1.8,1.5-1.4,4.2-1.3,6.3c0.1,6.6,0.1,13.1-0.1,19.7
		c-0.1,3.4-0.2,6.9-0.3,10.3c-0.1,3,0.1,6.7-2.2,9c0.6,0,1.2,0,1.8,0c-2.7-3.2-1.7-9-1.8-12.8c-0.1-4.6-0.1-9.3-0.2-13.9
		c-0.1-4.6-0.1-9.3-0.2-13.9c0-2,0.6-6.5-2.7-6.4c-2.8,0.1-3.3,3.7-3.4,5.8c-0.4,4.6-0.5,9.2-0.5,13.8c0,4.6,0.2,9.2,0.6,13.8
		c0.4,4.3,1.6,9.3-0.6,13.4c0.5-0.2,1-0.4,1.4-0.6c-2.5-0.8-2.2-4.7-2.3-6.7c-0.2-2.4-0.2-4.8-0.3-7.3c-0.1-4.8,0-9.6,0-14.4
		c0-4.5,0.3-9.7-1.1-14.1c-0.8-2.6-3.6-3.1-5.2-0.9c-1.1,1.5-0.9,3.5-1,5.3c-0.1,2.2-0.2,4.5-0.3,6.7c-0.2,3.8-0.3,7.5-0.2,11.3
		c0.1,7.7,1.1,15.3,2.8,22.8c0.4,1.9,0.6,4.4,1.6,6.1c0.5,0.7,1.1,1.4,1.7,2.1c1.4,1.7,2.8,3.4,4.2,5.2c1,1.3,2.8-0.5,1.8-1.8
		c-1.9-2.3-4.9-5-5.8-7.7c-1.3-3.9-1.9-8.2-2.5-12.3c-0.5-3.4-0.9-6.9-1.1-10.3C17.7,38,18,31,18.3,24.1c0-1.1,0.1-2.1,0.1-3.2
		c0-0.5-0.1-2.2,1.2-1.6c0.1,0.1,0.2,1.2,0.3,1.3c0.4,2.5,0.5,5,0.6,7.6c0.1,4.4,0.1,8.8,0.1,13.2c0,4.7,0,9.4,0.4,14.1
		c0.3,3.1,0.6,6.7,4.1,7.8c0.5,0.2,1.2-0.1,1.4-0.6c1.6-3,1.7-6.2,1.4-9.5c-0.4-4-0.8-8-0.9-12c-0.2-4.1-0.2-8.2-0.1-12.3
		c0.1-2.1,0.2-4.3,0.3-6.4c0.1-1.2,0-2.6,0.3-3.7c0.1-0.3,0.2-0.6,0.4-0.9c0.4-0.7,0.6-0.6,0.5,0.3c0.5,1.7,0.1,4.2,0.1,5.9
		c0,2.1,0.1,4.3,0.1,6.4c0.1,4.1,0.1,8.3,0.2,12.4c0.1,4.2,0,8.4,0.2,12.6c0.1,2.9,0.5,5.6,2.4,7.9c0.4,0.5,1.4,0.5,1.8,0
		c2.7-2.8,2.7-6.6,2.9-10.3c0.2-5.2,0.4-10.5,0.4-15.7c0.1-5.4,0-10.8,0-16.2c0-0.3-0.1-1,0-1.3c1.2-3,1-0.3,1.1,0
		c0.3,1.2,0,2.8,0,4c0,2.9,0.1,5.7,0.1,8.6c0.1,10.5,0.7,21.1,0.3,31.6c-0.1,2.6-0.7,4.7-2.6,6.6c-1.4,1.4-2.9,2.6-3.8,4.3
		c-0.8,1.6-0.9,3.4-1,5.1c-0.1,2.8-0.1,5.6,0,8.4c0.1,21.2,2,42.3,3.7,63.4c0.4,5,1.1,10,1.2,15c0,2.3-0.4,5.1-2.9,6.1
		c-1.9,0.8-4.4,0-5.9-1.2c-3.7-3-3.5-8.8-3.2-13.1c0.3-5,1.2-9.9,1.9-14.9c2.8-22.4,2.6-45.1,2.6-67.6
		C27.8,74.5,25.2,74.5,25.2,76.1z"/>
	<path id="knife" class="st1" d="M221.1,106c0.1,8.9-0.1,17.8-0.8,26.7c-0.7,8.5-2.4,17-2.9,25.6c-0.3,5.6,0.2,13.9,6.4,16.6
		c2.5,1.1,5.4,0.7,7.6-1c2.6-2,3.2-5.1,3.3-8.1c0.5-17.4-3.5-34.7-5.4-51.9c-0.4-4-0.6-8.1,1-11.9c1.5-3.4,3.4-6.1,3.7-9.9
		c0.4-4.3,0.1-8.7,0-13.1c0-4.3,0-8.7-0.1-13c-0.1-10-0.1-20-0.2-30c0-5,0-10-0.1-15c0-2.6-0.7-5.5-3.7-6.1
		c-0.6-0.1-1.2,0.1-1.4,0.6c-9.2,15.8-14.8,33.5-15.4,51.7c-0.3,8.9,0.2,18.4,2.1,27.1c0.5,2.3,1.8,6.3,4.3,7.2
		c1.1,0.4,0.4-0.2,0.7,0.4c0.2,0.5,0.2,1.2,0.4,1.7c0.2,0.9,0.4,1.8,0.6,2.6c0.3,1.6,2.8,0.9,2.5-0.7c-0.3-1.4-0.3-3.5-1-4.8
		c-0.6-1.2-2.1-1.5-3-2.5c-1.1-1.3-1.6-3-2-4.6c-1.8-8.5-2.3-17.8-2-26.5c0.7-17.8,6.1-35.1,15.1-50.5c-0.5,0.2-1,0.4-1.4,0.6
		c2,0.4,1.8,2.6,1.8,4.2c0,2,0,4,0,6c0,4,0,8,0.1,12c0,7.7,0.1,15.3,0.1,23c0,7.8,0.1,15.6,0.1,23.5c0,3.9,0.2,7.6-1.6,11.2
		c-1.4,2.8-2.8,5.3-3.2,8.5c-0.9,6.7,0.7,13.9,1.7,20.6c1.1,7.8,2.3,15.7,3,23.6c0.4,3.7,0.6,7.5,0.7,11.2c0.1,3.6,0.9,9-2.7,11.3
		c-3.2,2-6.5-0.3-7.9-3.2c-1.7-3.4-1.7-7.6-1.4-11.3c0.6-8.4,2.2-16.7,2.9-25.1c0.7-8.9,1-17.8,0.8-26.7
		C223.6,104.4,221,104.4,221.1,106z"/>
	<path id="small_circle" class="st1" d="M123.2,48C104.7,49.7,87,59.7,80.6,77.5c-6.8,19.1-2.7,42.3,14.1,55.1
		c16.2,12.3,41.5,13.2,58.5,2.1c7.4-4.8,13.3-11.7,16.6-19.8c2-4.9,2.7-10.2,3.3-15.4c0.6-5.3,1.1-10.6-0.4-15.8
		c-1.6-5.4-4.2-11.1-7.7-15.6c-3.5-4.5-8.3-8.1-12.8-11.4c-4.9-3.6-10.4-6.8-16.4-8.2C131.7,47.7,127.5,48,123.2,48
		c-1.7,0-1.7,2.5,0,2.5c2.9,0,5.9-0.3,8.8,0c5.2,0.5,10.1,2.7,14.5,5.4c4.2,2.6,8.2,5.8,11.9,9c3.8,3.3,6.5,7,8.6,11.5
		c2.3,4.7,4.2,9.5,4.2,14.8c0,5.2-0.7,10.6-1.7,15.7c-1.7,8.5-6.1,16.1-12.7,21.9c-14.5,12.8-37.2,14.2-54.3,5.7
		c-18.1-9.1-25.3-29.9-21.6-48.8c2-10.3,7-19.4,15.7-25.7c7.7-5.6,17-8.7,26.5-9.6C124.8,50.4,124.8,47.8,123.2,48z"/>
	<path id="large_circle" class="st1" d="M169.2,25.8c-14.7-8.2-31.7-13.1-48.7-12.7c-17.5,0.4-33.4,6.8-46.6,17.9
		c-26.7,22.3-41.4,59.6-27.3,92.7c12.7,29.9,44.7,52.6,77.8,53.6c16.7,0.5,33.7-4.2,47-14.1c7.4-5.5,13.5-12.3,19.5-19.2
		c6-6.9,11.1-13.8,13.6-22.7c2.5-8.6,4.4-18.5,3.8-27.5c-0.6-9.1-3.6-18.2-6.4-26.9c-2.8-8.4-6.4-16.7-11.8-23.8
		c-2.4-3.2-5.1-6.1-8.2-8.7c-2.6-2.2-5.4-3.8-8.3-5.6C172.2,27.9,170.7,26.8,169.2,25.8c-1.3-0.9-2.6,1.2-1.3,2.2
		c4,2.8,8.5,5.2,12.2,8.3c6.1,5.2,10.8,11.8,14.2,18.9c3.9,7.9,6.4,16.4,8.7,24.9c1.2,4.5,2.4,9.1,2.7,13.8c0.3,4.6-0.2,9.2-1,13.7
		c-1.5,8.8-3.2,17.6-8.2,25.2c-4.7,7.2-11,13.8-17.1,20c-11.8,11.9-26.6,19.6-43.4,21.6c-32.4,3.8-64.1-14-81.2-40.6
		c-9.5-14.8-13-32.3-10-49.6c2.8-16.2,10.9-31,22.1-43c11.3-12.1,25.4-21.3,42-24.3c16.1-2.9,33-0.3,48,5.9
		c3.8,1.6,7.5,3.4,11.1,5.4C169.4,28.8,170.7,26.6,169.2,25.8z"/>
</g>
<g id="check_mark">
</g>
<g id="volunteer">
</g>
<g id="sponsor">
</g>
<g id="submit_event">
</g>
<g id="hot_spot">
</g>
<g id="Submit_group">
</g>
</svg>
