<?xml version="1.0" encoding="utf-8"?>
<!-- Generator: Adobe Illustrator 23.0.1, SVG Export Plug-In . SVG Version: 6.00 Build 0)  -->
<svg version="1.1" xmlns="http://www.w3.org/2000/svg" xmlns:xlink="http://www.w3.org/1999/xlink" x="0px" y="0px"
	 viewBox="0 0 181.1 238.2" style="enable-background:new 0 0 181.1 238.2;" xml:space="preserve">
<style type="text/css">
	.st0{fill:#00ABC8;}
	.st1{display:none;}
	.st2{display:inline;fill:#00ABC8;}
	.st3{display:inline;}
	.st4{fill-rule:evenodd;clip-rule:evenodd;fill:#00ABC8;}
	.st5{display:inline;fill-rule:evenodd;clip-rule:evenodd;fill:#00ABC8;}
	.st6{display:inline;fill:none;stroke:#00ABC8;stroke-miterlimit:10;}
</style>
<g id="results">
	<path id="trophy_1_" class="st0" d="M161.8,83.7c-0.2-1.1-0.9-1.8-2.1-1.9c-2.2-0.1-4.4-0.3-6.6-0.2c-4.7,0.3-9.5,0.7-14.2,1.1
		c-0.9,0.1-1.8,0-3.1,0c0.1-0.9,0.1-1.5,0.3-2c0.4-2,0.9-4,1.4-6c0.5-1.9,1-3.9,1.7-5.7c0.9-2.2,0.9-3.3-0.7-5
		c-2.1-2.2-4.7-3.5-7.6-4.3c-6-1.6-12.1-2-18.2-2.4c-5.8-0.4-11.6-0.5-17.4-0.5c-5.2,0-10.4-0.1-15.5,0.3c-6,0.4-11.9,1.3-17.9,1.8
		c-4,0.3-7,2.2-10.1,4.4c-1.2,0.8-2.1,1.9-2,3.6c0.3,4.7,0.5,9.4,0.8,14c0.1,2.9,0.1,3-2.8,3.4c-6.9,0.9-13.8,1.7-20.7,2.4
		c-1.1,0.1-1.7,0.4-1.8,1.6c-0.2,2-0.7,4-0.7,5.9c0,4.5,0.4,9.1,1.4,13.5c0.6,2.5,1,5,1.4,7.5c1.1,6.4,3.5,12.5,6.4,18.3
		c0.9,1.7,2.1,3.1,3.8,4c1.6,0.9,3.3,1.6,5,2.5c2.6,1.4,5.3,1.9,8.2,1.8c3.1-0.1,6.2,0.2,9.3,0.3c0.9,0,1.5,0.4,1.9,1.3
		c0.7,1.7,1.4,3.4,2.1,5.2c1,2.4,2.1,4.6,3.9,6.5c0.8,0.8,1.4,1.7,2,2.7c3,4.7,7.1,8,12.4,9.8c1.6,0.6,3.1,1.4,4.5,2.1
		c0,0.5,0.1,0.7,0.1,0.9c-0.6,5.3-1.1,10.6-2,15.8c-0.9,4.9-2.3,9.8-3.5,14.7c-0.3,1.1-0.9,1.7-2,1.8c-1.2,0.2-2.4,0.4-3.7,0.4
		c-3.2,0.1-6.3,0.5-9.4,1.4c-2.9,0.9-4.7,3.2-6.6,5.3c-0.3,2.4-1.9,3.4-4,4.1c-0.5,0.2-1,0.5-1.4,0.8c-2.2,1.6-3.2,4-3.2,6.6
		c0.1,4.7,3.2,8.4,7.8,9.5c5,1.1,10.1,2,15.3,2.1c3.2,0.1,6.3,0.1,9.5,0.5c7.7,0.9,15.4,1.6,23.1,0.4c3.9-0.6,7.9-1.2,11.8-2.2
		c3.9-1,6.9-3.2,7.1-7.8c0-0.4,0.2-0.8,0.3-1.2c0.5-0.9,0.4-1.9,0-2.8c-1.2-2.9-3-5.1-6.3-5.7c-0.5-0.1-1-0.1-1.4-0.4
		c-0.4-0.3-0.9-0.8-0.8-1.2c0.2-1.8-0.8-2.8-2-3.8c-3.9-3.5-8.7-4.7-13.7-5.2c-2.6-0.2-3.9-1.3-4.5-3.6c-0.1-0.2-0.1-0.4-0.2-0.6
		c-1.3-4.8-1.6-9.6-1.7-14.5c0-4.3,0.3-8.5,0.6-12.8c0.1-1.9,0.7-2.5,2.5-2.9c3.9-0.7,7.2-2.9,10.3-5.1c4.5-3.2,7.8-7.6,10.1-12.6
		c0.9-1.9,1.7-3.8,2.6-5.6c0.8-1.7,0.8-1.8,2.6-1.7c1.6,0.1,3.1-0.3,4.6-0.8c2.2-0.8,4.5-1.3,6.7-1.9c1.9-0.5,3.9-0.8,5.9-1.2
		c1.8-0.5,3.5-1.4,4.7-2.9c1.2-1.5,2.4-3,3.3-4.8c1.9-4,3.8-8,5.3-12.1c1.7-4.6,3.1-9.4,4.6-14.1c2.1-6.4,2.9-13,2.8-19.7
		C162.2,85.6,162,84.6,161.8,83.7z M52.7,64.5c1.1-1.2,2.6-1.8,4.1-2.3c1-0.3,2.1-0.5,2.9-1.4c0.3-0.3,1-0.4,1.5-0.4
		c5.6-0.6,11.2-1.3,16.8-1.9c1.4-0.1,2.8-0.1,4.1-0.2c4.8-0.1,9.6-0.3,14.5-0.3c9,0.1,18.1,0.3,27,1.7c3.2,0.5,6.4,1.5,9.6,2.4
		c1.3,0.4,2.4,1.3,3.5,2.2c1.5,1.2,1.4,3.1-0.4,4.1c-1.7,1-3.6,1.7-5.5,2.3c-1.7,0.5-3.5,0.7-5.3,0.9c-9.7,1.2-19.4,2.3-29.3,2.2
		c-7.6-0.3-15.1-0.5-22.7-1.1c-5.1-0.4-10.2-1.4-15.3-2.2c-2.1-0.4-4-1.5-5.6-3C51.6,66.3,51.7,65.7,52.7,64.5z M51.3,94.2
		c0.4,2.7,0.6,5.3,1,8c0.6,3.6,1.2,7.2,2,10.8c1.1,5.4,2.3,10.8,3.4,16.2c0.2,1.1,0.6,2.3,0.8,3.4c0.3,1.4,0,1.8-1.4,1.8
		c-1.8,0.1-3.6,0.2-5.4,0.1c-4-0.4-7.3-2.3-9.7-5.4c-3-3.8-4.9-8.2-5.9-13.1c-0.5-2.8-1.2-5.5-1.7-8.3c-0.7-3.9-1.2-7.7-1.8-11.6
		c0-0.3-0.1-0.5-0.1-0.8c0-2.5,0.5-3,3-3c2.1,0,4.3,0,6.4,0c2.3,0,4.7,0,7,0C50.9,92.3,51,92.3,51.3,94.2z M54,139.9
		c-0.5,0-1-0.1-1.4,0c-4.1,0.5-7.7-0.9-11.3-2.5c-3.9-1.7-6.3-4.9-7.8-8.7c-1.3-3.3-2.6-6.7-3.5-10.1c-0.9-3.3-1.4-6.7-2.1-10.1
		c-0.3-1.4-0.7-2.8-0.9-4.2c-0.4-3.3-0.9-6.7-1-10c-0.1-1.6,0.4-3.3,0.7-4.9c0.1-0.8,0.7-1.3,1.6-1.4c1.6-0.3,3.3-0.5,4.9-0.7
		c4.6-0.5,9.2-1.1,13.7-1.6c1.1-0.1,2.3-0.1,3.8-0.2c0,1.9,0,3.3,0,4.9c-0.5,0.1-0.9,0.4-1.4,0.4c-3.4,0.2-6.9,0.3-10.3,0.4
		c-1.6,0-3.1-0.3-4.7-0.4c-1.9-0.2-2.7,0.4-2.9,2.3c-0.1,1.4-0.1,2.8,0,4.1c0.6,4.5,1.4,9,2.1,13.4c0.3,2,0.8,3.9,1.1,5.9
		c0.7,4.4,2.7,8.4,4.9,12.2c2,3.5,5.2,5.7,8.8,7.1c0.9,0.4,2,0.5,3,0.5c2,0,4-0.1,6-0.2c1.7-0.1,1.9-0.1,2.5,1.7
		c0.3,0.7,0.4,1.5,0.7,2.6C58.1,140.1,56.1,140,54,139.9z M62,214.9c0.4,0.5,0.8,1,1.2,1.5c-0.1,0.1-0.2,0.2-0.3,0.2
		c-0.4-0.5-0.8-1-1.2-1.5C61.8,215.1,61.9,215,62,214.9z M92.4,232.8c-2.3-0.1-4.7-0.5-7-0.7c-4.5-0.3-9.1-0.6-13.6-0.9
		c-1-0.1-2.1-0.3-3.1-0.3c-1.2-0.1-1.7-0.7-1.8-1.9c0-0.7,0.1-1.5-0.8-2c-1.2,0.9-0.2,2.1-0.7,3.1c-2.2,0.2-2.4,0-3.2-1.9
		c-0.2-0.6-0.1-1.4-1.1-1.6c-0.9,0.8,0.2,1.8-0.1,2.7c-1.6,0-1.8-0.1-1.9-1.5c-0.1-0.9,0.3-1.9-0.6-2.7c-1.6,0.6-0.3,2.2-1.2,3
		c-3-0.7-5.1-4.3-4.1-6.9c2.6,2.8,6.2,3.5,9.6,4.5c9.3,2.6,18.8,3.6,28.4,3.7c1.4,0,2.7,0.1,4.1,0.2c0.3,0,0.5,0.2,0.7,0.3
		C95.5,232.9,95.5,233,92.4,232.8z M96.9,232.6c0.5-1.1,0.9-2.1,1.4-3.2C99.1,231.7,98.8,232.6,96.9,232.6z M101,233
		c-1.1-1.6-1-1.8,0.4-3.1C101.2,230.8,101.1,231.8,101,233z M103.1,232.8c-0.7-1.2-0.1-2.1,0.3-3
		C103.6,230.8,104.1,231.8,103.1,232.8z M106.4,232.5c-1.5-1.3-1.5-2.1,0-3.5C106.4,230.2,106.4,231.2,106.4,232.5z M109.3,232.1
		c-1.6-1.3-1.6-2.2,0.3-3.3C109.5,230,109.4,231,109.3,232.1z M112.5,231.1c-0.1,0.2-0.6,0.2-1,0.4c-0.3-2.3-0.2-2.5,1.3-3.2
		C113.2,229.2,112.9,230.2,112.5,231.1z M114.6,230.6c-0.2-2.2,0.2-2.8,2-3.6c-0.1,0.9-0.2,1.7-0.4,3c0.7-0.5,1.1-0.6,1.3-0.9
		c0.3-0.6,0.5-1.3,0.8-1.9c0.3-0.8,0.9-1.1,1.7-0.9C120.2,229.5,118.4,231,114.6,230.6z M121.5,228.2c0.5-1.2,0.1-3.1,2.4-3.1
		C123.9,226.9,122.6,227.5,121.5,228.2z M118,216.7c0.1-0.4,0.3-0.7,0.5-1.3c2.4,0.3,4.2,1.6,5.3,3.5c0.5,0.8,0.2,2.2,0,3.3
		c-0.1,0.4-0.9,0.8-1.4,1.1c-6,2.3-12.1,4.1-18.6,4.4c-7,0.3-14.1,0.1-21.1-0.2c-4.9-0.3-9.8-1.3-14.7-2.2c-3-0.6-6-1.6-8.9-2.5
		c-1.2-0.4-2.3-0.9-3.3-1.6c-2.1-1.5-2-4.1,0.3-5.3c0.9-0.5,2-0.8,3-1.1c0.8,1,1.4,1.9,2.2,2.7c2.7,2.8,6.1,4.3,9.8,4.9
		c6.9,1.2,13.8,2.1,20.7,2.2c4.3,0.1,8.5,0.1,12.8,0c2,0,4-0.3,5.9-0.7C114.3,222.8,116.8,220.4,118,216.7z M66.4,218.7
		c9.2,2.2,18.1,3.1,27.6,2.6c-0.5,0.7-0.7,1.2-1,1.3c-0.6,0.2-1.4,0.3-2,0.3c-5.5-0.5-11.1-1.1-16.6-1.8c-2.2-0.3-4.4-1-6.6-1.6
		C67.4,219.4,67,219.1,66.4,218.7z M95.4,222.6c0.3-1.6,0.6-1.8,2.7-1.2C97.9,222.9,97.5,223.1,95.4,222.6z M99.8,221.6
		c0,0,0.2-0.1,0.5-0.4c-0.1,0.4-0.1,0.7-0.2,0.9C100,222,99.9,221.8,99.8,221.6z M101.9,222.1c0.1-0.4,0.3-0.8,0.4-1.3
		c0.2,0.1,0.3,0.2,0.5,0.3c-0.2,0.4-0.3,0.8-0.5,1.1C102.1,222.2,102,222.1,101.9,222.1z M104.3,220.3c0.9,0.8,0.6,1.4,0.2,2.3
		C103.6,221.7,103.8,221.1,104.3,220.3z M108.3,219.5c-0.2,1-0.3,1.7-0.6,2.4c-0.1,0.2-0.5,0.5-0.8,0.4c-0.2,0-0.6-0.4-0.6-0.7
		C106.1,220.7,106.6,220.1,108.3,219.5z M112.9,218.2c0.4,2.7-0.3,3.6-3.4,3.8C109.5,219.1,110.2,218.4,112.9,218.2z M116.5,215.4
		c0.1,1.8-0.6,2.9-1.8,4.2C114.8,217.8,115,216.5,116.5,215.4z M97.5,206.4c0.1,0.1,0.3,0.1,0.3,0.2c0,0,0,0,0,0.1
		c0,0.1-0.1,0.2-0.2,0.2v0c-0.1-0.1-0.2-0.1-0.2-0.2c0,0,0,0,0-0.1C97.3,206.6,97.4,206.5,97.5,206.4z M96.3,203.2
		c-0.9,0.1-1.6,0.2-2.4,0.3c0,0.5,0.1,0.9,0.1,1.4c-0.4,0.2-1,0.4-1.4,0.6c0,0.3-0.1,0.5,0,0.5c1,0.6,1.2,2,2.5,2.5
		c1,0.4,1.8,0.9,2.9,0.9c0.9,0,1.6,0.4,2,1.1c-1.7-0.2-3.4-0.4-5.1-0.6c-0.1,0.1-0.1,0.3-0.2,0.4c0.3,0.3,0.5,0.9,0.8,1
		c1.5,0.2,3,0.4,4.5,0.4c0.2,0,0.4-0.5,0.7-0.7c0.7,0.4,1.4,0.9,2.1,1.3c-2,1-4.3,0.1-6.4,1.1c0.4,0.4,0.5,0.7,0.7,0.7
		c2.1,0,4.1,0,6.2,0c0.9-1.4,2.5-1.5,4.1-1.7c0-0.1,0-0.3,0-0.4c-1.1-0.4-2.3-0.6-3.3-1.2c-1.1-0.7-2.1-1.6-2.9-2.6
		c-0.7-0.9-1.4-2-1.2-3.7c1.8,0.4,3.4,0.7,5.1,1.1c0.9,0.2,1.7,0.6,2.6,0.8c2.8,0.6,5.1,2,7.2,3.8c1.4,1.2,1.4,1.9,0,3.2
		c-0.4,0.3-0.9,0.5-0.7,1.3c0.1,0.3-0.5,0.9-1,1.1c-1.9,0.7-3.7,1.4-5.7,1.9c-2.9,0.6-5.8,1.1-8.8,1.4c-3.4,0.3-6.9,0.4-10.3,0.5
		c-5.5,0.2-10.8-0.8-16.2-1.4c-2.8-0.3-5.3-1.6-7.4-3.5c-3-2.7-2.7-5.9,0.8-8c2.1-1.3,4.5-1.7,6.9-1.9c2.3-0.2,4.7,0,7,0
		c-0.6,3.5-4.1,6.5-7.6,6.1c0.3,0.5,0.5,1,0.8,1.1c1.5,0.9,2.9,0.4,4-0.6c1.2-1,2.3-2.2,3.2-3.5c2-2.7,3.5-5.8,4.2-9.1
		c0.8-3.8,2-7.5,2.6-11.2c0.8-4.7,1.2-9.6,1.7-14.3c0.1-0.5,0-1,0.1-1.4c0.4-2,0.6-2.2,2.7-2.2c1.2,0,2.4,0,3.7,0
		c-0.3,7.3-0.6,14.3-0.9,21.3c-0.1-0.1-0.4-0.3-0.7-0.4c-1.2-0.5-1.6-0.3-1.5,1.1c0.1,1.1,0.2,2.3,0.3,3.4c0,0.9,0.6,1.3,1.3,1.2
		c0.4-0.1,0.7-0.7,1.2-1.1C95,197.8,95.6,200.4,96.3,203.2z M122.4,140.2c-0.1,0.3-0.3,0.6-0.4,0.8c-1,0.6-2-0.7-2.8,0.2
		c-0.1,1.2,1.1,1.3,1.6,2.1c0,0.1,0.1,0.4,0,0.5c-1.9,5.3-4.3,10.4-7.9,14.6c-1.7,2-4,3.5-6.1,5.2c-1,0.8-2.2,1.5-3.4,2
		c-1.5,0.7-3,1.4-4.6,1.8c-1.7,0.5-3.5,0.6-5.4,0.9c-0.1-1.4-1.1-1.2-2-1.1c-1.2,0-2.2-0.1-2.7-1.6c-1.4,1.7-2.9,1-4.4,0.5
		c-4.5-1.4-8.4-3.9-11.2-7.8c-2.5-3.5-5.5-6.8-7.3-10.8c-1.5-3.4-2.8-6.9-4.3-10.3c-0.5-1.2,0.7-1.7,0.9-2.7c-1.4-0.3-2-1.4-2.3-2.8
		c-1.6-7.3-3.3-14.5-4.7-21.8c-0.9-4.6-1.2-9.3-2-13.9c-1.1-6.3-0.8-12.7-1.3-19.1c-0.2-2.4-0.3-4.8-0.4-7.2c2.4,0.9,4.4,2,6.7,2.5
		c3.5,0.8,7,1.3,10.6,1.8c8.2,1.1,16.5,1.3,24.8,1.3c2.2,0,4.4,0,6.6,0c6.3,0.1,12.5-0.3,18.8-1.2c3.4-0.5,6.9-0.7,10.2-1.3
		c2-0.3,4-1.2,5.9-1.7c0.4-0.1,0.8-0.2,1.2-0.3c0,2.2-2.5,11.6-3.1,12.4c-0.1,1.5-0.1,2.8-0.2,3.9c-0.5,4-1.1,7.9-1.6,11.9
		c-1,8.2-2.3,16.4-3.9,24.5C126.5,129.3,124.6,134.8,122.4,140.2z M136.5,89.4c4.2-0.3,8.4-0.7,12.6-1c0.7-0.1,1.5-0.1,2.5-0.1
		c-0.1,1.6-0.2,3.1-0.4,4.4c-0.6,4.1-1.2,8.2-1.8,12.3c-0.6,4.3-1.9,8.3-3.2,12.4c-0.9,3-1.8,5.9-2.8,8.9c-1.3,4-3.3,7.6-6.9,10
		c-1.1,0.7-2.5,1.2-3.8,1.4c-2.1,0.3-4.3,0.1-6.4,0.1c-0.3,0-0.6-0.1-1-0.2c0-0.3,0-0.5,0-0.7c2.7-6.3,3.7-12.9,5-19.5
		c1.1-5.6,1.6-11.2,2.6-16.7c0.5-2.9,0.7-5.9,1-8.8C134.2,89.7,134.5,89.5,136.5,89.4z M160.2,94.2c-0.7,6.5-2.7,12.8-4.6,19
		c-1.9,6.2-4.5,12-7.2,17.8c-0.7,1.4-1.5,2.8-2.5,4c-1.5,2-3.4,3.3-5.9,3.8c-1.5,0.3-3,0.5-4.5,0.9c-2.5,0.6-5.1,1.3-7.6,2
		c-1.3,0.4-2.6,0.8-4.1,0.1c0.4-2.3,0.4-2.4,2.4-2.5c1.8-0.1,3.6-0.1,5.4-0.1c4.8,0,8.1-2.6,10.4-6.4c1.3-2.3,2.3-4.8,3.2-7.4
		c1.4-3.8,2.6-7.7,3.7-11.6c0.8-3,1.5-6,2-9.1c0.9-5.1,1.6-10.2,2.3-15.3c0.4-2.8,0-3.2-2.9-2.9c-4.5,0.4-8.9,0.8-13.4,1.2
		c-0.6,0.1-1.2,0-2,0c0-0.5-0.1-0.9,0-1.3c0.3-1.9,0.6-2.2,2.5-2.4c2.2-0.2,4.4-0.3,6.6-0.5c3-0.2,5.9-0.4,8.9-0.5
		c1.5-0.1,3-0.1,4.5,0.1c2.3,0.2,2.9,0.8,3,3.1C160.5,89,160.4,91.6,160.2,94.2z"/>
	<g id="animation_copy_2" class="st1">
		<path id="sparkles" class="st2" d="M76.1,41.1c0.4,0,0.6-0.3,0.7-0.6c0.1-0.5-0.5-0.9-1.1-0.8c-0.3,0.1-0.6,0.3-0.5,0.7
			C75.3,40.8,75.6,41.1,76.1,41.1 M58.7,34.4c0.6-0.1,0.9-0.2,0.9-0.6c0-0.5-0.4-0.7-0.8-0.7c-0.4,0-0.6,0.2-0.6,0.5
			C58.1,34.1,58.4,34.4,58.7,34.4 M56.7,31.9c0.4,0,0.6-0.3,0.5-0.6c-0.1-0.5-0.4-0.7-0.9-0.7c-0.4,0-0.6,0.3-0.5,0.6
			C55.9,31.8,56.2,32,56.7,31.9 M97.3,13.7c-0.3,0-0.8,0.6-0.6,0.9c0.2,0.4,0.6,0.7,1.1,0.5c0.3-0.1,0.6-0.3,0.5-0.7
			C98.2,13.9,97.9,13.7,97.3,13.7 M138.9,31.6c0.5,0.2,0.8,0,1.1-0.3c0.2-0.5,0-0.8-0.4-1c-0.5-0.2-0.9-0.1-1.1,0.3
			C138.2,31,138.5,31.4,138.9,31.6 M118.9,52.6c0.1-0.4-0.4-0.9-0.8-0.8c-0.5,0.1-0.8,0.4-1,0.8c-0.1,0.3,0.5,0.8,0.9,0.8
			C118.5,53.3,118.9,53.1,118.9,52.6 M131.8,50.9c0-0.5-0.4-0.7-0.9-0.7c-0.5,0.1-0.8,0.4-0.8,0.9c0,0.5,0.4,0.8,0.9,0.7
			C131.5,51.8,131.8,51.4,131.8,50.9 M97.4,45.7c0.3-0.1,0.5-0.3,0.6-0.7c-0.1-0.5-0.4-0.7-0.9-0.8c-0.4-0.1-0.9,0.4-0.9,0.7
			C96.2,45.4,96.9,45.8,97.4,45.7 M77.4,43.9c0.5,0,0.9-0.1,1-0.6c0-0.5-0.2-0.8-0.7-0.9c-0.5,0-0.9,0-1,0.6
			C76.6,43.5,76.9,43.9,77.4,43.9 M66.8,67c0.3-0.1,0.6-0.3,0.6-0.6c0-0.5-0.4-1-1-0.9c-0.4,0-0.8,0.4-0.8,0.8
			C65.6,66.8,66.2,67.1,66.8,67 M60.6,65c-0.1,0.6,0.3,0.9,0.8,1.1c0.4,0.1,0.7-0.1,0.7-0.5c0.1-0.6-0.2-1-0.8-1.1
			C61,64.5,60.7,64.7,60.6,65 M97.5,16.9c-0.5,0-0.8,0.1-1,0.6c-0.1,0.5,0.1,0.8,0.5,1c0.5,0.2,1.2-0.2,1.2-0.7
			C98.3,17.3,98,17,97.5,16.9 M106.2,34.4c0.5,0.1,0.8-0.2,0.8-0.2c0-0.8-0.2-1.1-0.5-1.2c-0.5-0.1-0.8,0.3-0.8,0.7
			C105.6,34.1,105.9,34.4,106.2,34.4 M75.1,52.2c0.5,0,0.8-0.4,0.8-0.8c-0.1-0.5-0.3-0.8-0.8-0.9c-0.5-0.1-1.1,0.5-1,1
			C74.2,52,74.6,52.2,75.1,52.2 M78.7,54c0-0.5-0.4-0.7-0.9-0.7c-0.5,0-0.8,0.4-0.8,0.8c0,0.5,0.4,0.7,0.9,0.7
			C78.5,54.8,78.6,54.4,78.7,54 M137.9,33.1c0-0.4-0.3-0.6-0.6-0.7c-0.9-0.2-1.3,0.2-1.3,1.5c0.5-0.1,1.1-0.2,1.6-0.3
			C137.7,33.6,137.9,33.3,137.9,33.1 M136,34C136,34,135.9,34,136,34C135.9,34,135.9,34,136,34C135.9,34.1,136,34,136,34
			C136,34,136,34,136,34 M97.1,42.3c0.4,0,0.6-0.3,0.7-0.6c0.1-0.6-0.5-1.2-1.2-1.1c-0.5,0.1-0.8,0.4-0.7,0.9
			C96.1,42.1,96.6,42.3,97.1,42.3 M105,38.4c0.5,0,0.8-0.2,1.1-0.5c0.3-0.4,0.2-1.1-0.3-1.3c-0.5-0.2-0.9,0-1.1,0.3
			c-0.2,0.3-0.2,0.8-0.1,1.2C104.5,38.2,104.8,38.3,105,38.4 M120,51.4c0.5,0,0.9-0.2,1-0.7c0.2-0.7-0.3-1.5-0.9-1.5
			c-0.5,0-0.8,0.2-1,0.7C119,50.6,119.4,51.3,120,51.4 M127.6,54.3c0.4-0.4,0.6-0.9,0.5-1.5c0-0.4-0.6-0.8-1-0.6
			c-0.9,0.5-1.6,1.2-1.4,2.3C126.4,54.7,127.1,54.8,127.6,54.3 M125.7,54.6C125.7,54.6,125.7,54.6,125.7,54.6
			C125.7,54.6,125.7,54.6,125.7,54.6C125.7,54.6,125.7,54.6,125.7,54.6C125.7,54.6,125.7,54.6,125.7,54.6 M142.7,28.6
			c1.3-1.5,2.5-3,3.8-4.5c0.1-0.1,0.1-0.4,0.1-0.6c-0.1-0.2-0.2-0.4-0.4-0.5c-0.5-0.3-1.1-0.3-1.5,0.1c-1.4,1.4-2.4,3.1-3.4,4.7
			c-0.1,0.2,0.1,0.7,0.3,0.8C141.9,29.1,142.4,28.9,142.7,28.6 M97.5,11.3c0.2,0,0.6-0.3,0.7-0.6c0.5-1.1,0-2.3,0.2-3.5
			c0-1,0.1-1.9,0.1-2.9c0-0.6-0.4-1.1-1-1c-0.5,0-0.9,0.4-0.9,0.8c0,2.2,0.1,4.5,0.2,6.7C96.8,11,97.2,11.3,97.5,11.3 M46.9,22.3
			c1.4,0.8,2.3,2.1,3.3,3.2c0.7,0.8,1.5,1.6,2.2,2.4c0.3,0.3,0.7,0.6,1,0.8c0.1,0.1,0.4,0.1,0.6,0c0.4-0.2,0.3-0.5,0.3-0.8
			c0-0.1-0.1-0.2-0.1-0.3c-1.9-2.2-3.9-4.5-5.9-6.7c-0.2-0.2-0.6-0.2-1-0.3c-0.3,0.2-0.6,0.3-0.8,0.6C46.4,21.5,46.5,22.1,46.9,22.3
			 M107.3,30.4c0.2,0,0.5,0.1,0.6,0c0.3-0.4,0.7-0.8,0.9-1.3c1-2.6,1.9-5.3,2.9-7.9c0.1-0.4,0.2-0.8,0.3-1.1c-0.1-0.6-0.3-1-0.7-1.2
			c-0.4-0.2-1,0.1-1.2,0.8c-1,3.2-2,6.4-3,9.6c-0.1,0.3,0,0.6,0,0.9C107.1,30.2,107.2,30.4,107.3,30.4 M66.8,28.8c0.7,1,1.4,2,2,3
			c1.3,1.9,2.6,3.8,3.9,5.7c0.2,0.3,0.5,0.4,0.8,0.6c0.2,0.1,0.5,0.1,0.6,0c0.2-0.1,0.3-0.3,0.4-0.5c0.2-0.6-0.2-1-0.5-1.5
			c-1.7-2.6-3.4-5.1-5-7.7c-0.4-0.6-0.7-1.3-1.2-2c-0.3-0.4-0.8-0.4-1.2-0.1c-0.4,0.2-0.7,0.7-0.6,1.1
			C66.1,27.9,66.4,28.3,66.8,28.8 M42.4,62.6c0.2,0.1,0.4,0.2,0.6,0.2c4.5,1.2,9.1,1.5,13.5,2.4c0.3,0,0.6,0,0.8-0.1
			c0.2-0.1,0.3-0.3,0.3-0.4c0-0.2-0.1-0.4-0.3-0.5c-0.1-0.1-0.4-0.3-0.6-0.3c-4.3-0.6-8.6-1.6-12.8-3c-0.4-0.1-0.9-0.2-1.3-0.1
			c-0.5,0-0.8,0.3-0.9,0.8C41.7,62,42,62.4,42.4,62.6 M145,42c-0.1-0.1-0.2-0.5-0.4-0.7c-0.4-0.4-0.8-0.3-1.2,0
			c-0.5,0.4-1,0.8-1.6,1.2c-2.4,1.2-4.5,2.9-6.7,4.4c-0.5,0.3-0.9,0.6-1.3,1c-0.2,0.2-0.4,0.7-0.2,0.9c0.2,0.4,0.7,0.5,1.2,0.4
			c0.2-0.1,0.4-0.1,0.6-0.2c3-1.9,6-3.7,9.1-5.6C144.8,43,145.1,42.6,145,42 M66.3,51.9c-0.3-0.2-0.6-0.2-1-0.2
			c-0.4,0-0.6,0.3-0.7,0.6c-0.1,0.2-0.1,0.5,0,0.6c0.3,0.3,0.6,0.7,1,0.9c3.5,2.2,7.5,3.6,11.2,5.4c0.2,0.1,0.5,0.1,0.7,0
			c0.3-0.1,0.6-0.3,0.6-0.7c0-0.6-0.4-0.9-1-1.2C73.5,55.7,69.7,54.2,66.3,51.9 M135.3,65.9c-0.1-0.3-0.4-0.6-0.7-0.7
			c-0.4-0.1-0.9-0.1-1.3-0.1c-2.9,0.5-5.7,1.1-8.7,1.3c-1.3,0.1-2.6,0.7-3.9,1.1c-0.2,0.1-0.4,0.5-0.4,0.8c0,0.3,0.3,0.6,0.6,0.6
			c2.1-0.3,4.1-0.7,6.1-0.9c1.8-0.2,3.6-0.3,5.4-0.6c0.9-0.1,1.7-0.4,2.6-0.7C135.3,66.6,135.5,66.2,135.3,65.9 M110.6,52.3
			c-0.3,0.4-0.5,0.9-0.4,1.5c0.1,0.3,0.2,0.6,0.6,0.7c0.4,0.1,0.7,0,0.9-0.3c0.6-0.9,1.2-1.8,1.8-2.7c1.3-1.6,2.6-3.2,3.9-4.9
			c0.7-0.9,1.4-1.9,2-3c0.4-0.7,0.3-1.5-0.3-1.7c-0.6-0.2-1.1,0.1-1.5,0.5c-0.2,0.3-0.4,0.5-0.5,0.8c-1.1,2-2.5,3.8-4,5.6
			C112.2,50,111.4,51.2,110.6,52.3 M91.8,47.9c0.1,0.8,0.3,1.7,1,2.3c0.1,0.1,0.4,0.2,0.6,0.2c0.4,0,0.6-0.3,0.7-0.6
			c0.1-0.2,0.1-0.4,0-0.6c-1-2.9-1.2-5.9-2-8.8c-0.5-1.8-0.8-3.6-1.3-5.4c-0.2-0.6-0.5-1.2-1.4-1.4c-0.2,0.1-0.6,0.3-0.7,0.5
			c-0.1,0.4-0.2,0.9-0.1,1.2C90.2,39.4,91.3,43.6,91.8,47.9 M96.8,20.7c-0.9,0.2-0.7,1-0.7,1.6c0,3.5,0.4,7.1-0.1,10.7
			c-0.2,1.2,0.1,2.6,0.3,3.9c0,0.4,0.2,0.9,0.8,0.8c0.6,0,0.7-0.5,0.7-0.9c0.1-0.9,0.2-1.7,0.2-2.6c0.1-1.4,0.1-2.8,0.2-4.5
			c0.4-2.3,0.1-4.8,0-7.4C98.2,21.2,97.5,20.6,96.8,20.7 M97.9,67.5c0.5-0.8,0.4-1.7,0.3-2.5c-0.4-3.1-0.6-6.2-0.3-9.4
			c0.2-1.7,0.3-3.4,0.4-5.2c0.1-0.8,0.1-1.5-0.4-2.2c-0.3-0.3-0.7-0.7-1.2-0.4c-0.2,0.1-0.5,0.5-0.5,0.7c-0.1,1.8-0.2,3.7-0.2,5.5
			c-0.5,4.4,0.6,8.8,0.8,13.2c0,0.1,0.3,0.3,0.5,0.4C97.6,67.8,97.8,67.7,97.9,67.5 M88.4,68.7c0-0.5-0.3-0.8-0.7-1
			c-0.3-0.1-0.7-0.2-1-0.2c-5.4-0.8-10.8-1.5-16.1-2.3c-0.8-0.1-1.4,0.3-1.3,1c0,0.5,0.4,0.7,0.9,0.8c5.7,1,11.5,1.1,17.1,2.5
			C87.8,69.7,88.4,69.2,88.4,68.7 M60.9,37.5c2.7,3.3,6,6.2,8.6,9.7c0.7,0.9,1.5,1.6,2.4,2.3c0.3,0.2,0.7,0.1,0.9-0.1
			c0.1-0.1,0.2-0.4,0.3-0.7c-0.2-0.3-0.3-0.7-0.6-1c-3.4-3.8-6.8-7.6-10.2-11.4c-0.3-0.3-0.6-0.6-1-0.9c-0.3-0.2-0.6-0.1-0.9,0.1
			c-0.3,0.2-0.4,0.5-0.3,0.9C60.4,36.8,60.7,37.2,60.9,37.5 M95,69.5c0.1-0.1,0.2-0.4,0.1-0.6c-0.2-0.4-0.4-0.8-0.8-1.1
			c-4.4-3.7-8.7-7.7-12.6-11.9c-0.3-0.3-0.7-0.5-1.2-0.5c-0.2,0.1-0.4,0.1-0.6,0.2c-0.3,0.2-0.3,0.6-0.2,0.8c0.3,0.5,0.6,0.9,1,1.3
			c2.6,2.5,5.3,5.1,7.9,7.6c1.3,1.2,2.6,2.4,3.9,3.6c0.5,0.4,1,0.9,1.8,0.8C94.6,69.8,94.9,69.7,95,69.5 M123.7,47.8
			c0.3-0.3,0.7-0.6,1-0.9c3.7-3.6,7.4-7.2,11.2-10.8c0.7-0.7,0.5-1.3,0.1-2c-1-0.1-1.6,0.4-2.3,1.1c-2.4,2.5-5,5-7.5,7.5
			c-1.3,1.3-2.6,2.7-3.9,4.1c-0.3,0.3-0.4,0.8,0.1,1.1C122.8,48.1,123.3,48.1,123.7,47.8 M106.7,66.9c-0.3,0.2-0.3,0.6-0.1,0.8
			c0.2,0.3,0.6,0.3,0.9,0.2c0.3-0.1,0.7-0.2,0.9-0.4c1.6-1,3.2-2,4.8-3.1c3-2.1,5.6-4.7,8.9-6.4c0.8-0.4,1.6-0.9,2.3-1.3
			c0.8-0.5,1.3-1.2,1.2-2.1c-0.5-0.2-1.1-0.3-1.6,0c-0.4,0.2-0.8,0.4-1.1,0.7c-5.3,3.7-10.5,7.5-15.7,11.3
			C107,66.6,106.8,66.8,106.7,66.9 M115.1,53.8c-1.8,1.7-3.6,3.3-5.2,5.1c-2,2.2-3.9,4.5-6.3,6.4c-0.8,0.6-1.5,1.3-1.9,2.3
			c-0.1,0.3-0.1,0.6,0.2,0.9c0.3,0.2,0.6,0.3,0.9,0.1c0.4-0.3,0.7-0.6,1-0.9c4.4-3.6,7.8-8.1,12-11.9c0.4-0.3,0.5-0.9,0.8-1.3
			c-0.2-0.3-0.2-0.6-0.4-0.7C115.9,53.4,115.4,53.5,115.1,53.8 M91.9,61.1c-2.5-3.5-5.1-6.9-7.5-10.4c-1.2-1.7-2.3-3.5-3.5-5.2
			c-0.3-0.5-1.1-0.5-1.5-0.2c-0.4,0.3-0.4,0.8-0.2,1.2c0.8,1.3,1.8,2.5,2.6,3.8c2.7,4.7,6.3,8.8,9.5,13.1c0.4,0.6,1,1.2,1.8,1.4
			c0.2,0,0.4-0.1,0.6-0.2c0-0.2,0.1-0.5,0-0.6C93.1,63,92.5,62,91.9,61.1 M100.9,64.5c0.5,0,0.6-0.3,0.6-0.6
			c0.3-2.9,0.9-5.8,0.9-8.7c0-2.6,0.6-4.9,1.3-7.3c0.3-0.9,0.6-1.9,0.9-2.8c0.3-1.5,0.6-3,0.8-4.5c0.1-0.5-0.3-0.8-0.8-0.9
			c-0.5-0.1-0.8,0.2-1,0.6c-0.1,0.2-0.2,0.4-0.2,0.6c-0.6,2.7-1.3,5.5-1.9,8.2c-0.9,4-0.7,8.2-1.6,12.1c0.1,1,0.2,1.8,0.4,2.7
			C100.3,64.3,100.6,64.4,100.9,64.5 M107.9,47.8c-1.3,3-2.4,6-3.7,9.1c-0.3,0.8-0.7,1.6-0.2,2.5c0.1,0.3,0.4,0.5,0.7,0.6
			c0,0,0.3-0.2,0.4-0.4c0.8-1.9,1.3-3.9,2.2-5.8c1.3-2.9,2.6-5.8,3.6-8.7c1.2-3.6,2.5-7.2,4-10.7c0.3-0.6,0.4-1.2,0.5-1.4
			c0.1-0.8-0.7-1.2-1-1c-0.3,0.2-0.7,0.3-0.8,0.6c-1.1,2.5-2.1,5-3.1,7.5S109,45.3,107.9,47.8 M82.8,41.4c1.3,2.8,2.7,5.5,4.1,8.2
			c0.5,1,1,1.9,1.5,2.9c0.8,1.8,1.8,3.5,2.8,5.2c0.2,0.4,0.9,0.6,1.1,0.3c0.2-0.2,0.3-0.6,0.3-0.9c0-0.2-0.1-0.4-0.2-0.6
			c-1.5-3-3-6.1-4.7-9c-1.5-2.7-2.9-5.4-4-8.3c-0.7-1.7-1.4-3.4-2.2-5.1c-0.5-1.1-1.1-2.1-1.7-3.2c-0.2-0.4-0.5-0.7-1.2-0.7
			c-0.4,0-0.7,0.3-0.9,0.7c-0.3,0.7-0.1,1.3,0.3,1.9C80.2,35.4,81.4,38.5,82.8,41.4 M55.6,57.4c0.2,0.1,0.4,0.1,0.6,0.2
			c5.8,2.6,11.9,4.2,18,5.8c2.6,0.7,5.1,1.7,7.5,1.6c1.2,0.1,1.9,0.5,2.7,0.1c0.2-0.1,0.4-0.3,0.4-0.5c0-0.2-0.1-0.5-0.2-0.5
			c-1.3-0.7-2.7-1-4.2-1.1c-1.3,0-2.5-0.3-3.6-0.6c-2.1-0.7-4.3-1.4-6.5-2c-3.6-1-7.2-1.9-10.6-3.5c-1.1-0.5-2.3-1-3.4-1.4
			c-0.6-0.2-1.3-0.4-1.9,0.1C54,56.1,54.7,57,55.6,57.4 M139.6,56.2c0-0.3-0.3-0.6-0.6-0.7c-0.7-0.4-1.3-0.1-1.9,0.2
			c-1.9,0.7-3.7,1.6-5.7,2.1c-3.6,1-7,2.4-10.3,4.2c-1.6,0.8-3.1,1.8-4.8,2.5c-1.5,0.6-2.6,1.6-4,2.5c-0.2,0.1-0.3,0.4-0.3,0.5
			c0,0.3,0.2,0.6,0.3,0.8c0.7,0.2,1.2,0,1.7-0.3c2.1-1.2,4.3-2.4,6.4-3.6c4-2.1,8.2-3.6,12.5-4.9c2.1-0.7,4.2-1.6,6.3-2.4
			C139.5,56.9,139.7,56.5,139.6,56.2"/>
		<g class="st3">
			<path class="st0" d="M83.9,102.2c0.1,0.8,0.1,1.6,0,2.4c0,0.2-0.1,0.4-0.3,0.4c-0.3,0.1-0.8,0.1-1.2,0.1c-0.5,0-1.1,0-1.6-0.1
				c0,0.6,0,1.1,0,1.7c0,0.2,0.1,0.4,0.1,0.6c0,0.1,0,0.3,0,0.4c-0.1,0.2-0.2,0.3-0.4,0.3c-0.8,0.1-1.6,0.1-2.4,0
				c-0.2,0-0.3-0.1-0.4-0.3c-0.1-0.3-0.1-0.8-0.1-1.2c0-0.6,0.1-1.1,0.1-1.7c-0.6,0-1.1,0-1.7,0c0,0.6,0,1.2,0.1,1.9
				c0,0.2,0,0.4,0.1,0.6c0,0.1,0,0.3,0,0.4c-0.1,0.2-0.2,0.3-0.4,0.3c-0.8,0.1-1.6,0.1-2.4,0c-0.2,0-0.4-0.1-0.4-0.3
				c-0.1-0.3-0.1-0.8-0.1-1.2c0-0.6,0-1.1,0.1-1.7c-0.6,0-1,0-1.3,0c-0.3,0-0.6,0-1,0c-0.2,0-0.3,0-0.5-0.1c-0.1,0-0.2-0.1-0.3-0.3
				c0-0.1,0-0.3-0.1-0.4c0-0.6,0-1.2,0-1.8c0-0.4,0.2-0.5,0.5-0.5c0.3,0,1.5,0,2.8,0c0-0.6,0-1.1,0-1.7c0,0,0,0,0,0
				c-0.7,0-1.2,0-1.5,0c-0.3,0-0.6,0-1,0c-0.2,0-0.3,0-0.5-0.1c-0.1,0-0.2-0.1-0.3-0.3c0-0.1,0-0.2-0.1-0.3c0-0.6,0-1.2,0-1.8
				c0-0.4,0.2-0.5,0.5-0.5c0.3,0,1.5,0,2.7,0c0-0.5,0-1,0-1.2c0-0.3,0-0.6,0-1c0-0.1,0.1-0.3,0.1-0.5c0-0.1,0.2-0.2,0.4-0.3
				c0.1,0,0.2,0,0.3,0c0.6-0.1,1.2,0,1.8,0c0.4,0,0.5,0.2,0.5,0.4c0,0.3,0,1.3,0,2.5c0.4,0,0.7,0,1,0c0.2,0,0.5,0,0.7,0
				c0-0.6,0-1,0-1.3c0-0.3,0-0.6,0-1c0-0.1,0-0.3,0.1-0.5c0-0.1,0.1-0.2,0.3-0.3c0.1,0,0.2,0,0.3,0c0.6-0.1,1.2,0,1.8,0
				c0.4,0,0.5,0.2,0.5,0.4c0,0.3,0,1.4,0,2.7c0.5,0,1,0,1.7,0c0.2,0,0.4-0.1,0.6-0.1c0.1,0,0.3,0,0.4,0c0.2,0.1,0.3,0.2,0.3,0.4
				c0.1,0.8,0.1,1.6,0,2.4c0,0.2-0.1,0.3-0.3,0.4c-0.3,0.1-0.8,0.1-1.2,0.1c-0.5,0-1-0.1-1.4-0.1c0,0.4,0,0.8,0,1c0,0.1,0,0.4,0,0.6
				c0.5,0,1,0,1.7-0.1c0.2,0,0.4,0,0.6-0.1c0.1,0,0.3,0,0.4,0C83.8,101.9,83.8,102,83.9,102.2z M77.9,101.8c0-0.6,0-1.1,0-1.7
				c0,0,0,0,0,0c-0.6,0-1.1,0-1.7,0c0,0.5,0,0.9,0,1.2c0,0.1,0,0.3,0,0.5c0.4,0,0.7,0,1,0C77.3,101.8,77.6,101.8,77.9,101.8z"/>
			<path id="_x31__1_" class="st0" d="M107.4,116.4c-0.1,0.7,0,12.1-0.2,13.9c-0.1,0.5-0.1,2.8-0.1,3.3c-0.2,1.7-0.1,3.3-0.1,5
				c0,0.7-0.1,1.3-0.2,2c-0.1,0.4-0.3,0.7-0.6,0.7c-2.4,0.7-4.8,0.8-7.2,0.1c-1.1-0.3-1.4-0.9-1.1-2.1c0.2-0.7,0.3-1.3,0.3-2.1
				c0.1-2.5,0.3-4.9,0.5-7.4c0.1-1.5,0.2-3,0.3-4.5c0.1-1.3,0.1-10.8,0.1-11.6c0-1.3,0-2.5,0.1-3.8c0-0.5,0-1.1,0.1-1.6
				c0-0.3,0-0.6-0.1-0.9c0-0.2-0.1-0.4-0.3-0.5c-0.3-0.1-0.5,0-0.6,0.2c-0.6,0.7-1.4,1.3-2.1,2c-1,1-1.7,1.2-3.1,0.1
				c-0.9-0.6-1.7-1.3-2.5-2c-0.5-0.5-0.8-1.1-0.9-1.7c-0.1-0.8-0.1-1.6,0.4-2.3c0.1-0.2,1.9-2.1,2.5-3c1.5-2.1,2.9-4.2,4.6-6.2
				c0.5-0.6,2.2-3.3,2.7-3.4c1.1-0.1,2.1-0.1,3.1,0c1.1,0.1,2.2,0.3,3.3,0.5c0.8,0.1,1,0.3,1.1,1.2c0.1,0.8,0.1,1.6,0.1,2.4
				c0,0.2,0,0.5,0,0.7h0.1C107.6,96.4,107.5,115.4,107.4,116.4z"/>
		</g>
	</g>
</g>
<g id="sports_guide">
	<g id="animation_copy" class="st1">
	</g>
</g>
<g id="info">
	<g id="animation_copy_3" class="st1">
	</g>
</g>
<g id="visitor">
	<g id="decoative">
	</g>
	<g id="animation_2_" class="st1">
	</g>
</g>
<g id="schedules">
	<g id="animation_1_" class="st1">
	</g>
</g>
<g id="scoring">
	<g id="animation" class="st1">
	</g>
</g>
</svg>
