<?xml version="1.0" encoding="utf-8"?>
<!-- Generator: Adobe Illustrator 23.0.1, SVG Export Plug-In . SVG Version: 6.00 Build 0)  -->
<svg version="1.1" xmlns="http://www.w3.org/2000/svg" xmlns:xlink="http://www.w3.org/1999/xlink" x="0px" y="0px"
	 viewBox="0 0 192.5 213.4" style="enable-background:new 0 0 192.5 213.4;" xml:space="preserve">
<style type="text/css">
	.st0{fill:#00ABC8;}
	.st1{display:none;}
	.st2{display:inline;fill:#00ABC8;}
	.st3{display:inline;}
	.st4{fill-rule:evenodd;clip-rule:evenodd;fill:#00ABC8;}
	.st5{display:inline;fill-rule:evenodd;clip-rule:evenodd;fill:#00ABC8;}
	.st6{display:inline;fill:none;stroke:#00ABC8;stroke-miterlimit:10;}
</style>
<g id="results">
	<g id="animation_copy_2" class="st1">
	</g>
</g>
<g id="sports_guide">
	<g id="animation_copy" class="st1">
	</g>
</g>
<g id="info">
	<path id="box" class="st0" d="M184.6,10.3c0-1.4,0.2-3.1-1.8-3.3c-1.2-0.1-2.3,0.4-2.8,1.6c-1.3,3.6-4.1,6-7.5,6.9
		c-12.1,3-24.1,6.5-36.7,7.3c-12.8,0.8-25.6,0.3-38.4,1.6c-22.1,2.3-44.1,1.1-65.7-4.6c-7.4-2-14-5.5-21.2-7.8
		c-1.4-0.5-2.6-1.4-3.8,0.2c-0.9,1.3-1.5,2.6,0.2,3.7c2.7,1.9,2.7,5,3.6,7.7c3.9,13.1,6.7,26.3,8.9,39.9c3,19,3.3,38.2,4.3,57.3
		c0.5,9-1.8,17.9-2,27c-0.4,14.2-2.1,28.4-4.2,42.5c-1.1,6.9-1.4,14-11.7,15.8c2.5,1.5,3,2.1,3.4,2.1c3.5-0.3,7-0.5,10.4-1.2
		c24.3-5.1,48.6-7.9,73.5-6.9c24.1,1,48.3,0,72.3,3.8c4.4,0.7,8.3,2.5,12.6,3.2c1.6,0.2,3.6,1.2,4.3-1.3c0.5-1.7-0.9-2.6-2.1-3.4
		c-2.4-1.5-5.5-2-6-5.6c-2-14.6-6.4-28.9-6.8-43.8c-0.3-10.1-0.6-20.2-0.5-30.4c0.2-30.4,2.8-60.4,9.8-90c1.4-6,1.5-12.8,6.8-17.4
		C185,14,184.6,12,184.6,10.3z M170.3,197.9c-3.1,2.3-6.4,0.9-9.4,0.4c-18.2-3.3-36.6-2.3-54.9-2.8c-15.1-0.4-30.2-2-45.3,0.6
		c-9.7,1.7-19.5,2.9-29.3,4.4c-0.3,0-0.5,0.2-0.8,0.3c-9.3,2.1-10.4,1-9.1-8.7c4.6-35.3,7.2-70.7,4.9-106.2
		c-1.2-18.4-3.4-37-9.6-54.8c-1-2.9-2.6-5.9-1.2-9.3c2.3-1.5,4.7-0.2,6.6,0.5c24,8.9,49,7.9,74,7.5c15.1-0.2,30.2-1.2,45.2-2.6
		c9.7-0.9,19.3-4,28.9-6.1c1.1-0.2,2.2-0.8,4.2,0.5C162.4,79.7,156.8,138.6,170.3,197.9z"/>
	<path id="question_dot" class="st0" d="M85.8,155.6c-1.7,0.9-3.3,2-4.8,3.4c-1.4,1.3-2.7,2.9-3.7,4.6c-1,1.8-1.6,3.5-1.7,5
		c-0.2,2.4,0.9,4.5,3.4,6.2c2.3,1.5,4.8,2.3,7.5,2.3c1.8,0,3.6-0.5,5.1-1.5c1.5-1,2.8-2.2,3.9-3.7c1.1-1.4,2-3,2.6-4.6
		c0.7-1.6,1-3.1,1.1-4.4c0.2-2.7-0.5-4.9-2.1-6.4C94.4,154,90.4,153.2,85.8,155.6z"/>
	<path id="question_mark" class="st0" d="M131.5,55.3c-4.7-3.7-11.7-5.5-20.8-5.5c-6.5,0-12.3,0.7-17.3,2.2c-5,1.4-9.5,3.3-13.2,5.5
		c-3.7,2.2-6.9,4.8-9.5,7.7c-2.6,2.8-4.7,5.7-6.3,8.5c-1.6,2.8-2.8,5.5-3.5,8.1c-0.7,2.6-1.1,4.6-1.1,6.2c0,5.5,0.9,10,2.6,13.2
		c1.7,3.3,3.7,5.7,5.9,7.1c2.2,1.5,4.4,2.2,6.3,2c3.3-0.3,3.6-2.3,3.6-3.1c0-0.8-0.2-1.6-0.7-2.2c-0.2-0.3-0.5-0.8-0.8-1.3
		c-0.3-0.5-0.6-1.3-0.8-2.2c-0.2-0.9-0.4-2.3-0.4-4c0-3.5,0.8-7.6,2.4-12.1c1.6-4.5,3.9-8.9,7-12.9c3-4,6.8-7.4,11.2-10.2
		c4.3-2.7,9.3-4.1,14.9-4.1c1.4,0,2.7,0.3,3.9,0.9c1.3,0.6,2.4,1.5,3.4,2.5c1,1.1,1.8,2.3,2.4,3.6c0.6,1.3,0.9,2.6,0.9,3.9
		c0,4.4-1,8.7-3,12.9c-2,4.3-4.6,8.4-7.6,12.3c-3.1,3.9-6.5,7.7-10,11.3c-3.6,3.6-7,6.9-10.1,10c-3.1,3.1-5.8,5.8-7.9,8.3
		c-2.3,2.7-3.4,5-3.4,7c0,1.5,0.3,2.9,0.9,4.3c0.6,1.3,1.3,2.5,2.1,3.5c0.8,1,1.8,1.8,2.9,2.5c1.2,0.7,2.3,1,3.4,1
		c1.1,0,2.6-0.5,3.6-2.8c0.9-2.2,2.6-4.8,5.2-7.7c2.7-3,5.8-6.4,9.2-9.9c3.4-3.6,7-7.3,10.8-11.3c3.8-4,7.3-8.1,10.4-12.3
		c3.2-4.2,5.8-8.6,7.9-12.9c2.1-4.5,3.1-8.9,3.1-13.3C138.8,64.7,136.3,59.1,131.5,55.3z"/>
	<g id="animation_copy_3" class="st1">
		<path id="Exclamation" class="st2" d="M102.5,184.7c-5,1.5-9.8,0.8-13.8-2.7c-3.5-2.7-4.8-6.9-4.2-11.1c0.8-5.2,6.3-9.4,11.5-9.2
			c1.5,0,5,0.6,6.3,1.2c3.8,2.1,5.2,4,5.8,8.2c1,5.2-1.2,10.7-4.4,13C103.2,184.3,102.8,184.5,102.5,184.7z M106.3,77.9
			c0,0.4,0.8,11.3,0.6,16.5c-0.2,10.7-0.4,51.6-0.4,57.5c0,2.1-0.8,3.5-3.5,3.8c-4,0.6-8.1,0.8-12.1,0.4c-0.8,0-1.5-0.2-2.3-0.4
			c-1.2-0.2-2.1-1-2.3-2.3c-0.2-1.5-0.4-2.9-0.4-4.2c-0.2-2.9,0-5.6,0-8.2c-0.2-5.9,0-30.9,0.2-36.4c0-5.4,0.2-10.9,0-16.3
			c-0.2-4-0.4-7.9-0.4-11.9c-0.4-8.6-0.6-17.5-1-26.1c-0.2-3.5,0-7.3,0.6-10.2c0.2-1.5,1-2.3,2.5-2.7c5.4-0.8,10.9-1,16.3,0
			c1.5,0.2,2.3,1,2.9,2.3c0.4,1.3,0.6,2.5,0.2,3.8c-0.2,1.5-0.6,3.1-0.8,4.6C105.9,59.7,105.9,67,106.3,77.9z"/>
	</g>
</g>
<g id="visitor">
	<g id="decoative">
	</g>
	<g id="animation_2_" class="st1">
	</g>
</g>
<g id="schedules">
	<g id="animation_1_" class="st1">
	</g>
</g>
<g id="scoring">
	<g id="animation" class="st1">
	</g>
</g>
</svg>
