<?xml version="1.0" encoding="utf-8"?>
<!-- Generator: Adobe Illustrator 23.0.1, SVG Export Plug-In . SVG Version: 6.00 Build 0)  -->
<svg version="1.1" xmlns="http://www.w3.org/2000/svg" xmlns:xlink="http://www.w3.org/1999/xlink" x="0px" y="0px"
	 viewBox="0 0 196.5 203.5" style="enable-background:new 0 0 196.5 203.5;" xml:space="preserve">
<style type="text/css">
	.st0{fill:#00ABC8;}
	.st1{display:none;}
	.st2{display:inline;fill:#00ABC8;}
	.st3{display:inline;}
	.st4{fill-rule:evenodd;clip-rule:evenodd;fill:#00ABC8;}
	.st5{display:inline;fill-rule:evenodd;clip-rule:evenodd;fill:#00ABC8;}
	.st6{display:inline;fill:none;stroke:#00ABC8;stroke-miterlimit:10;}
</style>
<g id="results">
	<g id="animation_copy_2" class="st1">
	</g>
</g>
<g id="sports_guide">
	<g id="animation_copy" class="st1">
	</g>
</g>
<g id="info">
	<g id="animation_copy_3" class="st1">
	</g>
</g>
<g id="visitor">
	<g id="decoative">
	</g>
	<g id="animation_2_" class="st1">
	</g>
</g>
<g id="schedules">
	<path id="outside_watch" class="st0" d="M186.5,54.8c-2.4-4.4-4.7-8.9-7-13.4c-0.8-1.5-1.3-3.1-2.2-4.6c-1.1-1.8-2.2-1.8-3.8-0.5
		c-1.5,1.2-2.9,2.5-4.4,3.7c-2.4,2-4.9,3.9-8.3,2.4c-0.8,3-0.6,3.7,2.4,7.3c-1.3,0.8-2.6,1.6-4,2.4c-2-1.5-3.8-2.9-5.6-4.3
		c-6.2-4.8-12.2-9.8-18.5-14.4c-4.2-3-8.7-5.7-14-6.3c-7.1-0.8-14.1-1.9-21.2-1.5c-0.7,0-1.5,0.2-2.1,0c-0.7-0.2-1.2-0.9-1.8-1.3
		c0.6-0.5,1.1-1.2,1.7-1.3c1.2-0.2,2.4,0,3.6-0.1c1.2-0.1,2.4-0.3,2.4-2.3c-3-1-2.8-3.5-2.7-6.1c0.1-1.9,0-3.8-0.1-5.8
		c-0.1-2.9-0.5-3.3-3.5-3.3c-5.1,0.1-10.1,0.3-15.2,0.4c-3.2,0.1-6.5,0-9.7-0.1c-2.6-0.1-3,0.1-3,2.6c-0.1,3.6,0,7.2-0.1,10.8
		c-0.1,4.7-0.1,4.7,4.5,3.4c0.1,0,0.2-0.1,0.3-0.1c1.9-0.5,2.7,0,3.1,1.9c0.3,1.5,0.3,3.1,0.5,5c-1.3,0.3-2.3,0.5-3.2,0.7
		c-6.1,1.3-12.3,2-18.1,4.7C46.2,39.5,36.6,45.2,30,54.9c-0.5,0.7-1,1.3-1.6,2c-7.5,9.6-12.9,20.3-15.5,32.2
		c-1.4,6.3-2.2,12.6-2.1,19c0.1,4.2,0.4,8.4,0.9,12.6c0.3,3.1,1.2,6.1,1.6,9.2c0.7,5.8,2,11.4,4.6,16.6c3.4,7,8,13.1,13.3,18.7
		c7.8,8.3,17,14.9,26.3,21.4c4.9,3.4,10.5,5.3,16.5,5.9c6.6,0.7,13.1,1.5,19.7,1.8c5.6,0.2,11.4,0.5,16.9-1.1
		c7.1-2.2,14.4-3.6,21.3-6.4c11.2-4.6,21.3-10.6,29.4-19.7c5.9-6.7,11-14,13.4-22.8c1.5-5.7,3.6-11.2,5.3-16.9
		c0.6-2.1,1.2-4.2,1.2-6.4c-0.1-11,1-22.1-1.3-33.1c-1.9-9.2-3.6-18.4-8.8-26.6c-0.2-0.4-0.3-0.8-0.5-1.2c0.1-0.1,0.2-0.2,0.3-0.2
		c1.2,1.3,2.4,2.7,3.7,4.1c1.1-0.7,1.8-1.4,2.7-1.7c1-0.4,2.1-0.4,3.2-0.7c1.4-0.4,2.8-0.7,4.2-1.2C187.9,59.3,188.3,58,186.5,54.8z
		 M72.7,16.3c-0.2-1.3-0.3-2.6-0.4-3.9c-0.1-2.6,0.4-3,3.6-3c0.2,3.2,0.4,6.1,0.6,9C73.3,19.3,73,19.1,72.7,16.3z M165.1,52.2
		c1.3,1.6,2.4,2.8,3.7,4.3c-3.3,2-6.2,3.8-9.2,5.7c-0.8-0.8-1.4-1.5-2.4-2.5C160,57.1,162.4,54.8,165.1,52.2z M170.2,66.5
		c-3.3,0.3-5.8,0.5-8.3-0.6c0.5-2.4,2.4-3.3,4.2-4.2c0.4-0.2,1.5,0.1,1.8,0.5C168.7,63.5,169.2,64.8,170.2,66.5z M153.4,53.9
		c0.5,0.5,1.1,1,1.6,1.5c-0.2,0.2-0.3,0.4-0.5,0.7c-0.6-0.4-1.2-0.9-1.7-1.3C152.9,54.5,153.2,54.2,153.4,53.9z M148.8,50.1
		c1,0.2,2,0.3,3,0.5c0,0.4-0.1,0.7-0.1,1.1c-1-0.2-2-0.5-3-0.7C148.7,50.7,148.7,50.4,148.8,50.1z M127,31.9
		c-1.6,1.1-3.7,1.2-11.1,0C119.5,31.9,123.2,31.9,127,31.9z M132.8,35.5c0,0.3,0,0.7,0,1.1c-2.5-0.2-5-0.4-7.4-0.6
		c0-0.1,0-0.3,0-0.4C127.9,35.5,130.4,35.5,132.8,35.5z M115.9,29.2c-5.3,0.8-10.5,1.4-15.6-0.9C105.5,28.6,110.7,28.9,115.9,29.2z
		 M78.8,9.6c1-0.3,1.9-0.5,2.9-0.7c1,3-1.2,6.2,0.9,9.6c0.5-1.2,0.9-1.7,1-2.3c0.3-1.5,0.5-3.1,0.8-4.6c0.5-2.6,0.9-3,3.6-3.1
		c1.2-0.1,2.4,0,3.8,0c0,2.9-1.5,5.9,0.6,8.7c1.7-1.1,1.1-2.8,1.4-4.1c0.3-1.4,0.5-2.8,0.7-4.2c2.9-0.4,3.2-0.2,3.4,2
		c0.2,2.2,0.3,4.3,0.3,6.5c0,1.1-0.5,2.6-1.7,2.2c-2.4-0.8-4.6-0.1-7.3,0.3c0-3.5,0-6.6,0-9.7c-0.3,0-0.6-0.1-0.9-0.1
		c-2.4,2.4-1,5.7-1.9,8.6c-2.3,1.1-4.6,0.5-7,0.3C78.1,15.8,78.5,12.8,78.8,9.6z M91,27.1c-2.3,0.9-4.3,2.3-7.1,2.1
		c-3-0.3-3.6-0.6-3.8-3.5c-0.1-0.9,0.1-1.9,0.2-3.3c3.7-0.4,7-0.3,10.3,0.3c1.1,0.2,2,0.8,2.1,2.1C92.8,26.1,92.1,26.6,91,27.1z
		 M115,187.2c-0.4-0.1-0.7-0.3-1.3-0.6c0.5-0.3,0.9-0.7,1-0.6c0.3,0.2,0.5,0.6,0.8,0.9C115.3,186.9,115.1,187.2,115,187.2z
		 M113.6,183c-10.1,5.2-21.2,5.9-32.3,6.8c-9.7,0.7-18.1-2.1-25.9-7.9c-8.9-6.6-17.6-13.4-25-21.8c-7.7-8.8-13.2-18.6-14.3-30.5
		c-0.2-2.6-1.1-5.2-1.5-7.8c-0.7-4.6-1.2-9.3-1.8-13.9c0.2-18.1,6.4-34,17-48.4c2.3-3.1,4.7-6.1,7.5-8.8c2.5-2.4,5.2-4.6,8.1-6.5
		c10.1-6.7,21.2-10.8,33.4-11.3c4.2-0.2,8.4-0.4,12.6-0.9c4.5-0.5,8.9,0,13.2,1c13.5,3.2,26,8.8,37.3,16.8
		c6.7,4.7,12.4,10.7,16.8,17.7c5.2,8.2,9,17,11.5,26.4c2.8,10.8,2.7,21.7-0.1,32.5c-1.5,5.7-3.2,11.4-5.5,16.8
		c-4.2,9.5-10.8,17.2-19.1,23.6c-8.7,6.8-18.2,11.6-28.6,15C115.9,182.1,114.7,182.4,113.6,183z M153.6,165.5
		c-0.6,0.3-1.1,0.5-1.7,0.8c-0.1-0.2-0.2-0.4-0.4-0.5c0.5-0.4,1-0.7,1.6-1.1C153.3,165,153.5,165.2,153.6,165.5z M120,184.5
		c0-0.2-0.1-0.4-0.1-0.5c0.5-0.1,1-0.3,1.5-0.4c0,0.2,0.1,0.4,0.1,0.6C121.1,184.2,120.5,184.3,120,184.5z M126.1,182.1
		c3.5-0.8,6.8-1.6,10-2.4C130.2,182.5,127.9,183,126.1,182.1z M140,179.4c0,0-0.1-0.3-0.2-0.4c0.5-0.2,1-0.4,1.6-0.6
		c0.1,0.2,0.1,0.4,0.2,0.6C141,179.2,140.5,179.3,140,179.4z M150.8,169.4c-0.1,0-0.1,0-0.2,0.1c0,0-0.1,0-0.1,0
		c-1.5,1.9-3.8,2-6.3,2.8c1.7-1.8,2.1-2,6.3-2.8c0,0,0,0,0.1-0.1C150.7,169.5,150.8,169.4,150.8,169.4c0.9-0.4,1.8-0.8,2.8-1.2
		c0.1,0.3,0.1,0.5,0.2,0.8C152.8,169.1,151.8,169.3,150.8,169.4z M156.3,161.9c1.6-2.9,2.9-3.6,8.4-5c0.1,0.3,0.3,0.5,0.4,0.8
		C162.3,159,159.5,160.4,156.3,161.9z M161.9,154.2c1.9-1.9,4-2.4,6.1-2.8C166.4,153.2,166.4,153.2,161.9,154.2z M169.7,147.6
		c-0.1,0-0.2,0-0.3-0.1c-0.1-0.1-0.2-0.1-0.3-0.2l0,0c0.1-0.1,0.3-0.3,0.4-0.4c0,0,0.1,0,0.1,0c0.2,0.1,0.4,0.3,0.7,0.5
		C170.1,147.4,169.9,147.6,169.7,147.6z M168.6,143.8c2.3-1.5,2.3-1.5,3.5-0.3C171,143.6,170,143.7,168.6,143.8z M171.6,139
		c0-0.2-0.1-0.4-0.1-0.6c0.5-0.1,1-0.2,1.5-0.3c0,0.2,0.1,0.4,0.1,0.6C172.6,138.8,172.1,138.9,171.6,139z M174.7,122.8
		c-0.2-0.2-0.3-0.4-0.5-0.6c0.7-0.6,1.3-1.1,2-1.7c0.2,0.3,0.5,0.6,0.7,0.9C176.2,121.8,175.4,122.3,174.7,122.8z M175.3,116.8
		c-0.4-4.8-0.3-5.1,2.2-5.7C178.6,115.7,178.2,116.9,175.3,116.8z M175.9,106.9c0.6-0.1,1.2-0.2,1.8-0.2c0.1,0.2,0.1,0.4,0.2,0.6
		c-0.6,0.2-1.2,0.3-1.8,0.5C176,107.5,175.9,107.2,175.9,106.9z M177.7,103.7c-0.8-0.3-1.6-0.5-2.7-0.9c0.6-0.4,1-0.8,1.1-0.8
		c0.7,0.3,1.3,0.7,1.9,1C177.9,103.2,177.8,103.5,177.7,103.7z M177.6,98.8c-0.8-0.2-1.5-0.3-2.3-0.5c0-0.2,0.1-0.5,0.1-0.7
		c0.8,0.1,1.6,0.1,2.3,0.2C177.7,98.1,177.6,98.4,177.6,98.8z M173.5,94.1c1.7-1,1.7-1,4,0.2C175.9,94.2,174.9,94.2,173.5,94.1z
		 M171.8,89.2c2.6-2,3.3-1.8,5,1.1C174.8,89.9,173.5,89.6,171.8,89.2z M173.7,84.6c-1.3-0.2-3.3,0.8-3.5-2.5c2,0.2,3.7,0.4,5.3,0.6
		C176,84.9,174.7,84.8,173.7,84.6z M174.2,79.7c-1.7-0.3-3.5-0.6-5.2-0.8c0-0.3,0.1-0.6,0.1-1C171,77.6,172.9,77.3,174.2,79.7z
		 M172.4,75.2c-1.8-0.3-3.7-0.5-5.5-0.8c0-0.3,0.1-0.6,0.1-0.9c1.8,0.3,3.7,0.6,5.5,0.9C172.5,74.8,172.5,75,172.4,75.2z
		 M170.5,69.1c1.3,0,1.5,0.9,1.4,2.2c-2.6,0.1-5.2,0.1-7.5-0.9c0.1-0.4,0.1-0.9,0.2-1.3C166.5,69.1,168.5,69.1,170.5,69.1z
		 M176.6,59.6c-2.3,0.2-3.2-1.7-4-3.7c1.5-1.2,2.8-2.3,4.6-3.8c-2.9-1.3-4.6,0.4-6.7,1.1c-2.1-1.8-3.7-4.1-4.9-7
		c3.3-2.4,6.2-4.5,9.4-6.9c0.7,1.1,1.4,2,2.3,3.5c-3.5,1.4-6.5,2.7-9.7,4c1,1.8,1.8,3.2,2.7,4.7c2.9-0.1,5.2-1.9,7.5-3.6
		c0.4-0.3,0.1-1.6,0.1-3.1c1.2,2.3,2.2,4.3,3.3,6.2c1,1.9,2.1,3.7,3.3,5.7C181.9,58.6,179.3,59.4,176.6,59.6z"/>
	<path id="inside_watch" class="st0" d="M123.7,80.4c-4.8-3.9-10.4-5.9-16.1-7.9c-5.6-2-11.3-2.4-17.1-2.1
		c-7.7,0.4-14.5,3.7-20.7,7.8c-12.6,8.2-19.1,21.8-16.7,37.3c2.3,14.9,16.5,28.1,28.8,30.1c5.8,0.9,11.7,1.6,17.5,2.4
		c0-0.2,0-0.3,0.1-0.5c2-0.1,4.1-0.4,6.1-0.3c2.7,0.1,5.3-0.5,7.6-1.9c6.2-3.9,11.5-8.8,14.5-15.6c1.5-3.4,2.4-7.1,3.9-10.5
		c4.1-9.7,3.2-19.3-0.3-28.9C129.9,86.2,127.1,83.1,123.7,80.4z M128.6,119.3c-1.1,2.3-1.7,4.8-2.5,7.1c-2.5,7.1-7.4,11.8-14.3,14.9
		c-7.7,3.5-15.6,3.4-23.7,2.2c-4.8-0.7-9.5-1.7-13.7-4.2c-10.5-6.4-17.7-15.3-18.7-27.9c-0.6-7.6,1-14.9,5.8-21.1
		c1.9-2.4,4-4.8,6.1-7c1.2-1.3,2.7-2,4.2-1.1c4.9-5.1,10.8-7.9,17.4-8.4c13.6-1.1,25.7,2.8,35.7,12.2c1.8,1.7,3.1,4,4,6.3
		C132.2,101.3,132.9,110.3,128.6,119.3z"/>
	<path id="outside_watch_1_" class="st0" d="M154,83.1c-1.2-2.2-2.4-4.5-3.8-6.5c-4.3-5.9-7.9-12.4-14-16.8c-1.7-1.2-3.3-2.4-5-3.6
		c-8.3-5.8-16.9-10.9-27-13.4c-13-3.2-25.8-2-38.5,1.5c-4.1,1.1-8.1,2.2-11.6,4.8c-7.7,5.7-14.8,11.9-19.7,20.4
		c-3.7,6.4-7.5,12.7-9.5,19.8c-1.1,3.8-1.7,7.8-2.4,11.7c-1.2,6.8-1.8,13.5-0.6,20.4c1.8,10.9,5.3,21.2,10.6,30.9
		c0.9,1.6,1.8,3.2,3.1,4.4c4.7,5,9.5,9.9,14.4,14.6c7.8,7.5,17.4,11.3,27.9,13.1c2.2,0.4,4.6,0.1,6.4,0.1c6,0.8,11.3-0.4,16.3-2.7
		c5.7-2.6,11.2-5.5,16.8-8.4c2.4-1.2,4.8-2.4,6.9-4c8.4-6.6,17-13,24-21.2c0.4-0.5,0.7-1.2,1-1.9c0.6-1.4,1.2-2.9,1.9-4.3
		c3.5-6.7,6.9-13.5,8.1-21.1C161.3,107.8,160.5,95.1,154,83.1z M142.4,111.1c1.1,0.3,2.3,0.4,3.5,0.4c3.7,0,7.4,0,11.1,0
		c1.7,8.1-5.2,25.8-11.3,33.2c-2.7-0.2-4.1-3.7-7.4-3.2c0.1,3.7,3.9,3.9,5.5,6.4c-0.9,2.2-2.5,3.9-4.3,5.5
		c-5.1,4.3-10.3,8.6-15.5,12.8c0.2-1.1,0.2-2.3,0.3-3.4c0,0-0.1,0-0.1,0c-0.1-1.4-0.1-2.9-0.3-4.3c-0.2-1.3-2.1-2.5-3.5-2.2
		c-1.4,0.3-2,1.5-1.7,2.7c0.7,2.8,1.6,5.5,2.5,8.2c0.1,0.2,0.4,0.5,0.8,0.7c-1.2,0.9-2.6,1.8-3.9,2.5c-5.9,3-11.8,6-17.8,8.9
		c-1.5,0.7-3.1,1.2-4.8,1.6c-3.8,0.9-4.8,0.2-5.1-3.7c-0.3-3.5-0.5-7-0.7-10.4c-0.1-1.4-0.1-2.9-1.6-3.8c-1.6,0.4-1.7,1.7-1.6,2.9
		c0.1,2.6,0.3,5.3,0.3,7.9c0.1,2.5,0,5,0,7.4c-9.1,1.7-27.6-3.6-33.3-11.6c2-3,4.8-5.3,7.5-7.6c0.8-0.7,1.7-1.4,2.3-2.3
		c0.2-0.3,0-1.2-0.2-1.6c-0.2-0.3-0.9-0.4-1.3-0.3c-0.8,0.3-1.5,0.8-2.1,1.3c-1.7,1.3-3.3,2.9-5.1,4.1c-1.4,0.9-3,1.3-4.5,2
		c-1.2,0.6-2.1,0.3-2.9-0.6c-4.1-4.8-9.2-8.9-12.2-14.6c-0.2-0.3-0.2-0.7-0.3-1.3c3.3-2.3,6.6-4.6,9.9-7c1.1-0.8,3.5-1.5,2.1-3.4
		c-1.2-1.5-2.5,0.4-3.6,1.1c-2.6,1.5-5.1,3.1-7.7,4.7c-0.7,0.4-1.5,0.5-2.4,0.8c-0.4-0.6-0.9-1-1.1-1.5c-3.7-8.7-6.2-17.7-7.3-27.1
		c-0.1-0.7-0.1-1.4-0.1-2.2c0-3.4,0.3-3.7,3.7-3.7c4.5,0,8.9,0.1,13.4,0.1c0.6,0,1.3,0.2,1.8,0c0.6-0.3,1.1-0.9,1.3-1.5
		c0.1-0.4-0.4-1.3-0.8-1.4c-1.2-0.4-2.6-0.7-3.9-0.7c-3.7-0.1-7.5-0.1-11.2-0.2c-3.2-0.1-3.7-0.6-3.4-3.6c0.6-6.1,1.4-12.2,4.2-17.8
		c2-3.9,4.1-7.6,6.2-11.4c0.6-1,1.4-1.8,2.2-2.7c3.6,2.8,5,7.3,9.3,8.8c0.2,0.1,0.6-0.3,1.1-0.6c-2.7-3.8-5.2-7.4-8.1-11.5
		c0.5-0.7,1.2-1.8,2.1-2.9c1.5-1.7,3.1-3.4,4.7-5c2-2.1,3-2.2,5.1-0.1c2.3,2.3,4.6,4.7,8,5.3c0.7,0.1,1.4,0.1,2.3-0.4
		c-1.9-1.3-3.9-2.5-5.6-4c-1.7-1.6-3.1-3.6-4.6-5.4c2.4-2.8,4.8-4.7,7.8-5.7c8.3-2.9,16.9-4.8,25.7-5.3c2.6-0.2,3,0.3,3,3.1
		c0,4.3,0.1,8.6,0.2,13c0,1,0.5,1.9,0.9,3c2.1-0.6,2.2-1.8,2.2-3.2c-0.2-2.9-0.4-5.8-0.4-8.7c-0.1-7.1,0.6-7.6,6.9-6.3
		c4.2,0.9,8.5,1.9,12.5,3.5c4.4,1.8,8.6,4.3,12.8,6.5c0.6,0.3,1.3,0.7,1.8,1c-1.6,3.7-4,6.6-2.6,10.6c4-0.9,3.8-5.3,6.4-7.5
		c9.5,4.7,14.1,13.6,20,22c-2.7,1.3-5,2.3-7.2,3.4c-1.2,0.6-3.3,1.1-2.5,2.8c0.9,1.9,2.3,0.2,3.6-0.3c2.4-1.1,4.8-2,7.3-3
		c2.8,2.8,4.1,6.2,5,9.7c0.9,3.6,1.5,7.3,2.1,11c0.5,3.2-0.2,3.9-3.4,4c-3,0-6,0-9-0.1c-0.7,0-1.5-0.2-2.2,0
		c-0.5,0.1-1.3,0.6-1.3,0.9C141.5,110,141.9,111,142.4,111.1z"/>
	<g id="animation_1_" class="st1">
		<circle id="dot" class="st2" cx="95.4" cy="107" r="7"/>
		<g id="time" class="st3">
			<path class="st0" d="M95.2,108.5c-0.2-4.6,0-9.1,0.3-13.6c0.3-4.5,0.8-9,1.4-13.4c0.6-4.5,1.4-8.9,2.3-13.3
				c0.9-4.4,2-8.8,3.4-13.1c0.2,4.6,0,9.1-0.3,13.6c-0.3,4.5-0.8,9-1.4,13.4c-0.6,4.5-1.4,8.9-2.3,13.3
				C97.7,99.7,96.6,104.1,95.2,108.5z"/>
		</g>
	</g>
</g>
<g id="scoring">
	<g id="animation" class="st1">
	</g>
</g>
</svg>
