<?xml version="1.0" encoding="utf-8"?>
<!-- Generator: Adobe Illustrator 23.0.1, SVG Export Plug-In . SVG Version: 6.00 Build 0)  -->
<svg version="1.1" xmlns="http://www.w3.org/2000/svg" xmlns:xlink="http://www.w3.org/1999/xlink" x="0px" y="0px"
	 viewBox="0 0 181.1 238.2" style="enable-background:new 0 0 181.1 238.2;" xml:space="preserve">
<style type="text/css">
	.st0{fill:#00ABC8;}
	.st1{display:none;}
	.st2{display:inline;fill:#00ABC8;}
	.st3{display:inline;}
	.st4{fill-rule:evenodd;clip-rule:evenodd;fill:#00ABC8;}
	.st5{display:inline;fill-rule:evenodd;clip-rule:evenodd;fill:#00ABC8;}
	.st6{display:inline;fill:none;stroke:#00ABC8;stroke-miterlimit:10;}
</style>
<g id="results">
	<path id="trophy_1_" class="st0" d="M161.8,83.7c-0.2-1.1-0.9-1.8-2.1-1.9c-2.2-0.1-4.4-0.3-6.6-0.2c-4.7,0.3-9.5,0.7-14.2,1.1
		c-0.9,0.1-1.8,0-3.1,0c0.1-0.9,0.1-1.5,0.3-2c0.4-2,0.9-4,1.4-6c0.5-1.9,1-3.9,1.7-5.7c0.9-2.2,0.9-3.3-0.7-5
		c-2.1-2.2-4.7-3.5-7.6-4.3c-6-1.6-12.1-2-18.2-2.4c-5.8-0.4-11.6-0.5-17.4-0.5c-5.2,0-10.4-0.1-15.5,0.3c-6,0.4-11.9,1.3-17.9,1.8
		c-4,0.3-7,2.2-10.1,4.4c-1.2,0.8-2.1,1.9-2,3.6c0.3,4.7,0.5,9.4,0.8,14c0.1,2.9,0.1,3-2.8,3.4c-6.9,0.9-13.8,1.7-20.7,2.4
		c-1.1,0.1-1.7,0.4-1.8,1.6c-0.2,2-0.7,4-0.7,5.9c0,4.5,0.4,9.1,1.4,13.5c0.6,2.5,1,5,1.4,7.5c1.1,6.4,3.5,12.5,6.4,18.3
		c0.9,1.7,2.1,3.1,3.8,4c1.6,0.9,3.3,1.6,5,2.5c2.6,1.4,5.3,1.9,8.2,1.8c3.1-0.1,6.2,0.2,9.3,0.3c0.9,0,1.5,0.4,1.9,1.3
		c0.7,1.7,1.4,3.4,2.1,5.2c1,2.4,2.1,4.6,3.9,6.5c0.8,0.8,1.4,1.7,2,2.7c3,4.7,7.1,8,12.4,9.8c1.6,0.6,3.1,1.4,4.5,2.1
		c0,0.5,0.1,0.7,0.1,0.9c-0.6,5.3-1.1,10.6-2,15.8c-0.9,4.9-2.3,9.8-3.5,14.7c-0.3,1.1-0.9,1.7-2,1.8c-1.2,0.2-2.4,0.4-3.7,0.4
		c-3.2,0.1-6.3,0.5-9.4,1.4c-2.9,0.9-4.7,3.2-6.6,5.3c-0.3,2.4-1.9,3.4-4,4.1c-0.5,0.2-1,0.5-1.4,0.8c-2.2,1.6-3.2,4-3.2,6.6
		c0.1,4.7,3.2,8.4,7.8,9.5c5,1.1,10.1,2,15.3,2.1c3.2,0.1,6.3,0.1,9.5,0.5c7.7,0.9,15.4,1.6,23.1,0.4c3.9-0.6,7.9-1.2,11.8-2.2
		c3.9-1,6.9-3.2,7.1-7.8c0-0.4,0.2-0.8,0.3-1.2c0.5-0.9,0.4-1.9,0-2.8c-1.2-2.9-3-5.1-6.3-5.7c-0.5-0.1-1-0.1-1.4-0.4
		c-0.4-0.3-0.9-0.8-0.8-1.2c0.2-1.8-0.8-2.8-2-3.8c-3.9-3.5-8.7-4.7-13.7-5.2c-2.6-0.2-3.9-1.3-4.5-3.6c-0.1-0.2-0.1-0.4-0.2-0.6
		c-1.3-4.8-1.6-9.6-1.7-14.5c0-4.3,0.3-8.5,0.6-12.8c0.1-1.9,0.7-2.5,2.5-2.9c3.9-0.7,7.2-2.9,10.3-5.1c4.5-3.2,7.8-7.6,10.1-12.6
		c0.9-1.9,1.7-3.8,2.6-5.6c0.8-1.7,0.8-1.8,2.6-1.7c1.6,0.1,3.1-0.3,4.6-0.8c2.2-0.8,4.5-1.3,6.7-1.9c1.9-0.5,3.9-0.8,5.9-1.2
		c1.8-0.5,3.5-1.4,4.7-2.9c1.2-1.5,2.4-3,3.3-4.8c1.9-4,3.8-8,5.3-12.1c1.7-4.6,3.1-9.4,4.6-14.1c2.1-6.4,2.9-13,2.8-19.7
		C162.2,85.6,162,84.6,161.8,83.7z M52.7,64.5c1.1-1.2,2.6-1.8,4.1-2.3c1-0.3,2.1-0.5,2.9-1.4c0.3-0.3,1-0.4,1.5-0.4
		c5.6-0.6,11.2-1.3,16.8-1.9c1.4-0.1,2.8-0.1,4.1-0.2c4.8-0.1,9.6-0.3,14.5-0.3c9,0.1,18.1,0.3,27,1.7c3.2,0.5,6.4,1.5,9.6,2.4
		c1.3,0.4,2.4,1.3,3.5,2.2c1.5,1.2,1.4,3.1-0.4,4.1c-1.7,1-3.6,1.7-5.5,2.3c-1.7,0.5-3.5,0.7-5.3,0.9c-9.7,1.2-19.4,2.3-29.3,2.2
		c-7.6-0.3-15.1-0.5-22.7-1.1c-5.1-0.4-10.2-1.4-15.3-2.2c-2.1-0.4-4-1.5-5.6-3C51.6,66.3,51.7,65.7,52.7,64.5z M51.3,94.2
		c0.4,2.7,0.6,5.3,1,8c0.6,3.6,1.2,7.2,2,10.8c1.1,5.4,2.3,10.8,3.4,16.2c0.2,1.1,0.6,2.3,0.8,3.4c0.3,1.4,0,1.8-1.4,1.8
		c-1.8,0.1-3.6,0.2-5.4,0.1c-4-0.4-7.3-2.3-9.7-5.4c-3-3.8-4.9-8.2-5.9-13.1c-0.5-2.8-1.2-5.5-1.7-8.3c-0.7-3.9-1.2-7.7-1.8-11.6
		c0-0.3-0.1-0.5-0.1-0.8c0-2.5,0.5-3,3-3c2.1,0,4.3,0,6.4,0c2.3,0,4.7,0,7,0C50.9,92.3,51,92.3,51.3,94.2z M54,139.9
		c-0.5,0-1-0.1-1.4,0c-4.1,0.5-7.7-0.9-11.3-2.5c-3.9-1.7-6.3-4.9-7.8-8.7c-1.3-3.3-2.6-6.7-3.5-10.1c-0.9-3.3-1.4-6.7-2.1-10.1
		c-0.3-1.4-0.7-2.8-0.9-4.2c-0.4-3.3-0.9-6.7-1-10c-0.1-1.6,0.4-3.3,0.7-4.9c0.1-0.8,0.7-1.3,1.6-1.4c1.6-0.3,3.3-0.5,4.9-0.7
		c4.6-0.5,9.2-1.1,13.7-1.6c1.1-0.1,2.3-0.1,3.8-0.2c0,1.9,0,3.3,0,4.9c-0.5,0.1-0.9,0.4-1.4,0.4c-3.4,0.2-6.9,0.3-10.3,0.4
		c-1.6,0-3.1-0.3-4.7-0.4c-1.9-0.2-2.7,0.4-2.9,2.3c-0.1,1.4-0.1,2.8,0,4.1c0.6,4.5,1.4,9,2.1,13.4c0.3,2,0.8,3.9,1.1,5.9
		c0.7,4.4,2.7,8.4,4.9,12.2c2,3.5,5.2,5.7,8.8,7.1c0.9,0.4,2,0.5,3,0.5c2,0,4-0.1,6-0.2c1.7-0.1,1.9-0.1,2.5,1.7
		c0.3,0.7,0.4,1.5,0.7,2.6C58.1,140.1,56.1,140,54,139.9z M62,214.9c0.4,0.5,0.8,1,1.2,1.5c-0.1,0.1-0.2,0.2-0.3,0.2
		c-0.4-0.5-0.8-1-1.2-1.5C61.8,215.1,61.9,215,62,214.9z M92.4,232.8c-2.3-0.1-4.7-0.5-7-0.7c-4.5-0.3-9.1-0.6-13.6-0.9
		c-1-0.1-2.1-0.3-3.1-0.3c-1.2-0.1-1.7-0.7-1.8-1.9c0-0.7,0.1-1.5-0.8-2c-1.2,0.9-0.2,2.1-0.7,3.1c-2.2,0.2-2.4,0-3.2-1.9
		c-0.2-0.6-0.1-1.4-1.1-1.6c-0.9,0.8,0.2,1.8-0.1,2.7c-1.6,0-1.8-0.1-1.9-1.5c-0.1-0.9,0.3-1.9-0.6-2.7c-1.6,0.6-0.3,2.2-1.2,3
		c-3-0.7-5.1-4.3-4.1-6.9c2.6,2.8,6.2,3.5,9.6,4.5c9.3,2.6,18.8,3.6,28.4,3.7c1.4,0,2.7,0.1,4.1,0.2c0.3,0,0.5,0.2,0.7,0.3
		C95.5,232.9,95.5,233,92.4,232.8z M96.9,232.6c0.5-1.1,0.9-2.1,1.4-3.2C99.1,231.7,98.8,232.6,96.9,232.6z M101,233
		c-1.1-1.6-1-1.8,0.4-3.1C101.2,230.8,101.1,231.8,101,233z M103.1,232.8c-0.7-1.2-0.1-2.1,0.3-3
		C103.6,230.8,104.1,231.8,103.1,232.8z M106.4,232.5c-1.5-1.3-1.5-2.1,0-3.5C106.4,230.2,106.4,231.2,106.4,232.5z M109.3,232.1
		c-1.6-1.3-1.6-2.2,0.3-3.3C109.5,230,109.4,231,109.3,232.1z M112.5,231.1c-0.1,0.2-0.6,0.2-1,0.4c-0.3-2.3-0.2-2.5,1.3-3.2
		C113.2,229.2,112.9,230.2,112.5,231.1z M114.6,230.6c-0.2-2.2,0.2-2.8,2-3.6c-0.1,0.9-0.2,1.7-0.4,3c0.7-0.5,1.1-0.6,1.3-0.9
		c0.3-0.6,0.5-1.3,0.8-1.9c0.3-0.8,0.9-1.1,1.7-0.9C120.2,229.5,118.4,231,114.6,230.6z M121.5,228.2c0.5-1.2,0.1-3.1,2.4-3.1
		C123.9,226.9,122.6,227.5,121.5,228.2z M118,216.7c0.1-0.4,0.3-0.7,0.5-1.3c2.4,0.3,4.2,1.6,5.3,3.5c0.5,0.8,0.2,2.2,0,3.3
		c-0.1,0.4-0.9,0.8-1.4,1.1c-6,2.3-12.1,4.1-18.6,4.4c-7,0.3-14.1,0.1-21.1-0.2c-4.9-0.3-9.8-1.3-14.7-2.2c-3-0.6-6-1.6-8.9-2.5
		c-1.2-0.4-2.3-0.9-3.3-1.6c-2.1-1.5-2-4.1,0.3-5.3c0.9-0.5,2-0.8,3-1.1c0.8,1,1.4,1.9,2.2,2.7c2.7,2.8,6.1,4.3,9.8,4.9
		c6.9,1.2,13.8,2.1,20.7,2.2c4.3,0.1,8.5,0.1,12.8,0c2,0,4-0.3,5.9-0.7C114.3,222.8,116.8,220.4,118,216.7z M66.4,218.7
		c9.2,2.2,18.1,3.1,27.6,2.6c-0.5,0.7-0.7,1.2-1,1.3c-0.6,0.2-1.4,0.3-2,0.3c-5.5-0.5-11.1-1.1-16.6-1.8c-2.2-0.3-4.4-1-6.6-1.6
		C67.4,219.4,67,219.1,66.4,218.7z M95.4,222.6c0.3-1.6,0.6-1.8,2.7-1.2C97.9,222.9,97.5,223.1,95.4,222.6z M99.8,221.6
		c0,0,0.2-0.1,0.5-0.4c-0.1,0.4-0.1,0.7-0.2,0.9C100,222,99.9,221.8,99.8,221.6z M101.9,222.1c0.1-0.4,0.3-0.8,0.4-1.3
		c0.2,0.1,0.3,0.2,0.5,0.3c-0.2,0.4-0.3,0.8-0.5,1.1C102.1,222.2,102,222.1,101.9,222.1z M104.3,220.3c0.9,0.8,0.6,1.4,0.2,2.3
		C103.6,221.7,103.8,221.1,104.3,220.3z M108.3,219.5c-0.2,1-0.3,1.7-0.6,2.4c-0.1,0.2-0.5,0.5-0.8,0.4c-0.2,0-0.6-0.4-0.6-0.7
		C106.1,220.7,106.6,220.1,108.3,219.5z M112.9,218.2c0.4,2.7-0.3,3.6-3.4,3.8C109.5,219.1,110.2,218.4,112.9,218.2z M116.5,215.4
		c0.1,1.8-0.6,2.9-1.8,4.2C114.8,217.8,115,216.5,116.5,215.4z M97.5,206.4c0.1,0.1,0.3,0.1,0.3,0.2c0,0,0,0,0,0.1
		c0,0.1-0.1,0.2-0.2,0.2v0c-0.1-0.1-0.2-0.1-0.2-0.2c0,0,0,0,0-0.1C97.3,206.6,97.4,206.5,97.5,206.4z M96.3,203.2
		c-0.9,0.1-1.6,0.2-2.4,0.3c0,0.5,0.1,0.9,0.1,1.4c-0.4,0.2-1,0.4-1.4,0.6c0,0.3-0.1,0.5,0,0.5c1,0.6,1.2,2,2.5,2.5
		c1,0.4,1.8,0.9,2.9,0.9c0.9,0,1.6,0.4,2,1.1c-1.7-0.2-3.4-0.4-5.1-0.6c-0.1,0.1-0.1,0.3-0.2,0.4c0.3,0.3,0.5,0.9,0.8,1
		c1.5,0.2,3,0.4,4.5,0.4c0.2,0,0.4-0.5,0.7-0.7c0.7,0.4,1.4,0.9,2.1,1.3c-2,1-4.3,0.1-6.4,1.1c0.4,0.4,0.5,0.7,0.7,0.7
		c2.1,0,4.1,0,6.2,0c0.9-1.4,2.5-1.5,4.1-1.7c0-0.1,0-0.3,0-0.4c-1.1-0.4-2.3-0.6-3.3-1.2c-1.1-0.7-2.1-1.6-2.9-2.6
		c-0.7-0.9-1.4-2-1.2-3.7c1.8,0.4,3.4,0.7,5.1,1.1c0.9,0.2,1.7,0.6,2.6,0.8c2.8,0.6,5.1,2,7.2,3.8c1.4,1.2,1.4,1.9,0,3.2
		c-0.4,0.3-0.9,0.5-0.7,1.3c0.1,0.3-0.5,0.9-1,1.1c-1.9,0.7-3.7,1.4-5.7,1.9c-2.9,0.6-5.8,1.1-8.8,1.4c-3.4,0.3-6.9,0.4-10.3,0.5
		c-5.5,0.2-10.8-0.8-16.2-1.4c-2.8-0.3-5.3-1.6-7.4-3.5c-3-2.7-2.7-5.9,0.8-8c2.1-1.3,4.5-1.7,6.9-1.9c2.3-0.2,4.7,0,7,0
		c-0.6,3.5-4.1,6.5-7.6,6.1c0.3,0.5,0.5,1,0.8,1.1c1.5,0.9,2.9,0.4,4-0.6c1.2-1,2.3-2.2,3.2-3.5c2-2.7,3.5-5.8,4.2-9.1
		c0.8-3.8,2-7.5,2.6-11.2c0.8-4.7,1.2-9.6,1.7-14.3c0.1-0.5,0-1,0.1-1.4c0.4-2,0.6-2.2,2.7-2.2c1.2,0,2.4,0,3.7,0
		c-0.3,7.3-0.6,14.3-0.9,21.3c-0.1-0.1-0.4-0.3-0.7-0.4c-1.2-0.5-1.6-0.3-1.5,1.1c0.1,1.1,0.2,2.3,0.3,3.4c0,0.9,0.6,1.3,1.3,1.2
		c0.4-0.1,0.7-0.7,1.2-1.1C95,197.8,95.6,200.4,96.3,203.2z M122.4,140.2c-0.1,0.3-0.3,0.6-0.4,0.8c-1,0.6-2-0.7-2.8,0.2
		c-0.1,1.2,1.1,1.3,1.6,2.1c0,0.1,0.1,0.4,0,0.5c-1.9,5.3-4.3,10.4-7.9,14.6c-1.7,2-4,3.5-6.1,5.2c-1,0.8-2.2,1.5-3.4,2
		c-1.5,0.7-3,1.4-4.6,1.8c-1.7,0.5-3.5,0.6-5.4,0.9c-0.1-1.4-1.1-1.2-2-1.1c-1.2,0-2.2-0.1-2.7-1.6c-1.4,1.7-2.9,1-4.4,0.5
		c-4.5-1.4-8.4-3.9-11.2-7.8c-2.5-3.5-5.5-6.8-7.3-10.8c-1.5-3.4-2.8-6.9-4.3-10.3c-0.5-1.2,0.7-1.7,0.9-2.7c-1.4-0.3-2-1.4-2.3-2.8
		c-1.6-7.3-3.3-14.5-4.7-21.8c-0.9-4.6-1.2-9.3-2-13.9c-1.1-6.3-0.8-12.7-1.3-19.1c-0.2-2.4-0.3-4.8-0.4-7.2c2.4,0.9,4.4,2,6.7,2.5
		c3.5,0.8,7,1.3,10.6,1.8c8.2,1.1,16.5,1.3,24.8,1.3c2.2,0,4.4,0,6.6,0c6.3,0.1,12.5-0.3,18.8-1.2c3.4-0.5,6.9-0.7,10.2-1.3
		c2-0.3,4-1.2,5.9-1.7c0.4-0.1,0.8-0.2,1.2-0.3c0,2.2-2.5,11.6-3.1,12.4c-0.1,1.5-0.1,2.8-0.2,3.9c-0.5,4-1.1,7.9-1.6,11.9
		c-1,8.2-2.3,16.4-3.9,24.5C126.5,129.3,124.6,134.8,122.4,140.2z M136.5,89.4c4.2-0.3,8.4-0.7,12.6-1c0.7-0.1,1.5-0.1,2.5-0.1
		c-0.1,1.6-0.2,3.1-0.4,4.4c-0.6,4.1-1.2,8.2-1.8,12.3c-0.6,4.3-1.9,8.3-3.2,12.4c-0.9,3-1.8,5.9-2.8,8.9c-1.3,4-3.3,7.6-6.9,10
		c-1.1,0.7-2.5,1.2-3.8,1.4c-2.1,0.3-4.3,0.1-6.4,0.1c-0.3,0-0.6-0.1-1-0.2c0-0.3,0-0.5,0-0.7c2.7-6.3,3.7-12.9,5-19.5
		c1.1-5.6,1.6-11.2,2.6-16.7c0.5-2.9,0.7-5.9,1-8.8C134.2,89.7,134.5,89.5,136.5,89.4z M160.2,94.2c-0.7,6.5-2.7,12.8-4.6,19
		c-1.9,6.2-4.5,12-7.2,17.8c-0.7,1.4-1.5,2.8-2.5,4c-1.5,2-3.4,3.3-5.9,3.8c-1.5,0.3-3,0.5-4.5,0.9c-2.5,0.6-5.1,1.3-7.6,2
		c-1.3,0.4-2.6,0.8-4.1,0.1c0.4-2.3,0.4-2.4,2.4-2.5c1.8-0.1,3.6-0.1,5.4-0.1c4.8,0,8.1-2.6,10.4-6.4c1.3-2.3,2.3-4.8,3.2-7.4
		c1.4-3.8,2.6-7.7,3.7-11.6c0.8-3,1.5-6,2-9.1c0.9-5.1,1.6-10.2,2.3-15.3c0.4-2.8,0-3.2-2.9-2.9c-4.5,0.4-8.9,0.8-13.4,1.2
		c-0.6,0.1-1.2,0-2,0c0-0.5-0.1-0.9,0-1.3c0.3-1.9,0.6-2.2,2.5-2.4c2.2-0.2,4.4-0.3,6.6-0.5c3-0.2,5.9-0.4,8.9-0.5
		c1.5-0.1,3-0.1,4.5,0.1c2.3,0.2,2.9,0.8,3,3.1C160.5,89,160.4,91.6,160.2,94.2z"/>
	<g id="animation_copy_2" class="st1">
		<path id="sparkles" class="st2" d="M76.1,41.1c0.4,0,0.6-0.3,0.7-0.6c0.1-0.5-0.5-0.9-1.1-0.8c-0.3,0.1-0.6,0.3-0.5,0.7
			C75.3,40.8,75.6,41.1,76.1,41.1 M58.7,34.4c0.6-0.1,0.9-0.2,0.9-0.6c0-0.5-0.4-0.7-0.8-0.7c-0.4,0-0.6,0.2-0.6,0.5
			C58.1,34.1,58.4,34.4,58.7,34.4 M56.7,31.9c0.4,0,0.6-0.3,0.5-0.6c-0.1-0.5-0.4-0.7-0.9-0.7c-0.4,0-0.6,0.3-0.5,0.6
			C55.9,31.8,56.2,32,56.7,31.9 M97.3,13.7c-0.3,0-0.8,0.6-0.6,0.9c0.2,0.4,0.6,0.7,1.1,0.5c0.3-0.1,0.6-0.3,0.5-0.7
			C98.2,13.9,97.9,13.7,97.3,13.7 M138.9,31.6c0.5,0.2,0.8,0,1.1-0.3c0.2-0.5,0-0.8-0.4-1c-0.5-0.2-0.9-0.1-1.1,0.3
			C138.2,31,138.5,31.4,138.9,31.6 M118.9,52.6c0.1-0.4-0.4-0.9-0.8-0.8c-0.5,0.1-0.8,0.4-1,0.8c-0.1,0.3,0.5,0.8,0.9,0.8
			C118.5,53.3,118.9,53.1,118.9,52.6 M131.8,50.9c0-0.5-0.4-0.7-0.9-0.7c-0.5,0.1-0.8,0.4-0.8,0.9c0,0.5,0.4,0.8,0.9,0.7
			C131.5,51.8,131.8,51.4,131.8,50.9 M97.4,45.7c0.3-0.1,0.5-0.3,0.6-0.7c-0.1-0.5-0.4-0.7-0.9-0.8c-0.4-0.1-0.9,0.4-0.9,0.7
			C96.2,45.4,96.9,45.8,97.4,45.7 M77.4,43.9c0.5,0,0.9-0.1,1-0.6c0-0.5-0.2-0.8-0.7-0.9c-0.5,0-0.9,0-1,0.6
			C76.6,43.5,76.9,43.9,77.4,43.9 M66.8,67c0.3-0.1,0.6-0.3,0.6-0.6c0-0.5-0.4-1-1-0.9c-0.4,0-0.8,0.4-0.8,0.8
			C65.6,66.8,66.2,67.1,66.8,67 M60.6,65c-0.1,0.6,0.3,0.9,0.8,1.1c0.4,0.1,0.7-0.1,0.7-0.5c0.1-0.6-0.2-1-0.8-1.1
			C61,64.5,60.7,64.7,60.6,65 M97.5,16.9c-0.5,0-0.8,0.1-1,0.6c-0.1,0.5,0.1,0.8,0.5,1c0.5,0.2,1.2-0.2,1.2-0.7
			C98.3,17.3,98,17,97.5,16.9 M106.2,34.4c0.5,0.1,0.8-0.2,0.8-0.2c0-0.8-0.2-1.1-0.5-1.2c-0.5-0.1-0.8,0.3-0.8,0.7
			C105.6,34.1,105.9,34.4,106.2,34.4 M75.1,52.2c0.5,0,0.8-0.4,0.8-0.8c-0.1-0.5-0.3-0.8-0.8-0.9c-0.5-0.1-1.1,0.5-1,1
			C74.2,52,74.6,52.2,75.1,52.2 M78.7,54c0-0.5-0.4-0.7-0.9-0.7c-0.5,0-0.8,0.4-0.8,0.8c0,0.5,0.4,0.7,0.9,0.7
			C78.5,54.8,78.6,54.4,78.7,54 M137.9,33.1c0-0.4-0.3-0.6-0.6-0.7c-0.9-0.2-1.3,0.2-1.3,1.5c0.5-0.1,1.1-0.2,1.6-0.3
			C137.7,33.6,137.9,33.3,137.9,33.1 M136,34C136,34,135.9,34,136,34C135.9,34,135.9,34,136,34C135.9,34.1,136,34,136,34
			C136,34,136,34,136,34 M97.1,42.3c0.4,0,0.6-0.3,0.7-0.6c0.1-0.6-0.5-1.2-1.2-1.1c-0.5,0.1-0.8,0.4-0.7,0.9
			C96.1,42.1,96.6,42.3,97.1,42.3 M105,38.4c0.5,0,0.8-0.2,1.1-0.5c0.3-0.4,0.2-1.1-0.3-1.3c-0.5-0.2-0.9,0-1.1,0.3
			c-0.2,0.3-0.2,0.8-0.1,1.2C104.5,38.2,104.8,38.3,105,38.4 M120,51.4c0.5,0,0.9-0.2,1-0.7c0.2-0.7-0.3-1.5-0.9-1.5
			c-0.5,0-0.8,0.2-1,0.7C119,50.6,119.4,51.3,120,51.4 M127.6,54.3c0.4-0.4,0.6-0.9,0.5-1.5c0-0.4-0.6-0.8-1-0.6
			c-0.9,0.5-1.6,1.2-1.4,2.3C126.4,54.7,127.1,54.8,127.6,54.3 M125.7,54.6C125.7,54.6,125.7,54.6,125.7,54.6
			C125.7,54.6,125.7,54.6,125.7,54.6C125.7,54.6,125.7,54.6,125.7,54.6C125.7,54.6,125.7,54.6,125.7,54.6 M142.7,28.6
			c1.3-1.5,2.5-3,3.8-4.5c0.1-0.1,0.1-0.4,0.1-0.6c-0.1-0.2-0.2-0.4-0.4-0.5c-0.5-0.3-1.1-0.3-1.5,0.1c-1.4,1.4-2.4,3.1-3.4,4.7
			c-0.1,0.2,0.1,0.7,0.3,0.8C141.9,29.1,142.4,28.9,142.7,28.6 M97.5,11.3c0.2,0,0.6-0.3,0.7-0.6c0.5-1.1,0-2.3,0.2-3.5
			c0-1,0.1-1.9,0.1-2.9c0-0.6-0.4-1.1-1-1c-0.5,0-0.9,0.4-0.9,0.8c0,2.2,0.1,4.5,0.2,6.7C96.8,11,97.2,11.3,97.5,11.3 M46.9,22.3
			c1.4,0.8,2.3,2.1,3.3,3.2c0.7,0.8,1.5,1.6,2.2,2.4c0.3,0.3,0.7,0.6,1,0.8c0.1,0.1,0.4,0.1,0.6,0c0.4-0.2,0.3-0.5,0.3-0.8
			c0-0.1-0.1-0.2-0.1-0.3c-1.9-2.2-3.9-4.5-5.9-6.7c-0.2-0.2-0.6-0.2-1-0.3c-0.3,0.2-0.6,0.3-0.8,0.6C46.4,21.5,46.5,22.1,46.9,22.3
			 M107.3,30.4c0.2,0,0.5,0.1,0.6,0c0.3-0.4,0.7-0.8,0.9-1.3c1-2.6,1.9-5.3,2.9-7.9c0.1-0.4,0.2-0.8,0.3-1.1c-0.1-0.6-0.3-1-0.7-1.2
			c-0.4-0.2-1,0.1-1.2,0.8c-1,3.2-2,6.4-3,9.6c-0.1,0.3,0,0.6,0,0.9C107.1,30.2,107.2,30.4,107.3,30.4 M66.8,28.8c0.7,1,1.4,2,2,3
			c1.3,1.9,2.6,3.8,3.9,5.7c0.2,0.3,0.5,0.4,0.8,0.6c0.2,0.1,0.5,0.1,0.6,0c0.2-0.1,0.3-0.3,0.4-0.5c0.2-0.6-0.2-1-0.5-1.5
			c-1.7-2.6-3.4-5.1-5-7.7c-0.4-0.6-0.7-1.3-1.2-2c-0.3-0.4-0.8-0.4-1.2-0.1c-0.4,0.2-0.7,0.7-0.6,1.1
			C66.1,27.9,66.4,28.3,66.8,28.8 M42.4,62.6c0.2,0.1,0.4,0.2,0.6,0.2c4.5,1.2,9.1,1.5,13.5,2.4c0.3,0,0.6,0,0.8-0.1
			c0.2-0.1,0.3-0.3,0.3-0.4c0-0.2-0.1-0.4-0.3-0.5c-0.1-0.1-0.4-0.3-0.6-0.3c-4.3-0.6-8.6-1.6-12.8-3c-0.4-0.1-0.9-0.2-1.3-0.1
			c-0.5,0-0.8,0.3-0.9,0.8C41.7,62,42,62.4,42.4,62.6 M145,42c-0.1-0.1-0.2-0.5-0.4-0.7c-0.4-0.4-0.8-0.3-1.2,0
			c-0.5,0.4-1,0.8-1.6,1.2c-2.4,1.2-4.5,2.9-6.7,4.4c-0.5,0.3-0.9,0.6-1.3,1c-0.2,0.2-0.4,0.7-0.2,0.9c0.2,0.4,0.7,0.5,1.2,0.4
			c0.2-0.1,0.4-0.1,0.6-0.2c3-1.9,6-3.7,9.1-5.6C144.8,43,145.1,42.6,145,42 M66.3,51.9c-0.3-0.2-0.6-0.2-1-0.2
			c-0.4,0-0.6,0.3-0.7,0.6c-0.1,0.2-0.1,0.5,0,0.6c0.3,0.3,0.6,0.7,1,0.9c3.5,2.2,7.5,3.6,11.2,5.4c0.2,0.1,0.5,0.1,0.7,0
			c0.3-0.1,0.6-0.3,0.6-0.7c0-0.6-0.4-0.9-1-1.2C73.5,55.7,69.7,54.2,66.3,51.9 M135.3,65.9c-0.1-0.3-0.4-0.6-0.7-0.7
			c-0.4-0.1-0.9-0.1-1.3-0.1c-2.9,0.5-5.7,1.1-8.7,1.3c-1.3,0.1-2.6,0.7-3.9,1.1c-0.2,0.1-0.4,0.5-0.4,0.8c0,0.3,0.3,0.6,0.6,0.6
			c2.1-0.3,4.1-0.7,6.1-0.9c1.8-0.2,3.6-0.3,5.4-0.6c0.9-0.1,1.7-0.4,2.6-0.7C135.3,66.6,135.5,66.2,135.3,65.9 M110.6,52.3
			c-0.3,0.4-0.5,0.9-0.4,1.5c0.1,0.3,0.2,0.6,0.6,0.7c0.4,0.1,0.7,0,0.9-0.3c0.6-0.9,1.2-1.8,1.8-2.7c1.3-1.6,2.6-3.2,3.9-4.9
			c0.7-0.9,1.4-1.9,2-3c0.4-0.7,0.3-1.5-0.3-1.7c-0.6-0.2-1.1,0.1-1.5,0.5c-0.2,0.3-0.4,0.5-0.5,0.8c-1.1,2-2.5,3.8-4,5.6
			C112.2,50,111.4,51.2,110.6,52.3 M91.8,47.9c0.1,0.8,0.3,1.7,1,2.3c0.1,0.1,0.4,0.2,0.6,0.2c0.4,0,0.6-0.3,0.7-0.6
			c0.1-0.2,0.1-0.4,0-0.6c-1-2.9-1.2-5.9-2-8.8c-0.5-1.8-0.8-3.6-1.3-5.4c-0.2-0.6-0.5-1.2-1.4-1.4c-0.2,0.1-0.6,0.3-0.7,0.5
			c-0.1,0.4-0.2,0.9-0.1,1.2C90.2,39.4,91.3,43.6,91.8,47.9 M96.8,20.7c-0.9,0.2-0.7,1-0.7,1.6c0,3.5,0.4,7.1-0.1,10.7
			c-0.2,1.2,0.1,2.6,0.3,3.9c0,0.4,0.2,0.9,0.8,0.8c0.6,0,0.7-0.5,0.7-0.9c0.1-0.9,0.2-1.7,0.2-2.6c0.1-1.4,0.1-2.8,0.2-4.5
			c0.4-2.3,0.1-4.8,0-7.4C98.2,21.2,97.5,20.6,96.8,20.7 M97.9,67.5c0.5-0.8,0.4-1.7,0.3-2.5c-0.4-3.1-0.6-6.2-0.3-9.4
			c0.2-1.7,0.3-3.4,0.4-5.2c0.1-0.8,0.1-1.5-0.4-2.2c-0.3-0.3-0.7-0.7-1.2-0.4c-0.2,0.1-0.5,0.5-0.5,0.7c-0.1,1.8-0.2,3.7-0.2,5.5
			c-0.5,4.4,0.6,8.8,0.8,13.2c0,0.1,0.3,0.3,0.5,0.4C97.6,67.8,97.8,67.7,97.9,67.5 M88.4,68.7c0-0.5-0.3-0.8-0.7-1
			c-0.3-0.1-0.7-0.2-1-0.2c-5.4-0.8-10.8-1.5-16.1-2.3c-0.8-0.1-1.4,0.3-1.3,1c0,0.5,0.4,0.7,0.9,0.8c5.7,1,11.5,1.1,17.1,2.5
			C87.8,69.7,88.4,69.2,88.4,68.7 M60.9,37.5c2.7,3.3,6,6.2,8.6,9.7c0.7,0.9,1.5,1.6,2.4,2.3c0.3,0.2,0.7,0.1,0.9-0.1
			c0.1-0.1,0.2-0.4,0.3-0.7c-0.2-0.3-0.3-0.7-0.6-1c-3.4-3.8-6.8-7.6-10.2-11.4c-0.3-0.3-0.6-0.6-1-0.9c-0.3-0.2-0.6-0.1-0.9,0.1
			c-0.3,0.2-0.4,0.5-0.3,0.9C60.4,36.8,60.7,37.2,60.9,37.5 M95,69.5c0.1-0.1,0.2-0.4,0.1-0.6c-0.2-0.4-0.4-0.8-0.8-1.1
			c-4.4-3.7-8.7-7.7-12.6-11.9c-0.3-0.3-0.7-0.5-1.2-0.5c-0.2,0.1-0.4,0.1-0.6,0.2c-0.3,0.2-0.3,0.6-0.2,0.8c0.3,0.5,0.6,0.9,1,1.3
			c2.6,2.5,5.3,5.1,7.9,7.6c1.3,1.2,2.6,2.4,3.9,3.6c0.5,0.4,1,0.9,1.8,0.8C94.6,69.8,94.9,69.7,95,69.5 M123.7,47.8
			c0.3-0.3,0.7-0.6,1-0.9c3.7-3.6,7.4-7.2,11.2-10.8c0.7-0.7,0.5-1.3,0.1-2c-1-0.1-1.6,0.4-2.3,1.1c-2.4,2.5-5,5-7.5,7.5
			c-1.3,1.3-2.6,2.7-3.9,4.1c-0.3,0.3-0.4,0.8,0.1,1.1C122.8,48.1,123.3,48.1,123.7,47.8 M106.7,66.9c-0.3,0.2-0.3,0.6-0.1,0.8
			c0.2,0.3,0.6,0.3,0.9,0.2c0.3-0.1,0.7-0.2,0.9-0.4c1.6-1,3.2-2,4.8-3.1c3-2.1,5.6-4.7,8.9-6.4c0.8-0.4,1.6-0.9,2.3-1.3
			c0.8-0.5,1.3-1.2,1.2-2.1c-0.5-0.2-1.1-0.3-1.6,0c-0.4,0.2-0.8,0.4-1.1,0.7c-5.3,3.7-10.5,7.5-15.7,11.3
			C107,66.6,106.8,66.8,106.7,66.9 M115.1,53.8c-1.8,1.7-3.6,3.3-5.2,5.1c-2,2.2-3.9,4.5-6.3,6.4c-0.8,0.6-1.5,1.3-1.9,2.3
			c-0.1,0.3-0.1,0.6,0.2,0.9c0.3,0.2,0.6,0.3,0.9,0.1c0.4-0.3,0.7-0.6,1-0.9c4.4-3.6,7.8-8.1,12-11.9c0.4-0.3,0.5-0.9,0.8-1.3
			c-0.2-0.3-0.2-0.6-0.4-0.7C115.9,53.4,115.4,53.5,115.1,53.8 M91.9,61.1c-2.5-3.5-5.1-6.9-7.5-10.4c-1.2-1.7-2.3-3.5-3.5-5.2
			c-0.3-0.5-1.1-0.5-1.5-0.2c-0.4,0.3-0.4,0.8-0.2,1.2c0.8,1.3,1.8,2.5,2.6,3.8c2.7,4.7,6.3,8.8,9.5,13.1c0.4,0.6,1,1.2,1.8,1.4
			c0.2,0,0.4-0.1,0.6-0.2c0-0.2,0.1-0.5,0-0.6C93.1,63,92.5,62,91.9,61.1 M100.9,64.5c0.5,0,0.6-0.3,0.6-0.6
			c0.3-2.9,0.9-5.8,0.9-8.7c0-2.6,0.6-4.9,1.3-7.3c0.3-0.9,0.6-1.9,0.9-2.8c0.3-1.5,0.6-3,0.8-4.5c0.1-0.5-0.3-0.8-0.8-0.9
			c-0.5-0.1-0.8,0.2-1,0.6c-0.1,0.2-0.2,0.4-0.2,0.6c-0.6,2.7-1.3,5.5-1.9,8.2c-0.9,4-0.7,8.2-1.6,12.1c0.1,1,0.2,1.8,0.4,2.7
			C100.3,64.3,100.6,64.4,100.9,64.5 M107.9,47.8c-1.3,3-2.4,6-3.7,9.1c-0.3,0.8-0.7,1.6-0.2,2.5c0.1,0.3,0.4,0.5,0.7,0.6
			c0,0,0.3-0.2,0.4-0.4c0.8-1.9,1.3-3.9,2.2-5.8c1.3-2.9,2.6-5.8,3.6-8.7c1.2-3.6,2.5-7.2,4-10.7c0.3-0.6,0.4-1.2,0.5-1.4
			c0.1-0.8-0.7-1.2-1-1c-0.3,0.2-0.7,0.3-0.8,0.6c-1.1,2.5-2.1,5-3.1,7.5S109,45.3,107.9,47.8 M82.8,41.4c1.3,2.8,2.7,5.5,4.1,8.2
			c0.5,1,1,1.9,1.5,2.9c0.8,1.8,1.8,3.5,2.8,5.2c0.2,0.4,0.9,0.6,1.1,0.3c0.2-0.2,0.3-0.6,0.3-0.9c0-0.2-0.1-0.4-0.2-0.6
			c-1.5-3-3-6.1-4.7-9c-1.5-2.7-2.9-5.4-4-8.3c-0.7-1.7-1.4-3.4-2.2-5.1c-0.5-1.1-1.1-2.1-1.7-3.2c-0.2-0.4-0.5-0.7-1.2-0.7
			c-0.4,0-0.7,0.3-0.9,0.7c-0.3,0.7-0.1,1.3,0.3,1.9C80.2,35.4,81.4,38.5,82.8,41.4 M55.6,57.4c0.2,0.1,0.4,0.1,0.6,0.2
			c5.8,2.6,11.9,4.2,18,5.8c2.6,0.7,5.1,1.7,7.5,1.6c1.2,0.1,1.9,0.5,2.7,0.1c0.2-0.1,0.4-0.3,0.4-0.5c0-0.2-0.1-0.5-0.2-0.5
			c-1.3-0.7-2.7-1-4.2-1.1c-1.3,0-2.5-0.3-3.6-0.6c-2.1-0.7-4.3-1.4-6.5-2c-3.6-1-7.2-1.9-10.6-3.5c-1.1-0.5-2.3-1-3.4-1.4
			c-0.6-0.2-1.3-0.4-1.9,0.1C54,56.1,54.7,57,55.6,57.4 M139.6,56.2c0-0.3-0.3-0.6-0.6-0.7c-0.7-0.4-1.3-0.1-1.9,0.2
			c-1.9,0.7-3.7,1.6-5.7,2.1c-3.6,1-7,2.4-10.3,4.2c-1.6,0.8-3.1,1.8-4.8,2.5c-1.5,0.6-2.6,1.6-4,2.5c-0.2,0.1-0.3,0.4-0.3,0.5
			c0,0.3,0.2,0.6,0.3,0.8c0.7,0.2,1.2,0,1.7-0.3c2.1-1.2,4.3-2.4,6.4-3.6c4-2.1,8.2-3.6,12.5-4.9c2.1-0.7,4.2-1.6,6.3-2.4
			C139.5,56.9,139.7,56.5,139.6,56.2"/>
		<g class="st3">
			<path class="st0" d="M83.9,102.2c0.1,0.8,0.1,1.6,0,2.4c0,0.2-0.1,0.4-0.3,0.4c-0.3,0.1-0.8,0.1-1.2,0.1c-0.5,0-1.1,0-1.6-0.1
				c0,0.6,0,1.1,0,1.7c0,0.2,0.1,0.4,0.1,0.6c0,0.1,0,0.3,0,0.4c-0.1,0.2-0.2,0.3-0.4,0.3c-0.8,0.1-1.6,0.1-2.4,0
				c-0.2,0-0.3-0.1-0.4-0.3c-0.1-0.3-0.1-0.8-0.1-1.2c0-0.6,0.1-1.1,0.1-1.7c-0.6,0-1.1,0-1.7,0c0,0.6,0,1.2,0.1,1.9
				c0,0.2,0,0.4,0.1,0.6c0,0.1,0,0.3,0,0.4c-0.1,0.2-0.2,0.3-0.4,0.3c-0.8,0.1-1.6,0.1-2.4,0c-0.2,0-0.4-0.1-0.4-0.3
				c-0.1-0.3-0.1-0.8-0.1-1.2c0-0.6,0-1.1,0.1-1.7c-0.6,0-1,0-1.3,0c-0.3,0-0.6,0-1,0c-0.2,0-0.3,0-0.5-0.1c-0.1,0-0.2-0.1-0.3-0.3
				c0-0.1,0-0.3-0.1-0.4c0-0.6,0-1.2,0-1.8c0-0.4,0.2-0.5,0.5-0.5c0.3,0,1.5,0,2.8,0c0-0.6,0-1.1,0-1.7c0,0,0,0,0,0
				c-0.7,0-1.2,0-1.5,0c-0.3,0-0.6,0-1,0c-0.2,0-0.3,0-0.5-0.1c-0.1,0-0.2-0.1-0.3-0.3c0-0.1,0-0.2-0.1-0.3c0-0.6,0-1.2,0-1.8
				c0-0.4,0.2-0.5,0.5-0.5c0.3,0,1.5,0,2.7,0c0-0.5,0-1,0-1.2c0-0.3,0-0.6,0-1c0-0.1,0.1-0.3,0.1-0.5c0-0.1,0.2-0.2,0.4-0.3
				c0.1,0,0.2,0,0.3,0c0.6-0.1,1.2,0,1.8,0c0.4,0,0.5,0.2,0.5,0.4c0,0.3,0,1.3,0,2.5c0.4,0,0.7,0,1,0c0.2,0,0.5,0,0.7,0
				c0-0.6,0-1,0-1.3c0-0.3,0-0.6,0-1c0-0.1,0-0.3,0.1-0.5c0-0.1,0.1-0.2,0.3-0.3c0.1,0,0.2,0,0.3,0c0.6-0.1,1.2,0,1.8,0
				c0.4,0,0.5,0.2,0.5,0.4c0,0.3,0,1.4,0,2.7c0.5,0,1,0,1.7,0c0.2,0,0.4-0.1,0.6-0.1c0.1,0,0.3,0,0.4,0c0.2,0.1,0.3,0.2,0.3,0.4
				c0.1,0.8,0.1,1.6,0,2.4c0,0.2-0.1,0.3-0.3,0.4c-0.3,0.1-0.8,0.1-1.2,0.1c-0.5,0-1-0.1-1.4-0.1c0,0.4,0,0.8,0,1c0,0.1,0,0.4,0,0.6
				c0.5,0,1,0,1.7-0.1c0.2,0,0.4,0,0.6-0.1c0.1,0,0.3,0,0.4,0C83.8,101.9,83.8,102,83.9,102.2z M77.9,101.8c0-0.6,0-1.1,0-1.7
				c0,0,0,0,0,0c-0.6,0-1.1,0-1.7,0c0,0.5,0,0.9,0,1.2c0,0.1,0,0.3,0,0.5c0.4,0,0.7,0,1,0C77.3,101.8,77.6,101.8,77.9,101.8z"/>
			<path id="_x31__1_" class="st0" d="M107.4,116.4c-0.1,0.7,0,12.1-0.2,13.9c-0.1,0.5-0.1,2.8-0.1,3.3c-0.2,1.7-0.1,3.3-0.1,5
				c0,0.7-0.1,1.3-0.2,2c-0.1,0.4-0.3,0.7-0.6,0.7c-2.4,0.7-4.8,0.8-7.2,0.1c-1.1-0.3-1.4-0.9-1.1-2.1c0.2-0.7,0.3-1.3,0.3-2.1
				c0.1-2.5,0.3-4.9,0.5-7.4c0.1-1.5,0.2-3,0.3-4.5c0.1-1.3,0.1-10.8,0.1-11.6c0-1.3,0-2.5,0.1-3.8c0-0.5,0-1.1,0.1-1.6
				c0-0.3,0-0.6-0.1-0.9c0-0.2-0.1-0.4-0.3-0.5c-0.3-0.1-0.5,0-0.6,0.2c-0.6,0.7-1.4,1.3-2.1,2c-1,1-1.7,1.2-3.1,0.1
				c-0.9-0.6-1.7-1.3-2.5-2c-0.5-0.5-0.8-1.1-0.9-1.7c-0.1-0.8-0.1-1.6,0.4-2.3c0.1-0.2,1.9-2.1,2.5-3c1.5-2.1,2.9-4.2,4.6-6.2
				c0.5-0.6,2.2-3.3,2.7-3.4c1.1-0.1,2.1-0.1,3.1,0c1.1,0.1,2.2,0.3,3.3,0.5c0.8,0.1,1,0.3,1.1,1.2c0.1,0.8,0.1,1.6,0.1,2.4
				c0,0.2,0,0.5,0,0.7h0.1C107.6,96.4,107.5,115.4,107.4,116.4z"/>
		</g>
	</g>
</g>
<g id="sports_guide">
	<path id="book" class="st4" d="M-128.5,31.1c2.1,1.1,3.8-1.3,6.1,0.1c-2.4,3.1-2.7,6.9-3.4,10.5c-0.3,1.6,0.4,2.1,1.9,2.1
		c1.6,0,3.5-1.3,4.7-0.1c1.5,1.5,0.4,3.7,0.5,5.6c0.1,2.5-0.7,5,1,7.3c0.4,0.6,0.6,1.4,0.1,2.1c-1.4,2.3-0.9,4.9-1.2,7.4
		c-0.8,8.5-1.8,16.9-2.3,25.4c-0.4,7.1-0.4,14.3-0.4,21.5c-0.2,16.3-1.5,32.5-2.6,48.7c-0.7,10.7-0.6,21.5,0.2,32.2
		c0.1,0.9,0.1,1.8,0.1,2.7c0,1.6-0.7,2-2.3,1.6c-2.6-0.7-5.1-1.8-7.6-2.6c-2.7-0.9-3.3-0.6-4,2.3c-1.2,5.1-1,10.4-2.6,15.4
		c-1.8,5.9-1.5,12-1.8,18.3c-2.1-0.2-3.8-0.3-5.1-2.2c-1.2-1.8-3.3-2.5-5.1-3.5c-14.5-8.2-29.6-15.4-45.7-20.1
		c-3.4-1-6.5-2.8-10-3.9c-5-1.6-10.1-2.5-15.3-3.1c-1-0.1-1.9-0.1-3,0.2c-5.5,1.4-10.2-1-14.5-4c-1.8-1.2-1-3.4-0.6-5
		c0.6-2.2,1.2-4.3,1.8-6.4c3.8-12.7,7.2-25.5,9.8-38.5c0.7-3.2,0.5-6.5,0.8-9.8c0.7-9.3,0.5-18.5,0-27.7c-0.2-4.1-1.3-8-2-11.9
		c-2.4-12.3-5.2-24.5-9.6-36.3c-0.7-2-1.4-3.9-2.1-5.9c-2-5.7,0.5-7.8,5.2-8.5c3-0.4,6.4-1.8,9.4,0.7c0.5,0.4,1.8,0.1,2.6-0.2
		c10.5-3.7,21.2-7.1,31.7-10.9c7.1-2.6,14.2-5.3,21.4-7.8c6-2.1,12-4.5,17.9-7c3.7-1.5,7.7-2.4,11.2-4.3c2-1.1,3.1-0.1,2.9,2.2
		c-0.1,1-0.5,2-0.7,3c-0.5,3.1,0.3,3.8,3.3,3c3.6-0.9,7-2.6,10.8-4.2C-126.6,23.7-129.1,27.3-128.5,31.1z M-225.8,56.9
		c1.5,5,3.5,9.7,4.7,14.6c2.3,9,4.2,18,5.1,27.2c1.3,13.3,0.3,26.6,0.2,39.9c0,0.9-0.2,1.8-0.3,2.7c-0.8,6.1-1.3,12.1-2.3,18.2
		c-1,5.7-1.1,11.6-2.3,17.3c-1.2,5.6-1,11.3-2.5,16.8c-0.6,2.2,0.5,3,2.6,2.9c4-0.1,7.6,1.4,11.3,2.3c5.1,1.3,9.6,4,14.7,5.4
		c10.1,2.8,19.5,7.2,28.9,11.7c5.8,2.7,11.3,5.9,16.9,9.1c1.9,1.1,2.6,0.6,3.1-1.3c1.4-4.9,2.6-9.8,3.7-14.7
		c1.7-8,2.7-16.2,3.5-24.3c0.8-8.2,0.3-16.4,1.1-24.6c1-9.6-1.1-19.1-0.8-28.6c0.3-11.7-1.9-23.2-2-34.9c-0.1-6.7-0.9-13.4-2.3-20
		c-0.4-2.1-1.1-3-3.4-3.3c-3.7-0.4-7.3-1.3-11-2.1c-9.7-2.2-19.4-4.7-29.1-6.8c-9.2-2-18.5-3.3-27.5-5.8
		C-217.3,57.5-221.2,56.2-225.8,56.9z M-214.9,54.6c3.5,1.8,7.1,3,11,3.6c6.8,1.2,13.5,2.3,20.2,3.7c12.2,2.7,24.4,5.7,36.5,8.5
		c7.4,1.7,7.5,1.6,8,9.1c1.3,17.3,2.4,34.6,3.6,51.8c0.4,5.7-0.1,11.3,0.5,17c0.9,8.1-0.4,16.1-0.6,24.1c-0.1,5.4,0.4,10.8-0.6,16.1
		c-0.8,4.1-0.8,4.1,3.4,5.5c0.4,0.1,0.8,0.3,1.3,0.5c6.1,2,6.5,1.7,6-4.8c-0.7-9.3-0.6-18.5,0.2-27.8c1.1-12.8,1-25.6,2.1-38.4
		c0.7-7.6,0.2-15.2,0.3-22.9c0.1-4.3,0.2-8.6,0.8-12.9c1.1-8.3,0.7-16.7,2-25c0.5-3-1-4.4-4-4.5c-2.4-0.1-4.8,0.1-7.2,0
		c-18.8-1.1-37.6-0.4-56.4-1.7c-3.7-0.2-7.5-0.2-11.2-0.9C-204.2,54.7-209.6,55.5-214.9,54.6z M-238.2,55.6c-0.9,1.3-0.3,2.1,0,2.9
		c2.4,7,4.9,14,6.4,21.3c2.3,11.2,5.1,22.3,5.9,33.9c0.6,9.4,0.1,18.8-0.8,28.2c-1,10.1-3.8,19.9-6.3,29.7c-1.5,6-3.4,12-5.1,18
		c-0.9,3-0.2,4.4,2.7,5.6c1.8,0.7,3.7,1.1,5.6,1.5c3,0.6,3.2,0.4,3.9-2.7c0.9-4.4,1.2-8.9,2.2-13.2c1.9-8.9,2.3-18,4-27
		c2-10.1,1.8-20.5,2-30.8c0.2-9.4,0-18.8-0.8-28.2c-0.5-5.6-2.1-10.8-3.1-16.2c-1.2-6.7-3.5-13.2-5.6-19.7c-0.6-1.7-1.4-2.4-3.3-2.1
		C-233.3,57.1-235.7,56.4-238.2,55.6z M-215.3,50.1c0,0.3,0.1,0.6,0.1,0.9c0.7,0,1.5,0,2.2,0c7.6,0.1,15.2-1.1,22.7-1.6
		c19.7-1.3,39.2-3.6,58.9-4.8c3.3-0.2,3.5-0.4,3.7-3.7c0.1-1.6-0.1-3.3,0.8-4.8c0.4-0.7,0.9-1.8-0.1-2.4c-0.5-0.3-1.5-0.3-2.1,0
		c-3.9,1.6-8,1.9-12,2.4c-7.7,1.1-15.3,2.6-22.8,4.3c-11.8,2.7-23.7,4.3-35.6,6.5c-0.6,0.1-1.2,0.2-1.8,0.2c-0.4,0-1.2,0.3-1.2-0.6
		c4.1-1.7,8.5-1.6,12.7-2.4c12.3-2.4,24.6-4.5,36.8-7.3c5.7-1.3,11.4-2.1,17.1-3.3c1.8-0.4,4.3-0.3,4.8-2.6c0.6-2.5,1.5-5.1,1.4-8.1
		c-15,4.3-29.2,9.9-44,13.8c-14.8,3.9-29.5,7.9-44.4,11.8c3.9,0.3,7.6-1.4,11.8-0.9C-209.4,48.5-212.3,49.3-215.3,50.1z
		 M-203.2,52.1c0,0.4,0,0.7,0,1.1c4,0.8,8.2,0.3,12.3,1.1c3,0.6,6.1,1.1,9.3,1.1c13.3,0.1,26.6,0.3,39.8,1c6,0.3,11.9,0.9,17.9,0.5
		c1.2-0.1,2.5-0.1,2.7-1.7c0.3-2.5,0.7-5,1-7.5c0.2-1.5-0.5-2.3-2-2.2c-1,0-2.1,0-3.1,0.1c-5.3,0.6-10.6,1.2-16,1.3
		c-4,0.1-8.1,0.4-12.1,0.8c-11.4,1.1-22.8,2.4-34.3,2.8C-193,50.8-198.1,51.6-203.2,52.1z M-219.8,46.8c5.1-1.4,10.4-1.9,15.5-3.3
		c7.8-2.1,15.5-4.4,23.3-6.3c11-2.6,21.7-6.4,32.5-9.8c4.4-1.4,4.4-1.5,4.5-6.2c0-0.7,0.4-1.5-0.7-2.2
		C-169.6,28.2-194.5,38.1-219.8,46.8z M-231.4,54.4c-0.7-1.2-1.1-1.9-1.5-2.5c-0.4-0.6-0.7-1.3-1-2c-1.2-3-2.4-3.5-5-2
		c-1.7,1-2,2.2-0.6,3.5C-237.4,53.6-234.9,54.7-231.4,54.4z M-222,51.2c1,0.8,1.9,0.8,3,0C-220.2,50.5-221.1,50.4-222,51.2z"/>
	<g id="animation_copy" class="st1">
		<path class="st5" d="M-207,129.9c-0.1-2,0.2-4.3,0.7-6.5c0.3-1.4,1.1-2.7,1.8-4.1c1.2-2.5,2.9-4.8,5-6.7c2.4-2.1,5-4.1,7.9-5.7
			c1.9-1,4-1.4,6.1-2c1.3-0.4,2.7-0.6,4.1-0.9c1.3-0.3,2.5-0.2,3.7,0.2c0.9,0.3,1.8,0.5,2.8,0.6c1.1,0.1,2.2,0.3,3.3,0.6
			c1.7,0.5,3.5,1,5.3,1.5c5.2,1.4,9.2,4.5,12,9.1c0.5,0.8,1,1.6,1.5,2.3c1.5,2.2,2.2,4.7,2.5,7.3c0.2,1.9,0.5,3.8,0.2,5.7
			c-0.4,2.9-1.3,5.6-2.3,8.3c-0.6,1.8-1.5,3.4-2.7,4.9c-0.4,0.5-0.6,1-0.9,1.6c-1.3,2.7-3.4,4.7-6,6.1c-3,1.6-6.2,2.6-9.3,3.6
			c-1.4,0.5-2.9,0.6-4.4,0.7c-1.4,0.1-2.8,0.2-4.2,0.4c-0.7,0.1-1.4,0.2-2-0.2c-0.2-0.1-0.5-0.1-0.8-0.1c-0.3,0-0.5,0.1-0.8,0.1
			c-1.9-0.6-4.1-0.6-5.9-1.7c-1.3-0.8-2.7-1.4-4-2.2c-2-1.3-3.9-2.6-5.7-4.2c-2.1-1.9-4-4-5.4-6.5c-1.7-3.2-2.9-6.6-2.6-10.3
			C-207,131.4-207,130.8-207,129.9z M-162.3,112.3c0.2-0.5,0.3-1.1,0.3-1.6c0-0.5-0.1-0.8-0.5-1c-1.3-0.7-2.6-1.4-4.1-1.8
			c-3-0.8-6-1.8-9.1-2.2c-1.5-0.2-3-0.3-4.5,0.4c-1.6,0.7-2.8,1.8-4.2,2.8c-1.3,0.9-2.2,1.9-1.8,3.7c0,0.1,0,0.3,0,0.4
			c-0.2,2.5,0.1,4.9,0.5,7.3c0.2,0.9,0.6,1.7,1.4,2.3c2.2,1.9,4.8,3.1,7.3,4.5c0.6,0.3,1.2,0.7,1.7-0.1c0.1-0.1,0.4-0.1,0.6-0.2
			c3.5-0.8,6.7-2.2,10-3.5c0.7-0.3,1.1-0.7,1.1-1.6c0-0.6,0.1-1.2,0.2-1.8c0.3-1.7,0.6-3.3,1-5c0.1-0.5,0.1-1-0.4-1.4
			c-0.3-0.2-1-0.5-0.7-1.1C-163.3,111.5-162.8,112.4-162.3,112.3z M-176,135.7c-0.1,2.1-0.1,2,1.3,2.8c2.1,1.1,4.3,1.9,6.4,2.9
			c0.4,0.2,0.8,0.4,1.2,0.3c2.5-0.7,5-1.6,7.4-2.5c0.6-0.2,1-0.7,1.2-1.3c0.9-2.3,1.5-4.7,2.2-7c0.5-1.5,0.3-1.9-1.1-2.8
			c-1.9-1.2-3.8-2.4-5.6-3.8c-0.7-0.5-1.3-0.6-2-0.3c-2.9,1.3-6,2.2-8.9,3.3c-0.8,0.3-1.3,0.7-1.4,1.7
			C-175.8,131.4-175.8,133.7-176,135.7z M-184,152.8c1,0.1,1.9,0.1,2.9-0.1c0.9-0.2,1.9-0.3,2.8-0.3c1.3,0,2.5-0.2,3.7-0.6
			c0.8-0.3,1.6-0.6,2.4-0.7c0.5-0.1,0.9-0.3,1.1-0.8c1-2.1,2.1-4.1,3.2-6.1c0.5-0.9,0.4-1.2-0.5-1.7c-2.3-1.1-4.7-2.1-7-3.2
			c-0.4-0.2-0.7-0.2-1.1-0.2c-2,0.2-4,0.5-6,0.4c-1-0.1-2,0.2-3,0.4c-0.6,0.1-1.2,0.4-1.7,0.9c-1.5,1.4-2.5,3.2-3.8,4.8
			c-0.2,0.3-0.2,0.5,0,0.8c1.2,1.9,2.7,3.7,4,5.6c0.3,0.4,0.8,0.8,1.4,0.8C-185.1,152.8-184.5,152.8-184,152.8z M-187.3,114.3
			c0-0.7-0.1-1.3,0-2c0.1-0.9-0.2-1.6-0.9-2.2c-0.8-0.8-1.7-1.4-2.7-2.1c-0.4-0.2-0.7-0.2-1.1,0c-1,0.7-2,1.3-2.9,2
			c-2.6,1.8-5.1,3.8-6.9,6.5c-0.5,0.8-0.7,1.5-0.5,2.4c0.5,2.6,1.6,5,1.9,7.6c0.1,0.5,0.5,0.8,1,0.9c1.8,0.6,3.7,0.6,5.5,0.9
			c1.3,0.2,2.1-0.3,2.8-1.2c1.1-1.4,2.3-2.7,3.4-4.1c0.7-0.8,1.1-1.6,0.8-2.7C-187.1,118.4-187.4,116.4-187.3,114.3z M-200.1,128.5
			c-1-0.1-1.3,0.5-1.5,1c-1.1,2.1-2,4.4-3.5,6.3c-0.5,0.6-0.5,1.3-0.2,2c0.6,1.4,1.2,2.8,1.8,4.2c0.2,0.4,0.5,0.6,0.9,0.4
			c0.4-0.2,0.7-0.3,1.1,0.1c0.7,0.7,1.6,0.9,2.5,1c2,0.3,4,0.7,6,1.2c0.7,0.2,1.2,0,1.6-0.6c1.3-1.7,2.6-3.3,4.1-4.9
			c0.4-0.4,0.4-0.7,0.2-1.2c-1.1-2.7-2.3-5.3-3.9-7.6c-0.3-0.4-0.6-0.8-1.1-0.8c-0.8-0.1-1.6-0.3-2.5-0.3c-1.6,0-3.2-0.3-4.8-0.6
			C-199.6,128.6-199.9,128.5-200.1,128.5z M-176.5,129.3c0.2-0.6-0.2-0.8-0.7-1.1c-1.7-1.2-3.7-1.9-5.4-3.1
			c-0.8-0.5-1.6-1.1-2.4-1.6c-0.8-0.5-0.8-0.5-1.5,0.2c-1.3,1.3-2.2,2.9-3.5,4.2c-0.9,0.9-0.8,1-0.2,2.1c0.8,1.3,1.8,2.6,2.4,4
			c0.6,1.4,1.3,2.7,1.9,4.1c0.3,0.6,0.6,1,1.4,0.8c1.3-0.3,2.6-0.3,3.9-0.3c0.8,0,1.6-0.1,2.3-0.3c0.5-0.1,0.8-0.4,0.8-0.9
			C-177.1,134.7-176.8,132-176.5,129.3z M-161,111c0.1,2.1-0.6,4.2-0.6,6.2c0,1.2-0.2,2.3-0.5,3.5c-0.1,0.4-0.2,0.8-0.4,1.3
			c-0.3,0.9-0.1,1.5,0.7,2c1.1,0.8,2.3,1.5,3.4,2.3c0.7,0.5,1.6,0.9,2.3,1.5c0.2,0.2,0.5,0.2,0.7,0.2c1.2,0.1,2.2-0.2,3.3-0.6
			c0.5-0.2,0.7-0.5,0.6-1c-0.2-1.2-0.3-2.3-0.6-3.5c-0.7-2.5-2.1-4.7-3.5-6.8c-1.1-1.8-2.5-3.3-4.1-4.6
			C-160,111.3-160.2,111-161,111z M-169.8,150.8c-0.4,0.6,0,0.8,0.5,1.1c0.5,0.3,1,0.7,1.5,1c0.4,0.3,0.8,0.3,1.3,0.1
			c1.9-1,3.7-2.1,5.5-3.2c2.4-1.5,3.8-3.9,5.5-6.1c0.2-0.3,0.3-0.6,0-0.8c-0.3-0.3-0.6-0.7-0.9-0.9c-0.3-0.2-0.7-0.2-0.9,0.1
			c-0.1,0.1-0.2,0.3-0.2,0.5c-0.1,0.2-0.3,0.5-0.6,0.4c-0.4-0.2-0.2-0.5,0-0.8c0-0.1,0.1-0.2,0.1-0.2c0.1-0.3,0.6-0.7,0.2-1
			c-0.4-0.3-0.8-0.8-1.5-0.7c-0.3,0.1-0.7,0.2-1,0.4c-1.4,0.7-3,1.2-4.5,1.6c-0.9,0.3-1.5,0.7-2,1.5c-0.7,1.3-1.4,2.5-2,3.8
			C-169.2,148.6-169.9,149.5-169.8,150.8z M-201.4,144c-0.4,0.1-0.4,0.4-0.2,0.7c0.4,0.6,0.8,1.1,1.3,1.6c1.8,1.7,3.6,3.5,5.7,4.9
			c1.9,1.3,4,2.1,5.9,3.4c0.4,0.2,0.7,0.3,1-0.1c0.3-0.3,0.2-0.6,0-0.9c-1.5-2.5-3-4.9-4.9-7.1c-0.4-0.5-0.9-0.9-1.6-0.9
			c-0.8-0.1-1.7-0.2-2.4-0.4c-1.5-0.4-3.1-0.3-4.6-1C-201.2,144-201.3,144-201.4,144z M-155.8,139.7c-0.3,0.8,0.2,1.3,0.7,1.8
			c0.4,0.4,0.7,0.2,0.9-0.2c0.2-0.3,0.3-0.5,0.4-0.8c0.5-0.8,0.5-1.8,0.9-2.7c1.2-2.6,1.5-5.3,1.7-8.1c0.1-1-0.4-1.4-1.3-1.2
			c-1.3,0.4-2.5,1-2.8,2.6c0,0.3-0.2,0.7-0.3,1c-0.7,2.1-1.3,4.2-2,6.3c-0.3,1,0.1,1.3,1,1.2C-156.3,139.6-156.1,139.5-155.8,139.7z
			 M-178.4,156c1-0.3,2.3-0.1,3.6-0.3c1.9-0.2,3.8-0.6,5.5-1.5c0.6-0.3,0.7-0.5,0.2-0.9c-1.4-1.1-2.9-1.7-4.7-0.9
			c-1.1,0.5-2.2,0.7-3.3,0.7c-2.7,0.1-5.3,0.8-7.9,0.7c-0.1,0-0.3,0-0.4,0.1c-0.5,0.2-0.8,0.6-0.8,1.1c0,0.5,0.5,0.5,0.9,0.6
			c0.2,0.1,0.4,0.1,0.6,0.1C-182.8,155.8-180.8,155.9-178.4,156z M-205.9,134.4c0.5-0.2,0.6-0.4,0.7-0.7c0.7-1.2,1.3-2.6,2.1-3.7
			c1.5-2,1.5-4,0.7-6.1c-0.4-1.3-0.8-2.6-1.2-4.1c-1.6,2.2-2.2,4.6-2.5,7c-0.2,1.8-0.2,3.7-0.3,5.6
			C-206.3,133-206.3,133.7-205.9,134.4z M-181.7,105.5c-0.5,0-0.9,0-1.4,0c-0.4,0-0.9-0.1-1.3,0.1c-0.7,0.3-1.5,0.4-2.3,0.6
			c-0.8,0.2-1.7,0.4-2.5,0.8c-0.7,0.3-0.7,0.6-0.2,1.1c0.4,0.4,0.8,0.8,1.3,1.1c0.9,0.6,1.4,0.6,2.2-0.1c1-0.9,2.1-1.6,3.2-2.4
			C-182.2,106.3-181.7,106.1-181.7,105.5z"/>
	</g>
</g>
<g id="info">
	<path id="box" class="st0" d="M-353.6,25.4c0-1.4,0.2-3.1-1.8-3.3c-1.2-0.1-2.3,0.4-2.8,1.6c-1.3,3.6-4.1,6-7.5,6.9
		c-12.1,3-24.1,6.5-36.7,7.3c-12.8,0.8-25.6,0.3-38.4,1.6c-22.1,2.3-44.1,1.1-65.7-4.6c-7.4-2-14-5.5-21.2-7.8
		c-1.4-0.5-2.6-1.4-3.8,0.2c-0.9,1.3-1.5,2.6,0.2,3.7c2.7,1.9,2.7,5,3.6,7.7c3.9,13.1,6.7,26.3,8.9,39.9c3,19,3.3,38.2,4.3,57.3
		c0.5,9-1.8,17.9-2,27c-0.4,14.2-2.1,28.4-4.2,42.5c-1.1,6.9-1.4,14-11.7,15.8c2.5,1.5,3,2.1,3.4,2.1c3.5-0.3,7-0.5,10.4-1.2
		c24.3-5.1,48.6-7.9,73.5-6.9c24.1,1,48.3,0,72.3,3.8c4.4,0.7,8.3,2.5,12.6,3.2c1.6,0.2,3.6,1.2,4.3-1.3c0.5-1.7-0.9-2.6-2.1-3.4
		c-2.4-1.5-5.5-2-6-5.6c-2-14.6-6.4-28.9-6.8-43.8c-0.3-10.1-0.6-20.2-0.5-30.4c0.2-30.4,2.8-60.4,9.8-90c1.4-6,1.5-12.8,6.8-17.4
		C-353.2,29.1-353.6,27.1-353.6,25.4z M-367.9,213c-3.1,2.3-6.4,0.9-9.4,0.4c-18.2-3.3-36.6-2.3-54.9-2.8c-15.1-0.4-30.2-2-45.3,0.6
		c-9.7,1.7-19.5,2.9-29.3,4.4c-0.3,0-0.5,0.2-0.8,0.3c-9.3,2.1-10.4,1-9.1-8.7c4.6-35.3,7.2-70.7,4.9-106.2
		c-1.2-18.4-3.4-37-9.6-54.8c-1-2.9-2.6-5.9-1.2-9.3c2.3-1.5,4.7-0.2,6.6,0.5c24,8.9,49,7.9,74,7.5c15.1-0.2,30.2-1.2,45.2-2.6
		c9.7-0.9,19.3-4,28.9-6.1c1.1-0.2,2.2-0.8,4.2,0.5C-375.8,94.8-381.4,153.7-367.9,213z"/>
	<path id="question_dot" class="st0" d="M-452.4,170.7c-1.7,0.9-3.3,2-4.8,3.4c-1.4,1.3-2.7,2.9-3.7,4.6c-1,1.8-1.6,3.5-1.7,5
		c-0.2,2.4,0.9,4.5,3.4,6.2c2.3,1.5,4.8,2.3,7.5,2.3c1.8,0,3.6-0.5,5.1-1.5c1.5-1,2.8-2.2,3.9-3.7c1.1-1.4,2-3,2.6-4.6
		c0.7-1.6,1-3.1,1.1-4.4c0.2-2.7-0.5-4.9-2.1-6.4C-443.8,169.1-447.8,168.3-452.4,170.7z"/>
	<path id="question_mark" class="st0" d="M-406.7,70.4c-4.7-3.7-11.7-5.5-20.8-5.5c-6.5,0-12.3,0.7-17.3,2.2
		c-5,1.4-9.5,3.3-13.2,5.5c-3.7,2.2-6.9,4.8-9.5,7.7c-2.6,2.8-4.7,5.7-6.3,8.5c-1.6,2.8-2.8,5.5-3.5,8.1c-0.7,2.6-1.1,4.6-1.1,6.2
		c0,5.5,0.9,10,2.6,13.2c1.7,3.3,3.7,5.7,5.9,7.1c2.2,1.5,4.4,2.2,6.3,2c3.3-0.3,3.6-2.3,3.6-3.1c0-0.8-0.2-1.6-0.7-2.2
		c-0.2-0.3-0.5-0.8-0.8-1.3c-0.3-0.5-0.6-1.3-0.8-2.2c-0.2-0.9-0.4-2.3-0.4-4c0-3.5,0.8-7.6,2.4-12.1c1.6-4.5,3.9-8.9,7-12.9
		c3-4,6.8-7.4,11.2-10.2c4.3-2.7,9.3-4.1,14.9-4.1c1.4,0,2.7,0.3,3.9,0.9c1.3,0.6,2.4,1.5,3.4,2.5c1,1.1,1.8,2.3,2.4,3.6
		c0.6,1.3,0.9,2.6,0.9,3.9c0,4.4-1,8.7-3,12.9c-2,4.3-4.6,8.4-7.6,12.3c-3.1,3.9-6.5,7.7-10,11.3c-3.6,3.6-7,6.9-10.1,10
		c-3.1,3.1-5.8,5.8-7.9,8.3c-2.3,2.7-3.4,5-3.4,7c0,1.5,0.3,2.9,0.9,4.3c0.6,1.3,1.3,2.5,2.1,3.5c0.8,1,1.8,1.8,2.9,2.5
		c1.2,0.7,2.3,1,3.4,1c1.1,0,2.6-0.5,3.6-2.8c0.9-2.2,2.6-4.8,5.2-7.7c2.7-3,5.8-6.4,9.2-9.9c3.4-3.6,7-7.3,10.8-11.3
		c3.8-4,7.3-8.1,10.4-12.3c3.2-4.2,5.8-8.6,7.9-12.9c2.1-4.5,3.1-8.9,3.1-13.3C-399.4,79.8-401.9,74.2-406.7,70.4z"/>
	<g id="animation_copy_3" class="st1">
		<path id="Exclamation" class="st2" d="M-435.8,199.8c-5,1.5-9.8,0.8-13.8-2.7c-3.5-2.7-4.8-6.9-4.2-11.1c0.8-5.2,6.3-9.4,11.5-9.2
			c1.5,0,5,0.6,6.3,1.2c3.8,2.1,5.2,4,5.8,8.2c1,5.2-1.2,10.7-4.4,13C-435,199.4-435.4,199.6-435.8,199.8z M-431.9,93
			c0,0.4,0.8,11.3,0.6,16.5c-0.2,10.7-0.4,51.6-0.4,57.5c0,2.1-0.8,3.5-3.5,3.8c-4,0.6-8.1,0.8-12.1,0.4c-0.8,0-1.5-0.2-2.3-0.4
			c-1.2-0.2-2.1-1-2.3-2.3c-0.2-1.5-0.4-2.9-0.4-4.2c-0.2-2.9,0-5.6,0-8.2c-0.2-5.9,0-30.9,0.2-36.4c0-5.4,0.2-10.9,0-16.3
			c-0.2-4-0.4-7.9-0.4-11.9c-0.4-8.6-0.6-17.5-1-26.1c-0.2-3.5,0-7.3,0.6-10.2c0.2-1.5,1-2.3,2.5-2.7c5.4-0.8,10.9-1,16.3,0
			c1.5,0.2,2.3,1,2.9,2.3c0.4,1.3,0.6,2.5,0.2,3.8c-0.2,1.5-0.6,3.1-0.8,4.6C-432.3,74.8-432.3,82.1-431.9,93z"/>
	</g>
</g>
<g id="visitor">
	<g id="decoative">
		<path id="deco5" class="st4" d="M196.1-260.5c-1-0.2-1.3,0.6-1.4,1.4c-0.9,5.2-2,10.4-2.8,15.7c-0.6,4.1-0.8,8.2-1.7,12.2
			c-0.4,1.9-1.2,3.7-0.6,6.3c1.9-4,2.1-7.8,2.9-11.5c1.3-6,1.7-12.2,3.3-18.2c0.4-1.4,0.8-2.7,1.1-4.1
			C197-259.4,197.1-260.3,196.1-260.5z"/>
		<path id="deco4" class="st4" d="M189.1-158.6c-1,0.9-0.9,1.8-0.8,2.6c1,6.7,1.4,13.5,2.8,20.2c0.7,3.3,1.1,6.8-3.8,8.6
			c4.1,0,6-1.9,5.7-5.1c-1-8.5-2.1-17-3.2-25.4C189.7-158,189.4-158.2,189.1-158.6z"/>
		<path id="deco3" class="st4" d="M-5.1-208c0,0.2,0.1,0.4,0.1,0.6c1.1,4.2,1.2,8.6,1.5,12.9c0.5,6.9,0.5,13.9-0.4,20.8
			c-0.4,2.7-0.3,5.5-0.5,8.3c0.2,0,0.3,0,0.5,0.1c0.4-3,0.8-6,1.1-8.9c1.1-11.4,1-22.8-0.5-34.1c-0.1-0.9,0.5-2.7-1.2-2.4
			C-6-210.6-5-209-5.1-208z"/>
		<path id="deco2" class="st4" d="M26.7-246.9c0-0.5-0.3-0.9-0.8-0.8c-0.4,0-0.7,0.4-0.8,0.9c-0.1,0.4-0.1,0.9-0.1,1.3
			c-0.1,3.7-0.3,7.4-0.9,11c-1.1,6.8-0.1,13.7-1.4,20.4c-0.1,0.5-0.2,1.1,0.6,2c0.1-3.7,1-6.8,1.2-9.9c0.3-6.9,1.6-13.8,2.1-20.7
			C26.7-244.1,26.7-245.5,26.7-246.9z"/>
		<path id="deco1" class="st4" d="M-6.7-133.4c0-1.2,0.4-2.5-0.4-3.8c-2.3,3.6-1.7,7.8,1.2,9.5c2.7,1.6,5.8,2,8.9,1.1
			c-2.1-0.7-4.2-1.4-6.3-2C-5.8-129.2-6.7-130.9-6.7-133.4z"/>
	</g>
	<path id="map" class="st4" d="M201.5-274.2c-2.6-3.6-6.1-5.4-10.3-6.3c-5.9-1.2-11.9-1.3-17.8-1.7c-3.5-0.2-6.9,0.5-10.4,0.7
		c-7.2,0.4-14.3,1.4-21.3,3c-6.5,1.4-13,2.5-19.4,4.1c-5.6,1.3-11.3,2-17,2.8c-7.6,1.1-15.3,1.9-23,2.1c-7.5,0.2-15-0.9-22.4-1.5
		c-3.9-0.3-7.7-0.9-11.6-1.6c-10-1.8-19.6-5.4-29.7-7.1c-7.7-1.3-15.3-2.2-23-0.4c-4.3,1-8.6,2.1-12.5,4.4c-2.5,1.5-3.8,4.1-2.9,6.1
		c1.4,3.1,2.2,6.3,2.9,9.6c1.2,5.6,1.8,11.4,2.9,17c1.1,5.7,2.1,11.3,2.6,17c0.7,8.5,0.8,17.2,1,25.7c0.3,12,0,23.9-0.5,35.9
		c-0.3,6.8-0.4,13.7-1.3,20.5c-0.8,5.7-1.5,11.4-3,16.9c-0.4,1.7-0.7,3,1.4,4.1c4.3,2.2,8.9,3.3,13.7,3.7c2.7,0.2,5.4,0.4,8.1,0.7
		c5.7,0.6,11.5,1.1,17.2,0.2c2.1-0.3,4.1-0.8,6-1.6c1-0.4,2.1-1.3,1-2.5c-1.5-1.7-1.2-3.8-2-6c5.1,0.3,9.8,0.7,14.4,0.5
		c9.6-0.5,18.9-2.8,28-5.4c7.5-2.2,15.1-3,22.8-2.6c0.8,0,1.5,0.1,2.3,0.3c4.7,0.9,9.1,2.7,13.8,3.8c3.4,0.8,6.7,2,10.1,2.3
		c8.5,0.8,17,2.1,25.7,1.5c2.8-0.2,3.4,0.4,3.1,3.1c-0.2,1.8,0.6,2.6,1.6,3.6c1.1,1.1,2.6,1.6,4,2c9.7,3,19.6,3.4,29.7,2.3
		c3.1-0.4,6.2-1.4,9.1-2.5c1.5-0.6,2.6-1.8,3.6-3.2c0.8-1.3-0.6-1.9-0.5-3c0-0.3,0-0.7-0.1-1c-1-3.6-0.5-7.4-1-11
		c-1.2-8.9-2-17.9-2.1-26.9c-0.2-14.9-0.5-29.8-0.1-44.7c0.3-12,1.5-23.8,3.3-35.6c0.5-3.2,1.2-6.4,1.5-9.6
		c0.5-4.2,0.6-8.7,3.2-12.4C204.3-269.9,203.2-271.9,201.5-274.2z M28.9-121.3c-1.8,0.4-3.5,1.2-5.4,1.2c-4.2-0.1-8.5,0.4-12.7-0.1
		c-6.7-0.8-13.5-0.4-20-2.6c-0.4-0.1-0.8-0.2-1.2-0.4c-2.5-0.9-3.2-1.9-2.7-4.4c1.4-6.3,2.4-12.6,2.8-19c0.3-5.1,1-10.2,1-15.3
		c0.2-13.6,0.6-27.2,0.3-40.8c-0.3-10.6-0.2-21.3-1.6-31.9c-0.6-4.6-1.5-9.2-2.4-13.8c-0.8-4.6-1.8-9.1-2.7-13.7
		c-0.2-1-0.2-2.1-0.3-3.5c8.4,2.8,16.5,4,24.7,4.6c8.1,0.6,16.2,1.6,24.4-0.2c0.5,2.6-0.4,4.8-0.9,6.9c-1.2,5.4-2,10.9-2.9,16.3
		c-1.2,7.2-1.6,14.4-2.5,21.7c-1.1,9-1.4,18-1.6,27c-0.2,7.5-0.7,15-0.4,22.5c0.5,11.4,1.4,22.8,2.9,34.1c0.4,3.2,0.8,6.5,1.8,9.6
		C30-122.1,29.9-121.5,28.9-121.3z M25.2-267.4c-0.1-0.4-0.5-0.8-1-0.8c-0.7,0.1-1.5,0.2-2.2,0.5c-6.3,2.6-12.7,2.1-19.2,0.8
		c-0.3-0.1-0.7-0.1-0.9-0.3c-0.7-0.4-1.9-0.4-2-1.4c-0.2-1.3,1.1-1.5,1.9-1.8c2.4-1.1,5.1-1.1,7.7-1.3c1.5-0.1,3,0,4.5,0
		c4.2-0.5,8.3,0.4,12.4,0.8c2.5,0.2,4.7,1.5,6.9,2.7c1,0.5,2,1.4,1.7,2.9c-0.3,1.3-1.2,1.8-2.5,2.3c-2.9,1-6,1-9,1.2
		c-0.9,0-1.8,0-2.1-1.1c-0.4-1.2,0.4-1.8,1.3-2.3c0.7-0.4,1.4-0.6,2.1-0.9C25.2-266.5,25.3-266.9,25.2-267.4z M2.8-263.3
		c-1-0.1-3.1,0-2.8-1.4c0.3-1.7,1.9-0.2,2.9-0.1c4.2,0.6,8.4,1.1,12.6,0.5c1-0.1,1.9-0.2,2.9-0.2c0.8,0,1,0.7,1,1.4
		c0,0.7-0.5,0.9-1.1,0.9c-1.3,0-2.6,0-3.9,0c0,0,0-0.1,0-0.1C10.6-262.6,6.7-262.9,2.8-263.3z M198.6-262c-0.8,3.2-1.3,6.4-1.7,9.6
		c-0.3,3.2-1,6.4-1.5,9.6c-0.2,1.4-0.6,2.8-0.7,4.2c-0.8,10.2-1.9,20.3-2.5,30.5c-0.4,8.2,0.1,16.3,0,24.4c0,7.2,0,14.3,0.3,21.5
		c0.5,8.8,1.4,17.5,2.1,26.3c0.3,3.5,0.7,6.9,1,10.4c0.2,2.6-0.2,3.1-2.6,4.2c-4.4,1.9-9,2.3-13.7,2.6c-6.4,0.4-12.8-0.3-19.1-1.6
		c-2.4-0.5-4.9-1.2-7-2.6c-0.7-0.5-1.2-1-1.2-2.1c0-3.6,0.8-7.1,1.3-10.6c0.1-1,0.5-1.9,0.5-2.9c0.7-9,2.4-17.9,2.4-26.9
		c0-7.3,1-14.5,1-21.8c0-10.1-0.2-20.2-0.1-30.3c0-5.7-0.3-11.3-0.9-16.9c-0.2-2.3-0.8-4.5-1.1-6.7c-1-6.6-2.3-13.2-5-19.5
		c-0.7-1.6-0.2-2,1.8-1.6c5.7,1.2,11.4,1.5,17.1,1.5c7.5-0.1,15-0.6,22.4-2.1c2.3-0.5,4.6-0.8,6.9-1.2
		C199.2-263.3,198.8-262.7,198.6-262z M163.1-268c-0.5-0.1-1-0.3-1.6-0.4c-2.6-0.5-3.3,0.2-2.7,2.8c0.5,2.2,0.1,2.7-2,2.3
		c-2.1-0.4-4.3-0.9-6.3-1.5c-0.8-0.2-1.6-0.8-1.7-1.8c-0.1-1.1,0.8-1.6,1.6-1.8c2.8-0.9,5.6-2,8.4-2.4c4.4-0.6,8.9-0.6,13.3,0.1
		c0.9,0.1,2,0.1,2.6,1.3C171-267.3,167.1-267.5,163.1-268z M175-265.3c0.2,1.1,0.6,2.2-1.1,2.4c-1.2,0.1-2.4,0.4-3.6,0.3
		c-2.6-0.1-5.2-0.3-7.8-0.5c-1.1-0.1-1.5-0.7-1.4-1.7c0-1,0.7-1.2,1.5-1.2c1.4,0,2.8,0,4.2,0c2.2,0,4.3,0.3,6.4-0.5
		C174.4-266.8,174.9-266.4,175-265.3z M200.2-268.5c-1.7,2-3.6,2.9-6.1,3.3c-4.8,0.7-9.6,1.8-14.5,2.1c-2.7,0.2-3.1-0.4-2.4-3
		c0.6-2.1,0.9-4.1-1.3-5.5c-0.5-0.3-0.9-0.6-1.5-0.6c-4.3-0.6-8.6-1-13-0.6c-3.7,0.4-7.3,1-10.8,2.2c-4.1,1.3-4.7,2.9-3.1,7.1
		c1.3,3.5,2.4,7,3.6,10.4c1.3,3.6,1.6,7.4,2.3,11.1c2.4,12,1.7,24.2,2.1,36.4c0.5,15.7-0.6,31.3-1.1,46.9c-0.2,6.4-1.3,12.7-2.1,19
		c-0.3,2.5-0.4,5-1.1,7.4c-0.3,1.3-1,1.8-2.3,1.8c-6.5,0-12.9,0.5-19.5-0.5c-6.8-1-13.5-2-20.1-3.8c-3-0.8-6-1.9-9.1-2.5
		c-8.4-1.7-16.6-1-24.8,1.1c-7.3,1.9-14.6,3.9-22.2,5.1c-3.3,0.5-6.6,1.2-10,1.2c-3.8,0-7.6-0.1-11.3-0.4c-2-0.1-2.7-1.2-2.8-3.7
		c-0.2-5.9-1.1-11.7-1.6-17.5c-1-10.5-0.9-21.1-0.9-31.6c0.1-9.4,0.1-18.7,1.2-28c1-8.5,1.4-17.1,2.9-25.6c1.3-7.5,2.7-15,4-22.4
		c0.2-1.3,0.7-2.4,1.5-3.5c1.7-2.3,1.1-5.3-1.3-6.8c-2.3-1.4-4.8-2.5-7.5-3c-7.1-1.5-14.3-1.3-21.4-0.9c-2.1,0.1-4,0.7-6,1.5
		c-2.2,0.9-3.1,2.4-2.8,4.9c0.3,2.7,0,2.9-2.6,2.3c-2.5-0.5-5.1-0.9-7.6-1.9c-1.5-0.6-2.7-1.4-3.8-2.4c-1.7-1.5-1.7-3,0-4.3
		c1.2-0.9,2.5-1.7,3.9-2.3c8.1-3.6,16.6-4.4,25.2-3.3c8.5,1.1,16.8,3.2,25.1,5.6c4.9,1.4,10,1.9,15,2.8c4.4,0.8,8.8,1,13.2,1.6
		c7.5,1,14.9,1.1,22.4,0.8c4.7-0.2,9.3-0.8,13.9-1.4c4-0.5,7.9-1.4,11.9-1.8c5.1-0.6,10-1.8,15-2.8c7.9-1.5,15.7-3.5,23.7-4.6
		c12.1-1.6,24.2-2.6,36.4-0.3c4.8,0.9,8.7,3.1,11.5,7.3C201.3-270.5,201.3-269.8,200.2-268.5z"/>
	<g id="animation_2_" class="st1">
		<circle id="dot4" class="st2" cx="58.4" cy="-152.5" r="2.3"/>
		<circle id="dot3" class="st2" cx="124.4" cy="-185.6" r="2.3"/>
		<circle id="dot2" class="st2" cx="46.1" cy="-221.9" r="2.3"/>
		<circle id="dot1" class="st2" cx="123.6" cy="-245.7" r="2.3"/>
		<line id="bottom_line" class="st6" x1="58.4" y1="-152.5" x2="124.4" y2="-184.8"/>
		<line id="centre_line" class="st6" x1="46.1" y1="-221.9" x2="123.6" y2="-185.9"/>
		<line id="top_line" class="st6" x1="46.1" y1="-221.9" x2="123.6" y2="-245.7"/>
	</g>
</g>
<g id="schedules">
	<path id="outside_watch" class="st0" d="M-77.4-250.5c-2.4-4.4-4.7-8.9-7-13.4c-0.8-1.5-1.3-3.1-2.2-4.6c-1.1-1.8-2.2-1.8-3.8-0.5
		c-1.5,1.2-2.9,2.5-4.4,3.7c-2.4,2-4.9,3.9-8.3,2.4c-0.8,3-0.6,3.7,2.4,7.3c-1.3,0.8-2.6,1.6-4,2.4c-2-1.5-3.8-2.9-5.6-4.3
		c-6.2-4.8-12.2-9.8-18.5-14.4c-4.2-3-8.7-5.7-14-6.3c-7.1-0.8-14.1-1.9-21.2-1.5c-0.7,0-1.5,0.2-2.1,0c-0.7-0.2-1.2-0.9-1.8-1.3
		c0.6-0.5,1.1-1.2,1.7-1.3c1.2-0.2,2.4,0,3.6-0.1c1.2-0.1,2.4-0.3,2.4-2.3c-3-1-2.8-3.5-2.7-6.1c0.1-1.9,0-3.8-0.1-5.8
		c-0.1-2.9-0.5-3.3-3.5-3.3c-5.1,0.1-10.1,0.3-15.2,0.4c-3.2,0.1-6.5,0-9.7-0.1c-2.6-0.1-3,0.1-3,2.6c-0.1,3.6,0,7.2-0.1,10.8
		c-0.1,4.7-0.1,4.7,4.5,3.4c0.1,0,0.2-0.1,0.3-0.1c1.9-0.5,2.7,0,3.1,1.9c0.3,1.5,0.3,3.1,0.5,5c-1.3,0.3-2.3,0.5-3.2,0.7
		c-6.1,1.3-12.3,2-18.1,4.7c-10.4,4.8-20.1,10.5-26.7,20.2c-0.5,0.7-1,1.3-1.6,2c-7.5,9.6-12.9,20.3-15.5,32.2
		c-1.4,6.3-2.2,12.6-2.1,19c0.1,4.2,0.4,8.4,0.9,12.6c0.3,3.1,1.2,6.1,1.6,9.2c0.7,5.8,2,11.4,4.6,16.6c3.4,7,8,13.1,13.3,18.7
		c7.8,8.3,17,14.9,26.3,21.4c4.9,3.4,10.5,5.3,16.5,5.9c6.6,0.7,13.1,1.5,19.7,1.8c5.6,0.2,11.4,0.5,16.9-1.1
		c7.1-2.2,14.4-3.6,21.3-6.4c11.2-4.6,21.3-10.6,29.4-19.7c5.9-6.7,11-14,13.4-22.8c1.5-5.7,3.6-11.2,5.3-16.9
		c0.6-2.1,1.2-4.2,1.2-6.4c-0.1-11,1-22.1-1.3-33.1c-1.9-9.2-3.6-18.4-8.8-26.6c-0.2-0.4-0.3-0.8-0.5-1.2c0.1-0.1,0.2-0.2,0.3-0.2
		c1.2,1.3,2.4,2.7,3.7,4.1c1.1-0.7,1.8-1.4,2.7-1.7c1-0.4,2.1-0.4,3.2-0.7c1.4-0.4,2.8-0.7,4.2-1.2C-75.9-246-75.6-247.3-77.4-250.5
		z M-191.2-288.9c-0.2-1.3-0.3-2.6-0.4-3.9c-0.1-2.6,0.4-3,3.6-3c0.2,3.2,0.4,6.1,0.6,9C-190.6-286-190.9-286.1-191.2-288.9z
		 M-98.7-253.1c1.3,1.6,2.4,2.8,3.7,4.3c-3.3,2-6.2,3.8-9.2,5.7c-0.8-0.8-1.4-1.5-2.4-2.5C-103.9-248.2-101.5-250.5-98.7-253.1z
		 M-93.7-238.7c-3.3,0.3-5.8,0.5-8.3-0.6c0.5-2.4,2.4-3.3,4.2-4.2c0.4-0.2,1.5,0.1,1.8,0.5C-95.2-241.8-94.6-240.5-93.7-238.7z
		 M-110.5-251.3c0.5,0.5,1.1,1,1.6,1.5c-0.2,0.2-0.3,0.4-0.5,0.7c-0.6-0.4-1.2-0.9-1.7-1.3C-110.9-250.8-110.7-251.1-110.5-251.3z
		 M-115.1-255.2c1,0.2,2,0.3,3,0.5c0,0.4-0.1,0.7-0.1,1.1c-1-0.2-2-0.5-3-0.7C-115.2-254.6-115.1-254.9-115.1-255.2z M-136.8-273.3
		c-1.6,1.1-3.7,1.2-11.1,0C-144.3-273.3-140.7-273.3-136.8-273.3z M-131-269.8c0,0.3,0,0.7,0,1.1c-2.5-0.2-5-0.4-7.4-0.6
		c0-0.1,0-0.3,0-0.4C-136-269.8-133.5-269.8-131-269.8z M-148-276c-5.3,0.8-10.5,1.4-15.6-0.9C-158.3-276.6-153.2-276.3-148-276z
		 M-185.1-295.7c1-0.3,1.9-0.5,2.9-0.7c1,3-1.2,6.2,0.9,9.6c0.5-1.2,0.9-1.7,1-2.3c0.3-1.5,0.5-3.1,0.8-4.6c0.5-2.6,0.9-3,3.6-3.1
		c1.2-0.1,2.4,0,3.8,0c0,2.9-1.5,5.9,0.6,8.7c1.7-1.1,1.1-2.8,1.4-4.1c0.3-1.4,0.5-2.8,0.7-4.2c2.9-0.4,3.2-0.2,3.4,2
		c0.2,2.2,0.3,4.3,0.3,6.5c0,1.1-0.5,2.6-1.7,2.2c-2.4-0.8-4.6-0.1-7.3,0.3c0-3.5,0-6.6,0-9.7c-0.3,0-0.6-0.1-0.9-0.1
		c-2.4,2.4-1,5.7-1.9,8.6c-2.3,1.1-4.6,0.5-7,0.3C-185.8-289.4-185.4-292.5-185.1-295.7z M-172.9-278.2c-2.3,0.9-4.3,2.3-7.1,2.1
		c-3-0.3-3.6-0.6-3.8-3.5c-0.1-0.9,0.1-1.9,0.2-3.3c3.7-0.4,7-0.3,10.3,0.3c1.1,0.2,2,0.8,2.1,2.1
		C-171.1-279.2-171.7-278.6-172.9-278.2z M-148.9-118.1c-0.4-0.1-0.7-0.3-1.3-0.6c0.5-0.3,0.9-0.7,1-0.6c0.3,0.2,0.5,0.6,0.8,0.9
		C-148.6-118.3-148.8-118.1-148.9-118.1z M-150.2-122.3c-10.1,5.2-21.2,5.9-32.3,6.8c-9.7,0.7-18.1-2.1-25.9-7.9
		c-8.9-6.6-17.6-13.4-25-21.8c-7.7-8.8-13.2-18.6-14.3-30.5c-0.2-2.6-1.1-5.2-1.5-7.8c-0.7-4.6-1.2-9.3-1.8-13.9
		c0.2-18.1,6.4-34,17-48.4c2.3-3.1,4.7-6.1,7.5-8.8c2.5-2.4,5.2-4.6,8.1-6.5c10.1-6.7,21.2-10.8,33.4-11.3c4.2-0.2,8.4-0.4,12.6-0.9
		c4.5-0.5,8.9,0,13.2,1c13.5,3.2,26,8.8,37.3,16.8c6.7,4.7,12.4,10.7,16.8,17.7c5.2,8.2,9,17,11.5,26.4c2.8,10.8,2.7,21.7-0.1,32.5
		c-1.5,5.7-3.2,11.4-5.5,16.8c-4.2,9.5-10.8,17.2-19.1,23.6c-8.7,6.8-18.2,11.6-28.6,15C-148-123.2-149.2-122.8-150.2-122.3z
		 M-110.2-139.8c-0.6,0.3-1.1,0.5-1.7,0.8c-0.1-0.2-0.2-0.4-0.4-0.5c0.5-0.4,1-0.7,1.6-1.1C-110.6-140.3-110.4-140-110.2-139.8z
		 M-143.8-120.8c0-0.2-0.1-0.4-0.1-0.5c0.5-0.1,1-0.3,1.5-0.4c0,0.2,0.1,0.4,0.1,0.6C-142.8-121-143.3-120.9-143.8-120.8z
		 M-137.7-123.2c3.5-0.8,6.8-1.6,10-2.4C-133.7-122.7-135.9-122.3-137.7-123.2z M-123.9-125.9c0,0-0.1-0.3-0.2-0.4
		c0.5-0.2,1-0.4,1.6-0.6c0.1,0.2,0.1,0.4,0.2,0.6C-122.8-126.1-123.4-126-123.9-125.9z M-113-135.8c-0.1,0-0.1,0-0.2,0.1
		c0,0-0.1,0-0.1,0c-1.5,1.9-3.8,2-6.3,2.8c1.7-1.8,2.1-2,6.3-2.8c0,0,0,0,0.1-0.1C-113.2-135.8-113.1-135.8-113-135.8
		c0.9-0.4,1.8-0.8,2.8-1.2c0.1,0.3,0.1,0.5,0.2,0.8C-111-136.1-112-136-113-135.8z M-107.5-143.3c1.6-2.9,2.9-3.6,8.4-5
		c0.1,0.3,0.3,0.5,0.4,0.8C-101.5-146.3-104.3-144.9-107.5-143.3z M-102-151.1c1.9-1.9,4-2.4,6.1-2.8
		C-97.4-152.1-97.4-152.1-102-151.1z M-94.2-157.7c-0.1,0-0.2,0-0.3-0.1c-0.1-0.1-0.2-0.1-0.3-0.2l0,0c0.1-0.1,0.3-0.3,0.4-0.4
		c0,0,0.1,0,0.1,0c0.2,0.1,0.4,0.3,0.7,0.5C-93.8-157.8-94-157.7-94.2-157.7z M-95.2-161.5c2.3-1.5,2.3-1.5,3.5-0.3
		C-92.9-161.7-93.8-161.6-95.2-161.5z M-92.2-166.3c0-0.2-0.1-0.4-0.1-0.6c0.5-0.1,1-0.2,1.5-0.3c0,0.2,0.1,0.4,0.1,0.6
		C-91.2-166.5-91.7-166.4-92.2-166.3z M-89.1-182.5c-0.2-0.2-0.3-0.4-0.5-0.6c0.7-0.6,1.3-1.1,2-1.7c0.2,0.3,0.5,0.6,0.7,0.9
		C-87.7-183.5-88.4-183-89.1-182.5z M-88.5-188.5c-0.4-4.8-0.3-5.1,2.2-5.7C-85.2-189.5-85.7-188.4-88.5-188.5z M-88-198.4
		c0.6-0.1,1.2-0.2,1.8-0.2c0.1,0.2,0.1,0.4,0.2,0.6c-0.6,0.2-1.2,0.3-1.8,0.5C-87.9-197.8-87.9-198.1-88-198.4z M-86.2-201.6
		c-0.8-0.3-1.6-0.5-2.7-0.9c0.6-0.4,1-0.8,1.1-0.8c0.7,0.3,1.3,0.7,1.9,1C-86-202-86.1-201.8-86.2-201.6z M-86.3-206.5
		c-0.8-0.2-1.5-0.3-2.3-0.5c0-0.2,0.1-0.5,0.1-0.7c0.8,0.1,1.6,0.1,2.3,0.2C-86.2-207.2-86.2-206.8-86.3-206.5z M-90.3-211.2
		c1.7-1,1.7-1,4,0.2C-88-211.1-88.9-211.1-90.3-211.2z M-92-216c2.6-2,3.3-1.8,5,1.1C-89.1-215.4-90.3-215.7-92-216z M-90.2-220.6
		c-1.3-0.2-3.3,0.8-3.5-2.5c2,0.2,3.7,0.4,5.3,0.6C-87.9-220.4-89.1-220.5-90.2-220.6z M-89.7-225.6c-1.7-0.3-3.5-0.6-5.2-0.8
		c0-0.3,0.1-0.6,0.1-1C-92.9-227.7-91-227.9-89.7-225.6z M-91.4-230c-1.8-0.3-3.7-0.5-5.5-0.8c0-0.3,0.1-0.6,0.1-0.9
		c1.8,0.3,3.7,0.6,5.5,0.9C-91.3-230.5-91.4-230.3-91.4-230z M-93.3-236.2c1.3,0,1.5,0.9,1.4,2.2c-2.6,0.1-5.2,0.1-7.5-0.9
		c0.1-0.4,0.1-0.9,0.2-1.3C-97.3-236.2-95.3-236.2-93.3-236.2z M-87.3-245.7c-2.3,0.2-3.2-1.7-4-3.7c1.5-1.2,2.8-2.3,4.6-3.8
		c-2.9-1.3-4.6,0.4-6.7,1.1c-2.1-1.8-3.7-4.1-4.9-7c3.3-2.4,6.2-4.5,9.4-6.9c0.7,1.1,1.4,2,2.3,3.5c-3.5,1.4-6.5,2.7-9.7,4
		c1,1.8,1.8,3.2,2.7,4.7c2.9-0.1,5.2-1.9,7.5-3.6c0.4-0.3,0.1-1.6,0.1-3.1c1.2,2.3,2.2,4.3,3.3,6.2c1,1.9,2.1,3.7,3.3,5.7
		C-82-246.7-84.6-245.9-87.3-245.7z"/>
	<path id="inside_watch" class="st0" d="M-140.1-224.9c-4.8-3.9-10.4-5.9-16.1-7.9c-5.6-2-11.3-2.4-17.1-2.1
		c-7.7,0.4-14.5,3.7-20.7,7.8c-12.6,8.2-19.1,21.8-16.7,37.3c2.3,14.9,16.5,28.1,28.8,30.1c5.8,0.9,11.7,1.6,17.5,2.4
		c0-0.2,0-0.3,0.1-0.5c2-0.1,4.1-0.4,6.1-0.3c2.7,0.1,5.3-0.5,7.6-1.9c6.2-3.9,11.5-8.8,14.5-15.6c1.5-3.4,2.4-7.1,3.9-10.5
		c4.1-9.7,3.2-19.3-0.3-28.9C-134-219.1-136.8-222.2-140.1-224.9z M-135.3-186c-1.1,2.3-1.7,4.8-2.5,7.1
		c-2.5,7.1-7.4,11.8-14.3,14.9c-7.7,3.5-15.6,3.4-23.7,2.2c-4.8-0.7-9.5-1.7-13.7-4.2c-10.5-6.4-17.7-15.3-18.7-27.9
		c-0.6-7.6,1-14.9,5.8-21.1c1.9-2.4,4-4.8,6.1-7c1.2-1.3,2.7-2,4.2-1.1c4.9-5.1,10.8-7.9,17.4-8.4c13.6-1.1,25.7,2.8,35.7,12.2
		c1.8,1.7,3.1,4,4,6.3C-131.6-204-131-195-135.3-186z"/>
	<path id="outside_watch_1_" class="st0" d="M-109.9-222.2c-1.2-2.2-2.4-4.5-3.8-6.5c-4.3-5.9-7.9-12.4-14-16.8
		c-1.7-1.2-3.3-2.4-5-3.6c-8.3-5.8-16.9-10.9-27-13.4c-13-3.2-25.8-2-38.5,1.5c-4.1,1.1-8.1,2.2-11.6,4.8
		c-7.7,5.7-14.8,11.9-19.7,20.4c-3.7,6.4-7.5,12.7-9.5,19.8c-1.1,3.8-1.7,7.8-2.4,11.7c-1.2,6.8-1.8,13.5-0.6,20.4
		c1.8,10.9,5.3,21.2,10.6,30.9c0.9,1.6,1.8,3.2,3.1,4.4c4.7,5,9.5,9.9,14.4,14.6c7.8,7.5,17.4,11.3,27.9,13.1
		c2.2,0.4,4.6,0.1,6.4,0.1c6,0.8,11.3-0.4,16.3-2.7c5.7-2.6,11.2-5.5,16.8-8.4c2.4-1.2,4.8-2.4,6.9-4c8.4-6.6,17-13,24-21.2
		c0.4-0.5,0.7-1.2,1-1.9c0.6-1.4,1.2-2.9,1.9-4.3c3.5-6.7,6.9-13.5,8.1-21.1C-102.6-197.5-103.4-210.2-109.9-222.2z M-121.5-194.2
		c1.1,0.3,2.3,0.4,3.5,0.4c3.7,0,7.4,0,11.1,0c1.7,8.1-5.2,25.8-11.3,33.2c-2.7-0.2-4.1-3.7-7.4-3.2c0.1,3.7,3.9,3.9,5.5,6.4
		c-0.9,2.2-2.5,3.9-4.3,5.5c-5.1,4.3-10.3,8.6-15.5,12.8c0.2-1.1,0.2-2.3,0.3-3.4c0,0-0.1,0-0.1,0c-0.1-1.4-0.1-2.9-0.3-4.3
		c-0.2-1.3-2.1-2.5-3.5-2.2c-1.4,0.3-2,1.5-1.7,2.7c0.7,2.8,1.6,5.5,2.5,8.2c0.1,0.2,0.4,0.5,0.8,0.7c-1.2,0.9-2.6,1.8-3.9,2.5
		c-5.9,3-11.8,6-17.8,8.9c-1.5,0.7-3.1,1.2-4.8,1.6c-3.8,0.9-4.8,0.2-5.1-3.7c-0.3-3.5-0.5-7-0.7-10.4c-0.1-1.4-0.1-2.9-1.6-3.8
		c-1.6,0.4-1.7,1.7-1.6,2.9c0.1,2.6,0.3,5.3,0.3,7.9c0.1,2.5,0,5,0,7.4c-9.1,1.7-27.6-3.6-33.3-11.6c2-3,4.8-5.3,7.5-7.6
		c0.8-0.7,1.7-1.4,2.3-2.3c0.2-0.3,0-1.2-0.2-1.6c-0.2-0.3-0.9-0.4-1.3-0.3c-0.8,0.3-1.5,0.8-2.1,1.3c-1.7,1.3-3.3,2.9-5.1,4.1
		c-1.4,0.9-3,1.3-4.5,2c-1.2,0.6-2.1,0.3-2.9-0.6c-4.1-4.8-9.2-8.9-12.2-14.6c-0.2-0.3-0.2-0.7-0.3-1.3c3.3-2.3,6.6-4.6,9.9-7
		c1.1-0.8,3.5-1.5,2.1-3.4c-1.2-1.5-2.5,0.4-3.6,1.1c-2.6,1.5-5.1,3.1-7.7,4.7c-0.7,0.4-1.5,0.5-2.4,0.8c-0.4-0.6-0.9-1-1.1-1.5
		c-3.7-8.7-6.2-17.7-7.3-27.1c-0.1-0.7-0.1-1.4-0.1-2.2c0-3.4,0.3-3.7,3.7-3.7c4.5,0,8.9,0.1,13.4,0.1c0.6,0,1.3,0.2,1.8,0
		c0.6-0.3,1.1-0.9,1.3-1.5c0.1-0.4-0.4-1.3-0.8-1.4c-1.2-0.4-2.6-0.7-3.9-0.7c-3.7-0.1-7.5-0.1-11.2-0.2c-3.2-0.1-3.7-0.6-3.4-3.6
		c0.6-6.1,1.4-12.2,4.2-17.8c2-3.9,4.1-7.6,6.2-11.4c0.6-1,1.4-1.8,2.2-2.7c3.6,2.8,5,7.3,9.3,8.8c0.2,0.1,0.6-0.3,1.1-0.6
		c-2.7-3.8-5.2-7.4-8.1-11.5c0.5-0.7,1.2-1.8,2.1-2.9c1.5-1.7,3.1-3.4,4.7-5c2-2.1,3-2.2,5.1-0.1c2.3,2.3,4.6,4.7,8,5.3
		c0.7,0.1,1.4,0.1,2.3-0.4c-1.9-1.3-3.9-2.5-5.6-4c-1.7-1.6-3.1-3.6-4.6-5.4c2.4-2.8,4.8-4.7,7.8-5.7c8.3-2.9,16.9-4.8,25.7-5.3
		c2.6-0.2,3,0.3,3,3.1c0,4.3,0.1,8.6,0.2,13c0,1,0.5,1.9,0.9,3c2.1-0.6,2.2-1.8,2.2-3.2c-0.2-2.9-0.4-5.8-0.4-8.7
		c-0.1-7.1,0.6-7.6,6.9-6.3c4.2,0.9,8.5,1.9,12.5,3.5c4.4,1.8,8.6,4.3,12.8,6.5c0.6,0.3,1.3,0.7,1.8,1c-1.6,3.7-4,6.6-2.6,10.6
		c4-0.9,3.8-5.3,6.4-7.5c9.5,4.7,14.1,13.6,20,22c-2.7,1.3-5,2.3-7.2,3.4c-1.2,0.6-3.3,1.1-2.5,2.8c0.9,1.9,2.3,0.2,3.6-0.3
		c2.4-1.1,4.8-2,7.3-3c2.8,2.8,4.1,6.2,5,9.7c0.9,3.6,1.5,7.3,2.1,11c0.5,3.2-0.2,3.9-3.4,4c-3,0-6,0-9-0.1c-0.7,0-1.5-0.2-2.2,0
		c-0.5,0.1-1.3,0.6-1.3,0.9C-122.3-195.2-121.9-194.3-121.5-194.2z"/>
	<g id="animation_1_" class="st1">
		<circle id="dot" class="st2" cx="-168.5" cy="-198.3" r="7"/>
		<g id="time" class="st3">
			<path class="st0" d="M-168.7-196.8c-0.2-4.6,0-9.1,0.3-13.6c0.3-4.5,0.8-9,1.4-13.4c0.6-4.5,1.4-8.9,2.3-13.3
				c0.9-4.4,2-8.8,3.4-13.1c0.2,4.6,0,9.1-0.3,13.6c-0.3,4.5-0.8,9-1.4,13.4c-0.6,4.5-1.4,8.9-2.3,13.3
				C-166.2-205.5-167.2-201.1-168.7-196.8z"/>
		</g>
	</g>
</g>
<g id="scoring">
	<g id="animation" class="st1">
		<path id="_x31_" class="st2" d="M-365.3-201.9c-0.1,1,0,18.6-0.3,21.4c-0.1,0.8-0.1,4.3-0.1,5.1c-0.3,2.6-0.2,5.1-0.1,7.7
			c0,1-0.1,2.1-0.3,3.1c-0.1,0.6-0.4,1-0.9,1.1c-3.7,1-7.3,1.2-11,0.2c-1.7-0.4-2.2-1.4-1.6-3.3c0.3-1,0.4-2.1,0.4-3.2
			c0.2-3.8,0.5-7.5,0.7-11.3c0.2-2.3,0.3-4.6,0.5-6.9c0.2-2.1,0.2-16.5,0.2-17.8c0-2,0-3.8,0.1-5.8c0-0.8,0-1.6,0.1-2.5
			c0-0.4,0-0.9-0.1-1.4c0-0.3-0.2-0.6-0.5-0.7c-0.4-0.2-0.7,0-0.9,0.3c-0.9,1.1-2.2,2.1-3.3,3.1c-1.5,1.5-2.6,1.8-4.8,0.2
			c-1.3-0.9-2.6-2.1-3.8-3.1c-0.8-0.7-1.2-1.6-1.3-2.7c-0.1-1.2-0.2-2.5,0.6-3.6c0.2-0.3,3-3.3,3.9-4.6c2.3-3.2,4.4-6.5,7-9.5
			c0.7-0.9,3.4-5.1,4.1-5.2c1.6-0.1,3.2-0.2,4.7,0c1.7,0.2,3.4,0.5,5.1,0.8c1.2,0.2,1.5,0.5,1.7,1.8c0.1,1.2,0.1,2.5,0.1,3.7
			c0,0.3,0,0.7,0,1h0.1C-365.1-232.7-365.2-203.6-365.3-201.9z"/>
	</g>
	<path class="st0" d="M-328.9-147.5c-1.8-4.9-1.1-10.1-1.3-15.2c-0.3-7.7,0.4-15.4,0.3-23.1c-0.1-16.3-0.4-32.6-0.6-48.9
		c0-3.4-0.3-6.9-0.1-10.3c0.1-3.1,0.5-6.1,0.9-9.2c0.4-3.4,0.2-3.6-3.3-3.7c-0.6,0-1.2,0-1.8,0c-8.1,0.2-16.1,0.5-24.2,0.6
		c-14.7,0.1-29.5,0.1-44.2,0.1c-22.4,0-44.7,0.1-67.1,0.1c-19.6,0-39.2-0.2-58.8-0.2c-8.9,0-17.8,0.2-26.7,0.3c-2.1,0-2.6,0.9-2,3.1
		c0.5,1.9,1.3,3.9,1.4,5.8c0.6,8.5,1.1,17.1,1.5,25.6c0.9,17.9,1.9,35.8,2.6,53.8c0.3,8.9,0,17.8,0,26.7c0,1,0,2,0,3.6
		c1.3-0.4,1.9-0.3,2.1-0.6c2.3-3.1,5.6-3.1,9-3.1c5,0,10,0.1,15-0.3c10-0.8,19.9-0.9,29.9-0.6c7,0.3,14,0.1,21,0.3
		c8.4,0.3,16.9,1,25.3,1c17,0,34-0.2,51-0.4c8-0.1,15.9-0.2,23.9-0.5c10.3-0.5,20.6-1.2,31-1.8c3.8-0.2,7.5-0.4,11.4-0.6
		c0.4,0.7,0.9,1.6,1.5,2.6C-329.2-144.3-328.3-145.8-328.9-147.5z M-548.6-254.1c15.2-0.3,30.4-0.7,45.6-0.8
		c14.3,0,28.5,0.4,42.8,0.5c14.3,0.1,28.5,0.2,42.8,0.2c6.8,0,13.5-0.3,20.3-0.3c6.4-0.1,12.8,0.1,19.2,0.1
		c11.4-0.1,22.8-0.3,34.2-0.4c2,0,4,0,6.8,0c-1,0.8-1.3,1.3-1.8,1.5c-4,1.7-8,3.1-12.6,3.5c-18.6,1.7-37.3,0.8-55.9,1.2
		c-10.9,0.2-21.8,0.3-32.7,0.3c-8.6,0-17.1,0-25.7-0.4c-7.2-0.4-14.4,0.3-21.5,0.1c-10-0.4-20-0.5-29.9-0.5
		c-8.3,0-16.6,0.3-24.9,0.7c-4.2,0.2-7.3-1.3-10.3-5.1C-550.7-253.8-549.6-254-548.6-254.1z M-340.1-154.6c-0.8,0-1.9,0-2.9,0
		c-7.7-0.1-15.4-0.3-23.2-0.2c-8.6,0.1-17.1,0.4-25.7,0.6c-3.4,0.1-6.9,0.1-10.3,0.2c-3.2,0.1-3.7-0.2-3.9-3.5
		c-0.4-6.2-0.7-12.3-1-18.5c-0.5-7.8-1.1-15.7-1.6-23.5c0-0.5-0.1-0.9-0.2-1.4c-0.6-13.4-1.2-26.8-1.8-40.3c0-0.5,0-1,0-1.4
		c0.1-3.3,0.3-3.6,3.8-3.6c13.2-0.1,26.4,0,39.6-0.1c2.7,0,5.5-0.3,8.2-0.4c2,0,4-0.6,5.9,0.5c0.7,0.4,2,0,3-0.3
		c2.6-0.7,5.3-1.2,8.1-0.9c0.2,0.8,0.4,1.4,0.5,1.9c0.2,9.7,0.5,19.5,0.6,29.2c0.2,10.5,0.1,20.9,0.4,31.4c0.2,7,0.9,14,1.2,21
		C-339.3-161-339.8-158-340.1-154.6z M-469.9-225.5c0.7,13,1.4,26.1,2.1,39.1c0.1,0.9,0.1,1.9,0.2,2.8c0.3,9.6,0.6,19.2,0.9,28.9
		c0,0.5-0.1,0.9-0.2,1.6c-1,0.2-1.9,0.5-2.8,0.5c-21.5,0.1-43,0.2-64.5,0.3c-4.5,0-6.7-2.1-6.9-6.6c-0.3-7.8-0.4-15.7-0.7-23.5
		c-0.4-10.3-1.1-20.6-1.2-31c-0.1-9.8,0.3-19.7,0.4-29.6c0-1.9,0.9-2.8,2.8-2.9c6.2-0.3,12.3-0.7,18.5-0.9c4.4-0.2,8.8-0.3,13.2-0.2
		c11.2,0.1,22.3,0.4,33.5,0.6c2.8,0.1,3,0.2,3.3,3C-470.8-237.4-470.3-231.4-469.9-225.5z M-549.4-145.8c-0.1-0.4-0.2-0.9-0.2-1.3
		c0.2-14.6-0.8-29.2-1.4-43.8c-0.6-16.1-1.3-32.3-2.8-48.4c-0.2-2.1-0.2-4.3-0.1-6.4c0.1-1.4,0.4-2.7,0.8-4.6c2.8,2.2,5.2,4,7.3,6
		c0.7,0.7,0.8,2.2,0.8,3.3c0,6.2-0.3,12.4-0.2,18.5c0.1,11.3,0.3,22.6,0.6,33.9c0.3,10.6,0.7,21.1,1.1,31.7c0,0.4,0,0.7,0.1,1.1
		c0.1,1.5,0.8,3.4,0.2,4.5c-1.3,2.3-3.4,4.1-5.2,6.1C-548.8-145.5-549.1-145.6-549.4-145.8z M-466.2-145.6c0,0-77.8,0.2-78.1,0.2
		c0.9-2.3,2.3-3.7,4.7-3.7c6.6-0.2,13.3-0.3,19.9-0.4c8.2-0.1,16.4,0,24.5-0.1c8.7-0.1,17.3-0.2,26-0.2
		C-465.9-149.8-465.6-149.2-466.2-145.6z M-465-179.6c-0.3-4.9-0.9-9.7-1.2-14.6c-0.2-2.8-0.4-5.7-0.5-8.5c-0.4-8.7-0.8-17.3-1.3-26
		c-0.3-4.6-0.8-9.2-1-13.8c-0.2-3.3,0.2-3.7,3.6-3.7c5.4,0,10.7,0.1,16.1,0.1c10.2,0,20.4,0,30.6,0c7.3,0,5.9,0,6.2,5.8
		c0.3,8.2,0.8,16.4,1.2,24.6c0.1,2.4,0,4.7,0,7.6c-3.6,0.3-6.9,0.8-10.3,0.9c-10.2,0.2-20.5,0.2-30.7,0.2c-1.4,0-2.7,0.2-4.2,0.3
		c0,3.3,0,6.2,0,9.6c0.7,0.1,1.7,0.3,2.7,0.2c9.3-0.9,18.5-0.7,27.8-0.2c2.2,0.1,4.5-0.2,6.8-0.1c1.9,0.1,3.8,0.5,6.3,0.8
		c0.2-0.2,0.9-0.8,1.9-1.8c0.2,0.9,0.5,1.4,0.5,2c0.6,10.6,1.1,21.1,1.7,31.7c0.1,2.4,0.4,4.7,0.5,7.1c0.1,3.2-0.2,3.6-3.3,3.6
		c-6.8,0.1-13.6,0.1-20.3,0.3c-8.8,0.2-17.6,0.6-26.4,0.9c-0.8,0-1.7,0-2.5,0c-1.9,0-2.8-0.9-2.9-2.8
		C-464.3-163.5-464.6-171.6-465-179.6z M-410.9-205c0,1.1-0.1,2.1-0.2,3.2c-0.2,0-0.4,0-0.6,0c0-1.1,0-2.1,0-3.2
		C-411.4-205-411.2-205-410.9-205z M-417.6-200c-5.7,0.1-11.4,0-17.1,0c0,0,0,0,0,0.1c-4.9,0-9.7,0-14.6,0c-0.8,0-1.7,0-2.5,0
		c-1.2-0.1-2-0.6-2.1-1.9c-0.1-1.4,0.4-2.4,1.8-2.6c1.9-0.2,3.8-0.4,5.7-0.4c9.6-0.1,19.2-0.2,28.9-0.3c2.4,0,3.1,0.3,3.2,1.8
		C-414.3-201.2-415.3-200.1-417.6-200z M-339-147.4c-3.1,0.2-6.2,0.6-9.2,0.7c-13.4,0.6-26.8,1.3-40.2,1.6
		c-20.8,0.4-41.6,0.5-62.3,0.7c-3.9,0-7.8-0.3-12-0.4c-0.2-1.8-0.4-3-0.5-4.6c1.3-0.2,2.4-0.4,3.5-0.5c13.1-0.3,26.1-0.6,39.2-0.9
		c2.7-0.1,5.5-0.4,8.2-0.3c1.8,0.1,3.5,0.7,5.3,1c2-0.4,4.1-1.1,6.3-1.1c16.9-0.3,33.7-0.6,50.6-0.8c3.4,0,6.9,0.3,10.3,0.6
		c1.5,0.1,3.1,0.4,3.9,2.1C-336.3-147.6-337.7-147.5-339-147.4z M-333.1-151.9c-1.7-1.3-3.1-2.4-4.5-3.4c1.1-6.6,0.8-13.2,0.3-19.9
		c-0.4-4.6-0.9-9.2-1-13.9c-0.2-15.1-0.3-30.2-0.3-45.3c0-0.7-0.1-1.5,0.1-2.1c2.2-4.6,0.6-9.1-0.8-13.9c1.9-0.8,3.7-1.6,6.2-2.7
		C-332.6-219.2-332.1-185.8-333.1-151.9z"/>
	<path class="st0" d="M-481.1-199.7c0.3-0.3,0.6-0.7,1-1c2-1.9,3.9-3.9,4.6-6.7c1.2-4.9,1.5-9.8-0.4-14.7c-1.4-3.5-2.6-7.1-3.8-10.7
		c-0.4-1.3-1-2.1-2.4-2.3c-3.8-0.5-7.5-1.3-11.3-1.3c-9,0-18.1,0.4-27.1,0.7c-1.1,0-2.3,0.8-3.1,1.1c0.4,2.4,0.7,4.2,0.9,6.1
		c0.1,1.8,1,2.7,2.7,2.7c4.5,0.2,9,0.3,13.5,0.4c3.7,0.1,7.4,0,11,0.1c1.5,0,2.8,0.6,3.4,2.2c1.5,3.7,2.8,7.3,2.4,11.4
		c-0.6,5.3-2.7,7.3-8,7.5c-5.1,0.2-10.2,0.4-15.3,0.7c-1.2,0.1-2.3,0.2-3.9,0.4c0.2,1.4,0.3,2.2,0.4,3c0.9,4.6,1,4.4,5.8,4.7
		c4.5,0.2,9,0.9,13.5,1.3c1.7,0.2,2.9,1.1,3.6,2.6c0.8,1.9,1.7,3.7,2.1,5.6c1.1,5-1.5,8.9-6.5,10.1c-2.7,0.6-5.4,0.9-8,1.6
		c-3.9,1-6.7-0.6-9.2-3.2c-0.4-0.4-0.7-0.9-1.1-1.4c-1.7-2.1-4-2-6.2-1.5c-2.2,0.5-1.8,2.6-2,4.1c-0.2,1.3-0.1,2.6-0.1,3.9
		c0.1,2,0.9,3.7,2.4,5c4.9,3.9,10.2,6.5,16.8,5.1c1.3-0.3,2.8,0,4.2,0.1c1.9,0.1,3.8,0.4,5.6,0.1c3.3-0.4,6.5-1.2,9.8-1.7
		c2.4-0.3,4.3-1.3,5.8-3.2c3.2-4.1,5.4-8.7,5.5-14c0-1.7,0.1-3.3,0.1-5C-474.6-194.7-474.6-194.7-481.1-199.7z M-477.9-177.9
		c-0.4,3.9-2.8,7-5.1,10c-0.3,0.4-0.9,0.9-1.4,1c-3.1,0.6-6.4,1.9-9.4,1.5c-3.9-0.4-7.6,0.1-11.3,0.6c-5.5,0.8-10.1-0.7-14.3-4.1
		c-2.2-1.7-3.1-4.7-2.2-7.3c0.5-1.5,1.8-1.9,3.1-0.9c1.5,1.2,2.8,2.5,4.3,3.8c2.1,1.8,4.7,2.3,7.4,1.9c3.2-0.6,6.3-1,9.5-1.8
		c6.2-1.5,9.9-7.3,8.3-13.5c-0.7-2.7-2-5.3-3.4-7.8c-0.5-1-2-1.8-3.2-2c-4.8-0.7-9.7-1.1-14.5-1.6c-0.5,0-1,0.1-1.4-0.1
		c-0.6-0.3-1.3-0.8-1.4-1.3c0-0.5,0.7-1.3,1.2-1.4c2.1-0.3,4.2-0.5,6.4-0.6c0.9-0.1,1.9,0,2.9,0c0,0,0,0.1,0,0.1c2,0,4,0.1,6.1,0
		c4-0.2,6.7-2.2,8.2-5.9c1.5-3.7,2-7.6,0.6-11.5c-0.1-0.2-0.2-0.5-0.2-0.7c-2.6-8.2-4.7-9.4-13.4-8.9c-5.3,0.3-10.7,0-16,0
		c-0.7,0-1.6,0-2.1-0.4c-0.7-0.5-1.4-1.4-1.4-2.1c0-0.7,0.8-1.5,1.4-2.1c0.3-0.3,0.9-0.3,1.4-0.3c6.2-0.3,12.4-0.9,18.5-0.8
		c4.8,0,9.7,0.9,14.5,1.3c1.8,0.1,2.7,1.1,3.3,2.7c1.2,3.2,2.4,6.5,3.6,9.7c1.7,4.3,0.8,8.7-0.1,13c-0.6,3-3.2,4.6-6,5.6
		c-0.7,0.2-1.4,0.2-2.1,0.4c-0.7,0.3-1.3,0.8-2,1.2c0.5,0.7,0.9,1.6,1.7,2c1.4,0.7,2.9,1.1,4.3,1.6c3.3,1.1,5.1,3.4,5,7
		C-477.4-185.7-477.5-181.8-477.9-177.9z"/>
	<path id="_x30_-outside" class="st0" d="M-355.2-224.5c-0.3-2.9-1-5.9-1.8-8.7c-0.8-2.8-2.6-4.7-5.8-4.9c-3.3-0.2-6.6-0.4-9.9-0.6
		c-3.8-0.2-7.6,0-11.4-0.6c-5.9-0.8-10,1.9-13.8,5.7c-1.6,1.5-2.4,3.4-2.7,5.7c-1.8,11.9-2.3,23.9-2.1,35.9c0,5.5,0,10.9,0,16.4
		c0,3.1,0.5,6.2,3.3,7.9c3,1.8,6.1,3.4,9.9,3.6c8.3,0.3,16.6,0.1,24.9-0.6c2.4-0.2,4-1.2,4.9-3.4c4.5-10.5,7.1-21.5,6.9-32.9
		C-353.1-208.9-354.3-216.7-355.2-224.5z M-356.6-187.9c-1.1,5.9-3.4,11.6-5.2,17.4c-0.7,2.2-2.2,3.1-4.5,3.2
		c-4.3,0.1-8.5,0.7-12.8,0.8c-1.6,0.1-3.2-0.5-4.8-0.8c-1.3-0.2-2.6-0.3-3.9-0.5c-2.1-0.3-4.3-0.5-6.3-1c-4.1-1-5.5-2.7-5.6-7.1
		c-0.1-4.5,0-9,0-13.5c-0.3,0-0.7,0-1,0c0.6-10.7,1.2-21.3,1.9-32c0.2-2.5,0.7-4.9,1.3-7.4c1.1-4.5,7.3-8.4,12.6-8.1
		c5.1,0.2,10.2,0.4,15.3,0.6c1.4,0.1,2.8,0.2,4.3,0.3c3.7,0.3,5.9,2.4,6.6,5.9C-356.2-216.1-353.9-202-356.6-187.9z"/>
	<path id="_x30_" class="st0" d="M-366.6-228.2c-6.2-2-12.4-3.2-18.9-2c-5.1,1-5.8,1.4-6.5,6.5c-1,6.7-1.7,13.4-2.3,20.1
		c-0.4,4.4-0.9,8.8-0.7,13.1c0.2,4,1.1,8,2,11.9c0.5,2.1,2,3.5,4.3,3.6c2.7,0.2,5.4,0.3,8.2,0.4c0-0.2,0-0.3,0-0.5
		c3.1,0,6.2,0.1,9.2,0c3.3-0.1,5.2-1.9,6.1-5c1.5-5.2,2.5-10.4,2.6-15.7c0.1-4.3,0-8.6,0.7-12.8c0.8-5.3,0.4-10.3-0.9-15.4
		C-363.3-226.1-364.5-227.5-366.6-228.2z M-391-210.8c0.5-4,1.1-8,1.7-12c0.2-1.6,0-3.8,1.8-4.4c2.1-0.7,4.5-1.2,6.5-0.8
		c1.6,0.3,3.2,0.5,4.8,0.4c4.2-0.4,7.1,0.6,10.1,3.3c-1.2,3.2-21.1,25.6-26.1,29.3c-0.1-0.9-0.4-1.7-0.3-2.4
		C-392.1-201.8-391.6-206.3-391-210.8z M-367.3-181.4c-0.7,2-1.8,3.1-4,3.5c-5.2,1.1-10.4,0.7-15.6,0.5c-1.6-0.1-2.9-0.7-3.7-2.4
		c-0.7-1.6-0.6-2.9,0.7-4.1c2.9-2.8,5.7-5.7,8.7-8.4c4.8-4.4,9.6-8.8,14.5-13.2c0.3-0.3,0.8-0.5,1.8-1.1
		C-365-197.7-364.5-189.4-367.3-181.4z M-367.3-207.8c-7.7,6.7-15.2,13.7-22.7,20.5c-0.5,0.4-1.1,0.7-1.8,1.1
		c-1.3-2.2-0.5-3.7,0.9-5.2c7.4-8.3,14.8-16.7,22.2-25c1.1-1.2,2.2-2.4,3.3-3.6c0.3,0.1,0.6,0.3,1,0.4
		C-364-215.5-363.2-211.3-367.3-207.8z"/>
</g>
</svg>
