<?xml version="1.0" encoding="utf-8"?>
<!-- Generator: Adobe Illustrator 23.0.1, SVG Export Plug-In . SVG Version: 6.00 Build 0)  -->
<svg version="1.1" xmlns="http://www.w3.org/2000/svg" xmlns:xlink="http://www.w3.org/1999/xlink" x="0px" y="0px"
	 viewBox="0 0 166.1 157.8" style="enable-background:new 0 0 166.1 157.8;" xml:space="preserve">
<style type="text/css">
	.st0{fill-rule:evenodd;clip-rule:evenodd;fill:#00ABC8;}
	.st1{fill:#00ABC8;}
</style>
<g id="Layer_1">
	<path class="st0" d="M162.5,88.7c-0.5-10.6-2.4-21-6.1-31c-1.9-5.3-4.3-10.2-7.7-14.7c-1.2-1.6-2.5-3.3-3.4-5.1
		c-4.3-8.5-11-14.7-18.7-19.9C114,9.4,100.2,4.2,84.3,4.6c-5.1-0.7-10.4,0.9-15.7,1.7C64.7,6.9,60.9,7.8,57.1,9c-3.1,1-6,2.4-9,3.7
		c-6.4,2.6-12.5,5.8-17.7,10.6C22.9,30.3,17.7,39,12.9,48c-1.4,2.6-3.1,5.1-4.2,7.9c-1.9,4.8-2.9,9.9-3.8,15
		C4,75.6,3.1,80.5,3.7,85.4c0.5,4,1,8.1,1.5,12.1c0.2,1.3,0.4,2.7,0.7,4c3.8,13.2,12.5,23,22.3,31.9c6.8,6.2,15.2,9.9,23.6,13.3
		c10.6,4.4,21.6,6.9,33.3,6.5c7.1-0.3,14-1.4,20.8-3c10.4-2.5,20.5-6.2,29.3-12.6c6.4-4.7,12.8-9.4,17.7-16
		C160.2,111.7,163,100.7,162.5,88.7z M14.1,60.9c1.2-8.4,3.6-16.4,8.4-23.5c3.6-5.2,7.3-10.5,12.7-14.1C38.7,21,42.3,18.8,46,17
		c12.5-5.9,25.3-10.6,37.8-9.7c16.9-0.3,30.2,5.2,42.6,13.8c14.5,10.1,21.1,24.5,22.7,41.6c0.2,2.6,0.4,5.1,0.7,7.7
		c1.3,12.2-3,22.5-9.8,32.3c-7.8,11.2-18.9,18.5-30.1,25.7c-4.9,3.1-10.5,4.5-16.2,4.9c-9.4,0.6-18.6-0.8-27.8-2.7
		c-10.5-2.2-18.8-8-27.4-13.7c-2.2-1.5-4.2-3.5-6-5.5c-4-4.6-9.5-7.8-12.7-13c-3.1-5-5.2-10.3-5.7-16.3C13.5,75,13.1,68,14.1,60.9z
		 M142.7,105.1c-0.3,9.9-19,24.8-29.1,24.9c1.5-1.1,2.5-2.1,3.7-2.8c6.6-4.4,12.6-9.4,18.6-14.4c1.7-1.4,3.1-3,4.1-5
		C140.5,106.6,141.1,105.3,142.7,105.1z M37.7,121.9c-5.1-1.9-6.6-3.1-10.1-8.4C32.1,115.7,34.4,119.4,37.7,121.9z M150.1,116.7
		c-2.4,5.3-6.7,9-11.2,12.1c-8.2,5.8-17.1,10.7-26.6,13.9c-11.2,3.7-22.8,4.4-34.6,3.3c-8.4-0.7-16.6-2.2-24.6-5.3
		c-11.9-4.6-21.8-12.1-30.5-21.1c-6.1-6.3-11.4-13.3-13.2-22.1c-1.4-7-3-14.1-1.9-21.3c0.1-0.7,0.2-1.4,0.4-2c0.2-0.8,0.6-1.5,1-2.7
		c1.8,4.1,1.5,8.2,1.9,12.1c1.2,12.2,5.3,22.9,13.8,32.3c6,6.6,13,10.9,21.1,13.8c8.2,3,16.1,6.6,25,7.1c8.7,0.5,17.3,1.8,26,1
		c13.9-1.3,26.7-5.7,37.6-14.7c4.7-3.9,7.5-9.1,10.4-14.3c5.4-9.7,6.8-20.5,8.8-31.2c0.6-3.5,0-7-0.5-10.6c-0.2-1.9-0.7-3.7,0.2-5.6
		c3.3,7.7,4.9,15.6,4.8,24C157.7,96.5,154.6,106.7,150.1,116.7z"/>
	<path class="st0" d="M52.3,113.6c7-2.1,13.6-5.2,20.4-7.9c10.6-4.2,21.4-7.5,31.9-11.8c3-1.3,6.3-1.8,9.3-3.1c3-1.3,3.2-4,0.5-5.9
		c-4.1-2.9-8.1-5.9-12.3-8.6c-8.1-5.1-16.5-9.8-24.5-15.1c-7.1-4.6-14.6-8.9-20-15.7c-0.4-0.5-1-0.9-1.6-1.3c-1.7-0.9-3-0.3-3.3,1.5
		c-0.1,0.7,0,1.4,0,2c-0.2,5-0.3,10-0.6,15c-0.5,9.4-1,18.7-1.4,28.1c-0.3,6.9-0.5,13.8-0.8,20.7C49.4,113.8,50.1,114.2,52.3,113.6z
		 M54,95.1c0.3-11.4,0.6-22.8,1-34.2c0.1-2.2,0.3-4.3,0.5-6.5c0.2-2.3,1.1-2.9,2.7-1.6c3.2,2.4,6.8,3.9,10.1,6.1
		c6.4,4.5,12.9,8.9,19.1,13.7c4.4,3.4,9.1,6.3,13.7,9.4c1.9,1.3,3.9,2.5,5.7,3.9c2.5,2,2.4,2.6-0.4,3.7c-3.8,1.5-7.5,3.2-11.4,4.3
		c-5.4,1.5-10.4,3.8-15.6,5.8c-6.6,2.5-13,5.4-19.8,7.2c-1.8,0.5-3.5,1.3-5.5,2C54,104,53.9,99.5,54,95.1z"/>
</g>
<g id="check_mark">
</g>
<g id="volunteer">
</g>
<g id="sponsor">
</g>
<g id="submit_event">
</g>
<g id="hot_spot">
</g>
<g id="Submit_group">
</g>
</svg>
